<svg width="393" height="801" viewBox="0 0 393 801" fill="none" xmlns="http://www.w3.org/2000/svg">
<g clip-path="url(#clip0_1101_3792)">
<path d="M72.7907 641.005C58.5941 640.085 52.8438 637.512 49.9581 634.382C49.9581 634.382 50.583 643.739 52.1803 645.341C59.0259 652.196 84.6107 655.464 96.8871 645.341C98.6318 643.904 99.1619 632.161 99.1619 632.161C94.858 638.057 86.0149 640.973 72.7907 641.009V641.005Z" fill="white"/>
<path d="M79.4854 626.097C63.2315 625.362 55.3679 628.201 51.7907 630.38C49.414 631.828 49.3263 635.232 51.6538 636.761C60.6653 642.671 83.7331 643.595 94.9458 636.926C100.001 633.918 105.123 627.256 79.4889 626.097H79.4854ZM88.8339 635.896C81.5109 639.53 64.8253 639.92 58.5169 635.78C56.888 634.712 56.9512 632.327 58.6152 631.311C61.1217 629.786 66.6262 627.797 78.0109 628.31C95.9603 629.122 92.5235 634.066 88.8339 635.893V635.896Z" fill="white"/>
<path d="M103.406 664.449C103.15 668.76 102.616 674.294 101.844 680.471C101.145 686.083 100.25 692.221 99.2005 698.468C98.3194 703.721 97.3259 709.037 96.2447 714.185C95.2582 718.9 94.191 723.458 93.0641 727.674C92.0566 731.462 91.0034 734.968 89.9081 738.057C88.9849 740.682 88.03 743.004 87.0611 744.937C85.4813 748.085 83.8559 750.207 82.2165 750.928C81.2441 751.275 80.0049 751.557 78.6112 751.75H78.5971C75.2621 752.224 71.0565 752.2 67.5811 751.416C66.9597 751.279 66.3664 751.114 65.8012 750.928C64.3724 750.404 62.9752 748.946 61.6307 746.746C60.3177 744.621 59.0539 741.806 57.8393 738.482C56.3684 734.438 54.9782 729.642 53.6863 724.427L50.762 711.072L50.7375 710.956C49.9055 706.673 49.1366 702.309 48.4416 697.997C47.4797 691.961 46.6687 686.037 46.0298 680.605C45.3944 675.18 44.9345 670.246 44.6783 666.192C44.4185 662.112 44.3623 658.925 44.5378 657.021C44.7204 655.025 45.0223 653.363 45.3979 651.982C46.8408 646.729 49.407 645.538 50.934 645.32C50.913 646.501 51.5589 647.291 51.9556 647.696C52.5278 648.268 53.2299 648.816 54.0374 649.329C56.9546 651.188 61.3077 652.657 66.2506 653.472C69.7997 654.059 73.6508 654.312 77.4948 654.126C82.5184 653.883 87.5139 652.899 91.7898 650.963C93.7346 650.081 95.532 648.996 97.1082 647.699C97.4804 647.39 98.1965 646.691 98.0701 645.58C100.047 646.346 102.725 648.908 103.473 657.024C103.624 658.651 103.592 661.209 103.406 664.456V664.449Z" fill="white"/>
<path d="M65.6608 582.092C64.8148 582.91 64.8323 584.263 65.6889 585.075C69.0064 588.212 75.9081 596.378 72.5169 607.541C68.2095 621.715 69.4838 625.521 71.4708 633.398C71.7025 634.312 72.5239 634.955 73.4647 634.955H74.5951C75.9151 634.955 76.8981 633.725 76.5997 632.439C75.5009 627.713 73.7596 617.088 77.2702 607.102C80.9317 596.68 72.6573 585.725 69.1538 581.716C68.378 580.827 67.0194 580.77 66.1733 581.593L65.6573 582.092H65.6608Z" fill="white"/>
<path d="M57.3302 695.759L48.438 697.986C47.4761 691.953 46.6652 686.029 46.0262 680.601H53.2861L57.3267 695.759H57.3302Z" fill="black"/>
<path d="M53.2897 680.601V666.188L63.9652 667.681L65.036 678.615L53.2897 680.601Z" fill="black"/>
<path d="M70.1753 695.763H57.3302V707.941H70.1753V695.763Z" fill="black"/>
<path d="M80.3559 662.46L63.9652 667.682L66.2506 653.469C69.7997 654.056 73.6508 654.309 77.4948 654.122L80.3559 662.46Z" fill="black"/>
<path d="M54.0409 649.326L53.2896 666.192H44.6783C44.4185 662.112 44.3623 658.926 44.5378 657.021C44.7204 655.025 45.0223 653.363 45.3979 651.983L45.6507 651.765L54.0374 649.326H54.0409Z" fill="black"/>
<path d="M70.1753 695.763L65.0359 678.616L80.3559 679.611L78.1864 695.763H70.1753Z" fill="black"/>
<path d="M80.356 662.46V679.61H90.533L93.7627 664.449L80.356 662.46Z" fill="black"/>
<path d="M103.406 664.449H93.7627L91.7863 650.956C93.7311 650.074 95.5285 648.989 97.1047 647.692C97.4769 647.383 98.193 646.684 98.0666 645.573C100.043 646.339 102.722 648.901 103.469 657.017C103.62 658.644 103.589 661.202 103.403 664.449H103.406Z" fill="black"/>
<path d="M101.84 680.471C101.142 686.082 100.247 692.221 99.197 698.468L90.533 697.498V679.606L101.84 680.467V680.471Z" fill="black"/>
<path d="M78.1864 695.763L90.533 697.502L89.2938 713.654L79.1588 710.229L78.1864 695.763Z" fill="black"/>
<path d="M70.1754 707.941L79.1589 710.229L80.3559 726.578H69.1819L70.1754 707.941Z" fill="black"/>
<path d="M50.7585 711.069L50.7339 710.953L57.3302 707.941L63.7545 726.578L53.6827 724.428L50.7585 711.069Z" fill="black"/>
<path d="M96.2411 714.185C95.2546 718.901 94.1874 723.458 93.0605 727.674L87.0575 725.587L89.2902 713.658L96.2411 714.185Z" fill="black"/>
<path d="M63.751 726.577H69.1819L71.3128 738.478H61.6237L63.751 726.577Z" fill="black"/>
<path d="M80.3559 726.577L87.0575 725.583V737.642L78.1864 738.144L80.3559 726.577Z" fill="black"/>
<path d="M78.6076 751.75H78.5936C75.2586 752.224 71.053 752.2 67.5775 751.416L71.3092 738.482L78.1864 738.148L78.6076 751.753V751.75Z" fill="black"/>
<path d="M61.6237 738.479V746.743C60.3107 744.617 59.0469 741.802 57.8323 738.479H61.6237Z" fill="black"/>
<path d="M89.9046 738.054C88.9813 740.678 88.0264 743.001 87.0575 744.933V737.643L89.9046 738.054Z" fill="black"/>
<path d="M64.4988 591.628C63.0595 595.749 59.4471 598.827 55.1116 599.316C52.2575 599.636 48.3432 599.4 45.4506 595.679C38.7208 587.025 45.9736 578.051 52.77 579.298C58.1903 580.293 60.732 578.95 60.5038 577.25C60.244 575.31 55.7996 575.226 53.1597 576.347C50.5198 577.464 41.6557 576.059 42.6175 568.272C43.5829 560.486 53.1597 562.412 55.403 565.395C57.6462 568.378 61.1322 573.132 62.4767 569.527C63.8177 565.925 61.0444 564.095 55.8137 562.106C50.7269 560.17 45.3066 550.82 55.3749 544.422C65.4431 538.023 74.8338 550.929 70.3965 560.184C65.9592 569.442 71.4602 570.634 72.4221 568.262C73.384 565.89 82.7466 548.722 94.8439 558.35C106.941 567.977 94.858 578.508 85.8991 575.338C76.9401 572.169 74.7671 575.535 75.1147 577.531C75.4762 579.597 80.2576 583.3 91.9407 579.168C103.624 575.036 115.679 585.567 110.929 596.196C106.179 606.825 87.7351 608.694 77.9196 592.489C68.7536 577.359 66.7034 584.948 66.5208 585.679C66.419 586.094 65.3799 589.091 64.4953 591.628H64.4988Z" fill="#FFC530"/>
<path d="M49.9195 600.437C49.9195 600.437 38.8017 600.437 41.087 586.059C41.087 586.059 34.6943 600.95 49.9195 600.437Z" fill="white"/>
<path d="M41.5573 573.732C41.5573 573.732 37.9555 568.388 42.9896 562.977C42.9896 562.977 35.8351 567.467 41.5573 573.732Z" fill="white"/>
<path d="M56.1332 541.154C56.1332 541.154 65.4712 537.998 70.4386 545.655C70.4386 545.655 66.3138 534.109 56.1332 541.154Z" fill="white"/>
<path d="M103.466 567.355C103.466 567.355 104.157 558.911 95.7883 555.215C95.7883 555.215 107.271 556.599 103.466 567.355Z" fill="white"/>
<path d="M106.639 604.413C106.639 604.413 116.869 601.29 114.935 588.124C114.935 588.124 121.556 602.116 106.639 604.413Z" fill="white"/>
<path d="M106.699 562.246C106.699 562.246 107.601 556.912 101.205 555.219C101.205 555.219 109.476 555.609 106.699 562.246Z" fill="white"/>
<path d="M60.6091 536.438C60.6091 536.438 64.5304 534.987 68.392 538.873C68.392 538.873 64.6287 532.742 60.6091 536.438Z" fill="white"/>
<path d="M37.78 572.836C37.78 572.836 35.4174 568.627 38.8332 564.249C38.8332 564.249 33.6622 567.963 37.78 572.836Z" fill="white"/>
<path d="M42.27 602.207C42.27 602.207 36.1266 600.576 37.3202 592.502C37.3202 592.502 33.269 601.079 42.27 602.207Z" fill="white"/>
<path d="M114.054 603.426C114.054 603.426 118.821 601.543 118.003 594.927C118.003 594.927 121.271 602.123 114.054 603.426Z" fill="white"/>
<path d="M322.661 511.026C334.154 487.783 328.092 465.303 318.48 435.359C292.793 355.328 244.667 361.435 235.515 351.361C226.363 341.284 200.125 317.647 177.401 344.032C165.961 357.313 176.085 370.845 176.085 370.845L181.024 394.386C181.186 395.152 181.919 395.658 182.692 395.535L190.225 394.319C191.584 394.102 192.971 394.302 194.217 394.882C197.654 396.477 205.37 399.432 212.079 397.552C212.079 397.552 196.141 448.11 152.491 437.482C152.543 437.253 152.592 437.014 152.638 436.754C152.656 436.652 152.666 436.554 152.68 436.452V436.438C153.983 428.437 151.023 420.908 150.03 418.676C149.823 418.209 149.236 418.072 148.829 418.385C148.338 418.761 146.589 420.219 147.014 423.992C147.576 428.971 147.088 431.712 146.761 432.889C142.658 429.913 135.44 432.966 131.055 428.49C126.221 423.557 123.111 416.596 122.159 418.56C121.601 419.713 122.911 424.182 124.087 427.682C124.182 427.963 123.781 428.132 123.648 427.865C121.763 424.056 119.242 419.534 117.824 419.801C116.371 420.075 118.059 426.287 119.204 429.994C119.288 430.268 118.909 430.423 118.768 430.173C115.925 425.166 112.119 420.943 111.382 422.429C110.712 423.782 114.201 430.612 115.763 433.543C115.89 433.782 115.581 434.01 115.384 433.824C109.655 428.349 105.232 424.625 105.312 426.916C105.362 428.251 110.48 436.174 115.089 443.044C118.466 448.079 128.008 453.996 140.765 455.011C149.229 464.02 182.811 495.925 224.538 464.01C224.538 464.01 189.411 564.055 234.177 684.648C234.177 684.648 214.202 695.523 205.819 702.224C203.274 704.258 201.751 707.406 202.067 710.649C202.074 710.706 202.077 710.762 202.084 710.818C202.477 714.332 205.83 716.735 209.316 716.162C224.787 713.622 271.895 700.639 277.143 686.166C279.351 680.077 296.019 637.625 287.503 597.435C295.974 625.348 307.049 667.245 312.772 673.707C312.772 673.707 298.069 691.068 292.667 700.347C291.027 703.162 290.743 706.651 292.207 709.56C292.231 709.609 292.259 709.662 292.284 709.711C293.92 712.849 297.676 713.401 300.955 712.08C315.748 706.127 354.049 674.971 353.382 659.589C351.138 607.716 345.079 546.957 322.647 511.034L322.661 511.026Z" fill="white"/>
<path d="M209.389 504.881L200.49 480.848C200.188 480.331 199.606 479.902 199.026 480.046C167.575 487.777 144.434 463.82 140.874 458.95C140.355 458.241 139.509 457.882 138.631 457.942C130.827 458.476 125.101 456.322 120.99 453.423C118.796 458.118 121.485 469.084 121.485 469.084L115.858 472.446C111.277 461.937 114.366 451.326 115.493 448.149C113.773 445.939 112.734 443.905 112.214 442.742C112.035 442.338 111.459 442.299 111.245 442.685C101.577 460.015 109.416 486.61 113.148 497.049C113.822 498.936 112.165 500.805 110.203 500.412C83.8489 495.131 66.9807 504.347 61.0935 508.423C59.7982 509.319 59.5981 511.143 60.6617 512.306L68.392 520.781C69.2064 521.673 70.5439 521.916 71.576 521.294C83.9331 513.848 99.355 515.703 107.703 517.562C111.396 518.384 114.749 520.278 117.347 523.029L139.558 546.539C140.249 547.27 141.288 547.537 142.247 547.228C152.877 543.781 198.233 514.976 208.55 508.381C209.723 507.632 210.092 506.093 209.393 504.888L209.389 504.881Z" fill="white"/>
<path d="M129.851 424.12L131.505 426.217C131.757 426.537 132.235 426.544 132.505 426.238C133.302 425.332 135.106 423.768 138.059 423.768C140.692 423.768 142.805 424.39 143.999 424.847C144.455 425.023 144.925 424.654 144.873 424.169C144.739 422.971 144.76 421.077 145.859 419.678C146.165 419.292 145.926 418.74 145.441 418.645C142.749 418.136 135.91 417.735 129.802 423.382C129.602 423.564 129.683 423.909 129.848 424.12H129.851Z" fill="white"/>
<path d="M357.482 739.694C358.342 748.306 367.722 758.039 378.296 750.477C383.716 746.602 390.737 745.709 395.343 745.685L396.645 764.511L396.024 768.32C392.858 764.156 389.498 757.719 380.104 759.448C359.03 766.38 336.896 741.163 338.293 763.099C339.28 778.552 371.299 786.152 390.144 789.297C386.956 794.392 382.586 798.678 377.408 801.781H377.404C373.827 803.924 369.86 805.502 365.637 806.384C365.212 803.9 363.334 797.691 355.052 788.987C343.036 770.477 298.368 765.312 295.995 784.859C294.541 796.862 305.164 803.71 313.586 807.209H295.057C291.08 802.322 289.872 795.467 285.73 792.417C279.969 788.183 271.86 797.902 268.967 788.555C266.074 779.202 245.903 783.011 240.668 772.276C237.305 765.382 241.5 760.47 252.485 751.472C267.208 739.409 290.936 746.718 300.927 738.524C310.918 730.323 313.519 735.088 330.345 731.061C347.168 727.027 353.016 710.548 361.442 693.247C368.895 677.944 390.569 678.187 395.48 678.45C396.119 678.486 396.477 678.521 396.477 678.521L397.003 686.76C397.003 686.76 396.638 686.606 396.007 686.391C392.654 685.27 381.747 682.575 377.158 693.145C372.475 703.925 391.401 706.433 396.86 706.925L396.305 715.01C394.694 714.104 392.12 713.373 388.038 713.327C376.871 713.201 376.688 736.496 367.494 728.106C358.303 719.712 356.629 731.092 357.489 739.701L357.482 739.694Z" fill="white"/>
<path d="M92.4005 807.209C90.0871 803.629 87.226 797.121 90.21 789.69C96.8273 773.211 105.519 773.063 114.784 784.061C126.39 797.831 118.642 804.974 115.23 807.209C114.415 807.747 113.85 808 113.85 808H130.044C130.044 808 129.9 807.697 129.795 807.209C129.339 805.115 129.595 799.525 144.989 799.019C163.988 798.397 165.543 783.123 144.989 781.257C124.129 783.126 107.773 762.757 94.1699 759.616C80.5665 756.471 65.6537 773.232 57.7725 759.616C49.8949 745.997 40.269 759.356 31.8963 744.072C23.5237 728.794 53.5072 728.453 25.0964 716.886C13.7819 712.276 3.00454 711.342 -5.87012 711.876C-5.77884 714.367 -5.70512 716.092 -5.70512 716.092L-4.9995 720.646C-4.65547 722.87 -4.45888 725.115 -4.41324 727.364L-4.31846 732.174C3.62591 730.642 19.5431 728.137 14 734.5C11.7111 737.125 -1.98394 743.014 -4.05868 745.467L-3.97442 749.866C-3.92528 752.459 -3.7006 755.045 -3.3004 757.61L-1.34854 770.235C-1.34854 770.6 0.487478 787.676 11.2894 793.478C17.5452 796.833 22.309 802.606 28.9159 805.259C15.0527 782.571 36.8602 759.866 46.953 760.92C57.4496 762.016 42.4771 775.839 61.592 781.383C84.9055 788.14 61.2374 803.551 55.1115 807.213H92.397L92.4005 807.209Z" fill="white"/>
<path d="M155.19 807.02C155.19 807.02 152.192 800.555 167.417 801.015C182.646 801.475 177.106 785.312 182.183 783.464C187.259 781.616 187.259 775.611 196.72 776.767C206.181 777.923 214.718 768.454 226.946 778.615C239.173 788.777 257.091 780.362 260.612 791.584C263.582 801.054 269.171 797.782 274.938 798.014C280.706 798.246 282.784 807.02 282.784 807.02H155.19Z" fill="white"/>
<path d="M123.953 745.889C123.637 753.921 127.71 761.482 134.404 765.92C139.221 769.114 145.455 771.936 152.357 771.816C168.046 771.549 167.516 781.131 175.495 779.803C183.475 778.471 185.335 770.221 197.566 771.019C209.8 771.816 212.633 768.302 218.812 769.687C231.636 772.561 229.217 751.482 240.384 748.162C253.759 744.185 266.618 736.078 244.544 734.48C222.726 732.902 233.482 723.991 199.051 738.872C197.861 739.385 196.629 739.803 195.361 740.063C177.528 743.738 184.728 716.072 152.361 725.766C128.436 732.93 124.262 738.092 123.957 745.885L123.953 745.889Z" fill="white"/>
<path d="M44.5484 745.699C35.6176 747.772 32.1456 734.424 40.9676 731.933C42.3718 731.536 43.9937 731.346 45.8648 731.469C56.235 732.157 48.6522 737.811 53.1668 739.448C55.6031 740.334 50.3689 744.35 44.5484 745.699Z" fill="white"/>
<path d="M151.42 418.75C152.529 420.159 156.159 425.946 154.674 435.145C154.65 435.286 154.727 435.43 154.857 435.486C163.142 438.972 175.106 435.251 177.549 434.421C177.823 434.326 177.984 434.031 177.893 433.757C176.829 430.598 167.526 419.678 151.585 418.452C151.427 418.441 151.322 418.624 151.42 418.75Z" fill="white"/>
<path d="M377.983 423.803C372.886 419.724 376.432 412.932 377.983 413.087C379.535 413.241 376.899 415.595 379.381 419.453C382.761 424.71 381.863 426.906 377.983 423.803Z" fill="white"/>
<path d="M58.7029 459.935C58.5976 459.281 57.7515 459.053 57.3232 459.563C56.7651 460.23 56.235 461.355 56.744 463.009C57.4882 465.444 59.0469 462.096 58.7029 459.935Z" fill="white"/>
<path d="M55.2976 529.885C55.0765 530.061 54.757 530.043 54.5323 529.871C53.9496 529.418 52.3207 528.237 52.749 526.684C53.1773 525.131 54.8553 526.189 54.2445 527.619C53.5845 529.165 55.919 529.404 55.2976 529.889V529.885Z" fill="white"/>
<path d="M30.3762 492.734C29.8532 492.394 29.1651 492.896 29.3266 493.5C29.5021 494.147 29.9901 494.85 31.0713 495.486C34.2273 497.344 36.1792 493.813 33.4866 493.349C31.9033 493.075 30.9239 493.093 30.3762 492.734Z" fill="white"/>
<path d="M41.6206 333.843C41.0976 333.502 40.4095 334.004 40.571 334.609C40.7465 335.255 41.2345 335.958 42.3157 336.594C45.4717 338.453 47.4236 334.922 44.731 334.458C43.1477 334.184 42.1683 334.201 41.6206 333.843Z" fill="white"/>
<path d="M88.4372 330.174C87.9141 329.833 87.226 330.336 87.3875 330.94C87.563 331.586 88.051 332.289 89.1322 332.925C92.2882 334.784 94.2401 331.253 91.5475 330.789C89.9642 330.515 88.9848 330.532 88.4372 330.174Z" fill="white"/>
<path d="M27.1887 627.703C26.4445 627.158 25.4334 627.798 25.5739 628.708C26.2689 633.244 30.9625 636.568 33.6306 634.308C35.7018 632.555 33.3462 632.218 29.453 629.365L27.1852 627.703H27.1887Z" fill="white"/>
<path d="M128.51 388.094C128.731 387.31 127.889 386.671 127.18 387.068C123.641 389.053 122.349 393.972 125.049 395.483C127.145 396.656 126.692 394.597 127.84 390.486L128.51 388.09V388.094Z" fill="white"/>
<path d="M336.426 522.123C336.138 522.172 335.945 522.45 335.952 522.741C336.001 524.266 336.517 528.95 341.126 527.601C343.619 526.873 340.807 524.61 338.929 524.22C337.24 523.866 337.644 521.908 336.422 522.123H336.426Z" fill="white"/>
<path d="M58.4677 497.324C58.0394 497.489 56.9862 499.042 58.4677 499.78C59.9491 500.517 59.9667 496.744 58.4677 497.324Z" fill="white"/>
<path d="M-0.0601639 495.37C-0.48845 495.536 -1.54161 497.089 -0.0601639 497.826C1.42129 498.564 1.43884 494.791 -0.0601639 495.37Z" fill="white"/>
<path d="M371.183 668.191C370.755 668.356 369.702 669.909 371.183 670.647C372.665 671.385 372.682 667.611 371.183 668.191Z" fill="white"/>
<path d="M307.572 676.824C307.144 676.989 306.091 678.542 307.572 679.28C309.054 680.017 309.071 676.244 307.572 676.824Z" fill="white"/>
<path d="M357.829 514.523C357.401 514.688 356.348 516.241 357.829 516.979C359.311 517.717 359.328 513.943 357.829 514.523Z" fill="white"/>
<path d="M202.783 645.66C202.354 645.826 201.301 647.379 202.783 648.117C204.264 648.854 204.282 645.081 202.783 645.66Z" fill="white"/>
<path d="M296.935 648.078C296.507 648.244 295.454 649.797 296.935 650.535C298.417 651.272 298.434 647.499 296.935 648.078Z" fill="white"/>
<path d="M97.5014 476.189C97.0731 476.354 96.0199 477.907 97.5014 478.645C98.9828 479.383 99.0004 475.609 97.5014 476.189Z" fill="white"/>
<path d="M60.4336 517.678C60.0053 517.843 58.9522 519.396 60.4336 520.134C61.9151 520.872 61.9326 517.098 60.4336 517.678Z" fill="white"/>
<path d="M49.7439 518.381C49.3156 518.546 48.2625 520.099 49.7439 520.837C51.2254 521.575 51.2429 517.801 49.7439 518.381Z" fill="white"/>
<path d="M45.4049 511.558C44.945 511.733 43.8181 513.399 45.4049 514.189C46.9917 514.98 47.0127 510.936 45.4049 511.558Z" fill="white"/>
<path d="M375.533 384.211C375.993 384.387 377.12 386.052 375.533 386.843C373.946 387.633 373.925 383.589 375.533 384.211Z" fill="white"/>
<path d="M25.781 448.108C25.3527 448.273 24.2996 449.826 25.781 450.564C27.2625 451.302 27.28 447.528 25.781 448.108Z" fill="white"/>
<path d="M53.6758 405.128C53.2475 405.293 52.1943 406.846 53.6758 407.584C55.1572 408.322 55.1748 404.548 53.6758 405.128Z" fill="white"/>
<path d="M102.402 351.025C101.974 351.19 100.921 352.743 102.402 353.481C103.884 354.219 103.901 350.445 102.402 351.025Z" fill="white"/>
<path d="M174.881 403.948C174.453 404.113 173.399 405.666 174.881 406.404C176.362 407.141 176.38 403.368 174.881 403.948Z" fill="white"/>
<path d="M77.73 451.547C77.3017 451.712 76.2485 453.265 77.73 454.003C79.2114 454.741 79.229 450.967 77.73 451.547Z" fill="white"/>
<path d="M95.0932 464.06C94.6649 464.225 93.6117 465.778 95.0932 466.516C96.5746 467.254 96.5922 463.48 95.0932 464.06Z" fill="white"/>
<path d="M361.249 561.656C360.82 561.821 359.767 563.374 361.249 564.112C362.73 564.849 362.748 561.076 361.249 561.656Z" fill="white"/>
<path d="M44.4395 461.698C43.8427 461.189 42.8913 462.261 43.4425 464.678C43.9901 467.095 46.2755 465.859 45.1837 464.678C44.092 463.497 45.0222 462.197 44.4395 461.698Z" fill="white"/>
<path d="M44.4395 442.499C43.8427 441.99 42.8913 443.061 43.4425 445.479C43.9901 447.896 46.2755 446.659 45.1837 445.479C44.092 444.298 45.0222 442.998 44.4395 442.499Z" fill="white"/>
<path d="M5.41276 522.854C4.81597 522.344 3.86461 523.416 4.41577 525.833C4.96341 528.251 7.24878 527.014 6.157 525.833C5.06522 524.653 5.99551 523.353 5.41276 522.854Z" fill="white"/>
<path d="M13.8557 609.028C13.0869 609.189 13.3572 610.598 15.6039 611.638C17.8507 612.678 18.2684 610.11 16.6676 610.257C15.0668 610.405 14.6069 608.873 13.8557 609.028Z" fill="white"/>
<path d="M131.515 551.835C129.827 551.533 129.216 554.604 132.919 558.557C136.623 562.51 139.568 557.65 136.205 556.631C132.842 555.612 133.165 552.13 131.515 551.835Z" fill="white"/>
<path d="M331.739 438.828C330.05 438.526 329.44 441.597 333.143 445.55C336.847 449.503 339.792 444.643 336.429 443.624C333.066 442.605 333.389 439.123 331.739 438.828Z" fill="white"/>
<path d="M162.871 367.704C161.183 367.402 160.572 370.473 164.276 374.426C167.979 378.379 170.925 373.519 167.561 372.5C164.198 371.481 164.521 367.999 162.871 367.704Z" fill="white"/>
<path d="M343.243 693.626C342.959 693.489 342.646 693.753 342.745 694.055C342.987 694.793 343.612 695.615 345.227 695.425C348.049 695.098 345.711 694.213 344.177 693.914C343.77 693.833 343.468 693.735 343.243 693.626Z" fill="white"/>
<path d="M372.939 485.957C372.654 485.82 372.342 486.084 372.44 486.386C372.682 487.124 373.307 487.946 374.922 487.756C377.745 487.429 375.407 486.544 373.873 486.245C373.465 486.164 373.163 486.066 372.939 485.957Z" fill="white"/>
<path d="M22.1371 517.362C21.8317 517.218 21.4982 517.499 21.6035 517.819C21.8633 518.609 22.5338 519.491 24.261 519.287C27.2835 518.936 24.7805 517.987 23.1341 517.668C22.6988 517.583 22.3758 517.474 22.1336 517.358L22.1371 517.362Z" fill="white"/>
<path d="M25.0087 554.259C24.7032 554.115 24.3697 554.396 24.4751 554.716C24.7348 555.507 25.4053 556.389 27.1325 556.185C30.1551 555.834 27.6521 554.885 26.0057 554.565C25.5703 554.481 25.2474 554.372 25.0051 554.256L25.0087 554.259Z" fill="white"/>
<path d="M363.151 299.869C362.846 299.725 362.512 300.006 362.618 300.326C362.878 301.116 363.548 301.998 365.275 301.794C368.298 301.443 365.795 300.494 364.148 300.175C363.713 300.09 363.39 299.981 363.148 299.865L363.151 299.869Z" fill="white"/>
<path d="M100.461 400.796C100.155 400.652 99.8219 400.933 99.9272 401.252C100.187 402.043 100.857 402.925 102.585 402.721C105.607 402.37 103.104 401.421 101.458 401.101C101.022 401.017 100.7 400.908 100.457 400.792L100.461 400.796Z" fill="white"/>
<path d="M136.704 320.782C136.398 320.638 136.065 320.919 136.17 321.239C136.43 322.029 137.1 322.911 138.828 322.707C141.85 322.356 139.347 321.407 137.701 321.088C137.265 321.003 136.942 320.894 136.7 320.778L136.704 320.782Z" fill="white"/>
<path d="M4.95299 545.015C4.64757 544.871 4.31407 545.152 4.41939 545.472C4.67917 546.263 5.34968 547.145 7.07687 546.941C10.0995 546.589 7.59643 545.641 5.94999 545.321C5.51468 545.237 5.19171 545.128 4.94948 545.012L4.95299 545.015Z" fill="white"/>
<path d="M23.5623 467.65C23.6255 466.884 22.7584 466.406 22.1616 466.888C20.6977 468.072 19.3742 470.208 21.1962 473.711C24.3803 479.839 24.3662 473.768 23.7168 470.019C23.5447 469.024 23.5131 468.251 23.5623 467.65Z" fill="white"/>
<path d="M184.851 567.066C184.605 566.95 184.335 567.175 184.419 567.435C184.626 568.075 185.17 568.785 186.564 568.623C189.004 568.338 186.985 567.576 185.655 567.316C185.304 567.249 185.04 567.158 184.847 567.066H184.851Z" fill="white"/>
<path d="M183.197 589.133C182.952 589.017 182.681 589.242 182.765 589.502C182.973 590.141 183.517 590.851 184.91 590.689C187.35 590.405 185.332 589.642 184.001 589.382C183.65 589.316 183.387 589.224 183.194 589.133H183.197Z" fill="white"/>
<path d="M352.557 485.272C352.311 485.156 352.04 485.38 352.125 485.64C352.332 486.28 352.876 486.99 354.27 486.828C356.709 486.543 354.691 485.781 353.36 485.521C353.009 485.454 352.746 485.363 352.553 485.272H352.557Z" fill="white"/>
<path d="M41.7855 537.411C41.5398 537.295 41.2695 537.52 41.3537 537.78C41.5609 538.42 42.105 539.129 43.4987 538.968C45.9385 538.683 43.9199 537.921 42.5894 537.661C42.2384 537.594 41.9751 537.503 41.782 537.411H41.7855Z" fill="white"/>
<path d="M134.632 399.984C134.387 399.868 134.116 400.093 134.201 400.353C134.408 400.993 134.952 401.703 136.346 401.541C138.785 401.256 136.767 400.494 135.436 400.234C135.085 400.167 134.822 400.076 134.629 399.984H134.632Z" fill="white"/>
<path d="M119.994 574.189C119.748 574.074 119.477 574.298 119.562 574.558C119.769 575.198 120.313 575.908 121.707 575.746C124.147 575.461 122.128 574.699 120.797 574.439C120.446 574.372 120.183 574.281 119.99 574.189H119.994Z" fill="white"/>
<path d="M354.466 320.164C354.22 320.048 353.95 320.273 354.034 320.533C354.242 321.173 354.786 321.882 356.179 321.721C358.619 321.436 356.601 320.674 355.27 320.414C354.919 320.347 354.656 320.255 354.463 320.164H354.466Z" fill="white"/>
<path d="M169.875 555.433C170.91 555.894 172.227 556.154 173.898 556.02C174.105 556.003 174.312 555.929 174.488 555.813C176.468 554.523 173.617 553.933 170.693 553.132C169.236 552.735 168.495 554.822 169.875 555.433Z" fill="white"/>
<path d="M380.553 625.542C381.589 626.002 382.905 626.262 384.576 626.129C384.783 626.111 384.99 626.037 385.166 625.921C387.146 624.632 384.295 624.041 381.371 623.24C379.914 622.843 379.173 624.93 380.553 625.542Z" fill="white"/>
<path d="M187.933 661.086C188.969 661.546 190.285 661.806 191.956 661.672C192.163 661.655 192.37 661.581 192.546 661.465C194.526 660.176 191.675 659.585 188.751 658.784C187.294 658.387 186.553 660.474 187.933 661.086Z" fill="white"/>
<path d="M112.453 544.28C113.583 544.199 114.868 543.809 116.279 542.906C116.455 542.794 116.602 542.629 116.701 542.446C117.842 540.376 115.051 541.195 112.095 541.863C110.624 542.196 110.947 544.385 112.453 544.28Z" fill="white"/>
<path d="M72.2922 381.927C73.3279 382.388 74.6443 382.648 76.3153 382.514C76.5225 382.497 76.7296 382.423 76.9051 382.307C78.8851 381.017 76.0345 380.427 73.1102 379.626C71.6533 379.229 70.9126 381.316 72.2922 381.927Z" fill="white"/>
<path d="M128.275 371.196C129.311 371.656 130.627 371.916 132.298 371.783C132.505 371.765 132.712 371.691 132.888 371.576C134.868 370.286 132.017 369.696 129.093 368.895C127.636 368.498 126.895 370.585 128.275 371.196Z" fill="white"/>
<path d="M366.09 466.168C367.125 466.628 368.442 466.888 370.113 466.754C370.32 466.737 370.527 466.663 370.702 466.547C372.682 465.258 369.832 464.667 366.908 463.866C365.451 463.469 364.71 465.556 366.09 466.168Z" fill="white"/>
<path d="M373.602 332.627C372.567 333.087 371.25 333.347 369.579 333.213C369.372 333.196 369.165 333.122 368.989 333.006C367.009 331.717 369.86 331.126 372.784 330.325C374.241 329.928 374.982 332.015 373.602 332.627Z" fill="white"/>
<path d="M360.94 361.657C359.904 362.117 358.588 362.377 356.917 362.244C356.71 362.226 356.502 362.152 356.327 362.036C354.347 360.747 357.198 360.157 360.122 359.356C361.579 358.958 362.319 361.046 360.94 361.657Z" fill="white"/>
<path d="M49.7195 371.853C52.4226 361.27 65.201 361.998 66.033 364.471C66.865 366.945 61.4657 364.545 57.3022 370.986C51.6292 379.759 47.6623 379.907 49.7195 371.85V371.853Z" fill="white"/>
<path d="M7.79651 261.917C7.46301 261.373 6.60644 261.534 6.4941 262.163C6.37123 262.838 6.51516 263.699 7.23483 264.76C9.33413 267.862 12.6797 265.459 10.3978 263.846C9.0568 262.897 8.14406 262.483 7.79651 261.914V261.917Z" fill="white"/>
<path d="M38.0152 413.611C37.6325 412.901 36.5899 413.024 36.3582 413.797C35.2032 417.651 37.6712 422.054 40.6341 421.27C42.937 420.662 41.1957 419.506 39.1842 415.782L38.0117 413.611H38.0152Z" fill="white"/>
<path d="M41.0869 399.39C40.6586 399.359 39.1386 400.251 40.0969 401.474C41.0553 402.697 42.5929 399.503 41.0869 399.39Z" fill="white"/>
<path d="M153.424 405.195C152.996 405.164 151.476 406.056 152.434 407.279C153.393 408.502 154.93 405.308 153.424 405.195Z" fill="white"/>
<path d="M23.3412 370.522C22.1196 369.643 20.4766 371.85 21.923 376.376C23.3693 380.901 27.5328 378.164 25.251 376.088C22.9691 374.014 24.5348 371.376 23.3412 370.518V370.522Z" fill="white"/>
<path d="M76.9717 481.182C75.75 480.304 74.1071 482.51 75.5535 487.036C76.9998 491.561 81.1633 488.824 78.8815 486.748C76.5996 484.675 78.1653 482.036 76.9717 481.179V481.182Z" fill="white"/>
<path d="M158.044 345.497C156.823 344.619 155.18 346.826 156.626 351.351C158.072 355.877 162.236 353.14 159.954 351.063C157.672 348.99 159.238 346.351 158.044 345.494V345.497Z" fill="white"/>
<path d="M21.3472 406.502C21.1611 406.27 20.789 406.368 20.7539 406.663C20.6591 407.387 20.8627 408.336 22.3056 408.831C24.8332 409.692 23.2078 407.999 22.0247 407.124C21.7123 406.892 21.4946 406.684 21.3472 406.502Z" fill="white"/>
<path d="M21.593 427.095C22.2389 427.851 23.1868 428.553 24.5594 429.077C24.7314 429.144 24.921 429.158 25.1035 429.133C27.1572 428.856 25.1211 427.317 23.106 425.581C22.102 424.717 20.7294 426.09 21.593 427.095Z" fill="white"/>
<path d="M95.5426 434.534C96.1885 435.289 97.1363 435.992 98.509 436.515C98.681 436.582 98.8706 436.596 99.0531 436.572C101.107 436.294 99.0707 434.755 97.0556 433.019C96.0516 432.155 94.679 433.529 95.5426 434.534Z" fill="white"/>
<path d="M67.5776 429.017C68.2235 429.773 69.1714 430.475 70.544 430.999C70.716 431.066 70.9056 431.08 71.0881 431.055C73.1418 430.778 71.1057 429.239 69.0906 427.503C68.0866 426.638 66.714 428.012 67.5776 429.017Z" fill="white"/>
<path d="M140.485 622.477C140.344 621.599 139.203 621.293 138.631 621.975C137.88 622.871 137.171 624.382 137.852 626.606C138.852 629.877 140.944 625.376 140.485 622.474V622.477Z" fill="white"/>
<path d="M337.061 706.237C336.921 705.359 335.78 705.053 335.207 705.735C334.456 706.63 333.747 708.141 334.428 710.366C335.429 713.637 337.521 709.136 337.061 706.233V706.237Z" fill="white"/>
<path d="M332.087 280.969C331.479 280.568 330.675 281.158 330.865 281.861C331.069 282.617 331.637 283.432 332.898 284.173C336.573 286.338 338.844 282.223 335.709 281.682C333.863 281.362 332.722 281.383 332.087 280.965V280.969Z" fill="white"/>
<path d="M374.076 247.793C374.332 246.879 373.353 246.134 372.525 246.598C368.403 248.91 366.901 254.641 370.043 256.401C372.482 257.768 371.956 255.372 373.293 250.582L374.073 247.793H374.076Z" fill="white"/>
<path d="M301.921 318.386C301.492 318.551 300.439 320.104 301.921 320.842C303.402 321.58 303.42 317.806 301.921 318.386Z" fill="white"/>
<path d="M216.211 475.76C215.635 475.981 214.224 478.068 216.211 479.059C218.197 480.05 218.226 474.98 216.211 475.76Z" fill="white"/>
<path d="M301.906 373.245C301.446 373.421 300.32 375.086 301.906 375.877C303.493 376.667 303.514 372.623 301.906 373.245Z" fill="white"/>
<path d="M339.452 250.888C338.918 251.095 337.605 253.035 339.452 253.952C341.298 254.873 341.323 250.161 339.452 250.888Z" fill="white"/>
<path d="M101.461 251.678C101.033 251.843 99.9799 253.396 101.461 254.134C102.943 254.872 102.96 251.098 101.461 251.678Z" fill="white"/>
<path d="M367.441 650.453C366.865 650.674 365.454 652.762 367.441 653.752C369.428 654.743 369.456 649.673 367.441 650.453Z" fill="white"/>
<path d="M372.184 500.434C371.608 500.655 370.197 502.742 372.184 503.733C374.171 504.724 374.199 499.653 372.184 500.434Z" fill="white"/>
<path d="M181.523 678.89C180.947 679.111 179.536 681.198 181.523 682.189C183.51 683.18 183.538 678.11 181.523 678.89Z" fill="white"/>
<path d="M203.664 726.482C203.088 726.704 201.677 728.791 203.664 729.782C205.651 730.773 205.679 725.702 203.664 726.482Z" fill="white"/>
<path d="M360.248 380.877C359.672 381.098 358.261 383.185 360.248 384.176C362.235 385.167 362.263 380.097 360.248 380.877Z" fill="white"/>
<path d="M350.454 456.555C349.878 456.776 348.467 458.863 350.454 459.854C352.441 460.845 352.469 455.775 350.454 456.555Z" fill="white"/>
<path d="M379.402 658.114C374.304 654.034 377.85 647.243 379.402 647.397C380.953 647.552 378.317 649.906 380.799 653.764C384.179 659.02 383.281 661.216 379.402 658.114Z" fill="white"/>
<path d="M203.987 537.2C203.411 537.421 202 539.509 203.987 540.499C205.974 541.49 206.002 536.42 203.987 537.2Z" fill="white"/>
<path d="M177.644 535.082C177.068 535.303 175.657 537.39 177.644 538.381C179.631 539.372 179.659 534.302 177.644 535.082Z" fill="white"/>
<path d="M336.668 465.704C336.092 465.925 334.681 468.013 336.668 469.003C338.655 469.994 338.683 464.924 336.668 465.704Z" fill="white"/>
<path d="M213.142 489.878C212.567 490.099 211.155 492.186 213.142 493.177C215.129 494.168 215.157 489.098 213.142 489.878Z" fill="white"/>
<path d="M382.4 444.745C381.803 444.236 380.852 445.307 381.403 447.725C381.95 450.142 384.236 448.905 383.144 447.725C382.052 446.544 382.982 445.244 382.4 444.745Z" fill="white"/>
<path d="M330.742 323.512C329.053 323.21 328.443 326.281 332.146 330.233C335.85 334.186 338.795 329.327 335.432 328.308C332.069 327.289 332.392 323.807 330.742 323.512Z" fill="white"/>
<path d="M127.324 299.475C125.358 299.121 124.645 302.701 128.959 307.307C133.274 311.91 136.704 306.25 132.786 305.066C128.868 303.878 129.247 299.823 127.324 299.479V299.475Z" fill="white"/>
<path d="M317.089 355.153C316.651 354.942 316.17 355.35 316.321 355.813C316.693 356.952 317.658 358.217 320.147 357.929C324.497 357.423 320.895 356.059 318.529 355.599C317.9 355.476 317.437 355.321 317.089 355.156V355.153Z" fill="white"/>
<path d="M17.7348 309.295C17.8085 308.406 16.7975 307.848 16.1059 308.406C14.3998 309.787 12.8586 312.271 14.9825 316.354C18.6932 323.494 18.6756 316.421 17.9173 312.054C17.7172 310.898 17.6821 309.995 17.7383 309.295H17.7348Z" fill="white"/>
<path d="M201.93 250.037C201.684 249.921 201.414 250.146 201.498 250.406C201.705 251.046 202.249 251.755 203.643 251.594C206.083 251.309 204.064 250.547 202.733 250.287C202.382 250.22 202.119 250.129 201.926 250.037H201.93Z" fill="white"/>
<path d="M245.99 114.567C245.745 114.451 245.474 114.676 245.559 114.936C245.766 115.576 246.31 116.286 247.704 116.124C250.143 115.839 248.125 115.077 246.794 114.817C246.443 114.75 246.18 114.659 245.987 114.567H245.99Z" fill="white"/>
<path d="M73.3804 311.425C74.5881 311.96 76.1222 312.265 78.067 312.107C78.3092 312.086 78.548 311.998 78.7516 311.865C81.058 310.361 77.737 309.672 74.3318 308.741C72.6362 308.277 71.7726 310.709 73.3804 311.422V311.425Z" fill="white"/>
<path d="M350.717 686.631C352.107 687.249 353.88 687.597 356.123 687.418C356.404 687.397 356.678 687.291 356.913 687.14C359.571 685.408 355.744 684.614 351.816 683.539C349.86 683.005 348.863 685.809 350.717 686.631Z" fill="white"/>
<path d="M356.632 444.02C358.022 444.639 359.795 444.987 362.038 444.808C362.319 444.786 362.593 444.681 362.828 444.53C365.486 442.798 361.659 442.004 357.731 440.928C355.776 440.394 354.779 443.198 356.632 444.02Z" fill="white"/>
<path d="M372.342 589.287C373.732 589.906 375.505 590.253 377.748 590.074C378.029 590.053 378.303 589.948 378.538 589.797C381.196 588.064 377.369 587.27 373.441 586.195C371.485 585.661 370.488 588.465 372.342 589.287Z" fill="white"/>
<path d="M141.717 595.345C136.619 591.266 140.165 584.474 141.717 584.629C143.268 584.783 140.632 587.137 143.114 590.995C146.495 596.252 145.596 598.448 141.717 595.345Z" fill="white"/>
<path d="M184.917 624.126C184.173 623.581 183.162 624.22 183.303 625.131C183.998 629.667 188.691 632.991 191.359 630.731C193.431 628.978 191.075 628.641 187.182 625.788L184.914 624.126H184.917Z" fill="white"/>
<path d="M375.607 547.373C374.863 546.828 373.852 547.468 373.992 548.378C374.687 552.914 379.381 556.238 382.049 553.978C384.12 552.225 381.764 551.888 377.871 549.035L375.603 547.373H375.607Z" fill="white"/>
<path d="M383.646 515.763C384.776 515.683 386.061 515.293 387.472 514.39C387.648 514.277 387.795 514.112 387.894 513.929C389.035 511.86 386.244 512.678 383.288 513.346C381.817 513.68 382.14 515.869 383.646 515.763Z" fill="white"/>
<path d="M192.43 610.176C193.82 610.794 195.593 611.142 197.836 610.963C198.117 610.942 198.391 610.836 198.626 610.685C201.284 608.953 197.457 608.159 193.529 607.084C191.574 606.55 190.577 609.354 192.43 610.176Z" fill="white"/>
<path d="M251.713 298.076C251.211 298.038 249.441 299.081 250.558 300.504C251.674 301.931 253.468 298.206 251.713 298.076Z" fill="white"/>
<path d="M362.986 202.688C362.484 202.649 360.715 203.692 361.831 205.116C362.948 206.542 364.742 202.818 362.986 202.688Z" fill="white"/>
<path d="M315.945 391.084C314.52 390.062 312.61 392.63 314.295 397.904C315.98 403.178 320.828 399.984 318.171 397.571C315.513 395.157 317.339 392.082 315.945 391.084Z" fill="white"/>
<path d="M292.677 355.61C287.58 351.531 291.125 344.739 292.677 344.893C294.229 345.048 291.592 347.402 294.074 351.26C297.455 356.516 296.556 358.713 292.677 355.61Z" fill="white"/>
<path d="M347.898 375.261C347.154 374.717 346.143 375.356 346.283 376.266C346.978 380.802 351.672 384.126 354.34 381.867C356.411 380.114 354.056 379.776 350.162 376.923L347.895 375.261H347.898Z" fill="white"/>
<path d="M180.55 302.364C180.122 302.529 179.069 304.082 180.55 304.82C182.032 305.558 182.049 301.784 180.55 302.364Z" fill="white"/>
<path d="M264.517 317.037C264.233 316.9 263.92 317.164 264.018 317.466C264.261 318.204 264.886 319.026 266.5 318.836C269.323 318.509 266.985 317.624 265.451 317.325C265.044 317.245 264.742 317.146 264.517 317.037Z" fill="white"/>
<path d="M192.349 310.476C191.774 310.698 190.362 312.785 192.349 313.776C194.336 314.767 194.364 309.696 192.349 310.476Z" fill="white"/>
<path d="M271.025 288.082C270.45 288.303 269.038 290.39 271.025 291.381C273.012 292.372 273.041 287.302 271.025 288.082Z" fill="white"/>
<path d="M272.411 341.007C271.835 341.228 270.424 343.315 272.411 344.306C274.398 345.297 274.426 340.227 272.411 341.007Z" fill="white"/>
<path d="M171.391 323.027C170.795 322.518 169.843 323.59 170.394 326.007C170.942 328.424 173.227 327.188 172.136 326.007C171.044 324.826 171.974 323.526 171.391 323.027Z" fill="white"/>
<path d="M227.894 328.309C229.284 328.927 231.057 329.275 233.3 329.096C233.581 329.075 233.854 328.969 234.09 328.818C236.747 327.086 232.921 326.292 228.992 325.217C227.037 324.682 226.04 327.486 227.894 328.309Z" fill="white"/>
<path d="M335.987 505.265C337.377 505.883 339.15 506.231 341.393 506.052C341.674 506.031 341.948 505.925 342.183 505.774C344.84 504.042 341.014 503.248 337.086 502.173C335.13 501.639 334.133 504.442 335.987 505.265Z" fill="white"/>
<path d="M210.309 286.221C208.884 285.198 206.974 287.767 208.66 293.041C210.345 298.315 215.193 295.121 212.535 292.707C209.878 290.29 211.703 287.219 210.309 286.221Z" fill="white"/>
<path d="M4.25431 629.842C-0.843002 625.763 2.70265 618.971 4.25431 619.126C5.80597 619.28 3.16955 621.634 5.65151 625.492C9.03216 630.749 8.13346 632.945 4.25431 629.842Z" fill="white"/>
<path d="M222.463 721.339C221.982 720.987 221.325 721.398 221.417 721.989C221.866 724.93 224.91 727.084 226.64 725.618C227.985 724.48 226.454 724.262 223.934 722.414L222.463 721.339Z" fill="white"/>
<path d="M355.6 536.15C355.821 535.367 354.979 534.727 354.27 535.124C350.731 537.109 349.439 542.029 352.139 543.54C354.235 544.713 353.782 542.654 354.93 538.543L355.6 536.147V536.15Z" fill="white"/>
<path d="M39.5809 607.769C39.1527 607.934 38.0995 609.487 39.5809 610.225C41.0624 610.963 41.08 607.189 39.5809 607.769Z" fill="white"/>
<path d="M26.3251 613.124C25.8968 613.289 24.8436 614.842 26.3251 615.58C27.8065 616.318 27.8241 612.545 26.3251 613.124Z" fill="white"/>
<path d="M86.2571 606.1C85.8288 606.265 84.7756 607.818 86.2571 608.556C87.7385 609.294 87.7561 605.52 86.2571 606.1Z" fill="white"/>
<path d="M367.501 623.95C367.073 624.115 366.019 625.668 367.501 626.406C368.982 627.143 369 623.37 367.501 623.95Z" fill="white"/>
<path d="M60.3423 610.51C59.914 610.675 58.8609 612.228 60.3423 612.966C61.8238 613.704 61.8413 609.93 60.3423 610.51Z" fill="white"/>
<path d="M-0.811381 350.982C-2.49995 350.68 -3.11079 353.751 0.592838 357.704C4.29646 361.657 7.24181 356.798 3.87871 355.779C0.515605 354.76 0.838575 351.278 -0.811381 350.982Z" fill="white"/>
<path d="M181.628 637.805C181.344 637.668 181.031 637.931 181.13 638.233C181.372 638.971 181.997 639.794 183.612 639.604C186.434 639.277 184.096 638.392 182.562 638.093C182.155 638.012 181.853 637.914 181.628 637.805Z" fill="white"/>
<path d="M20.6731 585.918C20.1992 585.689 19.6796 586.128 19.8411 586.631C20.2448 587.864 21.2874 589.234 23.9835 588.918C28.6947 588.37 24.7945 586.894 22.2318 586.395C21.5507 586.262 21.0487 586.093 20.6731 585.914V585.918Z" fill="white"/>
<path d="M203.566 682.178C204.696 682.098 205.981 681.708 207.392 680.805C207.568 680.692 207.715 680.527 207.813 680.344C208.954 678.275 206.163 679.093 203.207 679.761C201.737 680.095 202.059 682.284 203.566 682.178Z" fill="white"/>
<path d="M378.219 604.407C379.349 604.326 380.634 603.936 382.045 603.033C382.221 602.921 382.368 602.756 382.466 602.573C383.607 600.503 380.816 601.322 377.86 601.99C376.39 602.323 376.713 604.512 378.219 604.407Z" fill="white"/>
<path d="M109.781 623.303C110.817 623.764 112.133 624.024 113.804 623.89C114.011 623.873 114.219 623.799 114.394 623.683C116.374 622.393 113.524 621.803 110.599 621.002C109.142 620.605 108.402 622.692 109.781 623.303Z" fill="white"/>
<path d="M131.319 650.938C130.473 650.334 129.339 651.855 130.339 654.986C131.34 658.113 134.215 656.223 132.639 654.789C131.062 653.355 132.144 651.532 131.319 650.942V650.938Z" fill="white"/>
<path d="M111.21 660.489C111.024 660.257 110.652 660.355 110.617 660.651C110.522 661.374 110.726 662.323 112.168 662.819C114.696 663.679 113.071 661.986 111.888 661.111C111.575 660.879 111.358 660.672 111.21 660.489Z" fill="white"/>
<path d="M363.313 606.887C363.959 607.643 364.907 608.345 366.279 608.869C366.451 608.936 366.641 608.95 366.823 608.925C368.877 608.648 366.841 607.109 364.826 605.373C363.822 604.509 362.449 605.882 363.313 606.887Z" fill="white"/>
<path d="M89.5255 539.059C89.385 538.181 88.2441 537.875 87.6719 538.557C86.9206 539.453 86.2115 540.964 86.8925 543.188C87.8931 546.459 89.9853 541.958 89.5255 539.056V539.059Z" fill="white"/>
<path d="M3.0257 582.137C2.88528 581.259 1.74435 580.953 1.17213 581.635C0.420878 582.531 -0.288252 584.042 0.392794 586.266C1.3933 589.537 3.48558 585.036 3.0257 582.134V582.137Z" fill="white"/>
<path d="M138.062 709.838C137.487 710.059 136.075 712.146 138.062 713.137C140.049 714.128 140.077 709.058 138.062 709.838Z" fill="white"/>
<path d="M270.508 706.764C269.932 706.985 268.521 709.072 270.508 710.063C272.495 711.054 272.523 705.984 270.508 706.764Z" fill="white"/>
<path d="M134.355 678.809C133.779 679.03 132.368 681.117 134.355 682.108C136.342 683.099 136.37 678.028 134.355 678.809Z" fill="white"/>
<path d="M146.372 660.303C145.796 660.524 144.385 662.611 146.372 663.602C148.359 664.593 148.387 659.523 146.372 660.303Z" fill="white"/>
<path d="M214.406 666.009C213.83 666.23 212.419 668.317 214.406 669.308C216.393 670.299 216.421 665.229 214.406 666.009Z" fill="white"/>
<path d="M68.1533 525.549C67.5775 525.77 66.1663 527.857 68.1533 528.848C70.1402 529.839 70.1683 524.769 68.1533 525.549Z" fill="white"/>
<path d="M154.172 644.079C153.575 643.57 152.624 644.641 153.175 647.059C153.723 649.476 156.008 648.239 154.916 647.059C153.825 645.878 154.755 644.578 154.172 644.079Z" fill="white"/>
<path d="M327.316 719.912C328.706 720.53 330.479 720.878 332.722 720.699C333.003 720.678 333.277 720.573 333.512 720.422C336.169 718.689 332.343 717.895 328.415 716.82C326.459 716.286 325.462 719.09 327.316 719.912Z" fill="white"/>
<path d="M159.536 679.648C160.926 680.267 162.699 680.615 164.943 680.435C165.223 680.414 165.497 680.309 165.732 680.158C168.39 678.426 164.563 677.632 160.635 676.556C158.68 676.022 157.683 678.826 159.536 679.648Z" fill="white"/>
<path d="M270.568 735.829C270.139 735.995 269.086 737.548 270.568 738.285C272.049 739.023 272.067 735.25 270.568 735.829Z" fill="white"/>
<path d="M284.652 705.573C285.688 706.033 287.004 706.293 288.675 706.16C288.882 706.142 289.089 706.068 289.265 705.952C291.245 704.663 288.394 704.073 285.47 703.272C284.013 702.874 283.272 704.962 284.652 705.573Z" fill="white"/>
<path d="M289.683 724.729C289.107 724.951 287.696 727.038 289.683 728.029C291.67 729.02 291.698 723.949 289.683 724.729Z" fill="white"/>
<path d="M289.792 683.644C289.507 683.507 289.195 683.77 289.293 684.072C289.535 684.81 290.16 685.632 291.775 685.443C294.597 685.116 292.259 684.23 290.725 683.932C290.318 683.851 290.016 683.753 289.792 683.644Z" fill="white"/>
<path d="M303.24 723.904C304.371 723.823 305.656 723.433 307.067 722.53C307.242 722.418 307.39 722.253 307.488 722.07C308.629 720 305.838 720.819 302.882 721.487C301.411 721.82 301.734 724.009 303.24 723.904Z" fill="white"/>
<path d="M254.535 717.076C253.959 717.297 252.548 719.385 254.535 720.375C256.522 721.366 256.55 716.296 254.535 717.076Z" fill="white"/>
<path d="M239.299 720.27C238.724 720.492 237.312 722.579 239.299 723.57C241.286 724.561 241.314 719.49 239.299 720.27Z" fill="white"/>
<path d="M298.663 665.559C298.066 665.049 297.114 666.121 297.666 668.538C298.213 670.956 300.499 669.719 299.407 668.538C298.315 667.358 299.245 666.058 298.663 665.559Z" fill="white"/>
<path d="M267.696 725.488C269.086 726.107 270.859 726.455 273.102 726.275C273.383 726.254 273.657 726.149 273.892 725.998C276.55 724.265 272.723 723.471 268.795 722.396C266.84 721.862 265.843 724.666 267.696 725.488Z" fill="white"/>
<path d="M118.196 637.228C116.771 636.205 114.861 638.774 116.546 644.048C118.231 649.322 123.079 646.128 120.422 643.714C117.764 641.297 119.59 638.226 118.196 637.228Z" fill="white"/>
<path d="M22.6636 228.242C22.446 227.975 22.0142 228.087 21.972 228.432C21.8632 229.275 22.0984 230.382 23.78 230.954C26.7253 231.956 24.8296 229.985 23.45 228.966C23.0849 228.695 22.8321 228.453 22.6636 228.242Z" fill="white"/>
<path d="M307.65 206.658C307.221 206.823 306.168 208.376 307.65 209.114C309.131 209.851 309.149 206.078 307.65 206.658Z" fill="white"/>
<path d="M366.992 236.805C366.707 236.668 366.395 236.931 366.493 237.233C366.736 237.971 367.36 238.794 368.975 238.604C371.798 238.277 369.46 237.392 367.926 237.093C367.518 237.012 367.217 236.914 366.992 236.805Z" fill="white"/>
<path d="M244.927 151.9C245.962 152.36 247.279 152.62 248.95 152.487C249.157 152.469 249.364 152.396 249.54 152.28C251.52 150.99 248.669 150.4 245.745 149.599C244.288 149.202 243.547 151.289 244.927 151.9Z" fill="white"/>
<path d="M235.889 278.071C235.391 278.264 234.166 280.074 235.889 280.931C237.613 281.788 237.638 277.396 235.889 278.071Z" fill="white"/>
<path d="M290.983 294.159C292.373 294.778 294.146 295.125 296.389 294.946C296.67 294.925 296.943 294.82 297.179 294.669C299.836 292.936 296.01 292.142 292.081 291.067C290.126 290.533 289.129 293.337 290.983 294.159Z" fill="white"/>
<path d="M150.956 300.926C150.454 300.887 148.685 301.931 149.801 303.354C150.918 304.78 152.712 301.056 150.956 300.926Z" fill="white"/>
<path d="M128.805 272.926C128.377 273.091 127.323 274.644 128.805 275.382C130.286 276.12 130.304 272.346 128.805 272.926Z" fill="white"/>
<path d="M167.962 277.887C167.386 278.108 165.975 280.195 167.962 281.186C169.949 282.177 169.977 277.107 167.962 277.887Z" fill="white"/>
<path d="M368.252 280.03C368.898 280.785 369.846 281.488 371.219 282.012C371.391 282.078 371.58 282.092 371.763 282.068C373.816 281.79 371.78 280.251 369.765 278.515C368.761 277.651 367.389 279.025 368.252 280.03Z" fill="white"/>
<path d="M49.2946 129.781C48.7715 129.441 48.0834 129.943 48.2449 130.547C48.4205 131.194 48.9084 131.897 49.9897 132.533C53.1456 134.391 55.0975 130.86 52.4049 130.396C50.8217 130.122 49.8422 130.14 49.2946 129.781Z" fill="white"/>
<path d="M145.736 68.3204C145.213 67.9796 144.525 68.482 144.687 69.0864C144.862 69.7329 145.35 70.4356 146.431 71.0716C149.587 72.9303 151.539 69.3991 148.847 68.9353C147.263 68.6612 146.284 68.6788 145.736 68.3204Z" fill="white"/>
<path d="M383.207 180.146C383.667 180.322 384.794 181.988 383.207 182.778C381.62 183.569 381.599 179.524 383.207 180.146Z" fill="white"/>
<path d="M61.3499 201.068C60.9216 201.233 59.8684 202.786 61.3499 203.524C62.8313 204.262 62.8489 200.488 61.3499 201.068Z" fill="white"/>
<path d="M107.563 95.6673C107.134 95.8324 106.081 97.3855 107.563 98.1234C109.044 98.8612 109.062 95.0875 107.563 95.6673Z" fill="white"/>
<path d="M182.555 199.883C182.127 200.048 181.073 201.601 182.555 202.339C184.036 203.077 184.054 199.303 182.555 199.883Z" fill="white"/>
<path d="M172.399 145.653C171.971 145.818 170.917 147.371 172.399 148.109C173.88 148.847 173.898 145.073 172.399 145.653Z" fill="white"/>
<path d="M288.531 201.352C288.226 201.208 287.892 201.489 287.998 201.809C288.257 202.6 288.928 203.482 290.655 203.278C293.678 202.926 291.175 201.978 289.528 201.658C289.093 201.574 288.77 201.465 288.528 201.349L288.531 201.352Z" fill="white"/>
<path d="M205.588 119.283C205.282 119.139 204.949 119.42 205.054 119.74C205.314 120.53 205.984 121.412 207.712 121.208C210.734 120.857 208.231 119.908 206.585 119.589C206.149 119.504 205.826 119.395 205.584 119.279L205.588 119.283Z" fill="white"/>
<path d="M108.138 196.735C107.833 196.591 107.499 196.872 107.605 197.192C107.865 197.982 108.535 198.864 110.262 198.661C113.285 198.309 110.782 197.36 109.135 197.041C108.7 196.956 108.377 196.847 108.135 196.732L108.138 196.735Z" fill="white"/>
<path d="M147.944 155.734C147.639 155.59 147.306 155.871 147.411 156.191C147.671 156.981 148.341 157.863 150.068 157.66C153.091 157.308 150.588 156.359 148.941 156.04C148.506 155.955 148.183 155.846 147.941 155.731L147.944 155.734Z" fill="white"/>
<path d="M362.14 116.1C361.895 115.984 361.624 116.209 361.708 116.469C361.916 117.108 362.46 117.818 363.853 117.656C366.293 117.372 364.275 116.609 362.944 116.349C362.593 116.282 362.33 116.191 362.137 116.1H362.14Z" fill="white"/>
<path d="M380.244 95.0212C379.209 95.4815 377.892 95.7415 376.221 95.608C376.014 95.5904 375.807 95.5167 375.631 95.4007C373.651 94.1112 376.502 93.5209 379.426 92.7198C380.883 92.3227 381.624 94.4098 380.244 95.0212Z" fill="white"/>
<path d="M370.657 156.032C369.621 156.492 368.305 156.752 366.634 156.619C366.427 156.601 366.22 156.527 366.044 156.411C364.064 155.122 366.915 154.532 369.839 153.731C371.296 153.333 372.037 155.421 370.657 156.032Z" fill="white"/>
<path d="M15.4706 57.8527C15.1371 57.3081 14.2805 57.4697 14.1682 58.0987C14.0453 58.7733 14.1892 59.6341 14.9089 60.6953C17.0082 63.7978 20.3538 61.3945 18.0719 59.7817C16.7309 58.833 15.8181 58.4184 15.4706 57.8492V57.8527Z" fill="white"/>
<path d="M48.761 195.33C48.3327 195.298 46.8126 196.191 47.771 197.414C48.7294 198.636 50.267 195.442 48.761 195.33Z" fill="white"/>
<path d="M161.102 201.131C160.674 201.099 159.154 201.992 160.112 203.214C161.07 204.437 162.608 201.243 161.102 201.131Z" fill="white"/>
<path d="M31.0152 166.457C29.7935 165.579 28.1506 167.786 29.5969 172.311C31.0433 176.837 35.2068 174.1 32.9249 172.023C30.6431 169.95 32.2088 167.311 31.0152 166.454V166.457Z" fill="white"/>
<path d="M114.349 101.31C113.127 100.432 111.484 102.638 112.93 107.164C114.377 111.689 118.54 108.952 116.258 106.876C113.976 104.803 115.542 102.164 114.349 101.306V101.31Z" fill="white"/>
<path d="M339.761 76.9072C339.153 76.5067 338.349 77.097 338.539 77.7997C338.743 78.5552 339.311 79.3703 340.572 80.1117C344.247 82.2762 346.518 78.1616 343.384 77.6205C341.537 77.3008 340.396 77.3219 339.761 76.9037V76.9072Z" fill="white"/>
<path d="M381.75 43.7282C382.007 42.8146 381.027 42.0697 380.199 42.5335C376.077 44.8455 374.575 50.5763 377.717 52.3367C380.157 53.7035 379.63 51.3072 380.967 46.518L381.747 43.7282H381.75Z" fill="white"/>
<path d="M309.594 114.322C309.166 114.487 308.113 116.04 309.594 116.778C311.076 117.516 311.094 113.742 309.594 114.322Z" fill="white"/>
<path d="M289.851 86.0852C289.423 86.2504 288.37 87.8034 289.851 88.5413C291.333 89.2792 291.35 85.5055 289.851 86.0852Z" fill="white"/>
<path d="M309.58 169.181C309.121 169.356 307.994 171.022 309.58 171.812C311.167 172.603 311.188 168.559 309.58 169.181Z" fill="white"/>
<path d="M347.126 46.8237C346.592 47.031 345.279 48.9706 347.126 49.8877C348.972 50.8082 348.997 46.0964 347.126 46.8237Z" fill="white"/>
<path d="M367.922 176.815C367.346 177.037 365.935 179.124 367.922 180.115C369.909 181.106 369.937 176.035 367.922 176.815Z" fill="white"/>
<path d="M61.42 163.678C60.8443 163.899 59.433 165.986 61.42 166.977C63.407 167.968 63.435 162.898 61.42 163.678Z" fill="white"/>
<path d="M338.416 119.451C336.727 119.149 336.117 122.22 339.82 126.173C343.524 130.126 346.469 125.266 343.106 124.247C339.743 123.228 340.066 119.746 338.416 119.451Z" fill="white"/>
<path d="M25.4089 105.235C25.4826 104.346 24.4715 103.787 23.78 104.346C22.0738 105.727 20.5327 108.211 22.6566 112.294C26.3672 119.434 26.3497 112.361 25.5914 107.993C25.3913 106.837 25.3562 105.934 25.4124 105.235H25.4089Z" fill="white"/>
<path d="M201.93 157.357C201.684 157.242 201.414 157.466 201.498 157.726C201.705 158.366 202.249 159.076 203.643 158.914C206.083 158.629 204.064 157.867 202.733 157.607C202.382 157.54 202.119 157.449 201.926 157.357H201.93Z" fill="white"/>
<path d="M158.775 118.468C158.529 118.352 158.258 118.577 158.343 118.837C158.55 119.476 159.094 120.186 160.488 120.024C162.928 119.74 160.909 118.977 159.578 118.717C159.227 118.651 158.964 118.559 158.771 118.468H158.775Z" fill="white"/>
<path d="M140.951 3.53871C142.159 4.07279 143.693 4.37848 145.638 4.22036C145.88 4.19928 146.119 4.11144 146.323 3.97792C148.629 2.47406 145.308 1.78538 141.903 0.854255C140.207 0.390448 139.344 2.82192 140.951 3.5352V3.53871Z" fill="white"/>
<path d="M237.379 66.4616C238.587 66.9956 240.121 67.3013 242.066 67.1432C242.308 67.1221 242.547 67.0343 242.75 66.9008C245.057 65.3969 241.736 64.7082 238.33 63.7771C236.635 63.3133 235.771 65.7448 237.379 66.458V66.4616Z" fill="white"/>
<path d="M49.5579 94.1563C49.0559 94.1177 47.2866 95.1612 48.4029 96.5843C49.5193 98.0108 51.3132 94.2863 49.5579 94.1563Z" fill="white"/>
<path d="M201.873 65.4571C201.371 65.4184 199.602 66.462 200.718 67.8851C201.835 69.3116 203.629 65.5871 201.873 65.4571Z" fill="white"/>
<path d="M323.619 187.02C322.194 185.997 320.284 188.566 321.969 193.84C323.654 199.114 328.502 195.92 325.845 193.506C323.187 191.092 325.013 188.018 323.619 187.02Z" fill="white"/>
<path d="M295.012 126.623C294.025 125.917 292.705 127.691 293.871 131.335C295.036 134.979 298.385 132.772 296.549 131.103C294.713 129.434 295.974 127.312 295.012 126.62V126.623Z" fill="white"/>
<path d="M268.295 46.2961C265.805 44.2806 267.537 40.9249 268.295 41.0013C269.054 41.0777 267.765 42.2408 268.978 44.1469C270.63 46.744 270.191 47.829 268.295 46.2961Z" fill="white"/>
<path d="M340.522 165.551C339.778 165.007 338.767 165.646 338.908 166.556C339.603 171.092 344.296 174.416 346.964 172.157C349.036 170.404 346.68 170.066 342.787 167.213L340.519 165.551H340.522Z" fill="white"/>
<path d="M50.7128 52.8007C50.1371 53.0221 48.7259 55.1092 50.7128 56.1001C52.6998 57.0909 52.7279 52.0207 50.7128 52.8007Z" fill="white"/>
<path d="M92.8465 60.6249C92.2708 60.8463 90.8595 62.9334 92.8465 63.9243C94.8335 64.9151 94.8616 59.8449 92.8465 60.6249Z" fill="white"/>
<path d="M6.86269 146.921C5.17412 146.619 4.56328 149.69 8.26691 153.643C11.9705 157.595 14.9159 152.736 11.5528 151.717C8.18968 150.698 8.51265 147.216 6.86269 146.921Z" fill="white"/>
<path d="M30.3377 24.1774C30.12 23.9104 29.6882 24.0228 29.6461 24.3672C29.5373 25.2105 29.7725 26.3173 31.454 26.89C34.3994 27.8914 32.5037 25.9202 31.1241 24.9013C30.759 24.6307 30.5062 24.3883 30.3377 24.1774Z" fill="white"/>
<path d="M220.279 14.3855C220.5 13.602 219.658 12.9625 218.949 13.3596C215.41 15.3448 214.118 20.2639 216.818 21.7748C218.914 22.9484 218.461 20.8894 219.609 16.7784L220.279 14.382V14.3855Z" fill="white"/>
<path d="M315.327 2.59306C314.899 2.7582 313.846 4.31125 315.327 5.04912C316.809 5.787 316.826 2.0133 315.327 2.59306Z" fill="white"/>
<path d="M254.254 10.211C252.566 9.90878 251.955 12.9797 255.659 16.9326C259.362 20.8855 262.307 16.0261 258.944 15.0071C255.581 13.9882 255.904 10.5061 254.254 10.211Z" fill="white"/>
<path d="M374.669 32.7403C374.385 32.6033 374.073 32.8668 374.171 33.169C374.413 33.9069 375.038 34.7291 376.653 34.5394C379.475 34.2126 377.137 33.3271 375.603 33.0285C375.196 32.9477 374.894 32.8493 374.669 32.7403Z" fill="white"/>
<path d="M97.031 175.839C96.7467 175.702 96.4342 175.965 96.5325 176.268C96.7747 177.006 97.3996 177.828 99.0145 177.638C101.837 177.311 99.4989 176.426 97.9648 176.127C97.5576 176.046 97.2557 175.948 97.031 175.839Z" fill="white"/>
<path d="M96.7317 293.351C97.7673 293.812 99.0838 294.072 100.755 293.938C100.962 293.921 101.169 293.847 101.345 293.731C103.325 292.441 100.474 291.851 97.5497 291.05C96.0928 290.653 95.3521 292.74 96.7317 293.351Z" fill="white"/>
<path d="M180.522 1.78864C181.168 2.54409 182.116 3.24682 183.489 3.77036C183.661 3.83712 183.85 3.85118 184.033 3.82658C186.087 3.549 184.05 2.01001 182.035 0.274245C181.031 -0.590121 179.659 0.783729 180.522 1.78864Z" fill="white"/>
<path d="M340.27 24.4453C341.66 25.0637 343.433 25.4116 345.676 25.2324C345.957 25.2113 346.231 25.1059 346.466 24.9548C349.123 23.2225 345.297 22.4284 341.368 21.3532C339.413 20.8192 338.416 23.6231 340.27 24.4453Z" fill="white"/>
<path d="M85.2918 2.13992C83.8665 1.11744 81.9568 3.68594 83.6418 8.95999C85.3269 14.234 90.175 11.0401 87.5175 8.62618C84.86 6.20877 86.6855 3.13781 85.2918 2.13992Z" fill="white"/>
<path d="M375.926 75.9664C376.572 76.7218 377.52 77.4246 378.893 77.9481C379.065 78.0149 379.254 78.0289 379.437 78.0043C381.49 77.7267 379.454 76.1877 377.439 74.452C376.435 73.5876 375.063 74.9615 375.926 75.9664Z" fill="white"/>
<path d="M158.034 572.854C156.889 572.126 155.499 573.363 156.117 574.568C157.1 576.48 158.708 578.251 161.323 579.231C169.036 582.123 163.854 574.424 159.599 573.5C159.013 573.374 158.494 573.149 158.034 572.857V572.854Z" fill="white"/>
<path d="M366.026 635.295C364.882 634.568 363.492 635.804 364.11 637.01C365.093 638.921 366.7 640.692 369.316 641.672C377.029 644.564 371.847 636.866 367.592 635.942C367.006 635.815 366.486 635.59 366.026 635.298V635.295Z" fill="white"/>
<path d="M86.6364 525.096C85.8219 525.447 85.9799 526.656 86.8575 526.761C88.2512 526.93 89.7994 526.712 91.2878 525.658C95.683 522.545 89.6203 522.524 87.5596 524.488C87.2753 524.758 86.9628 524.959 86.6364 525.099V525.096Z" fill="white"/>
<path d="M49.1647 709.821C39.5563 709.519 29.116 708.064 23.6746 696.61C13.9048 676.047 0.417276 673.862 -6 684.512C-5.77884 669.494 -5.58927 651.125 -5.42427 631.719C-0.688546 632.509 5.61288 635.31 12.3777 643.121C23.4429 655.889 34.5082 648.848 45.4154 648.897C44.924 649.769 44.4711 650.865 44.0955 652.239C43.7163 653.616 43.4144 655.278 43.2354 657.274C43.1687 657.959 43.1371 658.816 43.1301 659.818C37.5132 664.034 38.0047 673.89 44.5378 679.224C45.4541 690.053 46.8934 700.355 49.1682 709.821H49.1647Z" fill="white"/>
<path d="M125.793 711.623C119.618 712.291 109.458 700.805 101.24 695.735C102.1 690.436 102.837 685.26 103.431 680.471C103.757 677.882 104.042 675.408 104.277 673.089C112.695 680.162 115.96 694.48 123.676 695.457C136.683 697.108 135.019 710.64 125.793 711.627V711.623Z" fill="white"/>
<path d="M123.676 731.096C114.921 731.756 108.893 756.693 93.5871 753.611C89.8273 752.856 86.8504 751.837 84.4597 750.565C85.8815 749.623 87.2857 747.666 88.6548 744.929C89.6202 742.997 90.5751 740.678 91.4984 738.053C92.5937 734.968 93.6503 731.461 94.6579 727.67C95.03 726.282 95.3951 724.855 95.7496 723.397C100.415 728.362 107.38 730.4 116.581 725.154C140.32 711.623 132.431 730.439 123.683 731.096H123.676Z" fill="white"/>
<path d="M83.5364 750.046C83.0976 750.436 82.6553 750.731 82.2165 750.928C81.2405 751.272 80.0048 751.553 78.6076 751.75H78.5936C75.2586 752.224 71.0529 752.2 67.5775 751.413C66.9561 751.276 66.3629 751.11 65.7942 750.928C64.3689 750.401 62.9682 748.942 61.6236 746.746C60.3072 744.617 59.0469 741.806 57.8287 738.482C56.3578 734.441 54.9711 729.642 53.6793 724.431L50.7515 711.072L50.7304 710.956C50.6602 710.591 50.59 710.229 50.5198 709.863C59.5138 710.06 67.5178 709.603 69.6242 715.935C74.9602 731.954 72.9767 743.763 83.5329 750.049L83.5364 750.046Z" fill="white"/>
<path d="M99.7832 694.891C99.5936 696.072 99.3971 697.27 99.197 698.468C98.3158 703.718 97.3258 709.037 96.2376 714.181C95.6829 716.827 95.1072 719.427 94.5069 721.939C88.1914 713.798 87.0083 700.067 91.207 695.12C93.3203 692.635 96.3324 693.057 99.7797 694.888L99.7832 694.891Z" fill="white"/>
<path d="M103.406 664.452C103.273 666.655 103.069 669.185 102.795 671.957C97.1046 668.06 89.1568 667.498 76.5434 675.425C62.273 684.392 52.0854 684.118 45.9946 680.277C45.3733 674.979 44.9274 670.165 44.6782 666.191C44.4921 663.296 44.4114 660.847 44.443 658.988C44.457 658.233 44.4886 657.572 44.5377 657.02C44.7168 655.028 45.0187 653.363 45.3978 651.982C45.7348 650.759 46.128 649.758 46.5633 648.935C47.9781 646.23 49.7614 645.488 50.934 645.323C50.9129 646.504 51.5588 647.291 51.9555 647.698C52.5242 648.271 53.2334 648.816 54.0373 649.325C56.9545 651.188 61.3111 652.656 66.2505 653.468C69.7996 654.055 73.6542 654.311 77.4983 654.125C82.5218 653.886 87.5173 652.899 91.7932 650.959C93.7345 650.077 95.5319 648.995 97.1082 647.698C97.4838 647.389 98.1999 646.687 98.0736 645.58C100.046 646.346 102.729 648.907 103.473 657.02C103.624 658.647 103.592 661.209 103.406 664.455V664.452Z" fill="white"/>
<path d="M151.423 299.047C152.648 299.163 153.663 298.106 153.554 296.879C153.42 295.375 153.297 293.91 153.224 292.442C153.175 291.493 153.192 287.199 156.341 285.33C157.047 284.912 158.124 284.813 158.813 285.498C159.557 286.24 159.946 287.101 159.989 288.239C160.09 291.131 158.244 295.435 157.008 297.983C156.496 299.037 157.001 300.326 158.107 300.713C158.244 300.762 158.377 300.811 158.507 300.867C160.164 301.553 161.891 302.15 163.387 303.106C164.486 303.808 165.476 304.901 166.097 306.047C166.49 306.774 166.483 308.25 165.992 308.787C165.451 309.377 164.096 309.592 163.201 309.42C159.529 308.71 157.464 305.962 155.66 302.983C155.657 302.976 155.653 302.969 155.65 302.965C155.046 301.96 153.743 301.647 152.781 302.315C151.9 302.923 151.023 303.513 150.092 304.002C148.411 304.883 146.617 305.59 144.809 306.191C143.433 306.647 141.39 305.418 141.046 303.998C140.919 303.471 141.063 302.716 141.379 302.276C142.748 300.382 144.672 299.437 147.007 299.241C148.499 299.114 149.987 298.917 151.419 299.051L151.423 299.047Z" fill="white"/>
<path d="M92.0179 381.941C93.0851 381.333 93.3133 379.885 92.5234 378.944C91.5545 377.788 90.6137 376.66 89.7115 375.497C89.1287 374.745 86.6854 371.221 88.1914 367.883C88.5284 367.134 89.3534 366.435 90.3118 366.604C91.3474 366.786 92.1583 367.264 92.8464 368.174C94.5876 370.483 95.539 375.072 95.9848 377.868C96.1709 379.028 97.3223 379.79 98.4492 379.474C98.5861 379.435 98.7266 379.4 98.867 379.369C100.615 378.979 102.374 378.476 104.147 378.402C105.449 378.346 106.885 378.677 108.051 379.26C108.791 379.629 109.627 380.844 109.536 381.565C109.43 382.359 108.444 383.311 107.612 383.684C104.196 385.208 100.931 384.144 97.7436 382.735C97.7366 382.735 97.7296 382.728 97.7225 382.724C96.6518 382.25 95.4056 382.738 95.0019 383.838C94.6297 384.843 94.2471 385.827 93.7626 386.762C92.8885 388.448 91.8248 390.057 90.6874 391.586C89.8203 392.749 87.4437 392.918 86.3484 391.948C85.9447 391.589 85.6287 390.887 85.6357 390.346C85.6744 388.009 86.71 386.129 88.5074 384.629C89.6553 383.67 90.7646 382.654 92.0144 381.941H92.0179Z" fill="white"/>
<path d="M316.616 302.778C317.683 302.17 317.911 300.722 317.121 299.78C316.152 298.624 315.211 297.497 314.309 296.334C313.726 295.582 311.283 292.057 312.789 288.719C313.126 287.971 313.951 287.272 314.909 287.44C315.945 287.623 316.756 288.101 317.444 289.011C319.185 291.32 320.137 295.908 320.582 298.705C320.769 299.865 321.92 300.627 323.047 300.311C323.184 300.272 323.324 300.237 323.465 300.206C325.213 299.816 326.972 299.313 328.744 299.239C330.047 299.183 331.483 299.513 332.648 300.097C333.389 300.466 334.224 301.681 334.133 302.402C334.028 303.196 333.041 304.148 332.209 304.52C328.794 306.045 325.529 304.981 322.341 303.572C322.334 303.572 322.327 303.565 322.32 303.561C321.249 303.087 320.003 303.575 319.6 304.675C319.227 305.68 318.845 306.664 318.36 307.598C317.486 309.285 316.422 310.894 315.285 312.423C314.418 313.586 312.041 313.754 310.946 312.785C310.542 312.426 310.226 311.724 310.233 311.182C310.272 308.846 311.308 306.966 313.105 305.466C314.253 304.506 315.362 303.491 316.612 302.778H316.616Z" fill="white"/>
<path d="M91.6183 62.8542C92.8435 62.7769 93.6825 61.5752 93.3841 60.3805C93.019 58.9153 92.668 57.4888 92.3696 56.0482C92.173 55.117 91.5235 50.876 94.339 48.5394C94.9709 48.0159 96.017 47.7488 96.8069 48.3216C97.6564 48.94 98.1795 49.727 98.3937 50.8444C98.9448 53.6835 97.7898 58.2266 96.9684 60.9322C96.6279 62.053 97.3265 63.2477 98.4779 63.4585C98.6183 63.4831 98.7588 63.5147 98.8992 63.5464C100.64 63.9645 102.445 64.2842 104.067 64.994C105.26 65.514 106.408 66.4416 107.202 67.4782C107.704 68.1352 107.925 69.5934 107.525 70.2013C107.082 70.8689 105.776 71.2905 104.867 71.2624C101.128 71.1324 98.6605 68.7396 96.4172 66.0797C96.4137 66.0727 96.4067 66.0692 96.4032 66.0622C95.6519 65.1662 94.3144 65.0607 93.4684 65.8689C92.6925 66.6068 91.9167 67.3271 91.0742 67.9525C89.5506 69.0875 87.8866 70.0643 86.198 70.9356C84.9096 71.6032 82.7015 70.7073 82.1398 69.3545C81.9327 68.8555 81.9573 68.0825 82.203 67.6012C83.2632 65.5175 85.015 64.2842 87.2898 63.7256C88.7432 63.3672 90.1825 62.942 91.6183 62.8507V62.8542Z" fill="white"/>
<path d="M343.857 419.612C344.925 419.004 345.153 417.556 344.363 416.614C343.394 415.458 342.453 414.331 341.551 413.168C340.968 412.416 338.525 408.891 340.031 405.553C340.368 404.805 341.193 404.106 342.151 404.274C343.187 404.457 343.998 404.935 344.686 405.845C346.427 408.154 347.378 412.742 347.824 415.539C348.01 416.699 349.162 417.461 350.289 417.145C350.426 417.106 350.566 417.071 350.706 417.04C352.455 416.65 354.214 416.147 355.986 416.073C357.289 416.017 358.725 416.347 359.89 416.931C360.631 417.3 361.466 418.515 361.375 419.236C361.27 420.03 360.283 420.982 359.451 421.354C356.035 422.879 352.771 421.815 349.583 420.406C349.576 420.406 349.569 420.399 349.562 420.395C348.491 419.921 347.245 420.409 346.841 421.509C346.469 422.514 346.087 423.498 345.602 424.432C344.728 426.119 343.664 427.728 342.527 429.257C341.66 430.42 339.283 430.588 338.188 429.619C337.784 429.26 337.468 428.558 337.475 428.016C337.514 425.68 338.549 423.8 340.347 422.3C341.495 421.34 342.604 420.325 343.854 419.612H343.857Z" fill="white"/>
<path d="M161.98 734.947C161.98 734.947 154.158 728.201 164.532 715.161C169.078 709.444 162.973 710.003 162.569 704.459C162.162 698.917 169.608 691.936 168.298 688.528C164.507 678.665 172.606 684.002 174.066 668.025C174.537 662.871 170.261 646.015 169.794 644.765C169.299 643.443 170.703 644.002 171.135 644.754C171.567 645.506 179.037 654.585 179.136 671.873C179.192 682.01 171.995 683.022 173.764 687.491C175.534 691.96 172.961 694.638 170.903 698.886C168.85 703.134 168.021 705.246 172.104 711.247C176.513 717.726 167.674 720.326 169.408 726.451C170.77 731.257 178.163 733.432 178.163 733.432L161.98 734.95V734.947Z" fill="white"/>
<path d="M10.4679 654.139C10.4679 654.139 2.64642 647.393 13.0201 634.354C17.5662 628.637 11.4614 629.196 11.0577 623.651C10.6505 618.11 18.0963 611.128 16.7869 607.72C12.9955 597.857 21.0943 603.194 22.5547 587.218C23.0251 582.063 18.7493 565.208 18.2824 563.957C17.7874 562.636 19.1916 563.194 19.6234 563.946C20.0552 564.698 27.5257 573.778 27.6239 591.065C27.6801 601.202 20.4835 602.214 22.2528 606.683C24.0221 611.153 21.4489 613.83 19.3917 618.078C17.3381 622.326 16.5096 624.438 20.5923 630.439C25.0016 636.919 16.162 639.519 17.8962 645.643C19.2583 650.45 26.6515 652.625 26.6515 652.625L10.4679 654.143V654.139Z" fill="white"/>
<path d="M378.657 684.353C377.362 679.701 382.186 677.08 382.582 673.229C382.709 672.031 382.403 670.72 381.361 669.185C377.278 663.18 378.106 661.068 380.163 656.82C382.217 652.572 384.794 649.891 383.021 645.425C381.248 640.956 388.452 639.944 388.392 629.81C388.297 612.519 380.823 603.44 380.395 602.688C379.967 601.936 378.559 601.374 379.054 602.699C379.521 603.95 383.8 620.808 383.33 625.963C381.87 641.936 373.771 636.602 377.559 646.465C378.872 649.87 371.422 656.855 371.829 662.396C372.237 667.937 378.341 667.382 373.792 673.095C372.612 674.582 371.664 675.987 370.92 677.308C365.103 687.586 371.247 692.881 371.247 692.881L376.797 692.361L378.664 684.35L378.657 684.353Z" fill="white"/>
<path d="M178.314 740.284L191.019 740.249C191.019 740.249 199.658 730.109 191.552 720.819C183.443 711.525 186.441 700.053 193.813 697.133C199.069 695.053 196.594 687.811 193.841 679.993C193.245 678.3 193.876 677.189 193.655 676.739C193.392 676.195 192.293 677.136 192.293 679.578C192.293 682.474 194.996 692.006 191.486 693.24C187.979 694.473 180.526 697.583 182.197 705.432C183.763 712.783 178.023 715.608 185.09 724.171C194.298 735.327 178.311 740.288 178.311 740.288L178.314 740.284Z" fill="white"/>
<path d="M150.767 735.246L140.397 733.664C140.397 733.664 134.58 724.329 142.335 717.73C150.089 711.135 149.043 701.398 143.381 698.113C139.344 695.769 142.25 690.161 145.448 684.114C146.143 682.804 145.764 681.82 145.996 681.479C146.28 681.068 147.06 681.971 146.761 683.963C146.407 686.325 143.037 693.781 145.75 695.218C148.464 696.655 154.172 700.105 151.848 706.31C149.672 712.122 154.014 715.13 147.2 721.258C138.318 729.241 150.767 735.246 150.767 735.246Z" fill="white"/>
<path d="M41.8488 653.717L33.5463 652.453C33.5463 652.453 28.8878 644.979 35.098 639.698C41.3046 634.417 40.4691 626.623 35.9335 623.995C32.7003 622.119 35.0278 617.628 37.5905 612.79C38.1451 611.739 37.8432 610.952 38.0293 610.682C38.254 610.352 38.8788 611.075 38.6401 612.671C38.3558 614.561 35.6597 620.531 37.8327 621.68C40.0057 622.829 44.5729 625.59 42.7124 630.559C40.9711 635.211 44.4466 637.618 38.9912 642.523C31.8823 648.914 41.8453 653.721 41.8453 653.721L41.8488 653.717Z" fill="white"/>
<path d="M368.459 711.468L358.089 709.887C358.089 709.887 352.272 700.551 360.027 693.953C367.782 687.357 366.736 677.621 361.073 674.336C357.036 671.992 359.943 666.384 363.141 660.337C363.836 659.026 363.457 658.043 363.688 657.702C363.973 657.291 364.752 658.194 364.454 660.186C364.099 662.547 360.729 670.003 363.443 671.44C366.156 672.877 371.864 676.328 369.541 682.533C367.364 688.345 371.707 691.352 364.893 697.48C356.011 705.463 368.459 711.468 368.459 711.468Z" fill="white"/>
<path d="M52.146 312.825L76.3827 286.191C76.3827 286.191 55.6443 277.829 49.8281 293.776C45.8778 308.83 46.9099 311.207 46.9099 311.207L42.0355 308.134C42.0355 308.134 42.8467 305.559 40.805 304.93C38.7658 304.301 38.0099 305.022 38.0099 305.022L42.4825 309.357L44.4765 313.059C44.4765 313.059 24.0143 322.841 43.2259 344.992C51.8974 353.802 52.0004 352.98 52.0004 352.98L50.137 319.572C50.137 319.572 56.6312 328.33 69.8483 322.709C83.0678 317.088 83 316.059 83 316.059C83 316.059 61.242 318.662 52.1435 312.823L52.146 312.825Z" fill="white"/>
<path d="M296.787 72.1068L314.367 48.613C314.367 48.613 297.028 43.3222 293.514 56.7503C291.439 69.3129 292.446 71.1723 292.446 71.1723L288.287 69.0246C288.287 69.0246 288.752 66.8658 287.059 66.5019C285.366 66.138 284.811 66.7835 284.811 66.7835L288.738 69.9888L290.62 72.8577C290.62 72.8577 274.843 82.3385 291.967 98.98C299.609 105.52 299.632 104.845 299.632 104.845L295.666 77.7524C295.666 77.7524 301.548 84.411 311.792 78.8579C322.037 73.302 321.907 72.4697 321.907 72.4697C321.907 72.4697 304.553 76.1913 296.785 72.1028L296.787 72.1068Z" fill="white"/>
</g>
<defs>
<clipPath id="clip0_1101_3792">
<rect width="403" height="808" fill="white" transform="translate(-6)"/>
</clipPath>
</defs>
</svg>
