<svg width="18" height="24" viewBox="0 0 18 24" fill="none" xmlns="http://www.w3.org/2000/svg">
<g clip-path="url(#clip0_1002_2752)">
<path d="M17.1116 7.79915L16.4335 7.03854C16.0506 6.61069 15.8308 6.04024 15.8214 5.44261L15.8057 4.38659C15.7869 3.11664 14.8388 2.09457 13.6648 2.0708L12.6885 2.05382C12.136 2.04363 11.6086 1.80594 11.2131 1.39168L10.5099 0.658233C9.66549 -0.224619 8.32821 -0.224619 7.48377 0.658233L6.7806 1.39168C6.38506 1.80594 5.85768 2.04363 5.30519 2.05382L4.32891 2.0708C3.15486 2.09117 2.20997 3.11664 2.18799 4.38659L2.1723 5.44261C2.16288 6.04024 1.94314 6.61069 1.56016 7.03854L0.882097 7.79915C0.0659125 8.71256 0.0659125 10.1591 0.882097 11.0725L1.56016 11.8331C1.94314 12.2609 2.16288 12.8314 2.1723 13.429L2.18799 14.4851C2.20683 15.755 3.15486 16.7771 4.32891 16.8008L5.30519 16.8178C5.85768 16.828 6.38506 17.0657 6.7806 17.48L7.48377 18.2134C8.32821 19.0963 9.66549 19.0963 10.5099 18.2134L11.2131 17.48C11.6086 17.0657 12.136 16.828 12.6885 16.8178L13.6648 16.8008C14.8388 16.7805 15.7837 15.755 15.8057 14.4851L15.8214 13.429C15.8308 12.8314 16.0506 12.2609 16.4335 11.8331L17.1116 11.0725C17.9278 10.1591 17.9278 8.71256 17.1116 7.79915ZM11.6055 9.66333L11.3889 9.90781C11.2665 10.047 11.1943 10.2304 11.1911 10.4205L11.1849 10.7601C11.1786 11.1676 10.8741 11.4969 10.4974 11.5037L10.1835 11.5105C10.0077 11.5105 9.83815 11.5886 9.70944 11.7244L9.48342 11.9587C9.21345 12.2406 8.78339 12.2406 8.51028 11.9587L8.28426 11.7244C8.15555 11.592 7.98604 11.5139 7.81024 11.5105L7.49633 11.5037C7.11963 11.4969 6.81513 11.1676 6.80885 10.7601L6.80257 10.4205C6.80257 10.2304 6.73037 10.047 6.6048 9.90781L6.3882 9.66333C6.12765 9.37131 6.12765 8.90611 6.3882 8.61069L6.6048 8.36621C6.72723 8.22699 6.79943 8.04363 6.80257 7.85348L6.80885 7.51392C6.81513 7.10645 7.11963 6.77708 7.49633 6.77029L7.81024 6.7635C7.98604 6.7635 8.15555 6.6854 8.28426 6.54957L8.51028 6.31528C8.78025 6.03345 9.21031 6.03345 9.48342 6.31528L9.70944 6.54957C9.83815 6.682 10.0077 6.7601 10.1835 6.7635L10.4974 6.77029C10.8741 6.77708 11.1786 7.10645 11.1849 7.51392L11.1911 7.85348C11.1911 8.04363 11.2633 8.22699 11.3889 8.36621L11.6055 8.61069C11.8661 8.90272 11.8661 9.36791 11.6055 9.66333Z" fill="white"/>
<path d="M7.46495 19.06L5.82944 23.5455C5.61911 24.1228 4.87513 24.1635 4.61144 23.61L3.66969 21.6134C3.51273 21.2875 3.16428 21.1381 2.84409 21.2603L0.894664 22.0243C0.354727 22.2314 -0.163236 21.6542 0.0470881 21.0735L1.92117 15.9326C2.39519 16.8426 3.28671 17.4572 4.32264 17.4776L5.29892 17.4946C5.69132 17.5014 6.06488 17.6712 6.3474 17.9666L7.05058 18.7C7.17928 18.8358 7.31741 18.9547 7.46495 19.06Z" fill="white"/>
<path d="M17.1022 22.0238L15.1528 21.2598C14.8326 21.1375 14.481 21.2869 14.3272 21.6129L13.3854 23.6095C13.1217 24.163 12.3778 24.1223 12.1674 23.545L10.5319 19.0594C10.6795 18.9542 10.8176 18.8353 10.9463 18.6995L11.6495 17.9661C11.932 17.6706 12.3056 17.5009 12.6979 17.4941L13.6742 17.4771C14.7102 17.4567 15.6048 16.8421 16.0726 15.9287L17.9498 21.073C18.1601 21.6537 17.6421 22.2309 17.1022 22.0238Z" fill="white"/>
</g>
<defs>
<clipPath id="clip0_1002_2752">
<rect width="18" height="24" fill="white"/>
</clipPath>
</defs>
</svg>
