<svg width="108" height="108" viewBox="0 0 108 108" fill="none" xmlns="http://www.w3.org/2000/svg">
<g clip-path="url(#clip0_485_4460)">
<path d="M103.85 44.3102L99.68 39.9902C97.33 37.5502 95.98 34.3102 95.93 30.9302L95.83 24.9302C95.82 24.3202 95.75 23.7302 95.67 23.1402C94.81 24.2802 93.74 25.2802 92.51 26.0602C90.95 27.0502 89.82 28.5302 89.32 30.2302L88.91 31.6402H88.87C88.86 31.7502 88.84 31.8802 88.8 32.0002L88.44 33.2402C88.26 33.8502 87.84 34.3202 87.32 34.5902L87.07 35.4302C86.8 36.3502 85.99 36.9602 85.09 37.0302C84.29 38.3702 82.66 39.0602 81.1 38.6002L77.79 37.6302C76.23 37.1702 75.23 35.7102 75.28 34.1502C74.56 33.6102 74.21 32.6502 74.48 31.7402L74.73 30.9002C74.43 30.3902 74.34 29.7602 74.52 29.1502L74.88 27.9202C74.92 27.8002 74.96 27.6802 75.02 27.5702H74.98L75.39 26.1502C75.89 24.4602 75.73 22.6002 74.96 20.9202C73.66 18.0902 73.49 14.9002 74.5 11.9402C74.55 11.7902 74.62 11.6402 74.68 11.4902C72.04 11.0402 69.58 9.8202 67.63 7.9402L63.31 3.7702C58.12 -1.2398 49.9 -1.2398 44.71 3.7702L40.39 7.9402C37.95 10.2902 34.71 11.6402 31.32 11.6902L25.32 11.7902C18.11 11.9202 12.3 17.7302 12.17 24.9402L12.07 30.9402C12.01 34.3302 10.67 37.5702 8.32002 40.0002L4.15002 44.3202C-0.859983 49.5102 -0.859983 57.7302 4.15002 62.9202L8.32002 67.2402C10.67 69.6802 12.02 72.9202 12.07 76.3102L12.17 82.3102C12.3 89.5202 18.11 95.3302 25.32 95.4602L31.32 95.5602C34.71 95.6202 37.95 96.9602 40.39 99.3102L44.71 103.48C49.9 108.49 58.12 108.49 63.31 103.48L67.63 99.3102C70.07 96.9602 73.31 95.6102 76.7 95.5602L82.7 95.4602C89.91 95.3302 95.72 89.5202 95.85 82.3102L95.95 76.3102C96.01 72.9202 97.35 69.6802 99.7 67.2402L103.87 62.9202C108.88 57.7302 108.88 49.5102 103.87 44.3202L103.85 44.3102Z" fill="black"/>
<path d="M34.08 29.9099C34.31 29.4999 34.8 29.3299 35.23 29.5099C37.68 30.4999 45.81 32.7299 53.99 25.1499C55.34 23.8999 57.45 23.8099 58.92 25.0799C59.81 25.8499 60.23 27.0399 60.16 28.2199L56.57 84.0199C56.54 84.5299 56.1 84.9099 55.59 84.8799L50.08 84.5299C49.57 84.4999 49.19 84.0599 49.22 83.5499L52.23 36.7799C52.27 36.0999 51.58 35.6099 50.95 35.8799C46.78 37.6599 42.94 37.9599 40 37.7499C36.2 37.4899 33.32 36.3799 31.94 35.7399C31.45 35.5199 31.27 34.9199 31.53 34.4599L34.08 29.9099Z" fill="white"/>
<path d="M38.07 58.21C37.24 58.21 36.87 57.89 36.79 57.45C36.43 55.42 34.66 53.88 32.53 53.88C30.4 53.88 28.63 55.42 28.27 57.45C28.19 57.89 27.82 58.21 27.37 58.21H23.39C22.46 58.21 22.03 57.74 22.08 57.19C22.59 51.87 27.07 47.71 32.53 47.71C37.99 47.71 42.47 51.87 42.98 57.19C43.03 57.73 42.6 58.21 42.06 58.21H38.08H38.07Z" fill="white"/>
<path d="M81.02 58.21C80.19 58.21 79.82 57.89 79.74 57.45C79.38 55.42 77.61 53.88 75.48 53.88C73.35 53.88 71.58 55.42 71.22 57.45C71.14 57.89 70.77 58.21 70.32 58.21H66.34C65.41 58.21 64.98 57.74 65.03 57.19C65.54 51.87 70.02 47.71 75.48 47.71C80.94 47.71 85.42 51.87 85.93 57.19C85.98 57.73 85.55 58.21 85.01 58.21H81.03H81.02Z" fill="white"/>
<path d="M77.019 27.6494L87.1226 30.6154C87.3529 30.683 87.4817 30.9189 87.4141 31.1492L87.0564 32.3677C86.9409 32.7611 86.5189 32.9916 86.1255 32.8761L76.6359 30.0904C76.2425 29.9749 76.0121 29.5529 76.1275 29.1595L76.4853 27.9409C76.5529 27.7106 76.7887 27.5818 77.019 27.6494Z" fill="black"/>
<path d="M88.84 5.05986C83.58 3.72986 78.1 6.70986 76.36 11.8499C75.46 14.5099 75.68 17.2699 76.76 19.6099C77.65 21.5399 77.86 23.7199 77.26 25.7699C77.15 26.1599 77.38 26.5699 77.77 26.6799L87.26 29.4699C87.65 29.5799 88.06 29.3599 88.18 28.9799C88.78 26.9399 90.13 25.2199 91.92 24.0699C93.98 22.7599 95.59 20.7199 96.34 18.1899C98.01 12.4999 94.64 6.52986 88.83 5.06986L88.84 5.05986Z" fill="black"/>
<path d="M76.5745 30.0728L86.1888 32.8951L85.7099 34.5263C85.5944 34.9197 85.1724 35.1501 84.779 35.0347L76.604 32.6348C76.2106 32.5193 75.9801 32.0973 76.0956 31.7039L76.5745 30.0728Z" fill="black"/>
<path d="M77.1375 32.7925L84.2282 34.874L84.1043 35.2962C83.7945 36.3517 82.6774 36.9617 81.6219 36.6519L78.3692 35.697C77.3137 35.3872 76.7037 34.2701 77.0135 33.2147L77.1375 32.7925Z" fill="black"/>
</g>
<defs>
<clipPath id="clip0_485_4460">
<rect width="107.22" height="107.22" fill="white" transform="translate(0.390015)"/>
</clipPath>
</defs>
</svg>
