<svg width="16" height="20" viewBox="0 0 16 20" fill="none" xmlns="http://www.w3.org/2000/svg">
<g clip-path="url(#clip0_192_677)">
<path d="M9.77411 0.5C9.98879 0.729507 10.2249 0.941299 10.4126 1.19094C10.7612 1.6564 11.1945 1.92456 11.7768 1.96965C12.668 2.03891 12.8787 2.26278 12.9365 3.15262C12.9753 3.74048 13.2344 4.19064 13.7081 4.53128C14.4765 5.08371 14.5351 5.31724 14.1383 6.17165C13.8824 6.72086 13.9117 7.25557 14.1644 7.79753C14.528 8.57705 14.4543 8.86776 13.754 9.34691C13.2328 9.70365 12.9674 10.1876 12.9318 10.823C12.8866 11.6219 12.6212 11.8852 11.8282 11.9327C11.2198 11.9689 10.7517 12.2339 10.4031 12.7452C9.89215 13.4942 9.63231 13.561 8.81557 13.1688C8.27768 12.9103 7.75246 12.9256 7.21615 13.1825C6.4303 13.5586 6.15859 13.4813 5.66347 12.7476C5.30778 12.221 4.82296 11.9609 4.20031 11.9303C3.46674 11.894 3.17047 11.6098 3.13799 10.8657C3.10868 10.1764 2.80527 9.67949 2.24916 9.30101C1.62175 8.8742 1.53857 8.52632 1.88079 7.83619C2.16915 7.25477 2.17628 6.68784 1.89426 6.10159C1.53461 5.35267 1.61145 5.04989 2.28956 4.5796C2.81795 4.21238 3.09996 3.72841 3.13482 3.0737C3.17522 2.2966 3.43981 2.01958 4.2106 1.9761C4.87445 1.93905 5.35056 1.63707 5.7213 1.09189C5.8734 0.868823 6.09759 0.695685 6.2885 0.5C6.44694 0.5 6.60538 0.5 6.76381 0.5C7.60907 1.05726 8.45354 1.05323 9.2988 0.5C9.45724 0.5 9.61568 0.5 9.77411 0.5ZM8.04081 10.7433C10.1076 10.7401 11.7633 9.05459 11.7609 6.95681C11.7593 4.85662 10.0997 3.16148 8.04398 3.15987C5.9645 3.15826 4.29378 4.86064 4.30171 6.97292C4.30963 9.06989 5.97163 10.7465 8.04002 10.7433H8.04081Z" fill="white"/>
<path d="M9.29878 0.5C8.45352 1.05323 7.60905 1.05726 6.76379 0.5H9.29878Z" fill="white"/>
<path d="M3.2362 12.2814C3.58635 12.3603 3.88104 12.4634 4.18128 12.4867C4.70095 12.5262 5.12794 12.7041 5.41867 13.1583C5.68564 13.5755 5.99934 13.925 6.57209 13.9475C5.70386 15.7739 4.8586 17.5528 3.9864 19.3872C3.62437 18.8356 3.28532 18.3468 2.97795 17.8387C2.8211 17.5794 2.66504 17.4755 2.345 17.5319C1.76433 17.6349 1.17177 17.672 0.5 17.7461C1.44428 15.8601 2.35846 14.0337 3.2362 12.2814Z" fill="white"/>
<path d="M15.5 17.7412C14.9304 17.6647 14.3925 17.6156 13.8641 17.5133C13.4934 17.4409 13.2882 17.5085 13.171 17.9104C13.0221 18.4209 12.8002 18.9105 12.5753 19.5C11.5122 17.6406 10.4855 15.8456 9.42792 13.9958C10.1884 13.9797 10.6503 13.5868 11.0004 12.9836C11.1953 12.6478 12.3131 12.2846 12.6632 12.3933C12.7266 12.4134 12.7868 12.4875 12.8208 12.552C13.712 14.2382 14.5993 15.9261 15.4865 17.6148C15.4976 17.6366 15.4929 17.6672 15.5 17.7404V17.7412Z" fill="white"/>
</g>
<defs>
<clipPath id="clip0_192_677">
<rect width="15" height="19" fill="white" transform="translate(0.5 0.5)"/>
</clipPath>
</defs>
</svg>
