<svg width="16" height="24" viewBox="0 0 16 24" fill="none" xmlns="http://www.w3.org/2000/svg">
<g clip-path="url(#clip0_665_234)">
<path d="M6.70622 16.4468L4.01798 23.6903C3.87306 24.0809 3.36086 24.1091 3.17943 23.7338L2.52673 22.3821C2.42274 22.1609 2.17936 22.0609 1.96142 22.1433L0.617305 22.6597C0.245598 22.8009 -0.112834 22.4103 0.0331937 22.0174L2.74024 14.7197C3.08429 14.9256 3.48033 15.0444 3.90293 15.0527L4.75808 15.0691C5.10213 15.075 5.42848 15.2186 5.67518 15.4727L6.29026 16.1044C6.41859 16.2362 6.55798 16.3503 6.70622 16.4468Z" fill="white"/>
<path d="M15.3827 22.6597L14.0386 22.1433C13.8185 22.0609 13.5773 22.1609 13.4711 22.3821L12.8206 23.7338C12.6392 24.1091 12.127 24.0809 11.9821 23.6903L9.29492 16.4468C9.44316 16.3503 9.58255 16.235 9.70977 16.1044L10.3249 15.4727C10.5716 15.2186 10.8979 15.075 11.242 15.0691L12.096 15.0527C12.5197 15.0444 12.9157 14.9256 13.2598 14.7197L15.9668 22.0174C16.1118 22.4103 15.7544 22.8009 15.3827 22.6597Z" fill="white"/>
<path d="M15.105 6.71618L14.5109 6.06206C14.1757 5.69265 13.9844 5.20206 13.9755 4.68794L13.9611 3.77853C13.9434 2.68559 13.1148 1.80441 12.0871 1.78559L11.232 1.77029C10.7496 1.76088 10.2872 1.55853 9.93983 1.20088L9.32475 0.569117C8.58576 -0.189706 7.41311 -0.189706 6.67412 0.569117L6.05904 1.20088C5.71167 1.55735 5.25035 1.76088 4.76691 1.77029L3.91177 1.78559C2.88404 1.80441 2.05545 2.68559 2.03775 3.77853L2.02336 4.68794C2.01451 5.20088 1.82424 5.69265 1.48793 6.06206L0.893862 6.71618C0.180318 7.50206 0.180318 8.74912 0.893862 9.535L1.48793 10.1891C1.82313 10.5585 2.01451 11.0491 2.02336 11.5632L2.03775 12.4726C2.05545 13.5656 2.88404 14.4468 3.91177 14.4656L4.76691 14.4809C5.25035 14.4903 5.71167 14.6926 6.05904 15.0503L6.67412 15.6821C7.41311 16.4409 8.58576 16.4409 9.32475 15.6821L9.93983 15.0503C10.2872 14.6938 10.7485 14.4903 11.232 14.4809L12.0871 14.4656C13.1148 14.4468 13.9434 13.5656 13.9611 12.4726L13.9755 11.5632C13.9844 11.0503 14.1746 10.5585 14.5109 10.1891L15.105 9.535C15.8186 8.74912 15.8186 7.50206 15.105 6.71618ZM10.8392 8.45265L10.6014 8.71382C10.4675 8.86088 10.3912 9.05735 10.3879 9.26323L10.3823 9.62676C10.3757 10.0632 10.0438 10.415 9.6334 10.4232L9.29156 10.4291C9.09907 10.4326 8.91432 10.5138 8.77493 10.6562L8.52934 10.9091C8.23396 11.2126 7.76601 11.2126 7.47064 10.9091L7.22505 10.6562C7.08676 10.5138 6.90202 10.4326 6.70842 10.4291L6.36658 10.4232C5.95615 10.4162 5.62538 10.0632 5.61764 9.62676L5.6121 9.26323C5.60879 9.05853 5.53245 8.86206 5.39859 8.71382L5.16075 8.45265C4.87533 8.13853 4.87533 7.64088 5.16075 7.32676L5.39859 7.06559C5.53245 6.91853 5.60879 6.72206 5.6121 6.51618L5.61764 6.15265C5.62427 5.71618 5.95615 5.36441 6.36658 5.35618L6.70842 5.35029C6.90091 5.34676 7.08566 5.26559 7.22505 5.12323L7.47064 4.87029C7.76601 4.56676 8.23396 4.56676 8.52934 4.87029L8.77493 5.12323C8.91321 5.26559 9.09796 5.34676 9.29156 5.35029L9.6334 5.35618C10.0438 5.36323 10.3746 5.71618 10.3823 6.15265L10.3879 6.51618C10.3912 6.72088 10.4675 6.91735 10.6014 7.06559L10.8392 7.32676C11.1246 7.64088 11.1246 8.13853 10.8392 8.45265Z" fill="white"/>
</g>
<defs>
<clipPath id="clip0_665_234">
<rect width="16" height="24" fill="white"/>
</clipPath>
</defs>
</svg>
