<svg width="428" height="823" viewBox="0 0 428 823" fill="none" xmlns="http://www.w3.org/2000/svg">
<g clip-path="url(#clip0_937_4722)">
<path d="M87.6483 319.335C87.1531 319.719 86.4478 319.687 85.9527 319.303C84.6596 318.303 81.0511 315.701 82.0022 312.27C82.9533 308.842 86.6687 311.173 85.3115 314.328C83.8474 317.738 89.0233 318.264 87.6483 319.335Z" fill="white"/>
<path d="M60.8498 267.499C60.3368 267.165 59.6564 267.658 59.8167 268.247C59.9877 268.883 60.4686 269.567 61.5337 270.188C64.6364 272.009 66.5564 268.553 63.9061 268.098C62.3495 267.832 61.3841 267.846 60.8498 267.499Z" fill="white"/>
<path d="M71.9069 111.985C71.3939 111.651 70.7136 112.145 70.8739 112.734C71.0448 113.369 71.5257 114.054 72.5908 114.675C75.6935 116.495 77.6136 113.039 74.9633 112.585C73.4066 112.318 72.4412 112.333 71.9069 111.985Z" fill="white"/>
<path d="M321.327 286.345C321.599 285.913 321.237 285.356 320.757 285.453C318.366 285.945 316.71 288.669 317.973 290.129C318.952 291.262 319.076 289.923 320.499 287.66L321.327 286.343L321.327 286.345Z" fill="white"/>
<path d="M376.537 287.669C376.252 287.719 376.063 287.989 376.074 288.276C376.12 289.767 376.629 294.352 381.164 293.032C383.615 292.318 380.851 290.107 379.005 289.721C377.342 289.376 377.744 287.46 376.54 287.666L376.537 287.669Z" fill="white"/>
<path d="M405.847 336.561C405.426 336.724 404.39 338.243 405.847 338.963C407.304 339.684 407.321 335.993 405.847 336.561Z" fill="white"/>
<path d="M386.717 433.46C386.297 433.623 385.261 435.142 386.717 435.863C388.174 436.583 388.192 432.892 386.717 433.46Z" fill="white"/>
<path d="M322.412 540.966C321.992 541.129 320.955 542.648 322.412 543.368C323.869 544.089 323.887 540.398 322.412 540.966Z" fill="white"/>
<path d="M135.111 273.446C134.691 273.61 133.654 275.128 135.111 275.849C136.568 276.569 136.586 272.879 135.111 273.446Z" fill="white"/>
<path d="M118.793 360.224C118.372 360.387 117.336 361.906 118.793 362.626C120.25 363.347 120.267 359.656 118.793 360.224Z" fill="white"/>
<path d="M75.6294 285.923C75.177 286.097 74.0691 287.726 75.6294 288.499C77.1896 289.273 77.211 285.316 75.6294 285.923Z" fill="white"/>
<path d="M400.258 161.28C400.71 161.454 401.818 163.083 400.258 163.857C398.697 164.63 398.676 160.674 400.258 161.28Z" fill="white"/>
<path d="M56.3328 223.82C55.9125 223.984 54.8759 225.503 56.3328 226.223C57.7898 226.943 57.8076 223.253 56.3328 223.82Z" fill="white"/>
<path d="M83.7619 181.757C83.3416 181.92 82.305 183.439 83.7619 184.159C85.2189 184.88 85.2367 181.189 83.7619 181.757Z" fill="white"/>
<path d="M107.415 227.188C106.995 227.351 105.958 228.87 107.415 229.59C108.872 230.31 108.89 226.62 107.415 227.188Z" fill="white"/>
<path d="M390.08 479.59C389.66 479.753 388.623 481.272 390.08 481.992C391.537 482.713 391.555 479.022 390.08 479.59Z" fill="white"/>
<path d="M35.1442 235.122C34.5565 234.622 33.6232 235.672 34.1611 238.039C34.7025 240.406 36.9467 239.193 35.8745 238.039C34.8023 236.886 35.7177 235.612 35.1442 235.122Z" fill="white"/>
<path d="M83.1955 337.962C82.4404 338.122 82.704 339.499 84.9161 340.517C87.1282 341.536 87.5343 339.023 85.9598 339.165C84.3853 339.307 83.9329 337.81 83.1955 337.962Z" fill="white"/>
<path d="M333.256 322.905C331.596 322.607 330.994 325.616 334.638 329.485C338.279 333.353 341.175 328.597 337.869 327.6C334.563 326.603 334.88 323.196 333.259 322.905H333.256Z" fill="white"/>
<path d="M61.0065 303.944C60.7072 303.803 60.3795 304.079 60.4828 304.392C60.7357 305.165 61.3983 306.028 63.0975 305.829C66.0719 305.485 63.6105 304.558 61.9896 304.243C61.5622 304.161 61.2416 304.054 61.0065 303.941V303.944Z" fill="white"/>
<path d="M41.7206 329.172C41.4214 329.03 41.0937 329.307 41.197 329.619C41.4499 330.393 42.1125 331.255 43.8117 331.056C46.7861 330.712 44.3246 329.786 42.7038 329.47C42.2763 329.388 41.9558 329.282 41.7206 329.168V329.172Z" fill="white"/>
<path d="M388.082 78.7325C387.783 78.5906 387.455 78.8674 387.558 79.1797C387.811 79.9533 388.474 80.8157 390.173 80.6169C393.147 80.2727 390.686 79.3465 389.065 79.0306C388.638 78.949 388.317 78.8426 388.082 78.729V78.7325Z" fill="white"/>
<path d="M54.1492 242.948C54.2098 242.199 53.3584 241.73 52.7742 242.202C51.3315 243.363 50.0349 245.45 51.8231 248.881C54.9543 254.879 54.9401 248.934 54.2989 245.269C54.1279 244.296 54.0994 243.54 54.1492 242.951V242.948Z" fill="white"/>
<path d="M385.702 337.81C385.46 337.696 385.196 337.916 385.278 338.172C385.485 338.797 386.016 339.492 387.387 339.332C389.788 339.056 387.8 338.307 386.493 338.055C386.148 337.987 385.891 337.902 385.699 337.81H385.702Z" fill="white"/>
<path d="M128.71 368.506C128.468 368.393 128.204 368.613 128.286 368.868C128.493 369.493 129.023 370.188 130.395 370.029C132.796 369.752 130.808 369.003 129.501 368.751C129.155 368.684 128.899 368.599 128.706 368.506H128.71Z" fill="white"/>
<path d="M145.702 286.47C145.459 286.357 145.196 286.577 145.278 286.832C145.484 287.457 146.015 288.152 147.387 287.993C149.788 287.716 147.8 286.967 146.492 286.715C146.147 286.648 145.89 286.562 145.698 286.47H145.702Z" fill="white"/>
<path d="M144.074 361.962C143.832 361.849 143.568 362.069 143.65 362.324C143.856 362.949 144.387 363.644 145.759 363.485C148.16 363.208 146.172 362.459 144.865 362.207C144.519 362.14 144.263 362.055 144.07 361.962H144.074Z" fill="white"/>
<path d="M379.54 98.5951C379.297 98.4816 379.034 98.7016 379.116 98.9571C379.322 99.5817 379.853 100.277 381.225 100.118C383.626 99.8407 381.638 99.0919 380.331 98.84C379.985 98.7726 379.729 98.6874 379.536 98.5951H379.54Z" fill="white"/>
<path d="M370.976 326.425C371.995 326.876 373.292 327.131 374.934 327C375.137 326.982 375.34 326.908 375.511 326.798C377.456 325.534 374.656 324.956 371.781 324.175C370.349 323.785 369.619 325.829 370.976 326.429V326.425Z" fill="white"/>
<path d="M409.06 542.119C410.078 542.57 411.375 542.826 413.017 542.694C413.22 542.677 413.423 542.602 413.594 542.492C415.539 541.229 412.739 540.65 409.865 539.869C408.433 539.479 407.702 541.523 409.06 542.123V542.119Z" fill="white"/>
<path d="M290.962 546.647C291.98 547.097 293.277 547.353 294.919 547.222C295.122 547.204 295.325 547.129 295.496 547.019C297.441 545.756 294.641 545.178 291.767 544.397C290.335 544.006 289.604 546.051 290.962 546.65V546.647Z" fill="white"/>
<path d="M288.757 288.454C289.868 288.376 291.133 287.993 292.518 287.109C292.689 286.999 292.835 286.839 292.932 286.658C294.054 284.632 291.307 285.434 288.4 286.087C286.954 286.414 287.271 288.557 288.753 288.451L288.757 288.454Z" fill="white"/>
<path d="M221.719 276.299C222.738 276.75 224.035 277.005 225.677 276.874C225.88 276.856 226.083 276.782 226.254 276.672C228.199 275.408 225.399 274.83 222.524 274.049C221.092 273.659 220.362 275.703 221.719 276.303V276.299Z" fill="white"/>
<path d="M390.974 241.5C391.993 241.951 393.29 242.206 394.932 242.075C395.135 242.057 395.338 241.983 395.509 241.873C397.454 240.61 394.654 240.031 391.779 239.25C390.347 238.86 389.617 240.904 390.974 241.504V241.5Z" fill="white"/>
<path d="M398.359 110.792C397.34 111.243 396.043 111.498 394.401 111.367C394.198 111.349 393.995 111.275 393.824 111.165C391.879 109.901 394.679 109.323 397.554 108.542C398.986 108.152 399.716 110.196 398.359 110.796V110.792Z" fill="white"/>
<path d="M385.909 139.207C384.89 139.658 383.593 139.913 381.951 139.782C381.748 139.764 381.545 139.69 381.374 139.58C379.429 138.317 382.229 137.738 385.104 136.957C386.536 136.567 387.266 138.611 385.909 139.211V139.207Z" fill="white"/>
<path d="M38.6464 41.5839C38.3187 41.0516 37.4745 41.2113 37.3641 41.8252C37.2429 42.4853 37.3854 43.3299 38.0907 44.3661C40.1533 47.4003 43.4448 45.051 41.2006 43.4718C39.879 42.5421 38.9849 42.1375 38.6429 41.5804L38.6464 41.5839Z" fill="white"/>
<path d="M68.3625 190.054C67.9849 189.358 66.9625 189.479 66.7346 190.239C65.5982 194.011 68.0241 198.319 70.9415 197.553C73.2035 196.956 71.4937 195.828 69.5166 192.18L68.3661 190.054H68.3625Z" fill="white"/>
<path d="M71.3832 176.139C70.9593 176.107 69.4668 176.983 70.4107 178.179C71.3547 179.375 72.8651 176.249 71.3832 176.139Z" fill="white"/>
<path d="M179.28 114.001C178.856 113.969 177.363 114.845 178.307 116.041C179.251 117.237 180.762 114.111 179.28 114.001Z" fill="white"/>
<path d="M53.9319 147.884C52.7279 147.025 51.1142 149.183 52.5391 153.615C53.9604 158.047 58.0534 155.365 55.8092 153.335C53.565 151.305 55.1074 148.725 53.9319 147.884Z" fill="white"/>
<path d="M51.9727 183.098C51.7875 182.871 51.4242 182.966 51.3885 183.257C51.2959 183.967 51.4954 184.897 52.9167 185.376C55.4032 186.217 53.8037 184.56 52.6389 183.705C52.329 183.477 52.1188 183.275 51.9727 183.098Z" fill="white"/>
<path d="M155.558 290.587C155.373 290.36 155.01 290.456 154.974 290.747C154.881 291.456 155.081 292.386 156.502 292.865C158.989 293.706 157.389 292.049 156.224 291.194C155.915 290.967 155.704 290.764 155.558 290.587Z" fill="white"/>
<path d="M52.215 203.255C52.8526 203.993 53.7823 204.682 55.1324 205.193C55.2998 205.256 55.4886 205.274 55.6668 205.249C57.6865 204.98 55.6846 203.471 53.704 201.772C52.7172 200.927 51.3672 202.272 52.215 203.255Z" fill="white"/>
<path d="M243.442 279.308C243.303 278.446 242.184 278.152 241.621 278.819C240.884 279.695 240.186 281.175 240.856 283.351C241.839 286.551 243.898 282.147 243.445 279.308H243.442Z" fill="white"/>
<path d="M357.536 60.233C356.937 59.8427 356.147 60.4176 356.335 61.106C356.535 61.8442 357.098 62.6426 358.334 63.3701C361.949 65.4888 364.183 61.4645 361.098 60.9321C359.281 60.6199 358.163 60.6376 357.536 60.233Z" fill="white"/>
<path d="M398.825 27.7621C399.078 26.8678 398.113 26.1367 397.301 26.591C393.251 28.8551 391.769 34.4657 394.861 36.1868C397.262 37.5247 396.742 35.179 398.06 30.4911L398.829 27.7621H398.825Z" fill="white"/>
<path d="M327.87 96.8565C327.449 97.0198 326.413 98.5386 327.87 99.259C329.327 99.9794 329.344 96.2887 327.87 96.8565Z" fill="white"/>
<path d="M336.569 29.1957C336.045 29.398 334.752 31.2966 336.569 32.1944C338.385 33.0958 338.41 28.486 336.569 29.1957Z" fill="white"/>
<path d="M101.687 62.5614C101.199 62.7495 99.9914 64.5203 101.687 65.3613C103.383 66.2024 103.404 61.9013 101.687 62.5614Z" fill="white"/>
<path d="M130.751 31.5665C130.331 31.7297 129.294 33.2486 130.751 33.969C132.208 34.6894 132.226 30.9987 130.751 31.5665Z" fill="white"/>
<path d="M114.732 12.0692C114.244 12.2573 113.036 14.0281 114.732 14.8692C116.427 15.7102 116.449 11.4091 114.732 12.0692Z" fill="white"/>
<path d="M320.311 64.0477C319.823 64.2358 318.615 66.0066 320.311 66.8477C322.006 67.6887 322.028 63.3876 320.311 64.0477Z" fill="white"/>
<path d="M214.951 230.371C214.385 230.588 212.995 232.632 214.951 233.601C216.907 234.569 216.932 229.608 214.951 230.371Z" fill="white"/>
<path d="M295.906 565.396C295.34 565.612 293.95 567.656 295.906 568.625C297.862 569.594 297.887 564.633 295.906 565.396Z" fill="white"/>
<path d="M253.908 230.371C253.341 230.588 251.952 232.632 253.908 233.601C255.863 234.569 255.888 229.608 253.908 230.371Z" fill="white"/>
<path d="M93.5936 38.8442C92.9097 38.2622 91.8196 39.483 92.4502 42.2404C93.0807 44.9978 95.6953 43.5853 94.445 42.2404C93.1947 40.8954 94.2598 39.412 93.5936 38.8442Z" fill="white"/>
<path d="M356.214 101.874C354.554 101.576 353.952 104.585 357.596 108.453C361.237 112.321 364.133 107.566 360.827 106.569C357.522 105.572 357.839 102.165 356.218 101.874H356.214Z" fill="white"/>
<path d="M156.182 78.3461C154.247 77.9983 153.549 81.5045 157.788 86.0114C162.031 90.5183 165.404 84.9787 161.55 83.8147C157.696 82.6507 158.07 78.6832 156.178 78.3461H156.182Z" fill="white"/>
<path d="M48.4212 87.9596C48.4924 87.0866 47.5021 86.5401 46.8182 87.0902C45.1404 88.4423 43.6264 90.8732 45.7103 94.8691C49.358 101.857 49.3402 94.933 48.5957 90.6602C48.3998 89.5282 48.3642 88.6445 48.4212 87.9596Z" fill="white"/>
<path d="M229.549 29.9584C229.307 29.8448 229.043 30.0649 229.125 30.3204C229.332 30.945 229.863 31.6405 231.234 31.4808C233.635 31.204 231.647 30.4552 230.34 30.2033C229.994 30.1358 229.738 30.0507 229.546 29.9584H229.549Z" fill="white"/>
<path d="M175.585 55.7188C176.771 56.244 178.282 56.5385 180.195 56.3859C180.433 56.3682 180.668 56.2795 180.868 56.1517C183.133 54.679 179.87 54.0083 176.522 53.0962C174.855 52.642 174.003 55.0232 175.585 55.7188Z" fill="white"/>
<path d="M320.61 309.373C321.473 309.836 322.572 310.1 323.963 309.964C324.136 309.948 324.306 309.872 324.452 309.755C326.102 308.453 323.727 307.857 321.291 307.051C320.078 306.648 319.46 308.755 320.61 309.373Z" fill="white"/>
<path d="M386.554 517.168C387.922 517.771 389.663 518.115 391.869 517.938C392.143 517.916 392.414 517.817 392.645 517.664C395.26 515.968 391.495 515.191 387.633 514.14C385.709 513.615 384.73 516.362 386.554 517.168Z" fill="white"/>
<path d="M343.287 365.486C338.275 361.494 341.762 354.847 343.287 355C344.812 355.152 342.222 357.455 344.658 361.231C347.982 366.373 347.099 368.527 343.287 365.486Z" fill="white"/>
<path d="M385.77 393.656C385.04 393.124 384.046 393.749 384.181 394.639C384.865 399.079 389.478 402.333 392.104 400.119C394.141 398.401 391.826 398.071 387.996 395.282L385.766 393.656H385.77Z" fill="white"/>
<path d="M404.201 465.611C403.471 465.079 402.477 465.704 402.612 466.594C403.296 471.034 407.909 474.288 410.534 472.074C412.572 470.356 410.257 470.026 406.427 467.237L404.197 465.611H404.201Z" fill="white"/>
<path d="M412.102 434.673C413.213 434.595 414.478 434.212 415.863 433.328C416.034 433.218 416.18 433.058 416.277 432.877C417.399 430.851 414.652 431.653 411.746 432.306C410.299 432.632 410.616 434.776 412.098 434.669L412.102 434.673Z" fill="white"/>
<path d="M393.158 380.004C394.526 380.608 396.268 380.952 398.473 380.775C398.747 380.753 399.018 380.654 399.249 380.501C401.864 378.805 398.099 378.028 394.237 376.977C392.314 376.452 391.334 379.199 393.158 380.004Z" fill="white"/>
<path d="M156.752 16.0723C157.938 16.5975 159.448 16.892 161.361 16.7394C161.6 16.7217 161.835 16.633 162.034 16.5052C164.3 15.0325 161.037 14.3618 157.689 13.4497C156.021 12.9955 155.17 15.3767 156.752 16.0723Z" fill="white"/>
<path d="M286.021 17.8359C285.583 17.0268 284.389 17.1652 284.122 18.0488C282.797 22.4457 285.625 27.4637 289.02 26.5694C291.656 25.8739 289.661 24.5573 287.36 20.3094L286.017 17.8359H286.021Z" fill="white"/>
<path d="M278.501 76.9765C278.009 76.941 276.268 77.9595 277.368 79.3542C278.469 80.7488 280.229 77.1078 278.501 76.9765Z" fill="white"/>
<path d="M275.42 186.015C274.02 185.014 272.139 187.53 273.795 192.69C275.452 197.85 280.218 194.727 277.607 192.364C274.992 190 276.788 186.994 275.42 186.015Z" fill="white"/>
<path d="M35.1626 401.691C30.1506 397.699 33.638 391.052 35.1626 391.205C36.6872 391.357 34.0975 393.66 36.5341 397.436C39.8576 402.578 38.9742 404.733 35.1626 401.691Z" fill="white"/>
<path d="M117.753 593.268C117.022 592.735 116.028 593.36 116.164 594.251C116.848 598.69 121.461 601.944 124.086 599.73C126.124 598.012 123.808 597.682 119.979 594.893L117.749 593.268H117.753Z" fill="white"/>
<path d="M384.527 454.625C384.744 453.858 383.914 453.23 383.216 453.62C379.736 455.561 378.468 460.381 381.121 461.857C383.18 463.003 382.735 460.991 383.868 456.967L384.527 454.621V454.625Z" fill="white"/>
<path d="M89.3938 413.48C88.9734 413.643 87.9368 415.162 89.3938 415.882C90.8507 416.602 90.8685 412.912 89.3938 413.48Z" fill="white"/>
<path d="M37.1468 423.09C36.7265 423.253 35.6899 424.772 37.1468 425.492C38.6038 426.213 38.6216 422.522 37.1468 423.09Z" fill="white"/>
<path d="M29.2779 496.592C28.8575 496.755 27.8209 498.274 29.2779 498.994C30.7348 499.715 30.7526 496.024 29.2779 496.592Z" fill="white"/>
<path d="M356.496 508.033C356.075 508.197 355.039 509.715 356.496 510.436C357.953 511.156 357.97 507.465 356.496 508.033Z" fill="white"/>
<path d="M90.3164 382.773C89.896 382.936 88.8594 384.455 90.3164 385.175C91.7733 385.895 91.7911 382.205 90.3164 382.773Z" fill="white"/>
<path d="M30.1791 128.76C28.5191 128.462 27.9171 131.471 31.5612 135.339C35.2018 139.207 38.0979 134.452 34.7921 133.455C31.4864 132.457 31.8035 129.051 30.1826 128.76H30.1791Z" fill="white"/>
<path d="M124.706 541.307C124.425 541.176 124.122 541.431 124.218 541.726C124.453 542.446 125.069 543.252 126.658 543.067C129.433 542.744 127.135 541.882 125.625 541.587C125.226 541.509 124.927 541.41 124.71 541.307H124.706Z" fill="white"/>
<path d="M101.113 413.97C100.647 413.746 100.134 414.179 100.298 414.669C100.693 415.875 101.723 417.217 104.369 416.908C109 416.372 105.167 414.928 102.645 414.438C101.976 414.31 101.48 414.144 101.113 413.966V413.97Z" fill="white"/>
<path d="M136.287 567.027C137.398 566.949 138.663 566.566 140.048 565.682C140.219 565.572 140.365 565.413 140.462 565.232C141.584 563.205 138.837 564.007 135.931 564.66C134.484 564.987 134.801 567.13 136.283 567.024L136.287 567.027Z" fill="white"/>
<path d="M345.143 558.081C346.254 558.003 347.519 557.62 348.905 556.736C349.076 556.626 349.222 556.466 349.318 556.285C350.44 554.259 347.693 555.061 344.787 555.714C343.34 556.041 343.657 558.184 345.139 558.078L345.143 558.081Z" fill="white"/>
<path d="M52.4109 494.239C53.4297 494.69 54.7263 494.946 56.3685 494.814C56.5716 494.797 56.7746 494.722 56.9456 494.612C58.8906 493.349 56.0907 492.77 53.216 491.99C51.7839 491.599 51.0537 493.643 52.4109 494.243V494.239Z" fill="white"/>
<path d="M32.7261 541.828C31.5221 540.969 29.9084 543.127 31.3333 547.559C32.7582 551.992 36.8476 549.309 34.6034 547.279C32.3592 545.249 33.9016 542.669 32.7261 541.828Z" fill="white"/>
<path d="M109.841 430.62C109.656 430.393 109.292 430.489 109.257 430.78C109.164 431.49 109.364 432.419 110.785 432.898C113.271 433.74 111.672 432.082 110.507 431.227C110.197 431 109.987 430.798 109.841 430.62Z" fill="white"/>
<path d="M368.504 493.267C369.142 494.005 370.071 494.693 371.421 495.204C371.589 495.268 371.778 495.286 371.956 495.261C373.975 494.991 371.974 493.483 369.993 491.783C369.006 490.939 367.656 492.284 368.504 493.267Z" fill="white"/>
<path d="M32.491 430.979C32.352 430.117 31.2335 429.822 30.6707 430.49C29.9333 431.366 29.2351 432.846 29.9048 435.021C30.888 438.222 32.9469 433.818 32.4945 430.979H32.491Z" fill="white"/>
<path d="M33.955 355.004C33.8161 354.141 32.6976 353.847 32.1347 354.514C31.3973 355.391 30.6992 356.87 31.3688 359.046C32.352 362.247 34.411 357.843 33.9586 355.004H33.955Z" fill="white"/>
<path d="M87.1496 590.9C86.5832 591.117 85.1939 593.161 87.1496 594.13C89.1053 595.099 89.1302 590.137 87.1496 590.9Z" fill="white"/>
<path d="M76.5734 567.759C76.007 567.975 74.6177 570.019 76.5734 570.988C78.529 571.957 78.554 566.996 76.5734 567.759Z" fill="white"/>
<path d="M88.3928 549.646C87.8264 549.862 86.4371 551.906 88.3928 552.875C90.3484 553.844 90.3734 548.883 88.3928 549.646Z" fill="white"/>
<path d="M314.7 551.363C314.134 551.58 312.745 553.624 314.7 554.593C316.656 555.562 316.681 550.6 314.7 551.363Z" fill="white"/>
<path d="M38.3294 465.746C37.763 465.963 36.3738 468.007 38.3294 468.976C40.2851 469.944 40.31 464.983 38.3294 465.746Z" fill="white"/>
<path d="M96.0623 533.766C95.4745 533.265 94.5412 534.316 95.0791 536.683C95.6205 539.05 97.8647 537.836 96.7925 536.683C95.7167 535.529 96.6358 534.255 96.0623 533.766Z" fill="white"/>
<path d="M344.537 534.78C345.905 535.383 347.647 535.727 349.852 535.55C350.126 535.529 350.397 535.429 350.629 535.277C353.243 533.58 349.478 532.803 345.617 531.753C343.693 531.228 342.714 533.974 344.537 534.78Z" fill="white"/>
<path d="M101.334 568.579C102.702 569.182 104.444 569.526 106.649 569.349C106.923 569.327 107.194 569.228 107.426 569.076C110.04 567.379 106.275 566.602 102.414 565.552C100.49 565.026 99.5104 567.773 101.334 568.579Z" fill="white"/>
<path d="M60.6823 527.062C59.2824 526.061 57.4015 528.577 59.0579 533.737C60.7144 538.897 65.4806 535.774 62.8695 533.411C60.2549 531.047 62.0502 528.041 60.6823 527.062Z" fill="white"/>
<path d="M58.5308 15.3911C58.317 15.1284 57.8931 15.2385 57.8504 15.5756C57.7435 16.4025 57.9751 17.4848 59.6279 18.0455C62.524 19.0285 60.661 17.0945 59.3038 16.1008C58.944 15.8382 58.6982 15.6004 58.5308 15.3911Z" fill="white"/>
<path d="M75.3266 86.7208C76.0675 87.5796 77.1505 88.3816 78.725 88.9778C78.9209 89.0523 79.1417 89.07 79.3483 89.0452C81.6994 88.7294 79.3697 86.9727 77.0614 84.9925C75.9108 84.006 74.3399 85.5745 75.3266 86.7208Z" fill="white"/>
<path d="M257.733 51.5743C258.371 52.3124 259.301 53.0009 260.651 53.5119C260.818 53.5758 261.007 53.5935 261.185 53.5687C263.205 53.299 261.203 51.7908 259.222 50.0909C258.236 49.2463 256.886 50.5913 257.733 51.5743Z" fill="white"/>
<path d="M345.035 286.213C343.909 285.5 342.541 286.71 343.15 287.892C344.119 289.762 345.701 291.494 348.269 292.455C355.853 295.287 350.755 287.75 346.573 286.845C345.996 286.72 345.487 286.5 345.035 286.213Z" fill="white"/>
<path d="M381.62 549.671C380.494 548.958 379.126 550.168 379.736 551.35C380.705 553.22 382.286 554.952 384.855 555.913C392.438 558.745 387.341 551.208 383.159 550.303C382.582 550.179 382.072 549.958 381.62 549.671Z" fill="white"/>
<path d="M116.175 299.171C115.377 299.515 115.53 300.697 116.392 300.8C117.763 300.967 119.284 300.75 120.748 299.718C125.069 296.673 119.11 296.652 117.083 298.571C116.805 298.838 116.495 299.029 116.175 299.168V299.171Z" fill="white"/>
<path d="M28.8148 659.122C29.2422 654.643 28.4835 650.161 26.8627 645.96C25.566 642.595 25.9223 638.937 33.0716 638.323C46.7933 637.148 37.902 661.322 52.9915 659.566C68.0775 657.809 49.2298 687.856 31.946 669.839C28.9644 666.731 28.4799 662.621 28.8148 659.122Z" fill="white"/>
<path d="M428 588.644C428 588.644 416.868 578.221 394.351 588.644C385.253 591.362 383.661 586.153 373.427 591.59C363.193 597.026 358.872 609.035 376.384 606.544C393.895 604.053 381.16 627.617 373.655 627.617C366.149 627.617 370.242 620.366 361.828 622.18C353.414 623.993 347.273 632.603 340.676 627.617C334.079 622.631 331.411 624.611 330.898 620.821C330.1 614.944 347.213 614.043 353.186 606.583C357.194 601.576 350.458 597.711 356.371 593.407C362.284 589.102 367.742 574.147 363.193 573.242C358.886 572.384 345.008 575.993 340.256 593.478C339.589 595.926 336.832 597.154 334.524 596.075C330.274 594.091 325.583 590.096 321.572 596.806C315.886 606.324 323.62 617.425 320.663 620.824C317.707 624.224 308.381 635.552 315.886 643.029C323.392 650.506 346.589 647.788 348.409 636.233C350.23 624.678 369.106 628.756 363.877 636.687C358.647 644.619 374.567 646.656 386.621 624.905C398.676 603.155 414.798 604.287 428.004 605.192V588.651L428 588.644Z" fill="white"/>
<path d="M340.565 623.372C338.756 621.828 338.717 619.11 340.43 617.463C342.183 615.778 345.606 614.227 352.125 615.87C363.77 618.808 349.378 620.945 349.25 624.369C349.154 626.91 343.568 625.934 340.569 623.376L340.565 623.372Z" fill="white"/>
<path d="M235.078 783.787C238.141 781.171 238.209 776.568 235.306 773.779C232.338 770.926 226.539 768.296 215.5 771.078C195.779 776.054 220.152 779.67 220.369 785.472C220.533 789.773 229.991 788.127 235.074 783.787H235.078Z" fill="white"/>
<path d="M330.078 582.991C330.762 584.261 329.508 585.695 328.173 585.141C322.423 582.76 314.077 577.919 316.659 570.549C320.503 559.583 336.373 557.099 336.098 568.075C335.867 577.337 326.99 577.249 330.078 582.991Z" fill="white"/>
<path d="M112.979 647.557C113.378 645.073 115.822 643.533 118.269 644.164C120.77 644.81 124.072 647.035 126.188 653.813C129.967 665.925 120.064 654.147 116.883 655.928C114.525 657.249 112.317 651.681 112.979 647.557Z" fill="white"/>
<path d="M73.1394 707.818C72.4198 702.594 76.3774 698.02 81.6673 697.8C87.0747 697.573 95.0612 700.029 103.457 712.339C118.454 734.335 91.3815 716.733 86.0916 722.233C82.1696 726.311 74.3327 716.488 73.1394 707.818Z" fill="white"/>
<path d="M0.00353205 678.931C0.00353205 678.931 28.4193 674.36 38.6571 692.292C48.8914 710.224 56.3043 727.453 74.6569 730.619C93.0094 733.784 95.4816 728.511 106.774 736.595C118.07 744.683 143.069 735.247 159.715 747.142C172.133 756.017 176.974 760.989 173.832 768.591C168.942 780.426 147.009 777.732 144.537 787.928C142.065 798.123 132.689 788.279 126.79 793.201C120.891 798.123 121.596 810.53 111.358 814.877H87.6233C87.6233 814.877 119.124 806.566 115.241 785.82C111.358 765.074 63.7102 773.641 52.0617 794.259C41.1186 807.269 41.8275 814.877 41.8275 814.877H0.00353205V799.884C0.00353205 799.884 68.3054 788.982 68.3054 765.425C68.3054 741.868 46.2518 770.347 23.1294 764.371C8.30705 762.615 11.1283 775.273 3.3627 777.03L0.00353205 777.321V751.752C0.00353205 751.752 12.5746 747.287 24.4546 754.655C36.3346 762.022 45.7495 750.971 46.0843 741.702C46.4192 732.436 43.8437 720.377 34.5392 729.98C25.2383 739.583 23.4429 714.685 11.4525 715.576C-0.537923 716.474 0.00353205 722.056 0.00353205 722.056V709.55C0.00353205 709.55 28.4906 706.314 21.7651 693.251C15.0396 680.188 0.00353205 687.782 0.00353205 687.782V678.935V678.931Z" fill="white"/>
<path d="M423.9 702.914C423.9 702.914 398.797 698.875 389.756 714.717C380.715 730.558 374.168 745.776 357.956 748.572C341.745 751.368 339.561 746.709 329.587 753.853C319.609 760.996 297.527 752.66 282.822 763.172C271.854 771.011 267.576 775.404 270.351 782.118C274.672 792.573 294.047 790.195 296.227 799.202C298.41 808.209 306.692 799.514 311.904 803.862C317.115 808.209 316.492 819.167 325.533 823.007H346.5C346.5 823.007 318.676 815.665 322.106 797.339C325.536 779.013 367.624 786.579 377.912 804.791C387.576 816.282 386.953 823.004 386.953 823.004H423.9V809.76C423.9 809.76 363.57 800.132 363.57 779.322C363.57 758.512 383.052 783.669 403.478 778.389C416.572 776.834 414.079 788.016 420.936 789.571L423.903 789.826V767.242C423.903 767.242 412.8 763.296 402.306 769.808C391.811 776.316 383.497 766.554 383.198 758.367C382.902 750.18 385.179 739.53 393.393 748.011C401.611 756.493 403.193 734.501 413.787 735.289C424.381 736.077 423.9 741.01 423.9 741.01V729.962C423.9 729.962 398.736 727.102 404.678 715.565C410.616 704.028 423.9 710.732 423.9 710.732V702.917V702.914Z" fill="white"/>
<path d="M9.61794 580.112C9.61794 580.112 21.1417 574.789 34.6247 590.272C48.1112 605.759 61.5942 590.45 74.7673 597.948C87.9403 605.447 89.2334 614.507 82.1589 613.882C75.0843 613.258 76.5341 598.885 64.8323 605.447C53.1304 612.008 63.5463 640.942 95.6561 620.848C127.766 600.759 128.104 638.248 140.479 639.809C152.855 641.371 151.269 654.182 142.496 655.119C133.725 656.056 116.527 631.374 109.602 639.497C102.677 647.62 111.145 680.737 133.722 667.926C156.303 655.119 148.797 672.926 140.476 673.551C132.155 674.176 126.419 697.778 111.857 694.861C90.954 690.674 95.3676 678.001 89.0731 659.193C84.8448 646.552 55.6774 662.5 45.3648 640.902C33.1107 615.234 14.7083 619.816 13.6896 642.62L9.61438 580.109L9.61794 580.112Z" fill="white"/>
<path d="M46.868 589.641C46.868 589.641 34.2222 581.536 35.6934 569.094C37.1646 556.652 55.5313 560.193 54.7975 575.808C54.0637 591.419 69.1247 581.539 70.0438 585.017C70.9628 588.495 56.8565 596.49 46.868 589.645V589.641Z" fill="white"/>
<path d="M154.393 727.421C139.183 738.28 122.18 715.948 136.86 704.39C139.194 702.551 142.104 700.926 145.73 699.698C165.818 692.892 155.954 709.418 165.743 708.968C171.029 708.723 164.307 720.345 154.39 727.425L154.393 727.421Z" fill="white"/>
<path d="M337.367 684.915C337.637 682.072 337.156 679.226 336.127 676.561C335.304 674.424 335.532 672.104 340.067 671.717C348.773 670.972 343.134 686.313 352.705 685.195C362.281 684.081 350.319 703.148 339.351 691.714C337.459 689.741 337.153 687.133 337.363 684.915H337.367Z" fill="white"/>
<path d="M127.046 818.124C127.046 818.124 126.216 804.604 137.715 804.604C149.214 804.604 139.632 795.693 157.2 795.057C174.769 794.422 165.504 779.464 185.31 778.51C205.116 777.555 213.188 797.921 229.435 794.103C245.682 790.284 244.724 775.965 256.54 774.372C268.359 772.782 252.963 796.647 270.564 803.01C288.165 809.373 288.575 818.124 288.575 818.124H127.046Z" fill="white"/>
<path d="M427.783 621.164C427.783 621.164 412.437 618.301 405.932 634.994C399.427 651.687 399.427 650.193 390.426 652.685C381.42 655.176 352.406 653.682 350.657 670.875C348.905 688.069 386.425 672.369 381.42 682.586C376.419 692.803 333.648 722.205 332.148 693.3C330.648 664.395 303.636 681.341 313.14 697.285C322.644 713.233 303.134 732.17 327.645 740.144C352.157 748.118 350.657 706.505 374.168 713.233C397.678 719.962 380.922 683.58 397.928 683.832C414.937 684.08 398.833 695.845 427.088 691.607L427.783 621.164Z" fill="white"/>
<path d="M321.788 491.026C308.223 498.468 291.569 499.227 286.739 497.626C285.861 497.333 286.034 496.043 286.961 496.008C307.682 495.232 329.548 488.807 352.465 454.422C373.921 422.229 372.589 388.258 359.336 383.144C351.573 380.149 339.83 388.565 333.518 402.202C327.209 415.835 336.04 421.435 335.603 419.406C335.159 417.374 340.031 408.064 346.427 412.363C352.826 416.663 334.371 451.482 316.732 466.475C309.386 472.717 299.714 477.41 289.078 479.891C292.926 476.523 296.733 472.596 300.422 468.014C363.403 389.745 298.152 328.208 298.152 328.208C285.316 313.409 268.204 310.314 260.5 312.712C252.515 315.196 243.462 318.181 242.58 319.199C241.067 320.941 246.915 320.81 254.9 320.127C255.174 320.103 255.271 320.479 255.017 320.586C251.926 321.9 244.857 325.058 244.527 326.538C244.166 328.167 249.843 327.256 255.257 325.12C255.528 325.013 255.725 325.375 255.486 325.537C252.238 327.722 246.974 331.527 247.945 332.656C248.896 333.76 253.747 331.8 257.644 330.002C257.915 329.878 258.127 330.261 257.874 330.42C254.729 332.425 250.867 335.106 250.579 336.358C250.086 338.494 256.947 334.999 263.884 334.178C270.991 333.332 274.867 342.31 281.124 340.364C283.237 339.709 285.517 340.665 286.798 342.462C292.093 349.902 299.464 369.239 290.938 397.419C285.455 415.538 275.117 426.742 263.971 433.657C265.487 430.016 265.647 425.986 263.27 421.521C254.594 405.224 245.69 409.517 238.631 408.04C232.936 406.849 224.466 405.297 221.401 404.741C220.68 404.61 219.965 404.945 219.607 405.58C218.865 406.915 217.716 409.358 217.532 411.97C217.421 413.575 216.495 415.003 214.982 415.576C210.866 417.132 203.152 421.021 198.876 429.316C197.859 431.286 195.458 432.083 193.428 431.172C181.261 425.703 145.632 405.704 151.327 360.93C155.04 331.735 169.671 317.039 177.548 312.377C179.45 311.252 181.928 311.297 183.59 312.75C188.514 317.052 195.722 310.414 201.871 314.054C207.874 317.608 212.719 323.571 213.139 321.417C213.385 320.154 210.953 316.148 208.898 313.046C208.732 312.798 209.082 312.532 209.28 312.757C212.108 315.972 215.741 319.723 217.06 319.099C218.41 318.46 215.152 312.857 213.076 309.548C212.924 309.303 213.253 309.054 213.455 309.261C217.529 313.398 222.345 316.525 222.678 314.889C222.984 313.402 217.81 307.664 215.523 305.214C215.335 305.013 215.578 304.71 215.818 304.844C222.835 308.692 228.127 311.173 227.453 308.971C227.061 307.684 220.006 301.304 213.725 295.807C207.663 290.507 190.763 286.425 172.988 294.769C172.988 294.769 88.2315 324.671 113.835 421.621C120.505 446.876 134.625 461.258 146.337 469.177C127.667 468.845 109.771 461.351 98.5068 450.154C82.0996 433.84 66.435 397.692 73.1499 393.903C79.8613 390.114 83.9908 399.772 83.387 401.763C82.7901 403.751 92.0348 398.851 86.8156 384.773C81.5929 370.688 70.5472 361.385 62.5726 363.769C48.9589 367.838 44.9647 401.601 63.8288 435.365C83.977 471.423 105.274 479.521 125.87 481.906C126.789 482.013 126.859 483.314 125.963 483.534C121.022 484.756 104.479 482.706 91.5386 474.235C64.3251 456.413 65.5049 444.088 62.1631 448.235C58.6512 452.59 64.3528 486.184 80.3887 495.225C92.538 502.074 100.769 503.43 114.577 501.826C124.221 500.704 126.557 497.913 129.649 495.732C130.339 495.246 131.127 496.439 130.648 497.133C122.861 508.423 96.1262 507.93 90.494 506.056C84.4281 504.038 82.6652 502.126 82.3008 503.817C81.121 509.31 86.7219 518.789 103.438 519.779C113.953 520.4 126.251 518.885 132.06 508.658C133.285 506.498 134.837 504.434 137.245 502.581C137.96 502.029 138.925 502.857 138.484 503.644C135.676 508.637 130.301 517.757 127.462 519.686C123.506 522.367 133.57 521.494 136.804 520.048C142.141 517.66 143.981 516.121 147.964 511.946C151.365 508.385 151.938 505.59 153.028 503.289C153.826 501.595 156.241 504.983 148.94 513.533C147.652 515.041 150.519 514.955 153.933 512.84C149.196 534.233 145.966 563.697 151.986 596.022C162.709 653.594 192.671 694.825 199.143 703.213C199.994 704.318 200.358 705.694 200.16 707.071C199.497 711.671 196.912 722.184 186.866 728.906C173.759 737.674 176.57 744.399 179.852 743.982C185.995 743.205 216.016 734.824 226.992 714.514C226.992 714.514 238.995 687.627 236.761 650.989C243.635 665.665 253.845 681.582 268.839 694.259C270.932 696.029 272.029 698.686 271.886 701.416C271.602 706.767 269.884 715.618 262.402 722.64C250.912 733.419 254.792 739.599 257.964 738.654C263.894 736.891 298.305 716.65 299.62 701.919C300.564 691.368 290.001 605.777 268.794 570.792C273.587 564.274 276.529 556.945 275.794 549.008C275.287 543.543 273.916 538.081 272.022 532.611C272.351 532.798 272.695 532.991 273.059 533.188C276.169 534.882 286.135 536.531 282.401 533.55C279.722 531.407 275.079 521.898 272.671 516.701C272.292 515.883 273.316 515.134 273.989 515.738C276.248 517.774 277.633 519.951 278.684 522.198C283.675 532.843 295.817 535.31 306.346 535.506C323.089 535.817 329.416 526.804 328.673 521.235C328.444 519.52 326.535 521.29 320.331 522.829C314.567 524.261 287.877 522.677 280.999 510.818C280.576 510.09 281.457 508.958 282.106 509.496C285.018 511.912 287.128 514.876 296.653 516.742C310.295 519.413 318.609 518.702 331.258 512.816C347.957 505.045 356.275 471.999 353.114 467.382C350.109 462.99 350.317 475.37 321.788 491.026ZM224.934 601.964C224.934 601.964 225.021 601.929 225.17 601.867C225.167 601.881 225.16 601.895 225.156 601.909C225.122 602.023 225.094 602.137 225.059 602.247C225.017 602.15 224.979 602.057 224.938 601.961L224.934 601.964Z" fill="white"/>
<path d="M253.491 372.687L243.688 373.439L238.911 371.062L244.692 368.681L248.087 365.802L241.928 367.179L241.173 363.797L245.195 362.044L238.658 360.792L237.401 362.921L236.396 358.79L240.293 353.655L235.516 356.285L233.507 359.166L230.49 354.155L231.494 336L226.97 351.526L227.597 359.415L222.443 357.161L225.962 362.921L218.549 361.292L210 364.674L219.803 363.922L224.58 366.303L218.799 368.681L215.407 371.562L221.563 370.185L222.318 373.564L218.296 375.317L224.833 376.569L226.091 374.44L227.095 378.574L223.198 383.706L227.975 381.076L229.988 378.198L233.001 383.206L231.997 401.365L236.521 385.835L235.894 377.946L241.048 380.2L237.529 374.44L244.942 376.069L253.491 372.687Z" fill="#FFC530"/>
<path d="M176.996 -0.000357491C176.996 -0.000357491 170.113 23.8615 204.596 24.369C206.031 24.3903 207.46 24.6209 208.806 25.1142C211.62 26.1434 214.57 28.45 208.432 33.2444C198.992 40.6223 185.848 50.0265 192.327 57.5854C198.807 65.1478 215.464 59.0616 221.018 61.4571C226.571 63.856 223.426 75.8402 202.508 79.3464C196.951 80.2974 192.513 90.5959 211.948 88.566C218.984 87.8279 228.979 86.7207 220.647 95.0212C214.463 101.182 215.272 103.961 216.098 104.983C216.251 105.171 216.084 105.447 215.845 105.405C214.962 105.245 213.63 104.763 213.238 103.293C212.632 101.033 210.21 105.405 214.146 106.913C214.146 106.913 210.969 108.723 213.391 111.285C215.054 112.19 212.322 109.057 217.594 108.343C218.335 108.244 220.437 108.013 222.474 109.475C224.519 110.941 225.652 108.872 221.719 106.157C217.783 103.442 218.845 102.538 221.114 101.484C223.383 100.43 243.214 95.149 243.061 82.7851C242.911 70.4212 218.235 87.4588 224.594 75.9999C230.215 65.8682 244.824 67.0499 249.497 58.5009C251.182 55.4171 249.066 51.6696 245.547 51.5099C238.626 51.194 227.358 55.9423 224.142 50.9669C219.753 44.1817 223.084 35.7357 237.311 32.7192C251.539 29.7028 256.533 24.7274 250.783 19.5994C245.034 14.4715 228.267 17.0372 229.175 -0.00390625H176.996V-0.000357491Z" fill="white"/>
<path d="M4.79718 321.942V312.32C4.79718 312.32 7.09586 297.334 12.7509 299.14C18.288 299.607 15.0496 284.851 16.4019 282.578C17.7543 280.306 20.1119 281.003 21.939 285.088C23.7662 289.169 21.2907 278.031 24.9417 277.272C28.5928 276.513 28.2391 277.272 30.4789 273.307C32.7186 269.343 34.2478 275.233 36.075 274.066C37.9021 272.899 35.7213 265.9 38.5505 265.959C41.3796 266.017 41.3796 271.324 44.0286 270.448C46.681 269.573 45.3253 261.527 48.5048 261.991C51.6844 262.458 46.0293 268.756 49.9784 267.531C53.9274 266.306 51.5698 261.232 59.2844 262.399C67.0023 263.566 53.8652 267.181 54.3956 268.873C54.9261 270.565 58.8718 271.44 55.3387 273.246C51.8055 275.055 45.8558 274.354 45.62 280.186C45.3843 286.018 39.2577 278.144 36.9591 280.245C34.6604 282.345 36.7233 286.426 30.7146 286.66C24.706 286.893 34.071 290.196 30.4199 291.957C26.7689 293.717 22.5841 292.841 23.4093 297.856C24.2345 302.871 25.2364 302.754 17.8722 303.104C10.5079 303.455 19.4046 306.194 17.99 308.353C16.5755 310.512 9.9774 308.119 8.8608 315.585C7.74093 323.05 4.79718 321.942 4.79718 321.942Z" fill="white"/>
<path d="M7.9021 238.109V228.488C7.9021 228.488 10.2008 213.502 15.8558 215.308C21.3929 215.775 18.1545 201.019 19.5068 198.746C20.8592 196.474 23.2168 197.171 25.044 201.255C26.8711 205.337 24.3956 194.198 28.0467 193.44C31.6977 192.681 31.3441 193.44 33.5838 189.475C35.8235 185.511 37.3527 191.401 39.1799 190.234C41.007 189.067 38.8262 182.068 41.6554 182.127C44.4845 182.185 44.4845 187.492 47.1336 186.616C49.7859 185.741 48.4303 177.695 51.6098 178.159C54.7893 178.626 49.1343 184.924 53.0833 183.699C57.029 182.474 54.6747 177.4 62.3893 178.567C70.1073 179.734 56.9701 183.349 57.5005 185.041C58.031 186.733 61.9767 187.608 58.4436 189.414C54.9104 191.223 48.9607 190.522 48.725 196.354C48.4892 202.186 42.3627 194.312 40.064 196.412C37.7653 198.513 39.8282 202.594 33.8196 202.828C27.8109 203.061 37.1759 206.364 33.5249 208.124C29.8738 209.885 25.689 209.009 26.5142 214.024C27.3394 219.039 28.3414 218.922 20.9771 219.272C13.6128 219.623 22.5095 222.362 21.095 224.521C19.6804 226.68 13.0823 224.287 11.9657 231.753C10.8459 239.218 7.9021 238.109 7.9021 238.109Z" fill="white"/>
<path d="M431.203 316.767V307.146C431.203 307.146 428.946 292.16 423.394 293.965C417.957 294.432 421.137 279.676 419.809 277.404C418.481 275.131 416.167 275.828 414.373 279.913C412.579 283.994 415.009 272.856 411.425 272.097C407.84 271.339 408.187 272.097 405.988 268.133C403.789 264.168 402.288 270.058 400.494 268.891C398.7 267.724 400.841 260.726 398.063 260.784C395.286 260.842 395.286 266.149 392.685 265.274C390.081 264.398 391.412 256.353 388.29 256.816C385.168 257.283 390.72 263.581 386.843 262.356C382.966 261.131 385.281 256.058 377.706 257.225C370.129 258.392 383.027 262.006 382.506 263.698C381.985 265.39 378.111 266.265 381.58 268.071C385.049 269.88 390.891 269.18 391.122 275.011C391.354 280.843 397.369 272.969 399.626 275.07C401.883 277.17 399.857 281.251 405.757 281.485C411.656 281.718 402.461 285.022 406.046 286.782C409.631 288.542 413.739 287.667 412.929 292.681C412.119 297.696 411.135 297.58 418.366 297.93C425.596 298.28 416.861 301.019 418.25 303.178C419.639 305.337 426.117 302.944 427.213 310.41C428.313 317.875 431.203 316.767 431.203 316.767Z" fill="white"/>
<path d="M428.098 233.97V224.349C428.098 224.349 425.841 209.363 420.289 211.168C414.852 211.635 418.032 196.879 416.704 194.607C415.376 192.334 413.062 193.031 411.268 197.116C409.474 201.197 411.904 190.059 408.32 189.3C404.735 188.542 405.082 189.3 402.883 185.336C400.684 181.371 399.183 187.261 397.389 186.094C395.595 184.927 397.736 177.929 394.958 177.987C392.181 178.045 392.181 183.352 389.58 182.477C386.976 181.601 388.307 173.556 385.185 174.019C382.063 174.486 387.615 180.785 383.738 179.559C379.864 178.334 382.176 173.261 374.601 174.428C367.024 175.595 379.922 179.209 379.401 180.901C378.88 182.593 375.006 183.469 378.475 185.274C381.944 187.083 387.786 186.383 388.017 192.215C388.249 198.046 394.264 190.172 396.521 192.273C398.778 194.373 396.752 198.455 402.652 198.688C408.551 198.921 399.356 202.225 402.941 203.985C406.526 205.745 410.634 204.87 409.824 209.885C409.014 214.899 408.03 214.783 415.261 215.133C422.491 215.483 413.756 218.222 415.145 220.381C416.534 222.54 423.012 220.148 424.108 227.613C425.208 235.078 428.098 233.97 428.098 233.97Z" fill="white"/>
</g>
<defs>
<clipPath id="clip0_937_4722">
<rect width="428" height="823" fill="white"/>
</clipPath>
</defs>
</svg>
