<svg width="98" height="119" viewBox="0 0 98 119" fill="none" xmlns="http://www.w3.org/2000/svg">
<g clip-path="url(#clip0_836_3478)">
<path d="M91.94 54.85L90.38 53.8C87.21 51.66 85.2 48.18 84.93 44.36L84.8 42.49C84.5 38.19 82.04 34.58 78.59 32.58C78.66 31.73 78.71 30.87 78.71 30C78.71 13.43 65.28 0 48.71 0C32.14 0 18.71 13.43 18.71 30C18.71 30.87 18.76 31.73 18.83 32.58C15.37 34.58 12.92 38.19 12.62 42.49L12.49 44.36C12.22 48.18 10.21 51.66 7.04 53.8L5.48 54.85C-0.36 58.79 -1.76 66.78 2.37 72.48L3.47 74C5.72 77.1 6.42 81.06 5.36 84.74L4.84 86.55C2.9 93.32 6.96 100.35 13.79 102.05L15.61 102.51C19.32 103.44 22.4 106.02 23.96 109.52L24.72 111.24C27.59 117.67 35.21 120.45 41.54 117.36L43.23 116.54C46.67 114.86 50.69 114.86 54.13 116.54L55.82 117.36C62.15 120.44 69.78 117.67 72.64 111.24L73.4 109.52C74.96 106.02 78.04 103.44 81.75 102.51L83.57 102.05C90.4 100.34 94.46 93.32 92.52 86.55L92 84.74C90.95 81.06 91.65 77.1 93.89 74L94.99 72.48C99.13 66.78 97.72 58.79 91.88 54.85H91.94ZM58.97 27.44L57.66 26.09C52.77 21.03 44.65 21.03 39.76 26.09L38.45 27.44C36.23 29.74 33.23 31.06 30.08 31.21C30.05 30.81 30.02 30.41 30.02 30C30.02 19.68 38.38 11.32 48.7 11.32C59.02 11.32 67.38 19.68 67.38 30C67.38 30.41 67.35 30.81 67.32 31.21C64.18 31.06 61.17 29.74 58.95 27.44H58.97Z" fill="black"/>
<path d="M54.54 85.2502H42.41C41.58 85.2502 41 84.4402 41.26 83.6602C42.44 80.1202 44.87 72.8402 45.72 70.3502C45.95 69.6702 46 69.2202 45.2 68.7902C42.39 67.2802 40.98 64.6002 41.4 61.8202C41.85 58.8302 43.99 56.5902 47.05 55.8802C50.12 55.1702 53.3 56.3302 55 58.7702C56.62 61.1102 56.7 64.2002 55 66.4902C54.33 67.4002 53.39 68.2102 52.4 68.7702C51.52 69.2702 51.45 69.7002 51.72 70.5602C52.81 74.0302 54.81 80.6602 55.71 83.6902C55.94 84.4702 55.36 85.2402 54.55 85.2402L54.54 85.2502Z" fill="white"/>
</g>
<defs>
<clipPath id="clip0_836_3478">
<rect width="97.42" height="118.62" fill="white"/>
</clipPath>
</defs>
</svg>
