<svg width="393" height="802" viewBox="0 0 393 802" fill="none" xmlns="http://www.w3.org/2000/svg">
<g clip-path="url(#clip0_1101_3220)">
<path d="M315.771 638.963C314.27 636.375 312.005 634.316 309.337 632.937C295.964 626.013 251.897 601.388 239.444 571.574C239.019 570.554 238.57 569.592 238.103 568.683C239.169 567.642 240.043 566.419 240.646 565.057C247.414 549.805 245.087 534.794 239.691 516.526C251.619 513.816 266.755 506.944 280.107 490.386C335.752 421.388 278.104 367.137 278.104 367.137C266.762 354.09 251.643 351.363 244.836 353.477C237.782 355.668 229.784 358.297 229.004 359.196C227.666 360.732 232.832 360.617 239.886 360.014C240.127 359.994 240.214 360.324 239.991 360.419C237.26 361.578 231.014 364.358 230.721 365.667C230.401 367.102 235.417 366.298 240.2 364.417C240.437 364.323 240.614 364.643 240.402 364.783C237.532 366.709 232.881 370.063 233.738 371.059C234.577 372.031 238.866 370.303 242.307 368.718C242.548 368.607 242.732 368.945 242.509 369.088C239.73 370.854 236.319 373.218 236.065 374.323C235.63 376.207 241.691 373.124 247.822 372.4C254.103 371.655 257.527 379.568 263.052 377.854C264.919 377.276 266.936 378.119 268.064 379.704C272.743 386.262 279.253 403.308 271.722 428.149C262.191 459.582 236.03 467.419 220.546 469.241C219.034 466.733 217.334 464.013 215.38 460.92C214.648 459.76 213.858 458.632 213.035 457.534C207.462 450.081 206.459 446.636 207.11 443.219C209.193 432.283 211.712 403.52 183.077 401.664C170.195 400.828 165.733 411.336 164.932 413.583C164.831 413.868 164.677 414.13 164.479 414.356L152.562 427.905C151.691 428.894 151.757 430.388 152.715 431.297L156.867 435.247C157.379 435.731 157.655 436.407 157.634 437.107C157.529 440.513 157.85 451.248 165.437 458.046C167.412 459.816 168.858 460.996 169.958 461.787C170.829 462.414 170.871 463.682 170.052 464.375C168.07 466.054 166.632 467.304 166.189 467.767C159.362 474.887 154.899 480.599 151.113 487.666C148.193 486.837 145.163 485.771 142.122 484.402C129.212 478.586 120.691 466.05 119.907 452.007C118.577 428.155 124.983 395.907 125.864 392.988C127.442 387.756 137.046 381.093 134.071 380.85C132.218 380.696 130.407 381.905 126.516 384.26C123.151 386.294 118.876 386.213 115.633 383.991C107.9 378.697 107.158 369.074 107.158 369.074C96.4982 377.436 102.56 387.579 103.8 394.465C105.04 401.351 86.4588 425.93 86.4448 465.552C86.4379 492.065 103.169 511.124 103.173 511.124C105.353 513.879 106.848 515.394 106.848 515.394C116.114 525.48 125.993 531.325 134.918 534.661C120.217 599.737 139.206 652.519 166.708 709.065C166.708 709.065 150.242 717.95 143.327 723.429C141.23 725.09 139.972 727.664 140.234 730.314C140.237 730.36 140.244 730.405 140.248 730.45C140.572 733.324 143.334 735.285 146.211 734.818C158.968 732.742 196.719 721.68 202.132 710.305C210.823 692.04 210.844 646.907 210.949 627.277C219.804 642.178 250.173 682.89 306.268 657.565C306.268 657.565 310.023 679.153 314.374 683.555C318.725 687.958 322.738 683.378 322.738 683.378C322.738 683.378 329.496 662.63 315.771 638.963Z" fill="white"/>
<path d="M109.276 359.489C112.115 360.624 118.399 362.508 127.808 361.056C140.951 359.029 143.724 355.696 143.508 353.522C143.289 351.349 131.898 350.335 122.259 351.495C115.647 352.289 110.788 354.142 108.67 356.068C107.555 357.085 107.046 358.597 109.276 359.489ZM113.898 356.532C115.361 355.198 118.723 353.919 123.293 353.369C129.957 352.568 137.834 353.268 137.987 354.773C138.14 356.274 136.221 358.58 127.132 359.983C120.629 360.986 116.281 359.684 114.316 358.9C112.777 358.284 113.125 357.239 113.898 356.535V356.532Z" fill="white"/>
<path d="M108.527 367.674C108.527 367.674 109.488 377.273 117.256 382.595C118.768 383.629 120.36 384.131 121.973 384.169C123.837 384.218 125.728 383.643 127.54 382.546C131.452 380.181 134.026 378.85 135.792 379.439C139.018 380.519 129.299 387.37 127.69 392.486C127.449 393.242 126.707 395.154 125.962 399.233C129.261 399.606 132.838 399.407 136.391 398.122C136.395 398.118 136.405 398.118 136.412 398.111C139.3 396.854 141.321 395.186 142.71 393.298C146.159 388.634 145.825 382.657 145.56 378.398C145.522 377.795 145.476 377.078 145.421 376.256C145.044 370.777 144.313 361.098 143.968 356.504C143.947 356.295 143.693 356.232 143.557 356.396C142.003 358.378 137.712 360.6 127.832 362.125C118.336 363.592 111.007 362.052 107.973 360.189C107.816 360.098 107.628 360.213 107.632 360.387C107.632 360.387 107.851 362.24 108.091 364.187C108.248 365.479 108.412 366.81 108.523 367.681L108.527 367.674Z" fill="white"/>
<path d="M151.412 804.283C153.151 794.966 156.62 770.156 144.306 770.156C130.769 770.156 101.246 793.071 109.338 804.283H92.5026C98.1877 792.935 105.952 774.475 97.0347 773.253C84.1039 771.483 91.6875 785.642 76.0779 780.334C60.4683 775.029 87.671 764.848 76.5238 759.983C65.6065 755.214 28.5907 784.729 45.0956 804.283H38.881C35.7668 804.283 32.7431 803.913 29.8413 803.224C28.8799 802.994 27.9637 802.698 27.0754 802.346C22.7942 800.643 15.862 807.09 12.2217 804.283C20.0143 793.283 31.0362 768.913 20.3348 763.076C11.9082 758.475 3.21338 761.188 -3.45057 766.033L-5.15748 755.089C-5.55809 752.546 -5.78452 749.983 -5.83328 747.409L-5.91689 743.048L-6.17815 729.869L-6.27221 725.101C-6.29311 724.118 -6.34188 723.133 -6.422 722.154C2.99044 720.162 21.1395 717.435 30.1479 723.589C42.6328 732.115 46.6492 724.15 62.2519 733.885C77.8615 743.616 36.8397 733 37.728 748.485C38.6198 763.967 74.7402 737.953 86.3299 744.766C97.923 751.582 81.8745 759.986 101.939 758.663C122.004 757.336 126.467 745.831 155.896 746.712C185.324 747.601 150.095 777.241 169.272 787.418C183.983 795.223 187.143 801.695 187.822 804.29H151.412V804.283Z" fill="white"/>
<path d="M278.599 804.282C279.003 800.998 279.104 795.345 277.672 786.213C274.997 769.164 258.192 773.709 247.498 767.3C236.807 760.888 228.405 785.453 214.272 764.994C200.14 744.532 184.481 763.856 180.109 768.781C175.734 773.709 174.933 784.315 194.026 788.108C207.145 790.709 210.712 799.215 211.663 804.282H237.664C222.591 793.914 232.261 785.454 249.41 785.454C262.345 785.454 259.749 797.783 257.482 804.282H278.599Z" fill="white"/>
<path d="M395 761.933L394.495 765.029C390.137 753.215 384.515 743.278 378.885 748.322C367.808 758.245 379.122 772.803 385.629 790.455C382.863 793.795 379.519 796.655 375.75 798.894C373.956 799.957 372.068 800.883 370.103 801.646C368.435 802.29 366.714 802.834 364.941 803.245C370.103 795.53 375.182 783.938 363.99 778.627C346.422 770.289 365.136 759.683 349.478 758.544C333.819 757.405 329.998 767.642 339.163 780.142C345.496 788.776 349.094 798.863 348.823 804.276H321.658C318.37 799.065 312.629 792.726 304.411 793.405C295.487 794.147 295.413 800.152 296.459 804.276H288.426C286.248 798.988 274.286 768.136 291.038 765.364C309.372 762.334 303.642 784.579 312.044 785.203C320.446 785.83 331.524 757.182 300.966 755.775C270.416 754.375 281.769 728.608 299.58 730.503C317.391 732.394 315.099 747.931 329.615 732.018C344.127 716.104 347.562 761.574 360.165 744.901C372.768 728.228 358.468 724.136 376.21 717.623C383.922 714.791 389.907 715.78 394.213 717.8C393.958 720.761 393.701 723.739 393.488 726.271C393.136 730.51 393.112 734.766 393.405 739.008L393.694 743.156V743.254L395 761.923V761.933Z" fill="white"/>
<path d="M215.122 728.577C209.82 727.17 204.09 728.977 200.864 733.38C199.088 735.804 198.328 738.65 200.439 741.544C206.075 749.269 227.948 737.866 229.432 748.165C230.916 758.464 232.665 760.927 235.992 760.077C239.319 759.227 245.439 749.59 254.618 754.211C263.797 758.833 265.128 763.981 272.98 763.055C276.651 762.623 284.022 755.267 276.972 749.193C269.921 743.122 277.251 726.588 286.43 725.257C298.831 723.46 300.91 724.345 308.093 726.588C312.239 727.884 326.068 721.997 310.103 710.779C294.139 699.557 288.948 683.981 275.909 692.43C262.871 700.88 243.311 686.227 239.054 694.148C234.797 702.068 289.749 707.348 269.524 715.401C249.299 723.453 231.735 718.831 232.4 708.668C233.066 698.505 205.344 708.72 219.895 713.816C226.68 716.191 232.801 730.054 223.754 729.789C220.271 729.688 217.373 729.172 215.126 728.573L215.122 728.577Z" fill="white"/>
<path d="M94.9342 726.55C69.2119 725.871 81.8745 716.446 66.0419 714.875C50.2129 713.304 43.0856 695.241 14.5905 705.843C4.82627 709.476 -2.3811 711.312 -7.63772 712.155C-7.6621 711.489 -7.69345 710.664 -7.72829 709.734C-7.82234 707.184 -7.93381 703.837 -8 700.751C11.7863 699.797 42.807 696.488 35.9653 685.06C28.758 673.027 4.65907 680.595 -7.90595 685.586C-7.89201 684.604 -7.87459 683.608 -7.86066 682.595C-7.83628 680.996 -7.81537 679.355 -7.79099 677.68C6.43565 672.974 12.0232 666.642 2.71527 663.038C-1.48236 661.415 -4.86136 659.941 -7.56108 658.666C-7.48096 651.551 -7.41129 644.076 -7.34162 636.389C-2.24525 633.62 11.6783 627.257 16.1755 637.483C21.7143 650.081 2.31815 652.829 12.6084 654.793C17.1091 655.654 22.2891 653.432 28.023 651.185C31.2243 649.935 34.5928 648.67 38.1147 647.935C42.7059 646.971 47.5445 646.901 52.5852 648.904C57.3367 650.791 61.4542 653.031 64.4291 655.358C64.4291 655.358 64.4326 655.358 64.4326 655.361C68.1739 658.287 70.1211 661.359 69.2886 664.034C68.5814 666.319 65.8538 668.321 60.4997 669.711C43.8764 674.03 41.5006 685.471 62.4783 685.053C71.9465 684.858 81.9163 682.434 90.329 681.428H90.3324C93.4188 681.055 96.2927 680.87 98.8601 681.059C104.792 681.497 109.06 683.904 110.408 690.522C113.93 707.797 128.128 698.376 128.55 708.978C128.972 719.58 120.66 727.222 94.9307 726.539L94.9342 726.55Z" fill="white"/>
<path d="M393.317 667.395C392.746 668.036 392.297 668.805 391.987 669.735C385.779 688.223 390.13 700.671 369.508 704.784C355.142 707.651 349.481 684.454 341.27 683.845C333.063 683.228 325.657 665.73 347.934 678.321C370.211 690.905 378.565 658.363 371.734 650.384C364.899 642.401 347.934 666.653 339.281 665.73C330.628 664.81 329.061 652.226 341.27 650.69C353.484 649.154 353.815 612.315 385.497 632.056C388.517 633.941 391.342 635.386 393.976 636.448C393.579 646.135 392.92 655.929 393.321 667.395H393.317Z" fill="white"/>
<path d="M352.87 713.749C353.167 717.584 354.466 721.251 356.452 724.553C358.043 727.2 358.277 730.335 352.32 731.885C340.887 734.866 344.858 713.213 332.356 716.88C319.854 720.548 331.388 692.503 348.652 705.174C351.63 707.361 352.641 710.75 352.87 713.749Z" fill="white"/>
<path d="M107.837 732.773C110.589 733.693 113.519 733.877 116.396 733.484C118.702 733.17 120.949 733.926 120.287 738.458C119.016 747.155 105.12 738.102 104.016 747.733C102.908 757.363 86.7828 741.265 100.644 733.156C103.033 731.756 105.688 732.056 107.841 732.777L107.837 732.773Z" fill="white"/>
<path d="M113.724 339.587C113.501 339.921 113.606 340.374 113.951 340.58C115.299 341.388 118.221 343.61 117.894 347.587C117.479 352.634 118.187 353.811 119.434 356.298C119.58 356.587 119.9 356.741 120.221 356.674L120.601 356.591C121.047 356.493 121.287 356.013 121.092 355.605C120.374 354.107 119.012 350.684 119.465 347.096C119.935 343.349 116.347 340.294 114.874 339.207C114.546 338.967 114.087 339.047 113.86 339.381L113.724 339.587Z" fill="white"/>
<path d="M133.354 338.472C133.639 338.758 133.622 339.221 133.322 339.489C132.155 340.538 129.72 343.279 130.807 347.117C132.19 351.99 131.723 353.282 130.981 355.96C130.894 356.27 130.609 356.486 130.281 356.479L129.891 356.472C129.435 356.462 129.107 356.037 129.219 355.598C129.633 353.992 130.306 350.373 129.17 346.936C127.982 343.348 130.912 339.663 132.148 338.319C132.424 338.019 132.89 338.012 133.176 338.298L133.35 338.472H133.354Z" fill="white"/>
<path d="M323.124 311.361L339.949 280.271C339.949 280.271 318.459 276.945 316.598 293.587C316.295 308.945 317.814 310.994 317.814 310.994L312.51 309.148C312.51 309.148 312.691 306.489 310.62 306.348C308.548 306.208 308 307.072 308 307.072L313.21 310.222L315.936 313.325C315.936 313.325 298.841 327.367 322.028 344.287C332.222 350.779 332.132 349.968 332.132 349.968L322.763 318.298C322.763 318.298 330.89 325.236 342.095 316.835C353.299 308.434 352.999 307.458 352.999 307.458C352.999 307.458 333.042 314.897 323.121 311.354L323.124 311.361Z" fill="white"/>
<path d="M209.337 68.8477L231.022 44.9649C231.022 44.9649 212.468 37.4661 207.264 51.7672C203.728 65.2672 204.655 67.3988 204.655 67.3988L200.293 64.6437C200.293 64.6437 201.018 62.3345 199.193 61.7703C197.367 61.206 196.692 61.8539 196.692 61.8539L200.694 65.7409L202.478 69.0602C202.478 69.0602 184.172 77.8338 201.359 97.6972C209.117 105.597 209.211 104.858 209.211 104.858L207.543 74.9011C207.543 74.9011 213.353 82.7552 225.18 77.7119C237.006 72.672 236.947 71.749 236.947 71.749C236.947 71.749 217.478 74.0826 209.34 68.8477H209.337Z" fill="white"/>
<path d="M48.442 301.902L55.7681 282C55.7681 282 42.5971 281.938 42.959 291.959C44.1396 301.081 45.2282 302.16 45.2282 302.16L41.8857 301.539C41.8857 301.539 41.7569 299.949 40.5057 300.05C39.2515 300.149 39 300.712 39 300.712L42.4008 302.114L44.3083 303.71C44.3083 303.71 35.3109 313.543 50.7021 321.505C57.3873 324.446 57.2615 323.972 57.2615 323.972L48.8438 306.051C48.8438 306.051 54.3268 309.437 60.2944 303.467C66.262 297.498 65.9983 296.947 65.9983 296.947C65.9983 296.947 54.7009 303.123 48.442 301.908V301.902Z" fill="white"/>
<path d="M39.3004 252.144C38.8058 252.597 38.865 253.391 39.4049 253.791C40.0668 254.282 40.7078 254.766 41.3348 255.268C41.7389 255.592 43.4807 257.159 43.0905 259.11C43.0034 259.545 42.6481 260.019 42.1151 260.047C41.5403 260.078 41.0457 259.925 40.5684 259.528C39.3527 258.521 38.2763 256.212 37.6911 254.787C37.4472 254.199 36.7401 253.934 36.1757 254.241C36.1061 254.279 36.0364 254.314 35.9667 254.349C35.0819 254.77 34.2041 255.254 33.2705 255.512C32.5842 255.7 31.7726 255.703 31.0794 255.54C30.637 255.435 30.0413 254.895 30.003 254.502C29.9612 254.07 30.3687 253.443 30.7659 253.143C32.3996 251.917 34.2737 252.078 36.1514 252.429C36.1548 252.429 36.1583 252.429 36.1618 252.429C36.7923 252.548 37.395 252.137 37.4751 251.503C37.5482 250.925 37.6318 250.357 37.7747 249.803C38.0324 248.804 38.4017 247.821 38.8162 246.874C39.1332 246.15 40.3838 245.77 41.0875 246.15C41.3488 246.289 41.603 246.623 41.6658 246.909C41.934 248.149 41.617 249.27 40.8436 250.287C40.349 250.935 39.8857 251.611 39.3039 252.14L39.3004 252.144Z" fill="white"/>
<path d="M48.1019 392.375C48.4537 393.103 49.3977 393.316 50.0561 392.842C50.8643 392.26 51.6516 391.696 52.4563 391.16C52.9788 390.812 55.4172 389.377 57.5457 390.515C58.0229 390.77 58.4444 391.344 58.2911 391.964C58.1239 392.633 57.7686 393.145 57.1381 393.549C55.5357 394.58 52.4667 394.995 50.603 395.158C49.8297 395.224 49.2723 395.945 49.4291 396.698C49.4465 396.792 49.4639 396.882 49.4779 396.976C49.652 398.14 49.9028 399.313 49.8715 400.477C49.8471 401.33 49.5649 402.257 49.126 402.992C48.8473 403.458 48.0078 403.949 47.5375 403.855C47.0185 403.751 46.4368 403.061 46.2312 402.497C45.3847 400.191 46.2382 398.101 47.3146 396.085C47.3146 396.081 47.3181 396.078 47.3216 396.071C47.6838 395.392 47.4191 394.556 46.7154 394.239C46.071 393.95 45.4405 393.654 44.8448 393.295C43.7719 392.647 42.7617 391.874 41.8072 391.062C41.0791 390.442 41.0826 388.878 41.7689 388.206C42.0231 387.959 42.5004 387.785 42.8592 387.816C44.3989 387.949 45.5868 388.711 46.4925 389.958C47.0708 390.756 47.6908 391.526 48.0984 392.375H48.1019Z" fill="white"/>
<path d="M345.203 428.281C345.883 428.428 346.527 427.905 346.548 427.215C346.576 426.369 346.604 425.544 346.659 424.718C346.698 424.185 346.994 421.792 348.892 420.96C349.317 420.775 349.93 420.789 350.272 421.221C350.641 421.685 350.805 422.19 350.749 422.827C350.613 424.447 349.282 426.724 348.418 428.062C348.06 428.616 348.258 429.368 348.854 429.657C348.927 429.692 349 429.73 349.07 429.769C349.955 430.26 350.888 430.709 351.665 431.343C352.236 431.806 352.721 432.485 352.992 433.164C353.167 433.596 353.062 434.418 352.748 434.686C352.407 434.979 351.627 435.01 351.136 434.854C349.115 434.213 348.14 432.541 347.325 430.758C347.325 430.754 347.325 430.751 347.321 430.747C347.049 430.148 346.339 429.887 345.75 430.193C345.214 430.476 344.681 430.744 344.123 430.953C343.117 431.332 342.061 431.608 341.006 431.82C340.201 431.984 339.131 431.162 339.037 430.347C339.003 430.044 339.135 429.633 339.34 429.41C340.239 428.445 341.385 428.044 342.713 428.093C343.559 428.121 344.412 428.111 345.207 428.281H345.203Z" fill="white"/>
<path d="M62.454 454.1C62.3494 453.452 61.4995 453.226 61.0745 453.731C60.5136 454.393 59.9876 455.507 60.4927 457.151C61.2382 459.565 62.7953 456.242 62.454 454.104V454.1Z" fill="white"/>
<path d="M67.4145 547.131C67.1916 547.305 66.8711 547.288 66.6481 547.117C66.0629 546.668 64.4361 545.497 64.8646 543.954C65.293 542.412 66.9721 543.463 66.359 544.881C65.6971 546.413 68.0346 546.65 67.4145 547.131Z" fill="white"/>
<path d="M34.1156 486.627C33.593 486.286 32.9033 486.788 33.067 487.387C33.2412 488.028 33.7324 488.724 34.8123 489.355C37.9718 491.197 39.9226 487.697 37.2263 487.234C35.6413 486.962 34.6625 486.979 34.1156 486.624V486.627Z" fill="white"/>
<path d="M45.3639 329.047C44.8413 328.706 44.1516 329.208 44.3153 329.807C44.4895 330.448 44.9807 331.144 46.0606 331.775C49.2201 333.617 51.1709 330.117 48.4746 329.653C46.8896 329.382 45.9108 329.399 45.3639 329.044V329.047Z" fill="white"/>
<path d="M92.2066 325.404C91.6841 325.063 90.9944 325.564 91.1581 326.163C91.3323 326.804 91.8234 327.501 92.9033 328.131C96.0629 329.973 98.0136 326.473 95.3174 326.01C93.7324 325.738 92.7535 325.756 92.2066 325.4V325.404Z" fill="white"/>
<path d="M56.612 595.893C56.1 595.52 55.4033 595.955 55.5008 596.579C55.978 599.679 59.2142 601.95 61.0535 600.403C62.4818 599.205 60.8584 598.975 58.1761 597.028L56.612 595.893Z" fill="white"/>
<path d="M136.973 416.84C137.193 416.063 136.35 415.426 135.639 415.823C132.1 417.791 130.807 422.67 133.507 424.171C135.604 425.335 135.148 423.294 136.301 419.215L136.973 416.84Z" fill="white"/>
<path d="M316.217 383.26C316.436 382.483 315.593 381.846 314.883 382.243C311.344 384.211 310.051 389.09 312.751 390.591C314.848 391.755 314.392 389.714 315.545 385.635L316.217 383.26Z" fill="white"/>
<path d="M377.912 302.139C378.131 301.362 377.288 300.725 376.577 301.122C373.038 303.089 371.746 307.969 374.446 309.47C376.543 310.634 376.086 308.593 377.239 304.514L377.912 302.139Z" fill="white"/>
<path d="M341.706 491.95C341.925 491.173 341.082 490.536 340.372 490.933C336.832 492.901 335.54 497.781 338.24 499.282C340.337 500.445 339.881 498.404 341.034 494.326L341.706 491.95Z" fill="white"/>
<path d="M382.522 456.166C382.742 455.389 381.898 454.752 381.188 455.149C377.649 457.117 376.356 461.996 379.056 463.498C381.153 464.661 380.697 462.62 381.85 458.541L382.522 456.166Z" fill="white"/>
<path d="M62.2206 491.18C61.7921 491.344 60.7401 492.884 62.2206 493.615C63.7011 494.346 63.722 490.606 62.2206 491.18Z" fill="white"/>
<path d="M3.66273 489.24C3.23426 489.404 2.18224 490.943 3.66273 491.675C5.14322 492.406 5.16413 488.665 3.66273 489.24Z" fill="white"/>
<path d="M101.274 470.219C100.846 470.383 99.7937 471.923 101.274 472.654C102.755 473.386 102.776 469.645 101.274 470.219Z" fill="white"/>
<path d="M73.3921 529.054C72.9636 529.218 71.9116 530.758 73.3921 531.489C74.8726 532.22 74.8935 528.48 73.3921 529.054Z" fill="white"/>
<path d="M185.31 386.576C184.882 386.74 183.83 388.279 185.31 389.011C186.791 389.742 186.812 386.001 185.31 386.576Z" fill="white"/>
<path d="M97.0243 576.241C96.5958 576.405 95.5438 577.944 97.0243 578.676C98.5048 579.407 98.5257 575.666 97.0243 576.241Z" fill="white"/>
<path d="M49.1539 505.297C48.6941 505.474 47.5654 507.125 49.1539 507.906C50.7424 508.689 50.7633 504.677 49.1539 505.297Z" fill="white"/>
<path d="M29.2387 433.711C28.8102 433.874 27.7582 435.414 29.2387 436.145C30.7192 436.877 30.7401 433.136 29.2387 433.711Z" fill="white"/>
<path d="M57.4273 399.745C56.9988 399.909 55.9468 401.448 57.4273 402.179C58.9078 402.911 58.9287 399.17 57.4273 399.745Z" fill="white"/>
<path d="M192.646 371.344C192.218 371.508 191.166 373.048 192.646 373.779C194.127 374.511 194.148 370.77 192.646 371.344Z" fill="white"/>
<path d="M222.249 421.579C221.605 421.827 220.016 424.15 222.249 425.254C224.482 426.354 224.514 420.712 222.249 421.579Z" fill="white"/>
<path d="M223.761 398.164C223.333 398.328 222.281 399.867 223.761 400.598C225.242 401.33 225.263 397.589 223.761 398.164Z" fill="white"/>
<path d="M81.4948 445.779C81.0663 445.943 80.0143 447.482 81.4948 448.214C82.9753 448.945 82.9962 445.204 81.4948 445.779Z" fill="white"/>
<path d="M98.8671 458.189C98.4386 458.353 97.3866 459.892 98.8671 460.624C100.348 461.355 100.368 457.615 98.8671 458.189Z" fill="white"/>
<path d="M48.1855 455.846C47.5898 455.341 46.6388 456.403 47.1858 458.799C47.7362 461.196 50.0213 459.97 48.9275 458.799C47.8337 457.629 48.7673 456.34 48.1855 455.846Z" fill="white"/>
<path d="M48.1855 436.808C47.5898 436.303 46.6388 437.365 47.1858 439.761C47.7362 442.157 50.0213 440.931 48.9275 439.761C47.8337 438.591 48.7673 437.302 48.1855 436.808Z" fill="white"/>
<path d="M9.1389 516.501C8.54322 515.996 7.59222 517.058 8.13913 519.455C8.68952 521.851 10.9747 520.625 9.88088 519.455C8.78706 518.284 9.72064 516.996 9.1389 516.501Z" fill="white"/>
<path d="M17.5829 596.164C16.813 596.324 17.0812 597.721 19.3316 598.752C21.5819 599.782 21.9965 597.236 20.3941 597.383C18.7917 597.529 18.3318 596.007 17.5829 596.164Z" fill="white"/>
<path d="M135.305 545.243C133.615 544.943 133.005 547.991 136.708 551.909C140.415 555.828 143.362 551.011 139.997 550.001C136.632 548.991 136.956 545.536 135.305 545.243Z" fill="white"/>
<path d="M164.364 375.552C163.584 377.067 166.346 378.533 171.202 376.151C176.058 373.768 172.261 369.575 170.314 372.476C168.363 375.378 165.127 374.072 164.364 375.552Z" fill="white"/>
<path d="M25.8702 511.054C25.5636 510.911 25.2327 511.19 25.3372 511.507C25.595 512.29 26.2673 513.165 27.9986 512.963C31.0258 512.614 28.5211 511.674 26.8734 511.357C26.438 511.273 26.114 511.165 25.8737 511.051L25.8702 511.054Z" fill="white"/>
<path d="M28.7441 547.646C28.4375 547.503 28.1066 547.782 28.2111 548.099C28.4689 548.882 29.1412 549.757 30.8725 549.554C33.8997 549.206 31.395 548.266 29.7473 547.949C29.3119 547.865 28.9879 547.757 28.7476 547.642L28.7441 547.646Z" fill="white"/>
<path d="M74.8065 630.935C74.4999 630.792 74.169 631.071 74.2735 631.388C74.5313 632.171 75.2036 633.046 76.9349 632.844C79.962 632.495 77.4574 631.555 75.8097 631.238C75.3743 631.154 75.0503 631.046 74.8099 630.931L74.8065 630.935Z" fill="white"/>
<path d="M144.222 458.471C143.916 458.328 143.585 458.607 143.689 458.924C143.947 459.707 144.619 460.582 146.351 460.38C149.378 460.031 146.873 459.091 145.226 458.774C144.79 458.69 144.466 458.583 144.226 458.468L144.222 458.471Z" fill="white"/>
<path d="M324.525 406.6C324.219 406.457 323.888 406.736 323.992 407.053C324.25 407.836 324.922 408.711 326.654 408.509C329.681 408.16 327.176 407.22 325.528 406.903C325.093 406.819 324.769 406.711 324.529 406.596L324.525 406.6Z" fill="white"/>
<path d="M140.498 316.094C140.192 315.951 139.861 316.23 139.965 316.547C140.223 317.331 140.896 318.205 142.627 318.003C145.654 317.654 143.149 316.714 141.502 316.397C141.066 316.313 140.742 316.206 140.502 316.091L140.498 316.094Z" fill="white"/>
<path d="M8.67901 538.479C8.37246 538.336 8.04153 538.615 8.14604 538.932C8.40381 539.715 9.07613 540.59 10.8074 540.388C13.8346 540.039 11.33 539.099 9.68226 538.782C9.24682 538.698 8.92286 538.59 8.6825 538.475L8.67901 538.479Z" fill="white"/>
<path d="M23.4248 447.281C23.4875 446.521 22.6201 446.048 22.0244 446.525C20.5578 447.702 19.2376 449.816 21.0595 453.292C24.2469 459.37 24.2294 453.348 23.5815 449.632C23.4073 448.646 23.3795 447.88 23.4282 447.284L23.4248 447.281Z" fill="white"/>
<path d="M188.672 560.348C188.425 560.233 188.156 560.456 188.24 560.714C188.449 561.348 188.989 562.052 190.386 561.891C192.828 561.609 190.807 560.853 189.477 560.596C189.125 560.53 188.863 560.439 188.668 560.348H188.672Z" fill="white"/>
<path d="M187.017 582.232C186.77 582.117 186.502 582.34 186.585 582.598C186.794 583.232 187.334 583.935 188.731 583.775C191.173 583.493 189.153 582.737 187.822 582.479C187.47 582.413 187.209 582.323 187.014 582.232H187.017Z" fill="white"/>
<path d="M45.5276 530.938C45.2803 530.823 45.0121 531.046 45.0957 531.304C45.3047 531.938 45.8446 532.641 47.2415 532.481C49.6835 532.199 47.663 531.443 46.3323 531.186C45.9805 531.119 45.7192 531.029 45.5241 530.938H45.5276Z" fill="white"/>
<path d="M146.88 414.93C146.633 414.815 146.365 415.038 146.448 415.296C146.657 415.93 147.197 416.634 148.594 416.473C151.036 416.191 149.016 415.435 147.685 415.178C147.333 415.112 147.072 415.021 146.877 414.93H146.88Z" fill="white"/>
<path d="M123.778 567.412C123.53 567.297 123.262 567.52 123.346 567.778C123.555 568.412 124.095 569.115 125.492 568.955C127.933 568.673 125.913 567.917 124.582 567.659C124.23 567.593 123.969 567.502 123.774 567.412H123.778Z" fill="white"/>
<path d="M109.969 670.309C109.722 670.194 109.453 670.417 109.537 670.675C109.746 671.309 110.286 672.012 111.683 671.852C114.125 671.57 112.104 670.814 110.774 670.557C110.422 670.49 110.161 670.4 109.966 670.309H109.969Z" fill="white"/>
<path d="M173.686 548.813C174.72 549.269 176.041 549.527 177.713 549.395C177.922 549.377 178.127 549.304 178.301 549.189C180.28 547.911 177.431 547.322 174.504 546.532C173.048 546.138 172.306 548.207 173.686 548.813Z" fill="white"/>
<path d="M116.236 537.751C117.368 537.671 118.653 537.285 120.064 536.39C120.238 536.278 120.385 536.115 120.486 535.933C121.628 533.882 118.835 534.693 115.877 535.355C114.403 535.686 114.731 537.859 116.236 537.751Z" fill="white"/>
<path d="M76.0501 376.736C77.0847 377.192 78.4049 377.45 80.077 377.318C80.286 377.3 80.4915 377.227 80.6657 377.112C82.6443 375.834 79.7948 375.245 76.8687 374.455C75.4126 374.061 74.6706 376.13 76.0501 376.736Z" fill="white"/>
<path d="M132.065 366.092C133.099 366.549 134.42 366.806 136.092 366.674C136.301 366.657 136.506 366.584 136.68 366.469C138.659 365.19 135.81 364.602 132.883 363.811C131.427 363.418 130.685 365.486 132.065 366.092Z" fill="white"/>
<path d="M53.2505 357.127C54.414 352.61 59.9179 352.92 60.2767 353.975C60.6355 355.03 58.3085 354.006 56.5145 356.758C54.0691 360.502 52.3622 360.568 53.247 357.127H53.2505Z" fill="white"/>
<path d="M11.5251 257.709C11.1941 257.169 10.3337 257.33 10.2187 257.953C10.0968 258.622 10.2396 259.475 10.9572 260.53C13.0578 263.606 16.4055 261.224 14.1238 259.625C12.7791 258.684 11.8699 258.273 11.5216 257.709H11.5251Z" fill="white"/>
<path d="M47.5063 418.052C47.1231 417.348 46.0815 417.47 45.8481 418.236C44.6916 422.061 47.1614 426.425 50.1259 425.648C52.4285 425.046 50.6867 423.9 48.6767 420.204L47.5063 418.052Z" fill="white"/>
<path d="M279.727 528.417C279.344 527.713 278.303 527.835 278.069 528.602C276.913 532.426 279.382 536.79 282.347 536.013C284.65 535.411 282.908 534.265 280.898 530.569L279.727 528.417Z" fill="white"/>
<path d="M134.671 451.108C134.242 451.077 132.72 451.962 133.681 453.177C134.643 454.389 136.179 451.223 134.671 451.108Z" fill="white"/>
<path d="M157.23 399.807C156.801 399.776 155.279 400.661 156.24 401.876C157.202 403.088 158.738 399.922 157.23 399.807Z" fill="white"/>
<path d="M27.0755 365.421C25.8527 364.55 24.212 366.737 25.6577 371.227C27.1068 375.716 31.2696 373 28.9879 370.941C26.7062 368.883 28.2738 366.27 27.0755 365.421Z" fill="white"/>
<path d="M80.7354 475.173C79.5127 474.302 77.8719 476.489 79.3176 480.979C80.7667 485.468 84.9295 482.752 82.6478 480.693C80.3661 478.635 81.9337 476.022 80.7354 475.173Z" fill="white"/>
<path d="M161.852 340.604C160.63 339.733 158.989 341.921 160.435 346.41C161.884 350.9 166.046 348.183 163.765 346.125C161.483 344.066 163.051 341.454 161.852 340.604Z" fill="white"/>
<path d="M25.0794 401.107C24.8913 400.877 24.522 400.975 24.4837 401.267C24.3896 401.985 24.5917 402.929 26.0373 403.416C28.5664 404.27 26.9396 402.591 25.7552 401.723C25.4417 401.494 25.2257 401.288 25.0794 401.107Z" fill="white"/>
<path d="M213.199 367.862C213.011 367.632 212.642 367.73 212.604 368.022C212.51 368.74 212.712 369.683 214.157 370.171C216.686 371.024 215.059 369.346 213.875 368.478C213.562 368.248 213.346 368.043 213.199 367.862Z" fill="white"/>
<path d="M8.12868 412.869C8.77661 413.618 9.72412 414.315 11.0966 414.834C11.2673 414.9 11.4589 414.914 11.6401 414.889C13.6953 414.614 11.6575 413.085 9.64052 411.365C8.63727 410.508 7.26128 411.87 8.12519 412.866L8.12868 412.869Z" fill="white"/>
<path d="M99.3164 428.908C99.9644 429.657 100.912 430.354 102.284 430.873C102.455 430.939 102.647 430.953 102.828 430.928C104.883 430.653 102.845 429.124 100.828 427.404C99.825 426.547 98.449 427.909 99.3129 428.905L99.3164 428.908Z" fill="white"/>
<path d="M71.3369 423.437C71.9849 424.185 72.9324 424.882 74.3049 425.401C74.4756 425.467 74.6672 425.481 74.8483 425.457C76.9036 425.182 74.8657 423.653 72.8488 421.932C71.8455 421.075 70.4695 422.437 71.3334 423.433L71.3369 423.437Z" fill="white"/>
<path d="M144.281 615.303C144.142 614.429 143 614.13 142.428 614.805C141.676 615.694 140.965 617.191 141.648 619.399C142.648 622.642 144.745 618.18 144.281 615.303Z" fill="white"/>
<path d="M220.048 469.794C219.473 470.014 218.059 472.082 220.048 473.065C222.037 474.047 222.065 469.021 220.048 469.794Z" fill="white"/>
<path d="M75.6669 278.962C75.1687 279.154 73.9425 280.948 75.6669 281.798C77.3912 282.647 77.4156 278.29 75.6669 278.962Z" fill="white"/>
<path d="M104.266 65.2222C103.768 65.4137 102.542 67.2075 104.266 68.0573C105.991 68.9072 106.015 64.55 104.266 65.2222Z" fill="white"/>
<path d="M113.035 92.2817C112.536 92.4733 111.31 94.267 113.035 95.1169C114.759 95.9667 114.783 91.6095 113.035 92.2817Z" fill="white"/>
<path d="M338.822 272.031C338.323 272.222 337.097 274.016 338.822 274.866C340.546 275.716 340.57 271.359 338.822 272.031Z" fill="white"/>
<path d="M84.1841 352.903C83.6859 353.094 82.4597 354.888 84.1841 355.738C85.9084 356.588 85.9328 352.231 84.1841 352.903Z" fill="white"/>
<path d="M37.7639 210.06C37.3355 210.224 36.2834 211.763 37.7639 212.495C39.2444 213.226 39.2653 209.486 37.7639 210.06Z" fill="white"/>
<path d="M356.309 325.746C355.88 325.91 354.828 327.449 356.309 328.18C357.789 328.912 357.81 325.171 356.309 325.746Z" fill="white"/>
<path d="M76.0849 184.263C75.5868 184.455 74.3606 186.248 76.0849 187.098C77.8093 187.948 77.8337 183.591 76.0849 184.263Z" fill="white"/>
<path d="M207.817 530.73C207.242 530.949 205.828 533.018 207.817 534C209.806 534.982 209.834 529.956 207.817 530.73Z" fill="white"/>
<path d="M181.461 528.629C180.886 528.849 179.472 530.917 181.461 531.9C183.45 532.882 183.478 527.856 181.461 528.629Z" fill="white"/>
<path d="M216.979 483.796C216.404 484.016 214.99 486.084 216.979 487.067C218.968 488.049 218.996 483.023 216.979 483.796Z" fill="white"/>
<path d="M104.061 274.557C102.459 274.271 101.88 277.162 105.392 280.878C108.907 284.595 111.7 280.025 108.509 279.067C105.318 278.109 105.625 274.835 104.061 274.557Z" fill="white"/>
<path d="M21.467 304.702C21.5402 303.817 20.53 303.263 19.8368 303.821C18.1299 305.189 16.5901 307.655 18.7116 311.703C22.425 318.783 22.4041 311.769 21.6482 307.436C21.4461 306.29 21.4113 305.395 21.4705 304.698L21.467 304.702Z" fill="white"/>
<path d="M230.725 201.111C230.477 200.996 230.209 201.219 230.293 201.477C230.502 202.111 231.042 202.814 232.439 202.654C234.881 202.372 232.86 201.616 231.529 201.358C231.178 201.292 230.916 201.202 230.721 201.111H230.725Z" fill="white"/>
<path d="M342.897 244.011C342.65 243.896 342.382 244.118 342.465 244.376C342.674 245.01 343.214 245.714 344.611 245.553C347.053 245.271 345.033 244.516 343.702 244.258C343.35 244.192 343.089 244.101 342.894 244.011H342.897Z" fill="white"/>
<path d="M222.73 447.542C222.483 447.427 222.215 447.65 222.298 447.907C222.507 448.541 223.047 449.245 224.444 449.085C226.886 448.803 224.866 448.047 223.535 447.789C223.183 447.723 222.922 447.632 222.727 447.542H222.73Z" fill="white"/>
<path d="M77.1439 306.813C78.3491 307.345 79.8854 307.645 81.8327 307.488C82.0765 307.467 82.3134 307.38 82.5189 307.248C84.825 305.757 81.5052 305.075 78.0983 304.152C76.4019 303.692 75.538 306.102 77.1439 306.809V306.813Z" fill="white"/>
<path d="M145.515 588.394C140.415 584.347 143.961 577.614 145.515 577.767C147.068 577.92 144.431 580.254 146.912 584.082C150.294 589.292 149.395 591.476 145.515 588.394Z" fill="white"/>
<path d="M188.738 616.936C187.996 616.396 186.982 617.03 187.122 617.932C187.818 622.432 192.514 625.727 195.183 623.484C197.255 621.743 194.897 621.412 191.006 618.584L188.738 616.936Z" fill="white"/>
<path d="M196.255 603.106C197.649 603.719 199.419 604.064 201.665 603.886C201.944 603.865 202.219 603.761 202.456 603.611C205.118 601.89 201.286 601.103 197.356 600.037C195.399 599.508 194.402 602.287 196.255 603.106Z" fill="white"/>
<path d="M255.569 293.573C255.068 293.535 253.298 294.569 254.416 295.984C255.534 297.398 257.328 293.706 255.569 293.573Z" fill="white"/>
<path d="M296.556 350.631C291.456 346.584 295.002 339.851 296.556 340.005C298.11 340.158 295.473 342.491 297.953 346.319C301.335 351.53 300.437 353.714 296.556 350.631Z" fill="white"/>
<path d="M241.015 433.767C236.769 430.398 239.723 424.787 241.015 424.916C242.307 425.045 240.113 426.989 242.179 430.176C244.993 434.515 244.248 436.33 241.015 433.767Z" fill="white"/>
<path d="M193.587 288.011C193.159 288.175 192.107 289.715 193.587 290.446C195.068 291.178 195.088 287.437 193.587 288.011Z" fill="white"/>
<path d="M267.737 323.426C267.451 323.29 267.141 323.551 267.239 323.85C267.479 324.582 268.106 325.397 269.719 325.209C272.541 324.881 270.203 324.007 268.667 323.711C268.26 323.631 267.957 323.53 267.734 323.426H267.737Z" fill="white"/>
<path d="M216.979 319.201C216.404 319.421 214.99 321.49 216.979 322.472C218.968 323.454 218.996 318.428 216.979 319.201Z" fill="white"/>
<path d="M272.583 292.493C272.008 292.713 270.593 294.782 272.583 295.764C274.572 296.746 274.599 291.72 272.583 292.493Z" fill="white"/>
<path d="M258.22 400.493C257.645 400.713 256.231 402.782 258.22 403.764C260.209 404.746 260.237 399.72 258.22 400.493Z" fill="white"/>
<path d="M276.275 336.15C275.7 336.369 274.286 338.438 276.275 339.42C278.264 340.402 278.292 335.376 276.275 336.15Z" fill="white"/>
<path d="M375.579 337.887C375.005 338.106 373.59 340.175 375.579 341.157C377.569 342.14 377.596 337.114 375.579 337.887Z" fill="white"/>
<path d="M175.205 318.316C174.609 317.811 173.658 318.874 174.205 321.27C174.755 323.666 177.04 322.44 175.947 321.27C174.853 320.1 175.786 318.811 175.205 318.316Z" fill="white"/>
<path d="M231.735 323.555C233.128 324.168 234.898 324.513 237.145 324.335C237.424 324.314 237.699 324.21 237.936 324.06C240.597 322.339 236.765 321.552 232.836 320.486C230.878 319.957 229.882 322.736 231.735 323.555Z" fill="white"/>
<path d="M337.073 47.2122C338.466 47.8252 340.236 48.17 342.483 47.9924C342.761 47.9715 343.037 47.867 343.273 47.7172C345.935 45.9966 342.103 45.2095 338.174 44.1437C336.216 43.6143 335.22 46.3937 337.073 47.2122Z" fill="white"/>
<path d="M223.89 347.176C225.284 347.789 227.053 348.134 229.3 347.956C229.579 347.935 229.854 347.831 230.091 347.681C232.752 345.96 228.92 345.173 224.991 344.108C223.033 343.578 222.037 346.358 223.89 347.176Z" fill="white"/>
<path d="M228.927 289.463C227.502 288.45 225.59 290.996 227.276 296.227C228.962 301.459 233.811 298.293 231.153 295.896C228.495 293.5 230.321 290.452 228.927 289.463Z" fill="white"/>
<path d="M364.819 195.036C364.481 196.743 367.613 197.411 371.706 193.719C375.799 190.027 370.884 186.962 369.793 190.358C368.7 193.754 365.15 193.371 364.819 195.039V195.036Z" fill="white"/>
<path d="M7.97887 622.607C2.87901 618.559 6.42522 611.827 7.97887 611.98C9.53251 612.133 6.8955 614.467 9.37575 618.295C12.7582 623.505 11.8595 625.689 7.97887 622.607Z" fill="white"/>
<path d="M148.744 705.146C146.194 703.123 147.967 699.755 148.744 699.831C149.521 699.908 148.2 701.075 149.444 702.99C151.134 705.596 150.688 706.686 148.744 705.146Z" fill="white"/>
<path d="M43.3225 600.717C42.8941 600.88 41.842 602.42 43.3225 603.151C44.803 603.883 44.8239 600.142 43.3225 600.717Z" fill="white"/>
<path d="M30.0608 606.024C29.6323 606.188 28.5803 607.727 30.0608 608.459C31.5413 609.19 31.5622 605.449 30.0608 606.024Z" fill="white"/>
<path d="M90.0259 599.062C89.5974 599.226 88.5454 600.765 90.0259 601.497C91.5064 602.228 91.5273 598.488 90.0259 599.062Z" fill="white"/>
<path d="M76.1232 568.227C75.6947 568.391 74.6427 569.931 76.1232 570.662C77.6037 571.393 77.6246 567.653 76.1232 568.227Z" fill="white"/>
<path d="M128.393 665.186C127.965 665.35 126.913 666.889 128.393 667.621C129.874 668.352 129.895 664.612 128.393 665.186Z" fill="white"/>
<path d="M183.729 728.639C183.3 728.803 182.248 730.343 183.729 731.074C185.209 731.805 185.23 728.065 183.729 728.639Z" fill="white"/>
<path d="M6.65865 346.045C4.96915 345.745 4.35954 348.793 8.06251 352.711C11.769 356.63 14.716 351.813 11.3509 350.802C7.98587 349.792 8.30984 346.337 6.65865 346.045Z" fill="white"/>
<path d="M25.466 569.279C24.9923 569.053 24.4697 569.488 24.6335 569.986C25.0341 571.209 26.0826 572.567 28.7754 572.257C33.4885 571.714 29.587 570.251 27.0232 569.756C26.3439 569.624 25.8388 569.457 25.466 569.279Z" fill="white"/>
<path d="M113.56 616.122C114.595 616.578 115.915 616.836 117.587 616.703C117.796 616.686 118.002 616.613 118.176 616.498C120.155 615.22 117.305 614.631 114.379 613.84C112.923 613.447 112.181 615.516 113.56 616.122Z" fill="white"/>
<path d="M133.389 699.215C134.423 699.671 135.743 699.929 137.415 699.796C137.625 699.779 137.83 699.706 138.004 699.591C139.983 698.312 137.133 697.724 134.207 696.933C132.751 696.54 132.009 698.609 133.389 699.215Z" fill="white"/>
<path d="M178.166 748.144C179.2 748.601 180.52 748.858 182.192 748.726C182.401 748.708 182.607 748.635 182.781 748.52C184.76 747.242 181.91 746.654 178.984 745.863C177.528 745.469 176.786 747.538 178.166 748.144Z" fill="white"/>
<path d="M93.2969 532.575C93.1575 531.701 92.0149 531.401 91.4436 532.077C90.6912 532.965 89.9806 534.463 90.6633 536.671C91.6631 539.914 93.7602 535.452 93.2969 532.575Z" fill="white"/>
<path d="M6.74914 575.294C6.6098 574.419 5.46721 574.12 4.89591 574.796C4.14348 575.684 3.43284 577.181 4.11561 579.39C5.11537 582.632 7.21245 578.171 6.74914 575.294Z" fill="white"/>
<path d="M79.5475 506.349C78.9727 506.568 77.5584 508.637 79.5475 509.619C81.5366 510.602 81.5644 505.576 79.5475 506.349Z" fill="white"/>
<path d="M269.869 562.411C270.221 563.138 271.165 563.351 271.823 562.877C272.631 562.296 273.419 561.731 274.223 561.195C274.746 560.847 277.184 559.412 279.313 560.551C279.79 560.805 280.211 561.38 280.058 562C279.891 562.668 279.536 563.18 278.905 563.584C277.303 564.615 274.234 565.03 272.37 565.193C271.597 565.26 271.039 565.981 271.196 566.733C271.214 566.827 271.231 566.917 271.245 567.012C271.419 568.175 271.67 569.349 271.639 570.512C271.614 571.365 271.332 572.292 270.893 573.027C270.614 573.493 269.775 573.984 269.305 573.89C268.786 573.786 268.204 573.096 267.998 572.532C267.152 570.226 268.005 568.137 269.082 566.12C269.082 566.116 269.085 566.113 269.089 566.106C269.451 565.427 269.186 564.591 268.483 564.274C267.838 563.985 267.208 563.689 266.612 563.33C265.539 562.682 264.529 561.909 263.574 561.097C262.846 560.477 262.85 558.914 263.536 558.241C263.79 557.994 264.267 557.82 264.626 557.851C266.166 557.984 267.354 558.746 268.26 559.993C268.838 560.791 269.458 561.561 269.865 562.411H269.869Z" fill="white"/>
<path d="M351.373 534.408C351.268 533.76 350.418 533.534 349.993 534.039C349.432 534.7 348.906 535.815 349.411 537.459C350.157 539.873 351.714 536.55 351.373 534.411V534.408Z" fill="white"/>
<path d="M323.031 566.935C322.508 566.594 321.818 567.095 321.982 567.694C322.156 568.335 322.648 569.032 323.727 569.662C326.887 571.505 328.838 568.004 326.141 567.541C324.556 567.269 323.578 567.287 323.031 566.932V566.935Z" fill="white"/>
<path d="M351.139 571.487C350.711 571.651 349.659 573.19 351.139 573.922C352.62 574.653 352.641 570.912 351.139 571.487Z" fill="white"/>
<path d="M292.578 569.548C292.149 569.711 291.097 571.251 292.578 571.982C294.058 572.714 294.079 568.973 292.578 569.548Z" fill="white"/>
<path d="M271.381 677.074C270.952 677.238 269.9 678.777 271.381 679.509C272.861 680.24 272.882 676.499 271.381 677.074Z" fill="white"/>
<path d="M218.846 688.783C218.417 688.947 217.365 690.486 218.846 691.218C220.326 691.949 220.347 688.208 218.846 688.783Z" fill="white"/>
<path d="M337.947 583.134C337.487 583.311 336.359 584.962 337.947 585.742C339.536 586.526 339.557 582.514 337.947 583.134Z" fill="white"/>
<path d="M318.154 514.018C317.725 514.182 316.673 515.721 318.154 516.453C319.634 517.184 319.655 513.444 318.154 514.018Z" fill="white"/>
<path d="M362.311 468.478C361.882 468.642 360.83 470.181 362.311 470.913C363.791 471.644 363.812 467.904 362.311 468.478Z" fill="white"/>
<path d="M370.41 526.087C369.981 526.25 368.929 527.79 370.41 528.521C371.89 529.253 371.911 525.512 370.41 526.087Z" fill="white"/>
<path d="M337.101 536.156C336.505 535.651 335.554 536.714 336.101 539.11C336.651 541.506 338.936 540.28 337.843 539.11C336.749 537.94 337.682 536.651 337.101 536.156Z" fill="white"/>
<path d="M337.101 517.114C336.505 516.609 335.554 517.672 336.101 520.068C336.651 522.464 338.936 521.238 337.843 520.068C336.749 518.898 337.682 517.609 337.101 517.114Z" fill="white"/>
<path d="M298.057 596.809C297.462 596.304 296.511 597.366 297.058 599.762C297.608 602.158 299.893 600.932 298.799 599.762C297.706 598.592 298.639 597.303 298.057 596.809Z" fill="white"/>
<path d="M314.785 591.361C314.479 591.218 314.148 591.497 314.252 591.813C314.51 592.597 315.182 593.471 316.914 593.269C319.941 592.921 317.436 591.981 315.789 591.664C315.353 591.58 315.029 591.472 314.789 591.357L314.785 591.361Z" fill="white"/>
<path d="M305.711 544.769C305.773 544.01 304.906 543.536 304.31 544.013C302.844 545.19 301.524 547.304 303.345 550.78C306.533 556.858 306.515 550.836 305.868 547.12C305.693 546.134 305.665 545.368 305.714 544.772L305.711 544.769Z" fill="white"/>
<path d="M334.446 611.249C334.199 611.134 333.931 611.357 334.014 611.615C334.223 612.248 334.763 612.952 336.16 612.792C338.602 612.51 336.582 611.754 335.251 611.496C334.899 611.43 334.638 611.339 334.443 611.249H334.446Z" fill="white"/>
<path d="M333.589 459.359C333.206 458.656 332.165 458.778 331.931 459.544C330.775 463.368 333.244 467.732 336.209 466.956C338.511 466.353 336.77 465.207 334.76 461.512L333.589 459.359Z" fill="white"/>
<path d="M379.784 559.69C378.561 558.819 376.921 561.007 378.366 565.496C379.815 569.986 383.978 567.269 381.697 565.211C379.415 563.152 380.982 560.54 379.784 559.69Z" fill="white"/>
<path d="M313.998 481.414C313.81 481.184 313.441 481.281 313.402 481.574C313.308 482.291 313.51 483.235 314.956 483.723C317.485 484.576 315.858 482.897 314.674 482.03C314.36 481.8 314.144 481.595 313.998 481.414Z" fill="white"/>
<path d="M297.044 493.176C297.692 493.925 298.639 494.621 300.012 495.14C300.182 495.206 300.374 495.22 300.555 495.196C302.61 494.921 300.573 493.392 298.556 491.671C297.552 490.814 296.176 492.176 297.04 493.172L297.044 493.176Z" fill="white"/>
<path d="M370.183 503.743C370.831 504.492 371.779 505.189 373.151 505.708C373.322 505.774 373.514 505.788 373.695 505.763C375.75 505.488 373.712 503.959 371.695 502.239C370.692 501.382 369.316 502.744 370.18 503.74L370.183 503.743Z" fill="white"/>
<path d="M368.466 586.655C367.891 586.875 366.477 588.944 368.466 589.926C370.455 590.908 370.483 585.882 368.466 586.655Z" fill="white"/>
<path d="M305.394 683.841C305.289 683.194 304.439 682.967 304.014 683.472C303.453 684.134 302.927 685.249 303.432 686.893C304.178 689.306 305.735 685.983 305.394 683.845V683.841Z" fill="white"/>
<path d="M312.974 601.726C312.451 601.385 311.762 601.886 311.925 602.485C312.099 603.126 312.591 603.823 313.671 604.453C316.83 606.296 318.781 602.795 316.085 602.332C314.5 602.06 313.521 602.078 312.974 601.723V601.726Z" fill="white"/>
<path d="M349.028 596.342C348.6 596.505 347.548 598.045 349.028 598.776C350.509 599.508 350.529 595.767 349.028 596.342Z" fill="white"/>
<path d="M331.45 629.573C330.991 629.751 329.862 631.402 331.45 632.182C333.039 632.966 333.06 628.953 331.45 629.573Z" fill="white"/>
<path d="M360.353 560.878C359.925 561.041 358.873 562.581 360.353 563.312C361.834 564.044 361.854 560.303 360.353 560.878Z" fill="white"/>
<path d="M254.11 677.137C253.514 676.632 252.563 677.694 253.11 680.09C253.66 682.487 255.945 681.261 254.852 680.09C253.758 678.92 254.691 677.631 254.11 677.137Z" fill="white"/>
<path d="M327.044 551.906C326.448 551.401 325.497 552.464 326.044 554.86C326.594 557.256 328.879 556.03 327.786 554.86C326.692 553.69 327.625 552.401 327.044 551.906Z" fill="white"/>
<path d="M223.535 667.85C222.312 666.98 220.671 669.167 222.117 673.656C223.566 678.146 227.729 675.429 225.447 673.371C223.166 671.312 224.733 668.7 223.535 667.85Z" fill="white"/>
<path d="M358.406 621.447C357.831 621.667 356.417 623.736 358.406 624.718C360.395 625.7 360.423 620.674 358.406 621.447Z" fill="white"/>
<path d="M26.3961 224.314C26.1767 224.049 25.7482 224.161 25.7029 224.502C25.5949 225.338 25.8283 226.435 27.5143 227.006C30.4614 228.002 28.5629 226.045 27.1869 225.035C26.8211 224.767 26.5703 224.526 26.3996 224.317L26.3961 224.314Z" fill="white"/>
<path d="M258.276 276.776C258.924 277.524 259.872 278.221 261.244 278.74C261.415 278.806 261.606 278.82 261.788 278.796C263.843 278.52 261.805 276.991 259.788 275.271C258.785 274.414 257.409 275.776 258.273 276.772L258.276 276.776Z" fill="white"/>
<path d="M364 239.734C364.648 240.482 365.596 241.179 366.968 241.698C367.139 241.764 367.33 241.778 367.512 241.754C369.567 241.479 367.529 239.949 365.512 238.229C364.509 237.372 363.133 238.734 363.997 239.73L364 239.734Z" fill="white"/>
<path d="M363.781 277.809C364.815 278.266 366.136 278.523 367.808 278.391C368.017 278.374 368.222 278.3 368.396 278.185C370.375 276.907 367.526 276.319 364.599 275.528C363.143 275.134 362.401 277.203 363.781 277.809Z" fill="white"/>
<path d="M377.812 393.246C378.847 393.702 380.167 393.96 381.839 393.827C382.048 393.81 382.254 393.737 382.428 393.622C384.407 392.344 381.557 391.755 378.631 390.964C377.175 390.571 376.433 392.64 377.812 393.246Z" fill="white"/>
<path d="M343.388 146.713C344.036 147.462 344.984 148.158 346.356 148.677C346.527 148.744 346.719 148.758 346.9 148.733C348.955 148.458 346.917 146.929 344.9 145.208C343.897 144.352 342.521 145.713 343.385 146.71L343.388 146.713Z" fill="white"/>
<path d="M29.4686 276.392C28.1065 276.148 27.6154 278.603 30.6007 281.762C33.5861 284.922 35.9584 281.038 33.2482 280.223C30.538 279.408 30.7993 276.629 29.4686 276.388V276.392Z" fill="white"/>
<path d="M12.5179 193.65C13.7232 194.183 15.2594 194.483 17.2067 194.326C17.4505 194.305 17.6874 194.218 17.8929 194.086C20.199 192.595 16.8792 191.912 13.4724 190.989C11.7759 190.53 10.912 192.94 12.5179 193.647V193.65Z" fill="white"/>
<path d="M154.76 296.398C154.258 296.36 152.489 297.395 153.607 298.809C154.725 300.223 156.519 296.531 154.76 296.398Z" fill="white"/>
<path d="M334.174 317.756C333.673 317.718 331.903 318.752 333.021 320.166C334.14 321.58 335.934 317.888 334.174 317.756Z" fill="white"/>
<path d="M372.622 415.133C372.12 415.095 370.351 416.129 371.469 417.543C372.587 418.957 374.381 415.265 372.622 415.133Z" fill="white"/>
<path d="M132.594 268.629C132.166 268.792 131.114 270.332 132.594 271.063C134.075 271.795 134.096 268.054 132.594 268.629Z" fill="white"/>
<path d="M176.062 86.5173C175.633 86.681 174.581 88.2205 176.062 88.9519C177.542 89.6834 177.563 85.9426 176.062 86.5173Z" fill="white"/>
<path d="M355.368 221.019C354.94 221.183 353.888 222.722 355.368 223.454C356.849 224.185 356.87 220.445 355.368 221.019Z" fill="white"/>
<path d="M349.279 179.861C349.032 179.746 348.763 179.969 348.847 180.227C349.056 180.861 349.596 181.564 350.993 181.404C353.435 181.122 351.414 180.366 350.084 180.108C349.732 180.042 349.471 179.952 349.275 179.861H349.279Z" fill="white"/>
<path d="M321.731 190.331C322.766 190.787 324.086 191.045 325.758 190.912C325.967 190.895 326.173 190.822 326.347 190.707C328.325 189.429 325.476 188.84 322.55 188.049C321.094 187.656 320.352 189.725 321.731 190.331Z" fill="white"/>
<path d="M305.861 161.021C305.265 160.516 304.314 161.579 304.861 163.975C305.411 166.371 307.696 165.145 306.603 163.975C305.509 162.805 306.442 161.516 305.861 161.021Z" fill="white"/>
<path d="M180.402 64.5605C179.806 64.0555 178.855 65.1178 179.402 67.5141C179.953 69.9104 182.238 68.6844 181.144 67.5141C180.05 66.3438 180.984 65.0551 180.402 64.5605Z" fill="white"/>
<path d="M203.867 114.562C203.271 114.057 202.32 115.12 202.867 117.516C203.418 119.912 205.703 118.686 204.609 117.516C203.515 116.346 204.449 115.057 203.867 114.562Z" fill="white"/>
<path d="M366.923 154.279C366.495 154.443 365.442 155.982 366.923 156.714C368.403 157.445 368.424 153.704 366.923 154.279Z" fill="white"/>
<path d="M171.773 273.55C171.199 273.769 169.784 275.838 171.773 276.821C173.762 277.803 173.79 272.777 171.773 273.55Z" fill="white"/>
<path d="M368.3 154.144C367.806 154.597 367.865 155.391 368.405 155.791C369.067 156.282 369.708 156.767 370.335 157.268C370.739 157.592 372.481 159.159 372.09 161.11C372.003 161.545 371.648 162.019 371.115 162.047C370.54 162.078 370.046 161.925 369.568 161.528C368.353 160.521 367.276 158.212 366.691 156.787C366.447 156.199 365.74 155.934 365.176 156.241C365.106 156.279 365.036 156.314 364.967 156.349C364.082 156.77 363.204 157.254 362.27 157.512C361.584 157.7 360.773 157.703 360.079 157.54C359.637 157.435 359.041 156.895 359.003 156.502C358.961 156.07 359.369 155.443 359.766 155.143C361.4 153.917 363.274 154.078 365.151 154.429C365.155 154.429 365.158 154.429 365.162 154.429C365.792 154.548 366.395 154.137 366.475 153.503C366.548 152.925 366.632 152.357 366.775 151.803C367.032 150.804 367.402 149.821 367.816 148.874C368.133 148.15 369.384 147.77 370.087 148.15C370.349 148.289 370.603 148.623 370.666 148.909C370.934 150.149 370.617 151.27 369.844 152.287C369.349 152.935 368.886 153.611 368.304 154.14L368.3 154.144Z" fill="white"/>
<path d="M302.234 78.6531C301.806 78.8168 300.754 80.3562 302.234 81.0877C303.715 81.8191 303.736 78.0784 302.234 78.6531Z" fill="white"/>
<path d="M308.616 53.7114C308.118 53.903 306.892 55.6967 308.616 56.5466C310.34 57.3964 310.365 53.0392 308.616 53.7114Z" fill="white"/>
<path d="M248.898 108.499C248.4 108.69 247.174 110.484 248.898 111.334C250.623 112.184 250.647 107.826 248.898 108.499Z" fill="white"/>
<path d="M338.356 107.144C337.659 106.555 336.551 107.791 337.192 110.585C337.833 113.378 340.495 111.947 339.223 110.585C337.948 109.223 339.035 107.718 338.356 107.144Z" fill="white"/>
<path d="M364.227 101.306C365.432 101.839 366.968 102.138 368.916 101.981C369.159 101.961 369.396 101.873 369.602 101.741C371.908 100.25 368.588 99.5677 365.181 98.6448C363.485 98.185 362.621 100.595 364.227 101.302V101.306Z" fill="white"/>
<path d="M362.394 19.5531C362.175 19.2884 361.746 19.3998 361.701 19.7412C361.593 20.5771 361.827 21.6742 363.513 22.2454C366.46 23.2416 364.561 21.2841 363.185 20.2741C362.819 20.0059 362.569 19.7656 362.398 19.5566L362.394 19.5531Z" fill="white"/>
<path d="M283.82 62.0177C285.026 62.5506 286.562 62.8501 288.509 62.6934C288.753 62.6725 288.99 62.5854 289.195 62.453C291.502 60.9623 288.182 60.2797 284.775 59.3567C283.078 58.8969 282.214 61.3071 283.82 62.0142V62.0177Z" fill="white"/>
<path d="M245.049 63.0977C246.254 63.6306 247.79 63.9302 249.738 63.7734C249.982 63.7525 250.218 63.6655 250.424 63.5331C252.73 62.0424 249.41 61.3597 246.003 60.4368C244.307 59.977 243.443 62.3872 245.049 63.0943V63.0977Z" fill="white"/>
<path d="M345.973 66.7649C345.297 66.2843 344.388 67.4929 345.189 69.9797C345.991 72.4631 348.293 70.9619 347.032 69.823C345.768 68.684 346.635 67.2386 345.973 66.7684V66.7649Z" fill="white"/>
<path d="M161.838 566.088C160.696 565.367 159.302 566.593 159.922 567.788C160.908 569.682 162.518 571.438 165.13 572.41C172.846 575.276 167.659 567.641 163.406 566.725C162.817 566.6 162.298 566.377 161.842 566.088H161.838Z" fill="white"/>
<path d="M90.4056 518.724C89.5939 519.072 89.7472 520.27 90.6285 520.375C92.0219 520.542 93.5721 520.326 95.0596 519.278C99.4557 516.192 93.391 516.171 91.3287 518.118C91.0431 518.386 90.733 518.585 90.4056 518.724Z" fill="white"/>
<path d="M124.966 311.602C124.966 311.602 122.179 318.425 124.966 329.424C127.752 340.423 126.874 346.463 124.816 355.759" stroke="white" stroke-width="2" stroke-miterlimit="10" stroke-linecap="round"/>
<path d="M24.7938 657.092C24.7938 657.092 16.9698 650.401 27.3472 637.468C31.8967 631.802 25.7901 632.352 25.3825 626.856C24.9749 621.36 32.4261 614.436 31.1163 611.057C27.3228 601.273 35.4254 606.571 36.8885 590.723C37.3588 585.61 33.081 568.896 32.6108 567.652C32.1161 566.343 33.52 566.896 33.9519 567.642C34.3839 568.387 41.8595 577.391 41.957 594.537C42.0162 604.589 34.8123 605.596 36.582 610.026C38.3516 614.456 35.7773 617.114 33.722 621.328C31.6667 625.543 30.8377 627.636 34.9238 633.588C39.3374 640.014 30.4893 642.592 32.2276 648.666C33.5896 653.434 40.9886 655.59 40.9886 655.59L24.7973 657.095L24.7938 657.092Z" fill="white"/>
<path d="M368.456 641.811C368.456 641.811 359.58 636.566 367.54 622.046C371.03 615.679 365.111 617.274 363.749 611.931C362.387 606.588 368.515 598.487 366.634 595.383C361.189 586.401 370.093 590.222 368.762 574.364C368.334 569.247 361.196 553.521 360.517 552.379C359.799 551.174 361.28 551.477 361.837 552.139C362.391 552.797 371.33 560.379 374.423 577.248C376.238 587.136 369.32 589.365 371.838 593.426C374.357 597.487 372.284 600.545 370.995 605.049C369.706 609.552 369.257 611.757 374.322 616.915C379.791 622.484 371.532 626.546 374.301 632.23C376.478 636.691 384.138 637.541 384.138 637.541L368.456 641.808V641.811Z" fill="white"/>
<path d="M54.9783 666.419L67.6896 666.384C67.6896 666.384 76.3357 656.329 68.2226 647.113C60.1095 637.897 63.1088 626.518 70.4868 623.624C75.7469 621.559 73.2667 614.38 70.5182 606.627C69.9225 604.945 70.553 603.844 70.3336 603.398C70.0688 602.858 68.9715 603.792 68.9715 606.213C68.9715 609.082 71.6747 618.539 68.1668 619.761C64.6589 620.984 57.2008 624.07 58.8728 631.851C60.4404 639.141 54.6961 641.941 61.7641 650.436C70.9745 661.501 54.9818 666.419 54.9818 666.419H54.9783Z" fill="white"/>
<path d="M102.657 701.866L89.9458 701.831C89.9458 701.831 81.2998 691.775 89.4129 682.559C97.5259 673.343 94.5266 661.965 87.1486 659.07C81.8885 657.005 84.3687 649.826 87.1172 642.073C87.7129 640.391 87.0824 639.29 87.3018 638.845C87.5666 638.305 88.6639 639.238 88.6639 641.659C88.6639 644.529 85.9607 653.985 89.4686 655.208C92.9765 656.43 100.435 659.516 98.7626 667.297C97.195 674.587 102.939 677.387 95.8713 685.882C86.6609 696.948 102.654 701.866 102.654 701.866H102.657Z" fill="white"/>
<path d="M354.313 654.692L341.601 654.657C341.601 654.657 332.955 644.602 341.068 635.386C349.181 626.17 346.182 614.791 338.804 611.896C333.544 609.831 336.024 602.653 338.773 594.899C339.368 593.217 338.738 592.117 338.957 591.671C339.222 591.131 340.319 592.064 340.319 594.485C340.319 597.355 337.616 606.811 341.124 608.034C344.632 609.256 352.09 612.342 350.418 620.123C348.851 627.413 354.595 630.213 347.527 638.708C338.316 649.774 354.309 654.692 354.309 654.692H354.313Z" fill="white"/>
<path d="M122.524 304.347C122.524 304.347 121.13 305.221 119.855 302.117C118.577 299.014 115.609 295.998 112.805 297.429C110.035 298.843 110.084 301.32 111.655 303.744C113.665 306.844 117.128 306.994 119.831 306.809C121.499 307.669 120.186 309.167 118.838 309.007C117.49 308.847 112.23 308.683 112.477 312.727C112.724 316.77 116.842 320.56 120.099 317.488C123.356 314.416 122.231 312.664 124.063 312.479C125.896 312.295 126.185 316.6 127.731 318.268C129.278 319.936 133.413 322.019 136.639 318.481C139.864 314.942 135.977 310.644 132.312 311.01C128.648 311.375 127.467 309.672 128.08 308.714C128.693 307.756 130.734 306.29 134.005 307.871C137.276 309.456 142.202 303.866 140.209 300.421C138.217 296.977 134.273 295.315 130.536 298.624C126.801 301.936 128.857 303.831 127.327 304.232C125.798 304.636 125.328 302.184 126.686 300.843C128.045 299.502 131.117 294.612 125.652 291.954C120.186 289.297 117.521 294.413 119.131 297.011C120.743 299.613 124.673 302.877 122.524 304.34V304.347Z" fill="#FFC530"/>
<path d="M126.874 342.791C125.178 343.826 123.043 343.84 121.743 343.502C119.88 343.011 117.758 340.475 116.271 340.364C115.995 340.339 115.741 340.402 115.508 340.583C115.201 340.82 115.048 341.05 114.982 341.304C114.738 342.238 115.738 343.505 114.888 346.922C113.811 351.248 108.283 350.252 105.879 346.978C103.479 343.7 108.001 341.032 109.223 340.444C110.446 339.859 110.742 337.894 108.868 338.058C106.691 339.657 103.692 341.381 100.316 339.841C97.6757 338.64 96.2962 336.578 97.8638 333.903C99.4453 331.2 103.587 332.158 106.346 334.091C109.105 336.024 109.805 334.544 109.805 334.544C110.822 332.165 105.74 331.513 102.971 330.183C100.201 328.852 99.6717 323.12 105.719 322.437C111.766 321.754 111.833 327.519 111.411 329.371C110.99 331.228 112.717 333.043 113.79 331.886C114.863 330.733 112.097 330.232 113.449 325.446C114.801 320.661 119.026 319.957 122.579 321.796C126.125 323.635 125.007 330.977 121.391 331.388C117.775 331.799 116.849 334.126 116.849 335.265C116.852 336.397 118.772 337.201 121.66 334.937C123.091 333.816 125.185 333.631 126.843 334.3C126.122 334.394 125.491 334.756 125.101 335.568C123.771 338.316 123.715 342.126 126.874 342.791Z" fill="#FFC530"/>
<path d="M129.365 338.925C129.034 340.858 128.062 342.074 126.878 342.791C123.718 342.126 123.774 338.316 125.105 335.568C125.495 334.756 126.125 334.394 126.847 334.3C128.533 334.976 129.766 336.55 129.365 338.925Z" fill="white"/>
<path d="M149.35 336.944C148.51 341.113 143.627 342.349 141.324 339.528C140.053 337.964 138.109 337.306 137.649 338.225C136.949 339.632 139.168 340.674 140.363 340.684C142.627 340.705 145.776 342.92 143.146 346.79C140.512 350.656 136.12 349.179 134.852 347.048C133.294 344.439 134.855 340.395 133.521 339.869C132.183 339.343 131.281 343.168 127.501 342.885C127.282 342.872 127.069 342.84 126.874 342.791C128.062 342.077 129.034 340.858 129.362 338.925C129.762 336.55 128.529 334.976 126.843 334.3C128.721 334.046 131.211 335.578 131.699 335.617C132.344 335.665 133.333 334.815 130.884 334.063C130.633 333.99 130.379 333.934 130.121 333.885C124.952 332.91 125.453 329.403 125.99 327.898C126.53 326.362 128.407 324.868 131.817 326.313C135.228 327.759 134.19 330.928 134.12 331.653C134.106 331.771 134.124 331.89 134.162 332.001C134.427 332.781 135.548 332.747 135.869 331.987C136.646 330.134 133.89 327.533 134.733 324.938C135.729 321.866 139.861 323.189 141.164 325.356C142.46 327.526 140.847 329.372 139.251 330.998C137.652 332.632 137.9 333.885 139.091 334.202C140.279 334.526 143.703 330.207 146.006 330.73C148.315 331.252 150.193 332.781 149.347 336.944H149.35Z" fill="#FFC530"/>
<path d="M199.366 341.554C198.938 341.718 197.886 343.258 199.366 343.989C200.847 344.72 200.868 340.98 199.366 341.554Z" fill="white"/>
<path d="M368.275 366.534C367.616 366.785 366 369.154 368.275 370.275C370.549 371.397 370.581 365.65 368.275 366.534Z" fill="white"/>
<path d="M325.842 359.113C325.413 359.277 324.361 360.816 325.842 361.548C327.322 362.279 327.343 358.538 325.842 359.113Z" fill="white"/>
<path d="M351.139 384.897C350.711 385.061 349.659 386.6 351.139 387.332C352.62 388.063 352.641 384.323 351.139 384.897Z" fill="white"/>
<path d="M303.906 28.9228C304.126 28.1461 303.283 27.5087 302.572 27.9058C299.033 29.8736 297.74 34.7533 300.44 36.2545C302.537 37.4178 302.081 35.3768 303.234 31.2982L303.906 28.9228Z" fill="white"/>
<path d="M356.148 37.6716C357.183 38.1278 358.503 38.3856 360.175 38.2532C360.384 38.2358 360.59 38.1627 360.764 38.0477C362.743 36.7695 359.893 36.1809 356.967 35.3902C355.511 34.9966 354.769 37.0655 356.148 37.6716Z" fill="white"/>
<path d="M346.611 10.9612C345.952 11.2119 344.336 13.5804 346.611 14.7019C348.885 15.8234 348.917 10.0765 346.611 10.9612Z" fill="white"/>
<path d="M304.178 3.53882C303.75 3.70252 302.698 5.24199 304.178 5.97342C305.658 6.70484 305.679 2.96412 304.178 3.53882Z" fill="white"/>
<path d="M329.475 29.323C329.047 29.4867 327.995 31.0262 329.475 31.7576C330.956 32.489 330.977 28.7483 329.475 29.323Z" fill="white"/>
<path d="M47.9117 114.139C48.1311 113.362 47.2881 112.725 46.5775 113.122C43.0382 115.089 41.7459 119.969 44.4456 121.47C46.5427 122.634 46.0863 120.593 47.2394 116.514L47.9117 114.139Z" fill="white"/>
<path d="M211.726 61.1787C211.945 60.4019 211.102 59.7646 210.392 60.1616C206.852 62.1295 205.56 67.0092 208.26 68.5103C210.357 69.6736 209.9 67.6326 211.053 63.554L211.726 61.1787Z" fill="white"/>
<path d="M18.4782 154.24C18.0497 154.404 16.9977 155.943 18.4782 156.675C19.9587 157.406 19.9796 153.665 18.4782 154.24Z" fill="white"/>
<path d="M62.635 108.7C62.2066 108.864 61.1545 110.403 62.635 111.135C64.1155 111.866 64.1364 108.125 62.635 108.7Z" fill="white"/>
<path d="M85.7639 159.06C85.3355 159.224 84.2834 160.763 85.7639 161.495C87.2444 162.226 87.2653 158.486 85.7639 159.06Z" fill="white"/>
<path d="M37.4249 157.337C36.8292 156.832 35.8782 157.894 36.4251 160.29C36.9755 162.687 39.2607 161.461 38.1669 160.29C37.0731 159.12 38.0067 157.831 37.4249 157.337Z" fill="white"/>
<path d="M109.293 137.724C108.698 137.219 107.747 138.281 108.293 140.677C108.844 143.073 111.129 141.847 110.035 140.677C108.941 139.507 109.875 138.218 109.293 137.724Z" fill="white"/>
<path d="M209.082 180.164C208.584 180.355 207.357 182.149 209.082 182.999C210.806 183.849 210.83 179.491 209.082 180.164Z" fill="white"/>
<path d="M197.716 320.147C197.496 319.882 197.068 319.994 197.022 320.335C196.914 321.171 197.148 322.268 198.834 322.839C201.781 323.835 199.882 321.878 198.506 320.868C198.141 320.6 197.89 320.359 197.719 320.15L197.716 320.147Z" fill="white"/>
<path d="M357.441 118.205C357.221 117.941 356.793 118.052 356.748 118.394C356.64 119.229 356.873 120.327 358.559 120.898C361.506 121.894 359.608 119.936 358.232 118.926C357.866 118.658 357.615 118.418 357.444 118.209L357.441 118.205Z" fill="white"/>
<path d="M44.8511 185.719C46.0564 186.252 47.5927 186.551 49.5399 186.395C49.7838 186.374 50.0207 186.287 50.2262 186.154C52.5323 184.664 49.2125 183.981 45.8056 183.058C44.1091 182.598 43.2452 185.008 44.8511 185.715V185.719Z" fill="white"/>
<path d="M78.6313 18.0142C78.1332 18.2057 76.907 19.9995 78.6313 20.8493C80.3557 21.6992 80.38 17.3419 78.6313 18.0142Z" fill="white"/>
<path d="M233.271 34.8611C233.024 34.7462 232.756 34.9691 232.839 35.2268C233.048 35.8607 233.588 36.5643 234.985 36.4041C237.427 36.1219 235.407 35.3661 234.076 35.1084C233.724 35.0422 233.463 34.9517 233.268 34.8611H233.271Z" fill="white"/>
<path d="M129.964 10.526C130.72 11.3968 131.821 12.2083 133.423 12.8144C133.622 12.891 133.845 12.9084 134.057 12.8805C136.451 12.5601 134.078 10.7803 131.73 8.7741C130.56 7.77448 128.961 9.36272 129.968 10.526H129.964Z" fill="white"/>
<path d="M53.8322 26.3204C55.0375 26.8533 56.5737 27.1528 58.521 26.9961C58.7649 26.9752 59.0017 26.8881 59.2073 26.7558C61.5133 25.2651 58.1936 24.5824 54.7867 23.6594C53.0902 23.1997 52.2263 25.6099 53.8322 26.3169V26.3204Z" fill="white"/>
<path d="M15.0643 27.4005C16.2696 27.9334 17.8058 28.2329 19.7531 28.0762C19.9969 28.0553 20.2338 27.9682 20.4393 27.8359C22.7454 26.3451 19.4256 25.6625 16.0187 24.7395C14.3223 24.2797 13.4584 26.69 15.0643 27.397V27.4005Z" fill="white"/>
<path d="M32.4679 54.4319C31.7921 53.9513 30.8829 55.1599 31.6841 57.6467C32.4853 60.1301 34.7879 58.6289 33.5269 57.49C32.2624 56.351 33.1298 54.9056 32.4679 54.4354V54.4319Z" fill="white"/>
<path d="M240.259 9.26793C240.04 9.00323 239.611 9.11468 239.566 9.45601C239.458 10.2919 239.691 11.3891 241.377 11.9603C244.324 12.9564 242.426 10.999 241.05 9.98891C240.684 9.72072 240.433 9.48039 240.263 9.27142L240.259 9.26793Z" fill="white"/>
<path d="M73.2807 0.0593238C72.8522 0.223024 71.8002 1.7625 73.2807 2.49393C74.7611 3.22535 74.782 -0.515368 73.2807 0.0593238Z" fill="white"/>
<path d="M190.034 13.5767C189.536 13.7682 188.31 15.562 190.034 16.4118C191.758 17.2617 191.783 12.9044 190.034 13.5767Z" fill="white"/>
<path d="M67.9579 52.2338C67.7384 51.969 67.31 52.0805 67.2647 52.4218C67.1567 53.2577 67.3901 54.3549 69.0761 54.9261C72.0231 55.9222 70.1246 53.9648 68.7487 52.9547C68.3829 52.6865 68.1321 52.4462 67.9614 52.2372L67.9579 52.2338Z" fill="white"/>
<path d="M165.235 21.8839C166.44 22.4168 167.976 22.7163 169.924 22.5596C170.167 22.5387 170.404 22.4516 170.61 22.3193C172.916 20.8285 169.596 20.1459 166.189 19.2229C164.493 18.7631 163.629 21.1734 165.235 21.8804V21.8839Z" fill="white"/>
<path d="M136.729 72.3243C137.935 72.8572 139.471 73.1567 141.418 73C141.662 72.9791 141.899 72.892 142.104 72.7597C144.41 71.269 141.091 70.5863 137.684 69.6633C135.987 69.2036 135.123 71.6138 136.729 72.3208V72.3243Z" fill="white"/>
<path d="M105.451 104.625C106.656 105.158 108.192 105.458 110.14 105.301C110.384 105.28 110.62 105.193 110.826 105.06C113.132 103.57 109.812 102.887 106.405 101.964C104.709 101.504 103.845 103.915 105.451 104.622V104.625Z" fill="white"/>
<path d="M109.133 20.4522C110.338 20.9851 111.874 21.2847 113.822 21.1279C114.066 21.107 114.302 21.02 114.508 20.8876C116.814 19.3969 113.494 18.7142 110.087 17.7912C108.391 17.3315 107.527 19.7417 109.133 20.4488V20.4522Z" fill="white"/>
<path d="M156.888 115.429C156.46 115.593 155.408 117.133 156.888 117.864C158.369 118.595 158.39 114.855 156.888 115.429Z" fill="white"/>
<path d="M14.3189 121.636C14.1308 121.406 13.7615 121.504 13.7232 121.796C13.6291 122.514 13.8312 123.458 15.2768 123.945C17.8059 124.799 16.1791 123.12 14.9947 122.253C14.6812 122.023 14.4652 121.817 14.3189 121.636Z" fill="white"/>
<path d="M49.1748 89.8292C49.8228 90.5781 50.7703 91.2747 52.1428 91.7936C52.3135 91.8598 52.5051 91.8737 52.6862 91.8494C54.7415 91.5742 52.7036 90.0452 50.6867 88.3246C49.6834 87.4678 48.3074 88.8296 49.1713 89.8258L49.1748 89.8292Z" fill="white"/>
</g>
<defs>
<clipPath id="clip0_1101_3220">
<rect width="403" height="805" fill="white" transform="translate(-8)"/>
</clipPath>
</defs>
</svg>
