<svg width="262" height="389" viewBox="0 0 262 389" fill="none" xmlns="http://www.w3.org/2000/svg">
<g id="Layer_1" clip-path="url(#clip0_746_2701)">
<path id="Vector" d="M261.13 342.928L260.961 343.96L258.066 361.779L257.559 364.896C257.559 367.588 257.116 370.175 256.294 372.589C254.447 378.037 250.694 382.613 245.82 385.538H245.817C242.676 387.422 239.073 388.62 235.215 388.923C234.575 388.974 233.925 389 233.272 389H31.5155C29.534 389 27.6099 388.764 25.7654 388.32C20.5951 387.074 16.0715 384.187 12.7871 380.244C9.45173 376.242 7.39699 371.155 7.23771 365.592C7.23134 365.362 7.22815 365.129 7.22815 364.896L5.60347 354.396L2.74595 335.947L1.96866 330.914L1.45258 327.58C1.52585 325.093 1.59275 322.002 1.65965 318.428L1.74248 313.421C1.90813 302.697 2.05148 288.86 2.16935 274.269C2.26492 262.287 2.34456 249.795 2.41146 238.113C2.55163 212.805 2.61853 191.281 2.61853 186.877C2.61853 186.877 0.930136 38.1713 0.831381 36.7374C-1.40494 4.62092 18.5213 0 31.5155 0H233.272C246.683 0 257.559 10.7938 257.559 24.1041C257.559 24.1041 256.839 64.0765 257.435 78.3799V260.815C257.381 263.862 257.419 267.132 257.524 270.581C257.868 281.774 258.919 294.844 259.799 308.279C260.089 312.731 260.362 317.224 260.582 321.701L260.793 326.306C260.968 330.525 261.086 334.715 261.124 338.825C261.133 340.201 261.137 341.571 261.13 342.928Z" fill="black"/>
<path id="starVector" d="M158.791 99.0671L151.047 99.6642L147.272 97.7737L151.84 95.8832L154.52 93.5935L149.655 94.6889L149.059 92L152.239 90.6076L147.075 89.6113L146.081 91.3038L145.288 88.0209L148.365 83.9397L144.593 86.0314L143.003 88.3179L140.621 84.3389L141.417 69.9077L137.843 82.2472L138.336 88.5191L134.268 86.7276L137.046 91.3038L131.191 90.0104L124.438 92.6993L132.182 92.1022L135.954 93.9927L131.389 95.8832L128.706 98.1729L133.574 97.0775L134.17 99.7632L130.99 101.159L136.154 102.152L137.145 100.463L137.941 103.745L134.864 107.827L138.636 105.735L140.226 103.448L142.608 107.428L141.812 121.859L145.386 109.519L144.889 103.247L148.961 105.039L146.183 100.463L152.038 101.756L158.791 99.0671Z" fill="#FFC530"/>
<path id="personVector" d="M206.79 185.91C197.535 191.029 186.175 191.549 182.881 190.451C182.282 190.249 182.4 189.362 183.031 189.339C197.166 188.806 212.081 184.386 227.713 160.742C242.351 138.602 241.44 115.242 232.399 111.726C227.104 109.666 219.092 115.456 214.789 124.832C210.485 134.208 216.509 138.059 216.209 136.663C215.907 135.265 219.229 128.865 223.591 131.819C227.955 134.776 215.368 158.721 203.336 169.029C198.325 173.321 191.728 176.55 184.474 178.255C187.099 175.94 189.695 173.238 192.212 170.086C235.17 116.264 190.664 73.9442 190.664 73.9442C181.906 63.7667 170.237 61.6398 164.981 63.2877C159.534 64.9962 153.36 67.0495 152.758 67.7489C151.726 68.9464 155.714 68.857 161.162 68.3876C161.346 68.3716 161.413 68.6303 161.241 68.7037C159.132 69.6075 154.309 71.779 154.086 72.7977C153.841 73.9186 157.712 73.2895 161.404 71.8205C161.588 71.7471 161.722 71.9962 161.56 72.108C159.343 73.6089 155.752 76.2275 156.415 77.0035C157.065 77.7636 160.372 76.4159 163.032 75.1769C163.216 75.0906 163.36 75.3525 163.188 75.4643C161.044 76.8438 158.409 78.6865 158.212 79.5487C157.874 81.0177 162.557 78.6162 167.288 78.0478C172.136 77.4666 174.78 83.6395 179.046 82.3014C180.486 81.8512 182.043 82.509 182.916 83.7449C186.529 88.8608 191.556 102.158 185.739 121.536C181.999 133.994 174.946 141.703 167.345 146.455C168.38 143.951 168.489 141.179 166.867 138.11C160.948 126.904 154.876 129.855 150.063 128.84C146.18 128.019 140.401 126.952 138.311 126.569C137.82 126.48 137.33 126.706 137.088 127.147C136.581 128.064 135.798 129.746 135.673 131.541C135.597 132.646 134.966 133.626 133.934 134.019C131.127 135.089 125.865 137.765 122.947 143.469C122.255 144.823 120.615 145.372 119.229 144.746C110.93 140.984 86.6271 127.23 90.5136 96.442C93.0462 76.3648 103.027 66.2608 108.398 63.0545C109.694 62.2817 111.386 62.3105 112.52 63.31C115.878 66.2671 120.793 61.7037 124.989 64.2074C129.082 66.6504 132.386 70.7507 132.676 69.2722C132.844 68.4036 131.185 65.6476 129.783 63.5176C129.672 63.3451 129.907 63.1631 130.044 63.3196C131.972 65.5327 134.453 68.1098 135.352 67.6818C136.272 67.2443 134.052 63.3867 132.634 61.1129C132.529 60.9437 132.755 60.7744 132.892 60.9149C135.673 63.7603 138.954 65.9095 139.184 64.7854C139.391 63.7635 135.864 59.8164 134.303 58.1334C134.176 57.9961 134.342 57.7885 134.504 57.878C139.292 60.5253 142.898 62.2306 142.443 60.7137C142.175 59.8292 137.365 55.4414 133.077 51.6635C128.942 48.0166 117.413 45.2128 105.289 50.9482C105.289 50.9482 47.4756 71.5108 64.9393 138.18C69.4884 155.546 79.1217 165.436 87.1113 170.881C74.3783 170.654 62.1677 165.5 54.4872 157.801C43.296 146.582 32.6114 121.725 37.1923 119.119C41.7701 116.513 44.5862 123.155 44.1752 124.525C43.7675 125.892 50.075 122.523 46.5135 112.84C42.9519 103.155 35.4179 96.7582 29.9768 98.3964C20.6907 101.194 17.9638 124.413 30.8338 147.63C44.5766 172.427 59.1032 177.996 73.1518 179.634C73.7794 179.708 73.8272 180.602 73.2156 180.755C69.8451 181.595 58.5616 180.187 49.7342 174.359C31.1714 162.106 31.9774 153.627 29.6965 156.479C27.3009 159.474 31.1906 182.576 42.1269 188.793C50.4127 193.504 56.029 194.436 65.449 193.331C72.0273 192.562 73.6201 190.642 75.729 189.141C76.2005 188.806 76.7389 189.627 76.4108 190.106C71.1003 197.869 52.8625 197.531 49.0206 196.244C44.8825 194.858 43.6815 193.539 43.433 194.704C42.627 198.482 46.4466 205 57.8512 205.68C65.0221 206.108 73.4131 205.064 77.376 198.032C78.2106 196.547 79.2683 195.129 80.9121 193.855C81.3995 193.475 82.0589 194.046 81.7563 194.586C79.8417 198.019 76.175 204.291 74.2381 205.616C71.5399 207.459 78.405 206.859 80.6094 205.865C84.2474 204.224 85.5026 203.167 88.2231 200.293C90.5423 197.843 90.9341 195.924 91.6763 194.34C92.2211 193.175 93.8681 195.506 88.8889 201.385C88.0097 202.42 89.9657 202.362 92.2944 200.909C89.0609 215.621 86.8597 235.881 90.9659 258.113C98.2802 297.706 118.716 326.057 123.131 331.828C123.711 332.585 123.96 333.533 123.826 334.478C123.373 337.64 121.609 344.873 114.756 349.494C105.817 355.523 107.735 360.147 109.975 359.863C114.164 359.33 134.641 353.565 142.127 339.601C142.127 339.601 150.314 321.11 148.792 295.917C153.481 306.009 160.445 316.956 170.674 325.674C172.101 326.891 172.85 328.72 172.751 330.595C172.557 334.274 171.384 340.361 166.281 345.192C158.444 352.607 161.091 356.855 163.255 356.203C167.3 354.99 190.772 341.073 191.67 330.943C192.314 323.688 185.108 264.826 170.645 240.77C173.914 236.286 175.924 231.247 175.421 225.789C175.073 222.031 174.14 218.275 172.847 214.513C173.073 214.641 173.305 214.775 173.554 214.909C175.675 216.075 182.47 217.209 179.925 215.158C178.096 213.686 174.93 207.146 173.289 203.573C173.031 203.01 173.729 202.493 174.188 202.911C175.726 204.31 176.672 205.808 177.389 207.354C180.792 214.673 189.074 216.372 196.258 216.506C207.678 216.72 211.995 210.521 211.485 206.693C211.329 205.514 210.026 206.731 205.796 207.791C201.865 208.775 183.659 207.686 178.966 199.53C178.679 199.028 179.278 198.252 179.721 198.623C181.706 200.283 183.146 202.321 189.644 203.604C198.95 205.441 204.62 204.952 213.247 200.903C224.636 195.56 230.309 172.836 228.156 169.661C226.104 166.64 226.247 175.154 206.786 185.919L206.79 185.91ZM140.722 262.201C140.722 262.201 140.78 262.175 140.882 262.134C140.882 262.143 140.875 262.153 140.872 262.163C140.847 262.239 140.828 262.319 140.805 262.396C140.777 262.332 140.751 262.265 140.722 262.201Z" fill="white"/>
<g id="upperGroup">
<g id="Group">
<g id="Group_2">
<path id="Vector_2" d="M20.06 153.429C14.2144 148.741 18.2793 140.936 20.06 141.115C21.8408 141.294 18.8144 143.999 21.6624 148.431C25.5393 154.47 24.5104 156.996 20.06 153.429Z" fill="white"/>
<path id="Vector_3" d="M24.641 140.03C24.5773 139.634 24.0676 139.5 23.8127 139.806C23.475 140.208 23.1596 140.885 23.4623 141.885C23.9115 143.354 24.848 141.333 24.641 140.033V140.03Z" fill="white"/>
<path id="Vector_4" d="M41.9962 198.738C41.6936 198.974 41.2603 198.955 40.9577 198.719C40.1645 198.102 37.96 196.499 38.5398 194.388C39.1196 192.277 41.3941 193.714 40.5659 195.656C39.6707 197.754 42.8372 198.08 41.9962 198.738Z" fill="white"/>
<path id="Vector_5" d="M10.7738 149.591C10.4584 149.383 10.0443 149.69 10.143 150.054C10.2482 150.443 10.5412 150.868 11.1943 151.251C13.0929 152.372 14.2684 150.242 12.6469 149.964C11.6944 149.798 11.1051 149.808 10.777 149.594L10.7738 149.591Z" fill="white"/>
<path id="Vector_6" d="M17.5401 53.8289C17.2248 53.6214 16.8106 53.9279 16.9094 54.292C17.0145 54.6816 17.3076 55.1063 17.9607 55.4895C19.8593 56.6104 21.0348 54.4804 19.4133 54.2026C18.4608 54.0365 17.8715 54.0461 17.5433 53.8321L17.5401 53.8289Z" fill="white"/>
<path id="Vector_7" d="M22.688 170.463C22.242 170.134 21.6336 170.521 21.7164 171.067C22.1337 173.8 24.9594 175.803 26.5649 174.442C27.8105 173.385 26.3929 173.181 24.0515 171.463L22.688 170.46V170.463Z" fill="white"/>
<path id="Vector_8" d="M19.8369 128.408C19.9675 127.936 19.4642 127.549 19.0341 127.789C16.9061 128.986 16.1288 131.95 17.7535 132.863C19.015 133.569 18.741 132.33 19.4323 129.852L19.8369 128.408Z" fill="white"/>
<path id="Vector_9" d="M27.3455 183.365C27.1735 183.393 27.0556 183.563 27.062 183.738C27.0907 184.658 27.4029 187.481 30.1776 186.667C31.678 186.226 29.9864 184.866 28.8555 184.629C27.8393 184.415 28.0846 183.237 27.3455 183.365Z" fill="white"/>
<path id="Vector_10" d="M27.68 152.359C27.4219 152.458 26.788 153.394 27.68 153.838C28.5719 154.282 28.5815 152.008 27.68 152.359Z" fill="white"/>
<path id="Vector_11" d="M35.6472 188.806C35.3892 188.905 34.7553 189.841 35.6472 190.285C36.5392 190.729 36.5488 188.455 35.6472 188.806Z" fill="white"/>
<path id="Vector_12" d="M56.2202 153.254C55.9622 153.353 55.3283 154.289 56.2202 154.732C57.1122 155.176 57.1218 152.903 56.2202 153.254Z" fill="white"/>
<path id="Vector_13" d="M46.2332 206.689C45.9751 206.788 45.3412 207.724 46.2332 208.168C47.1252 208.612 47.1347 206.338 46.2332 206.689Z" fill="white"/>
<path id="Vector_14" d="M19.8178 160.937C19.5406 161.042 18.8621 162.048 19.8178 162.524C20.7734 163 20.7862 160.563 19.8178 160.937Z" fill="white"/>
<path id="Vector_15" d="M38.6991 96.7393C38.4219 96.8447 37.7434 97.8507 38.6991 98.3265C39.6548 98.8023 39.6675 96.3657 38.6991 96.7393Z" fill="white"/>
<path id="Vector_16" d="M8.00857 122.696C7.75053 122.795 7.11659 123.73 8.00857 124.174C8.90055 124.618 8.91011 122.344 8.00857 122.696Z" fill="white"/>
<path id="Vector_17" d="M24.7969 96.7934C24.5389 96.8924 23.9049 97.8281 24.7969 98.272C25.6889 98.7158 25.6984 96.4421 24.7969 96.7934Z" fill="white"/>
<path id="Vector_18" d="M56.784 149.798C56.5259 149.897 55.892 150.833 56.784 151.277C57.6759 151.721 57.6855 149.447 56.784 149.798Z" fill="white"/>
<path id="Vector_19" d="M39.2725 124.768C39.0144 124.867 38.3805 125.803 39.2725 126.247C40.1645 126.69 40.174 124.417 39.2725 124.768Z" fill="white"/>
<path id="Vector_20" d="M56.784 134.345C56.5259 134.444 55.892 135.38 56.784 135.824C57.6759 136.268 57.6855 133.994 56.784 134.345Z" fill="white"/>
<path id="Vector_21" d="M15.2847 140.026C14.9247 139.72 14.3545 140.365 14.6826 141.821C15.0139 143.277 16.3869 142.533 15.7307 141.821C15.0744 141.109 15.6351 140.327 15.2847 140.026Z" fill="white"/>
<path id="Vector_22" d="M19.2381 119.317C18.8781 119.01 18.3079 119.655 18.636 121.112C18.9673 122.568 20.3403 121.824 19.6841 121.112C19.0278 120.399 19.5885 119.617 19.2381 119.317Z" fill="white"/>
<path id="Vector_23" d="M34.1692 202.682C33.7073 202.777 33.8698 203.627 35.2205 204.253C36.5744 204.879 36.8228 203.333 35.8608 203.419C34.8987 203.505 34.6216 202.583 34.1692 202.678V202.682Z" fill="white"/>
<path id="Vector_24" d="M7.22821 158.418C6.21199 158.236 5.84564 160.088 8.07241 162.47C10.3024 164.852 12.0736 161.924 10.0507 161.311C8.02781 160.698 8.22213 158.6 7.22821 158.421V158.418Z" fill="white"/>
<path id="Vector_25" d="M51.5725 78.3927C50.5562 78.2107 50.1899 80.0629 52.4166 82.4452C54.6466 84.8275 56.4178 81.8991 54.3949 81.286C52.372 80.6728 52.5664 78.5748 51.5725 78.3959V78.3927Z" fill="white"/>
<path id="Vector_26" d="M46.5742 131.829C45.5579 131.647 45.1916 133.499 47.4184 135.881C49.6483 138.264 51.4195 135.335 49.3966 134.722C47.3738 134.109 47.5681 132.011 46.5742 131.832V131.829Z" fill="white"/>
<path id="Vector_27" d="M25.4055 157.651C25.2335 157.568 25.0455 157.728 25.1061 157.91C25.2494 158.354 25.6285 158.849 26.6001 158.737C28.2981 158.539 26.8932 158.005 25.9694 157.827C25.7241 157.779 25.5425 157.718 25.4087 157.654L25.4055 157.651Z" fill="white"/>
<path id="Vector_28" d="M10.8695 172.034C10.6847 171.948 10.484 172.117 10.5477 172.309C10.7038 172.785 11.1084 173.315 12.1469 173.194C13.9659 172.983 12.4591 172.411 11.4684 172.216C11.2071 172.165 11.0096 172.098 10.8663 172.031L10.8695 172.034Z" fill="white"/>
<path id="Vector_29" d="M81.7435 208.736C81.5587 208.65 81.358 208.82 81.4217 209.011C81.5778 209.487 81.9824 210.017 83.0209 209.896C84.8399 209.685 83.3331 209.113 82.3424 208.919C82.0812 208.867 81.8836 208.8 81.7403 208.733L81.7435 208.736Z" fill="white"/>
<path id="Vector_30" d="M43.0474 83.8092C42.8627 83.723 42.662 83.8923 42.7257 84.0839C42.8818 84.5597 43.2864 85.0898 44.3249 84.9685C46.1439 84.7577 44.6371 84.1861 43.6463 83.9913C43.3851 83.9402 43.1876 83.8731 43.0442 83.806L43.0474 83.8092Z" fill="white"/>
<path id="Vector_31" d="M52.9517 106.597C52.767 106.511 52.5663 106.68 52.63 106.872C52.7861 107.348 53.1906 107.878 54.2292 107.757C56.0482 107.546 54.5414 106.974 53.5506 106.779C53.2894 106.728 53.0919 106.661 52.9485 106.594L52.9517 106.597Z" fill="white"/>
<path id="Vector_32" d="M6.67389 134.473C6.71211 134.013 6.18967 133.722 5.83288 134.013C4.95045 134.728 4.15723 136.012 5.25309 138.126C7.17085 141.821 7.16129 138.161 6.76946 135.9C6.66433 135.303 6.6484 134.834 6.67707 134.473H6.67389Z" fill="white"/>
<path id="Vector_33" d="M28.1864 193.514C28.0367 193.443 27.8774 193.581 27.9284 193.737C28.0526 194.12 28.3808 194.548 29.2186 194.452C30.6872 194.28 29.4703 193.82 28.6707 193.664C28.4604 193.622 28.3011 193.568 28.1864 193.514Z" fill="white"/>
<path id="Vector_34" d="M52.3019 211.793C52.1522 211.723 51.9929 211.86 52.0439 212.016C52.1681 212.4 52.4962 212.827 53.3341 212.732C54.8026 212.559 53.5857 212.099 52.7861 211.943C52.5759 211.901 52.4166 211.847 52.3019 211.793Z" fill="white"/>
<path id="Vector_35" d="M62.6999 161.276C62.5501 161.205 62.3909 161.343 62.4418 161.499C62.5661 161.882 62.8942 162.31 63.732 162.215C65.2006 162.042 63.9837 161.582 63.1841 161.426C62.9738 161.384 62.8146 161.33 62.6999 161.276Z" fill="white"/>
<path id="Vector_36" d="M61.706 207.763C61.5562 207.692 61.397 207.83 61.4479 207.986C61.5722 208.369 61.9003 208.797 62.7381 208.701C64.2067 208.529 62.9898 208.069 62.1902 207.913C61.9799 207.871 61.8207 207.817 61.706 207.763Z" fill="white"/>
<path id="Vector_37" d="M37.4792 60.2318C37.3294 60.1615 37.1702 60.2988 37.2211 60.4553C37.3454 60.8385 37.6735 61.2664 38.5113 61.1706C39.9799 60.9982 38.763 60.5383 37.9634 60.3819C37.7531 60.3403 37.5938 60.2861 37.4792 60.2318Z" fill="white"/>
<path id="Vector_38" d="M19.1743 186.501C19.7987 186.778 20.5888 186.935 21.5954 186.855C21.7197 186.845 21.8439 186.797 21.949 186.73C23.1405 185.951 21.4266 185.597 19.6649 185.115C18.7889 184.875 18.3429 186.133 19.1743 186.501Z" fill="white"/>
<path id="Vector_39" d="M37.4727 214.545C38.1513 214.497 38.9254 214.261 39.776 213.718C39.8811 213.651 39.9703 213.552 40.0308 213.44C40.7189 212.192 39.0369 212.687 37.2593 213.089C36.3737 213.29 36.568 214.609 37.4759 214.545H37.4727Z" fill="white"/>
<path id="Vector_40" d="M51.6617 128.239C52.286 128.517 53.0761 128.674 54.0827 128.594C54.207 128.584 54.3312 128.536 54.4363 128.469C55.6278 127.69 53.9139 127.336 52.1522 126.853C51.2762 126.614 50.8302 127.872 51.6617 128.239Z" fill="white"/>
<path id="Vector_41" d="M60.2564 153.63C60.8808 153.908 61.6708 154.065 62.6775 153.985C62.8017 153.975 62.9259 153.927 63.0311 153.86C64.2225 153.081 62.5086 152.727 60.747 152.244C59.8709 152.005 59.4249 153.263 60.2564 153.63Z" fill="white"/>
<path id="Vector_42" d="M37.4473 92.0449C38.0717 92.3228 38.8617 92.4792 39.8684 92.3994C39.9926 92.3898 40.1169 92.3419 40.222 92.2749C41.4134 91.4957 39.6995 91.1412 37.9379 90.659C37.0618 90.4195 36.6158 91.6777 37.4473 92.0449Z" fill="white"/>
<path id="Vector_43" d="M46.8704 98.9077C47.4948 99.1856 48.2848 99.342 49.2915 99.2622C49.4157 99.2526 49.54 99.2047 49.6451 99.1377C50.8365 98.3585 49.1226 98.004 47.361 97.5218C46.4849 97.2823 46.0389 98.5405 46.8704 98.9077Z" fill="white"/>
<path id="Vector_44" d="M22.4141 76.7356C24.0387 70.3583 31.7321 70.7958 32.2322 72.2872C32.7323 73.7785 29.483 72.3319 26.9759 76.2151C23.5609 81.5034 21.1748 81.5929 22.4141 76.7356Z" fill="white"/>
<path id="Vector_45" d="M31.7607 22.5269C31.5887 22.2459 31.1459 22.3289 31.0886 22.6546C31.0248 23.0027 31.1013 23.4498 31.4708 23.9991C32.554 25.6022 34.2838 24.3599 33.1051 23.5264C32.4106 23.0347 31.9423 22.8207 31.7607 22.5269Z" fill="white"/>
<path id="Vector_46" d="M15.3738 101.903C15.1444 101.475 14.5168 101.549 14.3767 102.015C13.6822 104.34 15.1667 106.99 16.9507 106.518C18.3364 106.15 17.2883 105.454 16.0778 103.209L15.3738 101.9V101.903Z" fill="white"/>
<path id="Vector_47" d="M17.2216 93.335C16.9635 93.3158 16.0493 93.8555 16.6259 94.59C17.2025 95.3245 18.1295 93.402 17.2216 93.335Z" fill="white"/>
<path id="Vector_48" d="M50.4828 122.022C50.2248 122.003 49.3105 122.543 49.8871 123.277C50.4637 124.011 51.3907 122.089 50.4828 122.022Z" fill="white"/>
<path id="Vector_49" d="M6.54021 75.9339C5.80433 75.407 4.81678 76.7354 5.68646 79.4626C6.55614 82.1898 9.06005 80.5388 7.68704 79.2902C6.31403 78.0416 7.25698 76.4512 6.53702 75.9339H6.54021Z" fill="white"/>
<path id="Vector_50" d="M51.4736 143.804C50.7377 143.278 49.7501 144.606 50.6198 147.333C51.4895 150.06 53.9934 148.409 52.6204 147.161C51.2474 145.912 52.1903 144.322 51.4704 143.804H51.4736Z" fill="white"/>
<path id="Vector_51" d="M5.34225 97.6206C5.23075 97.4833 5.00776 97.5408 4.98546 97.7196C4.92812 98.1571 5.04917 98.7287 5.91885 99.0257C7.44159 99.5463 6.46041 98.5244 5.75001 97.9974C5.56206 97.8569 5.43145 97.7324 5.34225 97.6238V97.6206Z" fill="white"/>
<path id="Vector_52" d="M68.7334 163.808C68.6219 163.671 68.3989 163.728 68.3766 163.907C68.3192 164.345 68.4403 164.916 69.31 165.213C70.8327 165.734 69.8515 164.712 69.1411 164.185C68.9532 164.044 68.8226 163.92 68.7334 163.811V163.808Z" fill="white"/>
<path id="Vector_53" d="M5.48888 110.033C5.87753 110.487 6.44776 110.912 7.27284 111.228C7.37478 111.266 7.48947 111.279 7.60097 111.263C8.83699 111.097 7.61371 110.168 6.39998 109.12C5.79471 108.6 4.96962 109.427 5.48888 110.033Z" fill="white"/>
<path id="Vector_54" d="M49.9891 114.514C50.3778 114.967 50.948 115.392 51.7731 115.708C51.875 115.747 51.9897 115.759 52.1012 115.743C53.3372 115.577 52.114 114.648 50.9002 113.601C50.295 113.08 49.4699 113.907 49.9891 114.514Z" fill="white"/>
<path id="Vector_55" d="M86.3851 52.7752C86.3214 52.3793 85.8117 52.2451 85.5568 52.5517C85.2192 52.9541 84.9038 53.6311 85.2064 54.6306C85.6556 56.0996 86.5922 54.0782 86.3851 52.7784V52.7752Z" fill="white"/>
<path id="Vector_56" d="M47.243 40.9911C46.9276 40.7835 46.5135 41.0901 46.6123 41.4541C46.7174 41.8437 47.0105 42.2684 47.6635 42.6516C49.5622 43.7725 50.7377 41.6425 49.1162 41.3647C48.1637 41.1986 47.5743 41.2082 47.2462 40.9942L47.243 40.9911Z" fill="white"/>
<path id="Vector_57" d="M64.3117 13.5691C64.4424 13.0964 63.939 12.71 63.509 12.9495C61.381 14.1471 60.6037 17.1106 62.2283 18.0239C63.4898 18.7297 63.2159 17.4906 63.9072 15.0125L64.3117 13.5691Z" fill="white"/>
<path id="Vector_58" d="M74.0503 49.3325C73.7923 49.4315 73.1583 50.3671 74.0503 50.811C74.9423 51.2549 74.9519 48.9812 74.0503 49.3325Z" fill="white"/>
<path id="Vector_59" d="M103.154 63.3837C102.896 63.4827 102.262 64.4184 103.154 64.8623C104.046 65.3062 104.056 63.0324 103.154 63.3837Z" fill="white"/>
<path id="Vector_60" d="M57.9501 69.1031C57.6729 69.2085 56.9944 70.2144 57.9501 70.6902C58.9058 71.1661 58.9185 68.7295 57.9501 69.1031Z" fill="white"/>
<path id="Vector_61" d="M85.6332 6.86921C85.356 6.9746 84.6775 7.98053 85.6332 8.45636C86.5889 8.93218 86.6016 6.49558 85.6332 6.86921Z" fill="white"/>
<path id="Vector_62" d="M64.8787 33.6142C64.6206 33.7132 63.9867 34.6489 64.8787 35.0928C65.7707 35.5366 65.7802 33.2629 64.8787 33.6142Z" fill="white"/>
<path id="Vector_63" d="M53.5506 4.30804C53.2925 4.40704 52.6586 5.34272 53.5506 5.78661C54.4425 6.2305 54.4521 3.95676 53.5506 4.30804Z" fill="white"/>
<path id="Vector_64" d="M71.731 6.92377C71.4729 7.02276 70.839 7.95844 71.731 8.40233C72.623 8.84622 72.6325 6.57249 71.731 6.92377Z" fill="white"/>
<path id="Vector_65" d="M103.721 59.9316C103.463 60.0306 102.829 60.9663 103.721 61.4101C104.613 61.854 104.623 59.5803 103.721 59.9316Z" fill="white"/>
<path id="Vector_66" d="M86.2066 34.8984C85.9485 34.9974 85.3146 35.9331 86.2066 36.3769C87.0985 36.8208 87.1081 34.5471 86.2066 34.8984Z" fill="white"/>
<path id="Vector_67" d="M103.721 44.4755C103.463 44.5745 102.829 45.5102 103.721 45.9541C104.613 46.398 104.623 44.1242 103.721 44.4755Z" fill="white"/>
<path id="Vector_68" d="M121.465 44.4755C121.207 44.5745 120.573 45.5102 121.465 45.9541C122.357 46.398 122.367 44.1242 121.465 44.4755Z" fill="white"/>
<path id="Vector_69" d="M62.222 50.1562C61.862 49.8496 61.2917 50.4947 61.6199 51.9509C61.9512 53.4071 63.3242 52.6631 62.6679 51.9509C62.0117 51.2388 62.5724 50.4564 62.222 50.1562Z" fill="white"/>
<path id="Vector_70" d="M75.3277 23.6411C74.9677 23.3345 74.3975 23.9796 74.7256 25.4358C75.0569 26.892 76.4299 26.1479 75.7736 25.4358C75.1174 24.7237 75.6781 23.9413 75.3277 23.6411Z" fill="white"/>
<path id="Vector_71" d="M51.9101 56.4733C50.8939 56.2913 50.5275 58.1435 52.7543 60.5258C54.9842 62.9081 56.7555 59.9797 54.7326 59.3666C52.7097 58.7534 52.904 56.6553 51.9101 56.4765V56.4733Z" fill="white"/>
<path id="Vector_72" d="M93.5082 41.9621C92.492 41.78 92.1257 43.6322 94.3524 46.0145C96.5824 48.3969 98.3536 45.4685 96.3307 44.8553C94.3078 44.2422 94.5022 42.1441 93.5082 41.9653V41.9621Z" fill="white"/>
<path id="Vector_73" d="M72.3428 67.7809C72.1708 67.6978 71.9828 67.8575 72.0433 68.0395C72.1867 68.4834 72.5658 68.9784 73.5374 68.8666C75.2353 68.6686 73.8305 68.1353 72.9066 67.9565C72.6613 67.9086 72.4798 67.8479 72.346 67.7841L72.3428 67.7809Z" fill="white"/>
<path id="Vector_74" d="M127.601 28.8976C127.416 28.8114 127.215 28.9806 127.279 29.1722C127.435 29.6481 127.84 30.1782 128.878 30.0568C130.697 29.8461 129.191 29.2744 128.2 29.0796C127.939 29.0285 127.741 28.9615 127.598 28.8944L127.601 28.8976Z" fill="white"/>
<path id="Vector_75" d="M39.0337 39.6212C39.072 39.1614 38.5495 38.8708 38.1927 39.1614C37.3103 39.8767 36.5171 41.1605 37.613 43.2745C39.5307 46.9694 39.5212 43.3097 39.1293 41.0487C39.0242 40.4515 39.0083 39.9821 39.0369 39.6212H39.0337Z" fill="white"/>
<path id="Vector_76" d="M114.011 3.31819C113.861 3.24793 113.702 3.38525 113.753 3.54173C113.877 3.92494 114.205 4.35286 115.043 4.25706C116.512 4.08462 115.295 3.62476 114.495 3.46828C114.285 3.42677 114.126 3.37248 114.011 3.31819Z" fill="white"/>
<path id="Vector_77" d="M103.702 29.9995C104.327 30.2774 105.117 30.4338 106.123 30.354C106.248 30.3444 106.372 30.2965 106.477 30.2295C107.668 29.4503 105.954 29.0958 104.193 28.6136C103.317 28.3741 102.871 29.6323 103.702 29.9995Z" fill="white"/>
<path id="Vector_78" d="M132.523 39.5669C133.147 39.8447 133.937 40.0012 134.944 39.9214C135.068 39.9118 135.192 39.8639 135.297 39.7968C136.489 39.0176 134.775 38.6632 133.013 38.181C132.137 37.9415 131.691 39.1997 132.523 39.5669Z" fill="white"/>
<path id="Vector_79" d="M142.054 52.9029C142.679 53.1807 143.469 53.3372 144.475 53.2573C144.6 53.2477 144.724 53.1998 144.829 53.1328C146.02 52.3536 144.306 51.9991 142.545 51.5169C141.669 51.2774 141.223 52.5356 142.054 52.9029Z" fill="white"/>
<path id="Vector_80" d="M93.8076 9.04104C94.432 9.31887 95.2221 9.47535 96.2287 9.39551C96.353 9.38593 96.4772 9.33803 96.5823 9.27096C97.7738 8.49176 96.0599 8.13729 94.2982 7.65508C93.4222 7.41557 92.9762 8.67379 93.8076 9.04104Z" fill="white"/>
<path id="Vector_81" d="M92.1765 19.2054C91.9471 18.7774 91.3196 18.8509 91.1794 19.3171C90.4849 21.642 91.9694 24.2925 93.7534 23.8199C95.1392 23.4527 94.0911 22.7565 92.8805 20.5115L92.1765 19.2022V19.2054Z" fill="white"/>
<path id="Vector_82" d="M116.311 12.167C116.053 12.1478 115.139 12.6875 115.715 13.422C116.292 14.1565 117.219 12.2341 116.311 12.167Z" fill="white"/>
<path id="Vector_83" d="M115.932 29.6321C115.196 29.1052 114.208 30.4337 115.078 33.1609C115.948 35.8881 118.452 34.2371 117.079 32.9884C115.706 31.7398 116.649 30.1495 115.929 29.6321H115.932Z" fill="white"/>
<path id="Vector_84" d="M42.2065 8.68019C42.095 8.54287 41.872 8.60035 41.8497 8.77919C41.7924 9.21669 41.9134 9.78832 42.7831 10.0853C44.3059 10.6058 43.3247 9.58393 42.6143 9.05702C42.4263 8.9165 42.2957 8.79196 42.2065 8.68338V8.68019Z" fill="white"/>
<path id="Vector_85" d="M52.4261 20.1638C52.8148 20.6173 53.385 21.042 54.2101 21.3582C54.312 21.3965 54.4267 21.4093 54.5382 21.3933C55.7742 21.2273 54.551 20.298 53.3372 19.2505C52.732 18.73 51.9069 19.5571 52.4261 20.1638Z" fill="white"/>
<path id="Vector_86" d="M131.258 16.6287C131.647 17.0822 132.217 17.5069 133.042 17.823C133.144 17.8614 133.259 17.8741 133.37 17.8582C134.606 17.6921 133.383 16.7628 132.169 15.7154C131.564 15.1948 130.739 16.0219 131.258 16.6287Z" fill="white"/>
<path id="Vector_87" d="M11.4428 189.918C10.7547 189.48 9.91685 190.224 10.2896 190.949C10.8821 192.102 11.8505 193.168 13.4211 193.759C18.0625 195.503 14.9438 190.863 12.3825 190.304C12.0289 190.227 11.7167 190.093 11.4396 189.918H11.4428Z" fill="white"/>
<path id="Vector_88" d="M66.6627 211.544C66.1721 211.754 66.2677 212.482 66.7965 212.546C67.6343 212.649 68.5646 212.514 69.4629 211.882C72.107 210.008 68.4594 209.995 67.2202 211.176C67.0482 211.339 66.8602 211.461 66.6659 211.544H66.6627Z" fill="white"/>
</g>
<g id="Group_3">
<path id="Vector_89" d="M239.038 163.69C244.329 159.449 240.65 152.388 239.038 152.548C237.426 152.708 240.162 155.157 237.588 159.168C234.081 164.632 235.011 166.919 239.038 163.69Z" fill="white"/>
<path id="Vector_90" d="M234.893 151.564C234.951 151.207 235.412 151.085 235.645 151.36C235.951 151.724 236.238 152.337 235.96 153.241C235.556 154.569 234.705 152.743 234.893 151.564Z" fill="white"/>
<path id="Vector_91" d="M219.188 204.684C219.462 204.898 219.854 204.879 220.128 204.665C220.845 204.109 222.842 202.659 222.316 200.746C221.791 198.837 219.733 200.137 220.485 201.893C221.294 203.793 218.43 204.084 219.191 204.681L219.188 204.684Z" fill="white"/>
<path id="Vector_92" d="M247.438 160.218C247.722 160.033 248.098 160.308 248.009 160.637C247.913 160.991 247.649 161.371 247.059 161.719C245.339 162.732 244.278 160.806 245.744 160.554C246.607 160.404 247.139 160.413 247.435 160.218H247.438Z" fill="white"/>
<path id="Vector_93" d="M196.873 63.2688C197.156 63.0836 197.532 63.3582 197.443 63.6871C197.347 64.0416 197.083 64.4216 196.494 64.7697C194.773 65.782 193.712 63.8564 195.178 63.6041C196.041 63.454 196.573 63.4636 196.869 63.2688H196.873Z" fill="white"/>
<path id="Vector_94" d="M241.316 73.5705C241.599 73.3853 241.975 73.66 241.886 73.9889C241.79 74.3434 241.526 74.7234 240.936 75.0715C239.216 76.0838 238.155 74.1581 239.621 73.9059C240.484 73.7558 241.016 73.7653 241.312 73.5705H241.316Z" fill="white"/>
<path id="Vector_95" d="M99.6024 84.7668C99.8859 84.5816 100.262 84.8563 100.173 85.1852C100.077 85.5396 99.8126 85.9197 99.2233 86.2678C97.503 87.2801 96.4422 85.3544 97.9076 85.1021C98.7709 84.9521 99.3029 84.9616 99.5992 84.7668H99.6024Z" fill="white"/>
<path id="Vector_96" d="M236.658 179.101C237.063 178.804 237.614 179.152 237.537 179.647C237.158 182.122 234.603 183.933 233.151 182.7C232.023 181.742 233.307 181.56 235.425 180.005L236.658 179.098V179.101Z" fill="white"/>
<path id="Vector_97" d="M239.239 141.052C239.117 140.624 239.576 140.276 239.965 140.493C241.892 141.575 242.593 144.258 241.124 145.082C239.984 145.72 240.229 144.6 239.605 142.358L239.239 141.052Z" fill="white"/>
<path id="Vector_98" d="M232.447 190.773C232.603 190.802 232.708 190.952 232.705 191.112C232.679 191.942 232.396 194.497 229.885 193.763C228.528 193.367 230.057 192.134 231.08 191.92C232.001 191.728 231.778 190.659 232.447 190.777V190.773Z" fill="white"/>
<path id="Vector_99" d="M232.144 162.719C232.377 162.808 232.95 163.654 232.144 164.057C231.338 164.459 231.329 162.403 232.144 162.719Z" fill="white"/>
<path id="Vector_100" d="M224.935 195.698C225.168 195.787 225.741 196.633 224.935 197.036C224.129 197.438 224.119 195.382 224.935 195.698Z" fill="white"/>
<path id="Vector_101" d="M205.808 161.908C206.041 161.997 206.614 162.843 205.808 163.246C205.002 163.648 204.993 161.592 205.808 161.908Z" fill="white"/>
<path id="Vector_102" d="M113.839 74.685C114.071 74.7745 114.645 75.6207 113.839 76.0231C113.033 76.4255 113.023 74.3689 113.839 74.685Z" fill="white"/>
<path id="Vector_103" d="M215.356 211.879C215.588 211.968 216.162 212.815 215.356 213.217C214.55 213.619 214.54 211.563 215.356 211.879Z" fill="white"/>
<path id="Vector_104" d="M239.254 170.482C239.503 170.578 240.118 171.488 239.254 171.916C238.391 172.344 238.378 170.141 239.254 170.482Z" fill="white"/>
<path id="Vector_105" d="M222.173 112.396C222.422 112.492 223.036 113.402 222.173 113.83C221.31 114.261 221.297 112.055 222.173 112.396Z" fill="white"/>
<path id="Vector_106" d="M249.939 135.881C250.172 135.971 250.745 136.817 249.939 137.219C249.133 137.622 249.124 135.565 249.939 135.881Z" fill="white"/>
<path id="Vector_107" d="M235.263 105.477C235.495 105.566 236.069 106.412 235.263 106.815C234.457 107.217 234.447 105.16 235.263 105.477Z" fill="white"/>
<path id="Vector_108" d="M205.808 81.0337C206.041 81.1231 206.614 81.9694 205.808 82.3717C205.002 82.7741 204.993 80.7175 205.808 81.0337Z" fill="white"/>
<path id="Vector_109" d="M153.07 109.925C153.303 110.014 153.876 110.86 153.07 111.263C152.264 111.665 152.254 109.609 153.07 109.925Z" fill="white"/>
<path id="Vector_110" d="M127.365 80.1938C127.598 80.2833 128.171 81.1295 127.365 81.5319C126.559 81.9343 126.55 79.8777 127.365 80.1938Z" fill="white"/>
<path id="Vector_111" d="M205.808 157.469C206.041 157.558 206.614 158.404 205.808 158.807C205.002 159.209 204.993 157.153 205.808 157.469Z" fill="white"/>
<path id="Vector_112" d="M221.654 137.756C221.886 137.845 222.46 138.692 221.654 139.094C220.848 139.496 220.838 137.44 221.654 137.756Z" fill="white"/>
<path id="Vector_113" d="M230.223 102.778C230.456 102.867 231.029 103.714 230.223 104.116C229.417 104.518 229.408 102.462 230.223 102.778Z" fill="white"/>
<path id="Vector_114" d="M243.358 151.561C243.682 151.283 244.199 151.867 243.902 153.186C243.606 154.505 242.36 153.831 242.953 153.186C243.549 152.541 243.039 151.835 243.358 151.561Z" fill="white"/>
<path id="Vector_115" d="M243.956 131.599C244.281 131.321 244.797 131.906 244.501 133.224C244.202 134.543 242.959 133.869 243.552 133.224C244.144 132.579 243.638 131.874 243.956 131.599Z" fill="white"/>
<path id="Vector_116" d="M222.992 208.251C223.409 208.341 223.263 209.107 222.039 209.676C220.816 210.244 220.59 208.842 221.46 208.922C222.329 209.002 222.581 208.165 222.989 208.251H222.992Z" fill="white"/>
<path id="Vector_117" d="M250.646 168.202C251.567 168.036 251.898 169.713 249.882 171.868C247.865 174.024 246.263 171.373 248.095 170.818C249.926 170.262 249.748 168.362 250.646 168.202Z" fill="white"/>
<path id="Vector_118" d="M213.537 92.1979C214.457 92.0318 214.789 93.7084 212.772 95.864C210.756 98.0195 209.153 95.369 210.985 94.8133C212.817 94.2576 212.638 92.3575 213.537 92.1979Z" fill="white"/>
<path id="Vector_119" d="M215.05 144.146C215.971 143.98 216.302 145.657 214.285 147.812C212.269 149.968 210.667 147.317 212.498 146.762C214.33 146.206 214.152 144.306 215.05 144.146Z" fill="white"/>
<path id="Vector_120" d="M234.199 167.509C234.355 167.436 234.524 167.579 234.47 167.742C234.339 168.144 233.998 168.592 233.119 168.489C231.584 168.311 232.855 167.828 233.689 167.665C233.912 167.621 234.075 167.566 234.196 167.509H234.199Z" fill="white"/>
<path id="Vector_121" d="M245.811 84.6359C245.967 84.5625 246.135 84.7062 246.081 84.8691C245.951 85.2714 245.61 85.7185 244.731 85.6163C243.195 85.4375 244.466 84.9553 245.301 84.7924C245.524 84.7477 245.686 84.6934 245.807 84.6359H245.811Z" fill="white"/>
<path id="Vector_122" d="M247.352 180.522C247.518 180.442 247.7 180.596 247.642 180.771C247.502 181.202 247.136 181.681 246.196 181.573C244.549 181.381 245.912 180.864 246.808 180.691C247.047 180.647 247.222 180.586 247.352 180.522Z" fill="white"/>
<path id="Vector_123" d="M185.459 216.394C185.624 216.314 185.806 216.468 185.748 216.643C185.608 217.074 185.242 217.553 184.302 217.445C182.655 217.253 184.019 216.736 184.914 216.564C185.153 216.519 185.328 216.458 185.459 216.394Z" fill="white"/>
<path id="Vector_124" d="M218.239 100.699C218.404 100.619 218.586 100.772 218.529 100.948C218.389 101.379 218.022 101.858 217.082 101.75C215.435 101.558 216.799 101.041 217.694 100.868C217.933 100.824 218.108 100.763 218.239 100.699Z" fill="white"/>
<path id="Vector_125" d="M122.953 131.008C123.119 130.928 123.3 131.081 123.243 131.257C123.103 131.688 122.736 132.167 121.797 132.059C120.15 131.867 121.513 131.35 122.408 131.177C122.647 131.133 122.822 131.072 122.953 131.008Z" fill="white"/>
<path id="Vector_126" d="M209.278 121.319C209.443 121.239 209.625 121.393 209.568 121.568C209.427 121.999 209.061 122.478 208.121 122.37C206.474 122.178 207.838 121.661 208.733 121.488C208.972 121.444 209.147 121.383 209.278 121.319Z" fill="white"/>
<path id="Vector_127" d="M251.146 146.538C251.111 146.119 251.583 145.861 251.908 146.123C252.704 146.768 253.424 147.933 252.433 149.843C250.7 153.186 250.707 149.875 251.06 147.831C251.153 147.288 251.172 146.867 251.143 146.541L251.146 146.538Z" fill="white"/>
<path id="Vector_128" d="M231.682 199.958C231.816 199.894 231.963 200.018 231.918 200.159C231.803 200.507 231.51 200.893 230.749 200.807C229.42 200.651 230.519 200.235 231.243 200.095C231.434 200.057 231.577 200.009 231.682 199.958Z" fill="white"/>
<path id="Vector_129" d="M209.867 216.493C210.001 216.429 210.147 216.554 210.103 216.694C209.988 217.043 209.695 217.429 208.933 217.343C207.605 217.186 208.704 216.771 209.427 216.631C209.618 216.592 209.762 216.544 209.867 216.493Z" fill="white"/>
<path id="Vector_130" d="M199.558 167.771C199.692 167.707 199.839 167.832 199.794 167.972C199.679 168.32 199.386 168.707 198.625 168.621C197.296 168.464 198.395 168.049 199.119 167.908C199.31 167.87 199.453 167.822 199.558 167.771Z" fill="white"/>
<path id="Vector_131" d="M201.358 212.85C201.492 212.786 201.638 212.91 201.594 213.051C201.479 213.399 201.186 213.785 200.425 213.699C199.096 213.543 200.195 213.128 200.918 212.987C201.11 212.949 201.253 212.901 201.358 212.85Z" fill="white"/>
<path id="Vector_132" d="M223.275 79.3668C223.409 79.3029 223.556 79.4275 223.511 79.568C223.396 79.9161 223.103 80.3025 222.342 80.2163C221.013 80.0598 222.112 79.6446 222.836 79.5041C223.027 79.4658 223.17 79.4179 223.275 79.3668Z" fill="white"/>
<path id="Vector_133" d="M239.837 193.612C239.274 193.865 238.557 194.005 237.646 193.932C237.531 193.922 237.42 193.881 237.324 193.82C236.247 193.117 237.799 192.795 239.388 192.357C240.181 192.14 240.586 193.277 239.834 193.612H239.837Z" fill="white"/>
<path id="Vector_134" d="M223.282 218.988C222.667 218.943 221.966 218.732 221.198 218.237C221.103 218.176 221.023 218.087 220.969 217.988C220.348 216.861 221.867 217.305 223.476 217.669C224.279 217.851 224.1 219.045 223.282 218.988Z" fill="white"/>
<path id="Vector_135" d="M213.862 140.087C213.298 140.339 212.581 140.48 211.67 140.406C211.555 140.397 211.444 140.355 211.348 140.295C210.271 139.592 211.823 139.27 213.412 138.832C214.206 138.615 214.61 139.752 213.858 140.087H213.862Z" fill="white"/>
<path id="Vector_136" d="M108.108 119.713C107.544 119.965 106.827 120.106 105.916 120.032C105.802 120.023 105.69 119.981 105.594 119.921C104.518 119.218 106.069 118.896 107.659 118.458C108.452 118.241 108.857 119.378 108.105 119.713H108.108Z" fill="white"/>
<path id="Vector_137" d="M202.667 163.872C202.103 164.124 201.387 164.265 200.476 164.191C200.361 164.182 200.249 164.14 200.154 164.079C199.077 163.377 200.628 163.054 202.218 162.617C203.011 162.4 203.416 163.536 202.664 163.872H202.667Z" fill="white"/>
<path id="Vector_138" d="M223.307 108.15C222.743 108.402 222.026 108.542 221.115 108.469C221.001 108.459 220.889 108.418 220.794 108.357C219.717 107.655 221.268 107.332 222.858 106.895C223.651 106.677 224.056 107.814 223.304 108.15H223.307Z" fill="white"/>
<path id="Vector_139" d="M215.496 111.078C214.932 111.33 214.215 111.471 213.304 111.397C213.189 111.388 213.078 111.346 212.982 111.285C211.906 110.583 213.457 110.26 215.047 109.823C215.84 109.606 216.244 110.742 215.493 111.078H215.496Z" fill="white"/>
<path id="Vector_140" d="M236.907 94.2994C235.435 88.5289 228.477 88.9249 228.025 90.2757C227.573 91.6265 230.51 90.3172 232.778 93.83C235.868 98.6138 238.025 98.6936 236.907 94.3026V94.2994Z" fill="white"/>
<path id="Vector_141" d="M217.646 82.4228C217.802 82.1673 218.204 82.2439 218.255 82.5377C218.312 82.8539 218.245 83.2562 217.907 83.7544C216.926 85.2074 215.362 84.0801 216.429 83.3265C217.057 82.8826 217.484 82.6878 217.646 82.4228Z" fill="white"/>
<path id="Vector_142" d="M243.278 117.069C243.488 116.682 244.052 116.749 244.18 117.171C244.81 119.272 243.466 121.674 241.851 121.246C240.599 120.914 241.545 120.284 242.641 118.253L243.278 117.069Z" fill="white"/>
<path id="Vector_143" d="M178.836 5.91417C178.711 5.49264 179.157 5.13816 179.546 5.34574C181.473 6.3868 182.216 9.03736 180.773 9.87724C179.651 10.5319 179.877 9.41419 179.218 7.20113L178.832 5.91098L178.836 5.91417Z" fill="white"/>
<path id="Vector_144" d="M241.605 109.315C241.838 109.296 242.666 109.784 242.144 110.452C241.621 111.119 240.784 109.376 241.605 109.315Z" fill="white"/>
<path id="Vector_145" d="M211.511 135.271C211.743 135.252 212.572 135.74 212.049 136.408C211.527 137.075 210.689 135.332 211.511 135.271Z" fill="white"/>
<path id="Vector_146" d="M217.242 66.3824C217.474 66.3632 218.302 66.8518 217.78 67.5192C217.258 68.1867 216.42 66.4431 217.242 66.3824Z" fill="white"/>
<path id="Vector_147" d="M251.268 93.5713C251.933 93.0923 252.825 94.2962 252.038 96.7647C251.252 99.2332 248.983 97.7387 250.226 96.6082C251.468 95.4777 250.615 94.0407 251.264 93.5713H251.268Z" fill="white"/>
<path id="Vector_148" d="M210.342 150.335C211.007 149.856 211.899 151.06 211.112 153.528C210.326 155.997 208.057 154.502 209.3 153.372C210.542 152.241 209.688 150.804 210.338 150.335H210.342Z" fill="white"/>
<path id="Vector_149" d="M252.354 113.195C252.456 113.07 252.656 113.121 252.679 113.284C252.73 113.68 252.621 114.198 251.835 114.466C250.458 114.935 251.344 114.012 251.987 113.537C252.159 113.409 252.274 113.297 252.357 113.198L252.354 113.195Z" fill="white"/>
<path id="Vector_150" d="M194.21 172.038C194.311 171.913 194.512 171.964 194.534 172.127C194.585 172.523 194.477 173.04 193.69 173.309C192.314 173.778 193.2 172.855 193.843 172.379C194.015 172.252 194.13 172.14 194.213 172.041L194.21 172.038Z" fill="white"/>
<path id="Vector_151" d="M252.22 124.423C251.866 124.835 251.353 125.219 250.605 125.503C250.512 125.538 250.407 125.547 250.308 125.535C249.19 125.385 250.299 124.545 251.395 123.596C251.943 123.124 252.688 123.874 252.22 124.423Z" fill="white"/>
<path id="Vector_152" d="M214.846 118.985C214.492 119.397 213.98 119.78 213.231 120.064C213.139 120.099 213.033 120.109 212.935 120.096C211.817 119.946 212.925 119.106 214.021 118.158C214.569 117.685 215.314 118.436 214.846 118.985Z" fill="white"/>
<path id="Vector_153" d="M246.833 196.701C247.454 196.305 248.212 196.978 247.875 197.636C247.34 198.677 246.464 199.645 245.04 200.178C240.841 201.756 243.663 197.556 245.979 197.052C246.298 196.982 246.581 196.86 246.83 196.701H246.833Z" fill="white"/>
<path id="Vector_154" d="M198.708 220.054C199.15 220.245 199.064 220.903 198.586 220.961C197.828 221.053 196.984 220.932 196.175 220.357C193.783 218.662 197.083 218.649 198.204 219.719C198.36 219.865 198.529 219.974 198.708 220.051V220.054Z" fill="white"/>
<path id="Vector_155" d="M177.536 52.3119C177.22 52.1043 176.806 52.4109 176.905 52.7749C177.01 53.1645 177.303 53.5892 177.956 53.9724C179.855 55.0933 181.03 52.9633 179.409 52.6855C178.456 52.5194 177.867 52.529 177.539 52.3151L177.536 52.3119Z" fill="white"/>
<path id="Vector_156" d="M194.604 24.8899C194.735 24.4172 194.232 24.0308 193.802 24.2703C191.674 25.4679 190.896 28.4314 192.521 29.3447C193.783 30.0505 193.509 28.8114 194.2 26.3333L194.604 24.8899Z" fill="white"/>
<path id="Vector_157" d="M215.929 18.19C215.652 18.2954 214.973 19.3013 215.929 19.7772C216.885 20.253 216.898 17.8164 215.929 18.19Z" fill="white"/>
<path id="Vector_158" d="M172.601 135.757C172.324 135.862 171.646 136.868 172.601 137.344C173.557 137.82 173.57 135.383 172.601 135.757Z" fill="white"/>
<path id="Vector_159" d="M195.175 44.935C194.917 45.034 194.283 45.9697 195.175 46.4136C196.067 46.8574 196.076 44.5837 195.175 44.935Z" fill="white"/>
<path id="Vector_160" d="M108.965 95.9443C108.707 96.0433 108.073 96.979 108.965 97.4228C109.857 97.8667 109.866 95.593 108.965 95.9443Z" fill="white"/>
<path id="Vector_161" d="M183.843 15.6288C183.585 15.7278 182.951 16.6635 183.843 17.1074C184.735 17.5513 184.745 15.2776 183.843 15.6288Z" fill="white"/>
<path id="Vector_162" d="M153.379 119.352C153.121 119.451 152.487 120.387 153.379 120.831C154.271 121.274 154.281 119.001 153.379 119.352Z" fill="white"/>
<path id="Vector_163" d="M202.027 18.2441C201.769 18.3431 201.135 19.2788 202.027 19.7226C202.919 20.1665 202.929 17.8928 202.027 18.2441Z" fill="white"/>
<path id="Vector_164" d="M178.425 97.3525C178.167 97.4515 177.533 98.3872 178.425 98.831C179.317 99.2749 179.326 97.0012 178.425 97.3525Z" fill="white"/>
<path id="Vector_165" d="M216.502 46.2187C216.244 46.3177 215.61 47.2534 216.502 47.6973C217.394 48.1411 217.404 45.8674 216.502 46.2187Z" fill="white"/>
<path id="Vector_166" d="M208.832 70.6074C208.574 70.7064 207.94 71.642 208.832 72.0859C209.724 72.5298 209.733 70.2561 208.832 70.6074Z" fill="white"/>
<path id="Vector_167" d="M170.352 123.982C170.094 124.081 169.46 125.017 170.352 125.461C171.244 125.905 171.254 123.631 170.352 123.982Z" fill="white"/>
<path id="Vector_168" d="M164.306 88.6821C164.048 88.7811 163.414 89.7167 164.306 90.1606C165.198 90.6045 165.207 88.3308 164.306 88.6821Z" fill="white"/>
<path id="Vector_169" d="M224.425 73.6572C224.167 73.7562 223.533 74.6918 224.425 75.1357C225.317 75.5796 225.327 73.3059 224.425 73.6572Z" fill="white"/>
<path id="Vector_170" d="M116.585 111.611C116.327 111.71 115.693 112.646 116.585 113.09C117.477 113.534 117.487 111.26 116.585 111.611Z" fill="white"/>
<path id="Vector_171" d="M205.62 34.9619C205.26 34.6553 204.69 35.3004 205.018 36.7566C205.35 38.2128 206.723 37.4687 206.066 36.7566C205.41 36.0445 205.971 35.2621 205.62 34.9619Z" fill="white"/>
<path id="Vector_172" d="M196.471 71.1403C195.455 70.9583 195.089 72.8105 197.315 75.1928C199.545 77.5751 201.316 74.6467 199.294 74.0335C197.271 73.4204 197.465 71.3223 196.471 71.1435V71.1403Z" fill="white"/>
<path id="Vector_173" d="M230.564 58.0793C230.379 57.993 230.179 58.1623 230.242 58.3539C230.398 58.8297 230.803 59.3598 231.841 59.2385C233.66 59.0277 232.154 58.4561 231.163 58.2613C230.902 58.2102 230.704 58.1431 230.561 58.0761L230.564 58.0793Z" fill="white"/>
<path id="Vector_174" d="M216.974 32.4998C216.824 32.4296 216.665 32.5669 216.716 32.7234C216.84 33.1066 217.168 33.5345 218.006 33.4387C219.475 33.2663 218.258 32.8064 217.458 32.6499C217.248 32.6084 217.089 32.5541 216.974 32.4998Z" fill="white"/>
<path id="Vector_175" d="M206.665 59.1812C207.29 59.459 208.08 59.6155 209.086 59.5356C209.211 59.5261 209.335 59.4782 209.44 59.4111C210.631 58.6319 208.918 58.2774 207.156 57.7952C206.28 57.5557 205.834 58.8139 206.665 59.1812Z" fill="white"/>
<path id="Vector_176" d="M235.483 68.7486C236.107 69.0264 236.897 69.1829 237.904 69.103C238.028 69.0934 238.152 69.0455 238.257 68.9785C239.449 68.1993 237.735 67.8448 235.973 67.3626C235.097 67.1231 234.651 68.3813 235.483 68.7486Z" fill="white"/>
<path id="Vector_177" d="M175.526 39.5669C176.15 39.8447 176.94 40.0012 177.947 39.9214C178.071 39.9118 178.195 39.8639 178.3 39.7968C179.492 39.0176 177.778 38.6632 176.016 38.181C175.14 37.9415 174.694 39.1997 175.526 39.5669Z" fill="white"/>
<path id="Vector_178" d="M130.716 110.634C131.341 110.912 132.131 111.068 133.137 110.988C133.262 110.979 133.386 110.931 133.491 110.864C134.682 110.085 132.969 109.73 131.207 109.248C130.331 109.008 129.885 110.267 130.716 110.634Z" fill="white"/>
<path id="Vector_179" d="M165.418 97.2149C166.042 97.4927 166.832 97.6492 167.839 97.5693C167.963 97.5598 168.087 97.5119 168.192 97.4448C169.384 96.6656 167.67 96.3111 165.908 95.8289C165.032 95.5894 164.586 96.8476 165.418 97.2149Z" fill="white"/>
<path id="Vector_180" d="M216.91 9.93508C217.535 10.2129 218.325 10.3694 219.332 10.2896C219.456 10.28 219.58 10.2321 219.685 10.165C220.877 9.38581 219.163 9.03133 217.401 8.54912C216.525 8.30962 216.079 9.56783 216.91 9.93508Z" fill="white"/>
<path id="Vector_181" d="M178.807 115.114C179.431 115.392 180.221 115.549 181.228 115.469C181.352 115.459 181.476 115.411 181.582 115.344C182.773 114.565 181.059 114.211 179.298 113.728C178.421 113.489 177.975 114.747 178.807 115.114Z" fill="white"/>
<path id="Vector_182" d="M192.429 49.2908C192.199 48.8629 191.572 48.9363 191.432 49.4026C190.737 51.7274 192.222 54.378 194.006 53.9054C195.391 53.5381 194.343 52.8419 193.133 50.5969L192.429 49.2876V49.2908Z" fill="white"/>
<path id="Vector_183" d="M219.274 41.3486C219.016 41.3295 218.102 41.8692 218.678 42.6037C219.255 43.3382 220.182 41.4157 219.274 41.3486Z" fill="white"/>
<path id="Vector_184" d="M172.334 106.463C172.076 106.444 171.161 106.984 171.738 107.718C172.315 108.453 173.242 106.53 172.334 106.463Z" fill="white"/>
<path id="Vector_185" d="M218.892 58.8138C218.156 58.2869 217.168 59.6153 218.038 62.3425C218.908 65.0697 221.412 63.4187 220.039 62.1701C218.666 60.9214 219.609 59.3311 218.889 58.8138H218.892Z" fill="white"/>
<path id="Vector_186" d="M172.502 20.0005C172.391 19.8632 172.168 19.9207 172.146 20.0995C172.088 20.537 172.209 21.1086 173.079 21.4056C174.602 21.9261 173.621 20.9042 172.91 20.3773C172.722 20.2368 172.592 20.1123 172.502 20.0037V20.0005Z" fill="white"/>
<path id="Vector_187" d="M96.7129 110.273C96.6014 110.136 96.3784 110.193 96.3561 110.372C96.2987 110.809 96.4198 111.381 97.2895 111.678C98.8122 112.199 97.831 111.177 97.1206 110.65C96.9327 110.509 96.8021 110.385 96.7129 110.276V110.273Z" fill="white"/>
<path id="Vector_188" d="M182.719 31.4842C183.108 31.9376 183.678 32.3624 184.503 32.6785C184.605 32.7168 184.719 32.7296 184.831 32.7136C186.067 32.5476 184.844 31.6183 183.63 30.5708C183.025 30.0503 182.2 30.8774 182.719 31.4842Z" fill="white"/>
<path id="Vector_189" d="M203.69 4.19314C204.079 4.64661 204.649 5.07134 205.474 5.38749C205.576 5.42581 205.691 5.43858 205.802 5.42262C207.038 5.25656 205.815 4.32726 204.601 3.27981C203.996 2.75928 203.171 3.58638 203.69 4.19314Z" fill="white"/>
</g>
</g>
<g id="Group_4">
<path id="Vector_190" d="M255.951 66.9603V61.1354C255.951 61.1354 254.578 52.0597 251.194 53.155C247.885 53.436 249.821 44.504 249.009 43.1276C248.197 41.7512 246.789 42.1728 245.699 44.6445C244.61 47.1162 246.088 40.3717 243.902 39.9118C241.717 39.4519 241.931 39.9118 240.593 37.5103C239.255 35.1089 238.337 38.6759 237.248 37.9702C236.158 37.2644 237.458 33.0267 235.769 33.0619C234.078 33.097 234.078 36.3096 232.495 35.7795C230.911 35.2494 231.721 30.3762 229.819 30.6604C227.917 30.9446 231.297 34.7576 228.939 34.0135C226.582 33.2694 227.987 30.2005 223.374 30.9063C218.761 31.612 226.614 33.8027 226.299 34.8246C225.983 35.8465 223.623 36.3799 225.735 37.472C227.847 38.5674 231.405 38.1426 231.545 41.6746C231.686 45.2065 235.349 40.4387 236.722 41.7097C238.095 42.9807 236.862 45.4524 240.456 45.5929C244.049 45.7335 238.449 47.7357 240.631 48.7992C242.813 49.8626 245.317 49.3357 244.823 52.3726C244.329 55.4096 243.73 55.3393 248.133 55.5501C252.536 55.7609 247.219 57.4215 248.063 58.7276C248.907 60.0337 252.854 58.5871 253.523 63.1058C254.192 67.6245 255.954 66.9539 255.954 66.9539L255.951 66.9603Z" fill="white"/>
<path id="Vector_191" d="M257.435 43.0575V37.2326C257.435 37.2326 256.062 28.1568 252.679 29.2522C249.369 29.5332 251.306 20.6011 250.493 19.2248C249.681 17.8484 248.273 18.2699 247.184 20.7417C246.094 23.2134 247.572 16.4688 245.387 16.009C243.201 15.5491 243.415 16.009 242.077 13.6075C240.739 11.206 239.822 14.7731 238.732 14.0674C237.643 13.3616 238.942 9.1239 237.254 9.15903C235.562 9.19416 235.562 12.4068 233.979 11.8767C232.396 11.3465 233.205 6.47334 231.303 6.75756C229.401 7.04178 232.781 10.8548 230.424 10.1107C228.066 9.3666 229.471 6.2977 224.859 7.00345C220.246 7.70921 228.098 9.89991 227.783 10.9218C227.468 11.9437 225.107 12.477 227.219 13.5692C229.331 14.6645 232.89 14.2398 233.03 17.7718C233.17 21.3037 236.833 16.5359 238.206 17.8069C239.579 19.0779 238.347 21.5496 241.94 21.6901C245.533 21.8306 239.933 23.8329 242.115 24.8963C244.297 25.9598 246.801 25.4328 246.307 28.4698C245.814 31.5068 245.215 31.4365 249.617 31.6473C254.02 31.858 248.703 33.5186 249.547 34.8248C250.391 36.1309 254.338 34.6842 255.007 39.203C255.676 43.7217 257.438 43.0511 257.438 43.0511L257.435 43.0575Z" fill="white"/>
<path id="Vector_192" d="M1.18145e-05 65.8011V59.9763C1.18145e-05 59.9763 1.37302 50.9005 4.75618 51.9958C8.06606 52.2769 6.12919 43.3448 6.94153 41.9684C7.75387 40.5921 9.16192 41.0136 10.2514 43.4853C11.3409 45.957 9.86276 39.2125 12.0481 38.7526C14.2335 38.2928 14.02 38.7526 15.358 36.3512C16.696 33.9497 17.6134 37.5168 18.7029 36.811C19.7924 36.1053 18.4927 31.8676 20.1811 31.9027C21.8726 31.9378 21.8726 35.1504 23.4559 34.6203C25.0392 34.0902 24.23 29.217 26.1318 29.5012C28.0337 29.7854 24.6537 33.5984 27.0111 32.8543C29.3685 32.1103 27.9636 29.0414 32.5764 29.7471C37.1892 30.4529 29.3366 32.6436 29.652 33.6655C29.9674 34.6874 32.3279 35.2207 30.2158 36.3128C28.1038 37.4082 24.5454 36.9835 24.4052 40.5154C24.2651 44.0474 20.6016 39.2795 19.2286 40.5505C17.8555 41.8215 19.0884 44.2933 15.495 44.4338C11.9016 44.5743 17.5019 46.5766 15.3198 47.64C13.1376 48.7034 10.6337 48.1765 11.1275 51.2135C11.6212 54.2504 12.2201 54.1802 7.81758 54.3909C3.41502 54.6017 8.73186 56.2623 7.88766 57.5684C7.04347 58.8745 3.09646 57.4279 2.42747 61.9466C1.75849 66.4653 -0.00317383 65.7947 -0.00317383 65.7947L1.18145e-05 65.8011Z" fill="white"/>
<path id="Vector_193" d="M0.589367 43.0575V37.2326C0.589367 37.2326 1.96238 28.1568 5.34553 29.2522C8.65541 29.5332 6.71854 20.6011 7.53088 19.2248C8.34322 17.8484 9.75128 18.2699 10.8408 20.7417C11.9303 23.2134 10.4521 16.4688 12.6375 16.009C14.8228 15.5491 14.6094 16.009 15.9474 13.6075C17.2853 11.206 18.2028 14.7731 19.2923 14.0674C20.3818 13.3616 19.082 9.1239 20.7704 9.15903C22.462 9.19416 22.462 12.4068 24.0453 11.8767C25.6285 11.3465 24.8194 6.47334 26.7212 6.75756C28.623 7.04178 25.2431 10.8548 27.6004 10.1107C29.9578 9.3666 28.5529 6.2977 33.1658 7.00345C37.7786 7.70921 29.926 9.89991 30.2413 10.9218C30.5567 11.9437 32.9173 12.477 30.8052 13.5692C28.6931 14.6645 25.1347 14.2398 24.9946 17.7718C24.8544 21.3037 21.1909 16.5359 19.8179 17.8069C18.4449 19.0779 19.6777 21.5496 16.0843 21.6901C12.4909 21.8306 18.0913 23.8329 15.9091 24.8963C13.727 25.9598 11.223 25.4328 11.7168 28.4698C12.2106 31.5068 12.8095 31.4365 8.40693 31.6473C4.00438 31.858 9.32121 33.5186 8.47702 34.8248C7.63282 36.1309 3.68581 34.6842 3.01683 39.203C2.34784 43.7217 0.586182 43.0511 0.586182 43.0511L0.589367 43.0575Z" fill="white"/>
</g>
</g>
<g id="Group_5">
<path id="Vector_194" d="M133.112 0C133.112 0 129.493 12.6205 147.619 12.8887C148.374 12.8983 149.126 13.0229 149.833 13.2815C151.315 13.8244 152.863 15.0443 149.636 17.5831C144.673 21.4855 137.766 26.4609 141.172 30.4591C144.577 34.4573 153.335 31.2383 156.253 32.5061C159.171 33.7739 157.517 40.1129 146.524 41.9683C143.602 42.4696 141.27 47.9177 151.487 46.8447C155.185 46.4551 160.439 45.8707 156.061 50.2585C152.809 53.519 153.236 54.9879 153.672 55.5276C153.752 55.6266 153.666 55.7735 153.538 55.7512C153.073 55.6681 152.376 55.4127 152.169 54.6367C151.85 53.4391 150.576 55.7544 152.646 56.5495C152.646 56.5495 150.974 57.5076 152.248 58.8616C153.124 59.3406 151.684 57.6832 154.456 57.3064C154.845 57.2521 155.95 57.1339 157.02 57.9036C158.094 58.6796 158.693 57.5842 156.622 56.1504C154.555 54.7133 155.109 54.2375 156.304 53.6786C157.498 53.1198 167.922 50.3287 167.842 43.7885C167.762 37.2484 154.794 46.2603 158.135 40.1991C161.088 34.8405 168.769 35.4664 171.225 30.9445C172.111 29.3126 170.999 27.3327 169.148 27.2465C165.51 27.0804 159.588 29.5905 157.896 26.9591C155.59 23.3696 157.339 18.902 164.819 17.3085C172.299 15.7118 174.924 13.0804 171.9 10.3691C168.877 7.65788 160.066 9.0151 160.544 0H133.115H133.112Z" fill="white"/>
<path id="Vector_195" d="M206.85 265.995C205.713 265.021 205.691 263.303 206.764 262.262C207.863 261.198 210.013 260.218 214.104 261.256C221.412 263.111 212.38 264.459 212.298 266.624C212.237 268.227 208.733 267.614 206.847 265.995H206.85Z" fill="white"/>
<g id="bottomLeftGroup">
<path id="Vector_196" d="M68.0326 247.348C68.6825 247.409 69.224 246.847 69.1667 246.196C69.0966 245.394 69.0297 244.615 68.9915 243.832C68.966 243.328 68.9756 241.041 70.648 240.045C71.0239 239.821 71.5942 239.77 71.9605 240.134C72.3555 240.53 72.5658 240.987 72.5849 241.594C72.6391 243.133 71.6579 245.426 71.0016 246.783C70.7309 247.345 70.9985 248.032 71.5846 248.236C71.6579 248.262 71.728 248.287 71.7981 248.319C72.6773 248.683 73.5979 249.003 74.3912 249.51C74.9741 249.884 75.5029 250.465 75.8311 251.078C76.0413 251.465 76.035 252.25 75.7769 252.538C75.4902 252.851 74.7703 252.966 74.2924 252.873C72.3396 252.493 71.2406 251.03 70.2817 249.443C70.2817 249.44 70.2785 249.437 70.2753 249.434C69.9536 248.9 69.2623 248.734 68.7494 249.089C68.2811 249.415 67.816 249.728 67.319 249.986C66.4239 250.456 65.4714 250.832 64.5125 251.152C63.7798 251.395 62.6935 250.74 62.5119 249.983C62.445 249.702 62.5215 249.3 62.6903 249.066C63.4198 248.057 64.4424 247.556 65.6816 247.451C66.4748 247.384 67.2649 247.278 68.0262 247.352L68.0326 247.348Z" fill="white"/>
<path id="Vector_197" d="M63.9994 281.269C64.2511 279.701 65.7834 278.727 67.3188 279.126C68.8862 279.535 70.96 280.94 72.2884 285.223C74.6618 292.874 68.4434 285.433 66.4492 286.557C64.9678 287.391 63.5821 283.875 63.9994 281.269Z" fill="white"/>
<path id="Vector_198" d="M67.8605 389C70.6129 385.816 70.9506 381.042 73.5596 378.854C76.9141 376.038 82.2469 381.671 83.6517 375.836C85.0566 369.999 97.5284 371.541 100.309 364.768C102.097 360.418 99.3442 357.573 92.2816 352.496C82.8139 345.687 68.5964 351.087 62.1741 346.46C55.7519 341.829 54.347 344.85 43.9077 343.04C33.4715 341.226 29.2569 331.368 23.4367 321.107C18.0753 311.651 3.93422 313.13 1.74249 313.421L1.65967 318.428C2.97215 317.831 10.3533 314.861 13.8288 321.653C17.2438 328.327 4.69877 330.518 1.96868 330.914L2.74597 335.947C3.66981 335.264 5.25626 334.638 7.96724 334.433C14.7845 333.922 15.8071 348.168 21.0953 342.676C26.3866 337.18 27.852 344.081 27.6609 349.382C27.4697 354.686 22.1147 361.009 15.3579 356.794C11.8633 354.613 8.26351 354.246 5.60349 354.396L7.22817 364.896C7.22817 365.129 7.23136 365.362 7.23773 365.592C8.46101 363.631 10.1016 361.817 14.6029 362.354C27.7533 365.774 40.2951 349.478 40.2951 362.957C40.2951 371.624 24.2522 377.296 12.7871 380.243C16.0715 384.187 20.5951 387.074 25.7654 388.32C26.4153 386.298 27.8648 383.287 31.0632 379.458C37.6861 367.658 64.7832 362.756 66.9908 374.629C68.3479 381.923 62.1072 386.531 57.093 389H67.8605Z" fill="white"/>
<path id="Vector_199" d="M81.2626 297.69C76.0381 298.083 72.4383 312.993 63.2987 311.15C50.1803 308.506 52.9486 300.503 48.9984 288.62C46.3416 280.637 28.0337 290.709 21.5636 277.07C14.6221 262.44 4.54274 263.367 2.16943 274.269C2.265 262.287 2.34464 249.794 2.41154 238.113C5.31685 238.138 9.85639 239.355 14.8196 245.09C23.2839 254.872 31.7481 245.202 40.0149 249.938C48.2816 254.674 49.0971 260.397 44.6532 260.001C40.2124 259.605 41.1235 250.529 33.7806 254.674C26.4345 258.816 32.9714 277.089 53.127 264.401C73.2825 251.714 73.4928 275.393 81.2626 276.38C89.0292 277.367 88.0321 285.456 82.5273 286.046C77.0225 286.64 66.2295 271.05 61.8811 276.182C57.5359 281.311 62.8496 302.228 77.0225 294.139C91.1954 286.046 86.4838 297.294 81.2626 297.69Z" fill="white"/>
<path id="Vector_200" d="M22.5034 244.688C22.5034 244.688 14.568 239.569 15.4886 231.71C16.4093 223.851 27.9413 226.089 27.4794 235.951C27.0175 245.812 36.4725 239.569 37.0491 241.766C37.6257 243.963 28.7728 249.012 22.5034 244.688Z" fill="white"/>
<path id="Vector_201" d="M52.9676 335.941C43.4203 342.801 32.7483 328.695 41.9644 321.395C43.4298 320.232 45.2552 319.207 47.5329 318.431C60.1417 314.133 53.9488 324.569 60.0939 324.285C63.4102 324.132 59.1924 331.47 52.9676 335.941Z" fill="white"/>
<path id="Vector_202" d="M12.7489 296.304C12.9974 293.698 12.5577 291.085 11.6212 288.639C10.8693 286.679 11.0764 284.549 15.2146 284.194C23.1532 283.511 18.0116 297.584 26.7402 296.562C35.4689 295.537 24.5644 313.034 14.5615 302.544C12.8349 300.733 12.5577 298.341 12.7489 296.304Z" fill="white"/>
<path id="Vector_203" d="M75.8118 389C75.8118 389 75.2894 380.461 82.508 380.461C89.7267 380.461 83.7122 374.834 94.7377 374.431C105.763 374.029 99.9494 364.583 112.38 363.979C124.81 363.376 129.879 376.239 140.076 373.828C150.273 371.417 149.671 362.373 157.09 361.367C164.51 360.361 154.844 375.437 165.892 379.455C176.94 383.472 177.195 389 177.195 389H75.8118Z" fill="white"/>
</g>
<g id="bottomRightGroup">
<path id="Vector_204" d="M234.415 230.896C234.361 231.547 234.925 232.084 235.575 232.02C236.375 231.943 237.152 231.87 237.929 231.825C238.433 231.796 240.714 231.783 241.72 233.454C241.946 233.827 242.004 234.402 241.641 234.772C241.249 235.172 240.793 235.386 240.191 235.411C238.656 235.478 236.362 234.514 235.002 233.869C234.438 233.6 233.756 233.875 233.555 234.466C233.53 234.539 233.504 234.61 233.476 234.68C233.119 235.564 232.81 236.491 232.31 237.292C231.943 237.88 231.367 238.413 230.758 238.748C230.373 238.962 229.589 238.962 229.303 238.704C228.987 238.419 228.866 237.698 228.955 237.219C229.315 235.258 230.765 234.147 232.342 233.169C232.345 233.169 232.348 233.166 232.351 233.163C232.88 232.837 233.042 232.141 232.682 231.63C232.354 231.164 232.039 230.698 231.775 230.206C231.3 229.312 230.914 228.36 230.59 227.402C230.341 226.671 230.985 225.575 231.736 225.387C232.014 225.317 232.418 225.39 232.651 225.556C233.664 226.278 234.173 227.3 234.288 228.542C234.361 229.337 234.473 230.129 234.409 230.892L234.415 230.896Z" fill="white"/>
<path id="Vector_205" d="M257.435 241.849V254.278C250.127 254.103 242.055 255.517 235.757 266.956C228.191 280.698 218.197 279.408 221.482 274.4C224.766 269.39 212.916 266.816 211.775 274.113C210.632 281.413 196.07 283.128 191.358 278.408C186.65 273.685 192.502 266.528 194.356 264.382C196.213 262.236 191.358 255.224 194.93 249.213C197.446 244.973 200.39 247.499 203.059 248.75C204.506 249.431 206.239 248.658 206.656 247.109C209.638 236.066 218.35 233.789 221.052 234.329C223.909 234.9 220.482 244.347 216.77 247.067C213.059 249.785 217.286 252.228 214.773 255.39C211.023 260.1 200.281 260.672 200.782 264.382C201.103 266.777 202.779 265.526 206.92 268.674C211.062 271.823 214.913 266.385 220.198 265.241C225.48 264.095 222.909 268.674 227.621 268.674C232.332 268.674 240.325 253.793 229.334 255.367C218.341 256.942 221.052 249.357 227.477 245.921C233.903 242.488 234.9 245.777 240.612 244.059C248.359 240.451 253.956 240.799 257.435 241.849Z" fill="white"/>
<path id="Vector_206" d="M204.292 245.017C204.722 245.819 203.935 246.726 203.094 246.374C199.485 244.87 194.245 241.814 195.869 237.158C198.281 230.232 208.242 228.664 208.07 235.596C207.924 241.447 202.352 241.389 204.292 245.017Z" fill="white"/>
<path id="Vector_207" d="M261.13 342.928L260.961 343.959C260.098 343.228 258.521 342.526 255.651 342.312C249.002 341.81 248.009 355.702 242.851 350.346C237.693 344.988 236.263 351.716 236.451 356.887C236.636 362.057 241.857 368.223 248.442 364.11C251.898 361.955 255.46 361.616 258.066 361.779L257.559 364.896C257.559 367.588 257.116 370.174 256.294 372.589C255.109 370.717 253.488 369.018 249.178 369.533C236.359 372.867 224.129 356.976 224.129 370.12C224.129 377.331 235.527 382.418 245.817 385.538C242.676 387.422 239.073 388.62 235.215 388.923C234.622 388.074 233.934 387.167 233.132 386.206C226.674 374.703 200.256 369.925 198.105 381.498C197.561 384.43 198.274 386.918 199.647 389H193.926C193.34 387.652 192.687 386.445 191.702 385.618C188.431 382.872 183.232 388.364 181.862 382.677C180.492 376.986 168.332 378.49 165.618 371.886C163.879 367.645 166.564 364.87 173.449 359.92C182.677 353.281 196.538 358.547 202.801 354.035C209.064 349.522 210.434 352.467 220.609 350.701C230.784 348.935 234.893 339.323 240.567 329.318C245.208 321.139 256.584 321.35 260.582 321.701L260.793 326.306C258.346 325.447 252.79 324.272 249.933 329.851C246.741 336.094 257.859 338.313 261.124 338.824C261.133 340.201 261.137 341.571 261.13 342.928Z" fill="white"/>
<path id="Vector_208" d="M213.467 304.495C213.61 302.972 213.355 301.448 212.807 300.021C212.368 298.878 212.489 297.632 214.903 297.425C219.539 297.026 216.535 305.242 221.632 304.645C226.729 304.048 220.36 314.261 214.524 308.136C213.518 307.079 213.355 305.683 213.467 304.492V304.495Z" fill="white"/>
<path id="Vector_209" d="M259.799 308.279C246.734 309.94 254.453 304.045 245.702 303.917C236.652 303.783 245.568 323.266 233.055 319.664C220.542 316.062 221.342 338.349 208.293 334.076C195.248 329.806 205.63 319.664 200.571 311.121C195.512 302.582 209.892 293.506 210.689 308.988C211.488 324.467 234.253 308.72 236.916 303.25C239.579 297.776 219.609 306.184 220.542 296.978C221.472 287.768 236.916 288.569 241.711 287.234C246.502 285.9 246.502 286.701 249.965 277.759C251.8 273.014 254.963 271.219 257.524 270.581C257.868 281.774 258.919 294.844 259.799 308.279Z" fill="white"/>
</g>
</g>
</g>
<defs>
<clipPath id="clip0_746_2701">
<rect width="262" height="389" fill="white"/>
</clipPath>
</defs>
</svg>
