<svg width="268" height="403" viewBox="0 0 268 403" fill="none" xmlns="http://www.w3.org/2000/svg">
<g id="Layer_1" clip-path="url(#clip0_1096_3127)">
<path id="Vector" d="M266.82 351.055C266.588 353.877 266.572 356.713 266.764 359.538L266.956 362.3V362.367L267.821 374.799L267.486 376.861L267.414 377.314L267.387 377.459L267.294 378.028C267.294 380.817 266.833 383.497 265.978 385.998C265.355 387.824 264.527 389.558 263.519 391.169C262.942 392.086 262.309 392.962 261.62 393.793C259.79 396.016 257.576 397.922 255.08 399.414C253.894 400.122 252.644 400.737 251.341 401.247C250.238 401.677 249.097 402.037 247.924 402.312H247.921C247.709 402.362 247.5 402.411 247.284 402.454C246.23 402.679 245.15 402.835 244.046 402.921C243.38 402.974 242.707 403 242.024 403H32.1048C30.0432 403 28.0412 402.755 26.1221 402.295C25.4857 402.143 24.8791 401.945 24.2924 401.71C21.4585 400.575 19.1383 398.577 16.7287 396.707C15.4161 395.692 14.0804 394.709 12.6187 393.928C5.46921 390.097 4.24946 378.819 4.24946 378.578L4.08704 377.529L2.95679 370.24C2.69163 368.547 2.54247 366.839 2.50933 365.126L2.45298 362.221L2.28062 353.444L2.21765 350.268C2.20439 349.613 2.17124 348.958 2.11821 348.306C2.05524 347.479 1.95911 346.652 1.82985 345.831L1.3625 342.824C1.3625 342.824 1.34261 342.381 1.31278 341.65C1.29621 341.206 1.27632 340.657 1.25312 340.038C1.19014 338.341 1.11722 336.111 1.07413 334.057C1.03767 332.446 1.0211 330.944 1.04099 329.888L1.12717 324.701C1.13048 324.456 1.13379 324.208 1.13711 323.96C1.14705 323.305 1.157 322.643 1.16694 321.968C1.18351 320.903 1.19677 319.811 1.21334 318.696C1.26638 314.746 1.31609 310.498 1.36581 306.035C1.41884 301.297 1.46525 296.318 1.51165 291.2C1.52491 289.844 1.53485 288.477 1.54811 287.101C1.55474 286.118 1.56468 285.129 1.57463 284.14C1.67075 271.727 1.75361 258.785 1.82322 246.683C1.96906 220.464 2.03866 198.165 2.03866 193.603C2.03866 193.603 0.281959 39.545 0.179209 38.0596C-2.14759 4.78722 18.5848 0 32.1048 0H242.024C255.978 0 267.294 11.1823 267.294 24.9716C267.294 24.9716 266.545 66.3826 267.165 81.2008V270.202C267.109 273.358 267.152 276.746 267.261 280.319C267.377 284.061 267.284 287.637 267.142 291.236C266.88 297.688 266.442 304.209 266.708 311.844C266.751 313.151 266.817 314.491 266.91 315.871C266.95 316.473 266.999 317.177 267.052 317.958C267.152 319.483 267.274 321.296 267.4 323.202C267.559 325.66 267.732 328.267 267.871 330.593C268 332.647 268.033 334.708 267.964 336.763C267.924 337.99 267.848 339.218 267.738 340.442C267.692 340.971 267.642 341.527 267.593 342.103C267.5 343.165 267.4 344.286 267.301 345.414C267.132 347.386 266.963 349.368 266.82 351.055Z" fill="black"/>
<g id="personHoldPotVector">
<path id="Vector_2" d="M101.832 128.314C100.91 129.572 99.5745 130.683 97.662 131.52C97.6587 131.52 97.652 131.52 97.6487 131.527C95.2954 132.384 92.9288 132.516 90.7445 132.268C91.2384 129.552 91.729 128.278 91.8881 127.775C92.952 124.368 99.3855 119.805 97.251 119.087C96.0809 118.694 94.3773 119.58 91.7886 121.155C90.5888 121.886 89.3359 122.27 88.1029 122.237C87.0356 122.211 85.9816 121.876 84.9806 121.188C79.8397 117.645 79.2033 111.253 79.2033 111.253C79.1304 110.674 79.021 109.788 78.9183 108.927C78.7592 107.631 78.6133 106.396 78.6133 106.396C78.61 106.281 78.736 106.205 78.8387 106.264C80.8473 107.505 85.6998 108.53 91.9842 107.554C98.5238 106.539 101.364 105.06 102.392 103.74C102.481 103.631 102.65 103.674 102.664 103.813C102.892 106.873 103.376 113.318 103.625 116.963C103.661 117.513 103.691 117.992 103.718 118.393C103.893 121.228 104.115 125.208 101.832 128.314Z" fill="white"/>
<path id="Vector_3" d="M145.166 280.718C145.166 280.718 165.162 324.706 210.091 304.297C210.091 304.297 212.577 318.672 215.457 321.603C218.337 324.534 220.992 321.487 220.992 321.487C220.992 321.487 225.467 307.671 216.382 291.91C215.387 290.187 213.889 288.817 212.123 287.897C203.273 283.289 174.102 266.889 165.862 247.032C156.107 223.533 129.988 245.715 145.166 280.715V280.718Z" fill="white"/>
<path id="Vector_4" d="M163.714 202.932C159.117 188.643 157.168 184.848 149.939 173.348C149.455 172.577 148.931 171.826 148.387 171.095C144.698 166.133 144.035 163.837 144.463 161.564C145.842 154.282 147.509 135.127 128.557 133.889C120.032 133.333 117.078 140.331 116.545 141.826C116.478 142.015 116.376 142.19 116.243 142.342L108.355 151.364C107.778 152.022 107.821 153.018 108.454 153.624L111.202 156.254C111.54 156.578 111.722 157.025 111.709 157.491C111.639 159.761 111.851 166.91 116.873 171.433C118.179 172.611 119.137 173.398 119.866 173.924C120.443 174.341 120.469 175.188 119.929 175.648C118.616 176.766 117.665 177.6 117.37 177.907C110.648 184.957 107.39 189.93 103.913 198.896C82.7067 253.566 96.3261 294.349 117.715 338.592C117.715 338.592 106.813 344.51 102.239 348.156C100.85 349.261 100.018 350.975 100.191 352.742C100.191 352.771 100.197 352.801 100.201 352.834C100.416 354.747 102.246 356.053 104.148 355.742C112.591 354.359 137.579 346.995 141.162 339.419C148.301 324.326 146.601 281.684 147.141 278.125C148.351 270.102 150.737 261.937 155.325 255.158C157.625 251.76 162.491 247.413 164.791 245.286C165.58 244.554 166.223 243.678 166.657 242.692C172.017 230.537 168.762 218.617 163.714 202.928V202.932Z" fill="white"/>
<path id="Vector_5" d="M156.717 211.464C156.057 211.464 155.431 211.6 154.857 211.841C154.251 208.546 153.654 205.244 153.014 201.952C151.556 194.452 150.542 186.545 148.079 179.231C156.004 179.158 179.62 176.769 187.23 151.523C192.215 134.981 187.907 123.63 184.811 119.263C184.062 118.208 182.729 117.645 181.493 118.032C177.834 119.174 175.567 113.903 171.41 114.4C167.353 114.883 163.343 116.934 163.631 115.68C163.8 114.945 166.057 113.371 167.897 112.193C168.046 112.097 167.92 111.872 167.761 111.948C165.48 113.003 162.643 114.155 162.09 113.506C161.52 112.845 164.599 110.608 166.501 109.328C166.641 109.232 166.524 109.02 166.369 109.083C163.203 110.337 159.885 110.873 160.094 109.917C160.287 109.047 164.42 107.194 166.229 106.423C166.375 106.36 166.319 106.142 166.16 106.155C161.49 106.555 158.072 106.635 158.954 105.609C159.471 105.01 164.764 103.26 169.435 101.801C173.942 100.395 183.949 102.208 191.453 110.899C191.453 110.899 229.61 147.027 192.779 192.974C179.829 209.132 164.347 211.438 156.717 211.471V211.464Z" fill="white"/>
<path id="Vector_6" d="M101.444 188.987C92.8989 185.113 87.2576 176.766 86.7405 167.416C85.8588 151.533 90.1014 130.058 90.6848 128.113C91.7289 124.629 98.0861 120.192 96.1173 120.03C94.8909 119.928 93.6911 120.732 91.1157 122.3C88.8883 123.656 86.0577 123.6 83.9132 122.121C78.7956 118.594 78.305 112.186 78.305 112.186C71.2484 117.754 75.2623 124.51 76.081 129.095C76.903 133.681 64.6027 150.047 64.5928 176.435C64.5861 194.092 75.6633 206.782 75.6633 206.782C77.1051 208.619 78.0962 209.628 78.0962 209.628C90.4992 223.212 104.563 225.247 111.722 225.273C112.382 225.273 113.008 225.409 113.582 225.65C114.188 222.355 114.785 219.053 115.424 215.761C116.883 208.261 117.897 200.354 120.36 193.036C116.528 193 109.031 192.424 101.45 188.987H101.444Z" fill="white"/>
<path id="Vector_7" d="M102.359 101.831C102.213 100.385 94.6755 99.7069 88.295 100.481C83.9165 101.01 80.7014 102.244 79.2994 103.528C78.5602 104.203 78.2255 105.212 79.7004 105.804C81.5798 106.559 85.7395 107.816 91.9675 106.85C100.668 105.5 102.504 103.28 102.359 101.834V101.831ZM91.5201 106.132C87.2145 106.8 84.3375 105.93 83.0382 105.411C82.0173 105 82.2493 104.302 82.7598 103.836C83.7276 102.949 85.9517 102.096 88.9811 101.728C93.3928 101.196 98.6065 101.662 98.706 102.661C98.8054 103.66 97.536 105.196 91.5201 106.132Z" fill="white"/>
<path id="Vector_8" d="M97.7545 113.787C94.4267 114.743 90.1874 113.403 90.5188 115.891C90.847 118.379 87.7777 117.168 88.2285 119.018C88.5169 120.212 88.4075 121.483 88.1025 122.237C87.0353 122.21 85.9812 121.876 84.9802 121.188C79.8394 117.645 79.203 111.253 79.203 111.253C79.1301 110.674 79.0207 109.787 78.918 108.927C79.9952 109.989 83.7804 113.311 87.7777 112.186C92.5109 110.849 92.0634 113.595 94.1715 111.362C96.2828 109.129 101.079 112.828 97.7545 113.787Z" fill="black"/>
<path id="Vector_9" d="M101.832 128.315C101.384 128.334 100.894 128.341 100.44 128.324C99.0906 128.275 98.5901 129.502 96.9959 130.035C95.4016 130.564 94.8116 128.619 96.2103 127.028C97.6124 125.436 99.3591 128.09 100.068 123.55C100.569 120.328 102.531 118.029 103.625 116.967C103.661 117.513 103.691 117.992 103.718 118.393C103.893 121.228 104.115 125.208 101.832 128.315Z" fill="black"/>
</g>
<path id="Vector_10" d="M106.589 403C107.739 396.797 110.036 380.275 101.886 380.275C92.9265 380.275 73.384 395.533 78.7403 403H67.5968C71.3588 395.444 76.4996 383.15 70.5965 382.336C62.0383 381.158 67.0565 390.587 56.7251 387.05C46.3937 383.517 64.3983 376.738 57.0201 373.499C49.7944 370.323 25.2934 389.978 36.2181 403H32.1048C30.0431 403 28.0411 402.755 26.122 402.295C25.4856 402.143 24.8791 401.945 24.2924 401.71C21.4585 400.575 19.1383 398.577 16.7286 396.707C21.886 389.383 26.9142 379.448 19.831 375.56C14.2527 372.497 8.49864 374.303 4.087 377.529L2.95674 370.24C2.69158 368.546 2.54242 366.839 2.50928 365.126L2.45293 362.221L2.28058 353.444L2.2176 350.268C2.20434 349.613 2.1712 348.958 2.11816 348.306C8.34949 346.979 20.3614 345.163 26.3242 349.262C34.5873 354.939 37.2456 349.636 47.5737 356.117C57.9051 362.598 30.7524 355.528 31.3424 365.84C31.9324 376.149 55.8401 358.826 63.5133 363.362C71.1864 367.901 60.5634 373.499 73.8447 372.616C87.126 371.732 90.0793 364.07 109.559 364.659C129.038 365.251 105.721 384.989 118.412 391.765C128.15 396.962 130.242 401.273 130.689 403H106.589Z" fill="white"/>
<path id="Vector_11" d="M190.775 403C191.043 400.813 191.109 397.048 190.161 390.967C188.391 379.613 177.268 382.64 170.188 378.372C163.111 374.101 157.55 390.461 148.196 376.837C138.842 363.21 128.478 376.08 125.584 379.358C122.687 382.64 122.157 389.703 134.795 392.228C143.479 393.961 145.839 399.625 146.469 403H163.678C153.701 396.095 160.102 390.461 171.454 390.461C180.016 390.461 178.299 398.672 176.797 403H190.775Z" fill="white"/>
<path id="Vector_12" d="M267.821 374.799L267.486 376.86C264.602 368.993 260.88 362.376 257.155 365.734C249.823 372.341 257.31 382.038 261.619 393.793C259.79 396.016 257.576 397.922 255.08 399.414C253.893 400.122 252.644 400.737 251.341 401.246C250.237 401.677 249.097 402.037 247.924 402.312C251.341 397.174 254.702 389.455 247.294 385.919C235.667 380.367 248.053 373.304 237.688 372.546C227.324 371.789 224.795 378.604 230.86 386.928C235.053 392.678 237.433 399.394 237.254 403H219.273C217.095 399.529 213.297 395.308 207.858 395.761C201.951 396.254 201.901 400.254 202.594 403H197.278C195.836 399.48 187.917 378.935 199.008 377.089C211.142 375.071 207.35 389.885 212.912 390.299C218.474 390.716 225.806 371.64 205.581 370.704C185.359 369.771 192.873 352.613 204.662 353.874C216.452 355.134 214.934 365.48 224.543 354.883C234.149 344.286 236.422 374.564 244.765 363.461C253.108 352.359 243.641 349.632 255.385 345.295C260.489 343.409 264.45 344.068 267.3 345.414C267.131 347.386 266.962 349.368 266.82 351.055C266.588 353.877 266.571 356.712 266.764 359.538L266.956 362.3V362.366L267.821 374.799Z" fill="white"/>
<path id="Vector_13" d="M148.763 352.587C145.256 351.651 141.461 352.855 139.326 355.786C138.15 357.401 137.646 359.296 139.045 361.225C142.777 366.37 157.255 358.777 158.236 365.635C159.217 372.494 160.377 374.135 162.578 373.569C164.779 373.003 168.832 366.585 174.908 369.662C180.983 372.738 181.865 376.166 187.062 375.551C189.492 375.263 194.371 370.363 189.704 366.32C185.037 362.277 189.886 351.267 195.965 350.384C204.172 349.186 205.547 349.775 210.304 351.27C213.045 352.131 222.203 348.213 211.633 340.743C201.066 333.269 197.629 322.898 188.998 328.525C180.367 334.153 167.42 324.393 164.603 329.667C161.786 334.94 198.159 338.457 184.772 343.82C171.385 349.183 159.76 346.106 160.201 339.337C160.642 332.568 142.293 339.373 151.922 342.765C156.413 344.346 160.463 353.576 154.477 353.401C152.17 353.335 150.254 352.991 148.766 352.594L148.763 352.587Z" fill="white"/>
<path id="Vector_14" d="M69.2073 351.237C52.1805 350.784 60.563 344.508 50.0824 343.463C39.6052 342.417 34.8886 330.388 16.0256 337.448C9.56225 339.866 4.79264 341.09 1.31238 341.65C1.2958 341.206 1.27592 340.657 1.25272 340.038C1.18974 338.341 1.11682 336.111 1.07373 334.057C14.1695 333.422 34.703 331.218 30.1753 323.609C25.4057 315.596 9.45287 320.635 1.13671 323.96C1.14665 323.305 1.15659 322.643 1.16654 321.968C1.18311 320.903 1.19637 319.811 1.21294 318.696C10.6295 315.563 14.3286 311.345 8.16683 308.946C5.38925 307.864 3.15194 306.885 1.36541 306.035C1.41844 301.297 1.46485 296.318 1.51125 291.2C4.88545 289.357 14.0999 285.119 17.0763 291.928C20.7422 300.318 7.90499 302.148 14.7164 303.454C17.6961 304.027 21.1234 302.548 24.9185 301.052C27.0365 300.219 29.2672 299.378 31.5973 298.889C34.6367 298.247 37.8385 298.201 41.1763 299.534C44.3218 300.791 47.0463 302.283 49.0152 303.832C49.0152 303.832 49.0152 303.832 49.0152 303.835C51.4911 305.783 52.7805 307.828 52.2303 309.611C51.7629 311.133 49.9565 312.466 46.4132 313.393C35.409 316.268 33.8379 323.887 47.7225 323.609C53.9903 323.48 60.5895 321.865 66.1579 321.194C68.1997 320.946 70.1022 320.823 71.8026 320.949C75.7303 321.24 78.5543 322.845 79.4459 327.252C81.776 338.755 91.176 332.482 91.4545 339.542C91.7329 346.602 86.2307 351.691 69.2007 351.237H69.2073Z" fill="white"/>
<path id="Vector_15" d="M266.707 311.844C266.329 312.271 266.031 312.784 265.826 313.402C261.716 325.713 264.596 334.004 250.947 336.743C241.437 338.652 237.692 323.205 232.256 322.798C226.824 322.388 221.921 310.736 236.668 319.119C251.414 327.499 256.943 305.83 252.422 300.516C247.897 295.2 236.668 311.351 230.94 310.736C225.213 310.124 224.175 301.744 232.256 300.721C240.34 299.699 240.559 275.168 261.53 288.312C263.529 289.566 265.398 290.528 267.141 291.236C266.88 297.688 266.442 304.208 266.707 311.844Z" fill="white"/>
<path id="Vector_16" d="M239.936 342.711C240.131 345.266 240.993 347.707 242.306 349.907C243.36 351.671 243.512 353.755 239.571 354.79C232.004 356.775 234.632 342.354 226.356 344.799C218.08 347.241 225.716 328.568 237.142 337.005C239.114 338.46 239.783 340.72 239.936 342.715V342.711Z" fill="white"/>
<path id="Vector_17" d="M77.749 355.379C79.572 355.991 81.511 356.114 83.4136 355.853C84.9382 355.644 86.4265 356.147 85.9889 359.164C85.1471 364.957 75.9492 358.926 75.2167 365.341C74.4842 371.753 63.8114 361.033 72.986 355.634C74.5704 354.701 76.3238 354.903 77.749 355.383V355.379Z" fill="white"/>
<path id="Vector_18" d="M81.6472 93.551C81.498 93.7726 81.5676 94.0737 81.7963 94.2126C82.6879 94.7486 84.6236 96.2307 84.4082 98.8774C84.1331 102.239 84.6037 103.023 85.4291 104.677C85.5252 104.869 85.7406 104.971 85.9494 104.928L86.2013 104.872C86.4963 104.809 86.6554 104.488 86.5262 104.214C86.0522 103.215 85.1506 100.939 85.4489 98.5466C85.7473 96.1547 83.384 94.0174 82.4095 93.2929C82.1941 93.1341 81.8891 93.187 81.74 93.4087L81.6505 93.5443L81.6472 93.551Z" fill="white"/>
<path id="Vector_19" d="M94.6397 92.8064C94.8287 92.9983 94.8187 93.306 94.6198 93.4847C93.8476 94.1827 92.2334 96.009 92.956 98.563C93.8708 101.809 93.5625 102.669 93.072 104.452C93.0156 104.66 92.8234 104.803 92.6079 104.796L92.3494 104.789C92.0478 104.783 91.829 104.498 91.9052 104.207C92.177 103.139 92.6245 100.727 91.8721 98.4406C91.0865 96.052 93.0256 93.5971 93.8442 92.7039C94.0265 92.5054 94.3348 92.4988 94.5237 92.6907L94.6397 92.8064Z" fill="white"/>
<path id="Vector_20" d="M207.686 62.9747L219.711 40.9508C219.711 40.9508 204.352 38.5953 203.023 50.383C202.807 61.2643 203.891 62.7167 203.891 62.7167L200.099 61.4098C200.099 61.4098 200.228 59.5274 198.747 59.4281C197.265 59.3289 196.874 59.9409 196.874 59.9409L200.6 62.1708L202.549 64.3675C202.549 64.3675 190.331 74.3158 206.9 86.3021C214.189 90.904 214.123 90.3251 214.123 90.3251L207.428 67.8877C207.428 67.8877 213.235 72.8039 221.242 66.8521C229.25 60.9004 229.035 60.2089 229.035 60.2089C229.035 60.2089 214.773 65.4792 207.683 62.9681L207.686 62.9747Z" fill="white"/>
<path id="Vector_21" d="M121.054 42.2314L135.409 26.3281C135.409 26.3281 123.129 21.3357 119.682 30.8572C117.342 39.8461 117.955 41.2654 117.955 41.2654L115.068 39.4293C115.068 39.4293 115.549 37.8909 114.339 37.517C113.129 37.1399 112.685 37.5733 112.685 37.5733L115.333 40.1637L116.513 42.3737C116.513 42.3737 104.395 48.2163 115.771 61.4432C120.908 66.7035 120.968 66.2139 120.968 66.2139L119.864 46.2644C119.864 46.2644 123.709 51.4949 131.538 48.1369C139.367 44.7789 139.327 44.1668 139.327 44.1668C139.327 44.1668 126.44 45.7218 121.054 42.2348V42.2314Z" fill="white"/>
<path id="Vector_22" d="M34.1238 66.3861L39.6325 51.376C39.6325 51.376 29.7287 51.3297 30.0005 58.886C30.8888 65.7641 31.7075 66.578 31.7075 66.578L29.195 66.1082C29.195 66.1082 29.0989 64.9106 28.1576 64.9833C27.2163 65.0561 27.0273 65.4829 27.0273 65.4829L29.5862 66.5416L31.0214 67.7458C31.0214 67.7458 24.2564 75.1632 35.8274 81.1646C40.8523 83.3812 40.7595 83.0239 40.7595 83.0239L34.4287 69.5092C34.4287 69.5092 38.552 72.0633 43.0399 67.5606C47.5277 63.0579 47.3289 62.6443 47.3289 62.6443C47.3289 62.6443 38.8337 67.3025 34.1304 66.3861H34.1238Z" fill="white"/>
<path id="Vector_23" d="M183.151 29.1334C183.095 29.8083 183.682 30.3641 184.358 30.2979C185.19 30.2185 185.998 30.1424 186.807 30.0961C187.331 30.0664 189.704 30.0531 190.751 31.7834C190.987 32.1705 191.046 32.766 190.669 33.1498C190.261 33.5633 189.787 33.785 189.16 33.8114C187.563 33.8809 185.176 32.8818 183.761 32.2135C183.174 31.9356 182.465 32.2201 182.256 32.8322C182.23 32.9083 182.203 32.981 182.173 33.0538C181.802 33.9702 181.481 34.9297 180.96 35.7601C180.579 36.3688 179.979 36.9213 179.346 37.2687C178.945 37.4904 178.13 37.4904 177.831 37.2224C177.503 36.9279 177.377 36.1802 177.47 35.684C177.845 33.6526 179.353 32.5013 180.993 31.489C180.997 31.489 181 31.4857 181.003 31.4823C181.554 31.1449 181.723 30.4237 181.348 29.8943C181.007 29.4113 180.679 28.9283 180.403 28.4188C179.91 27.4924 179.509 26.5065 179.17 25.514C178.912 24.7564 179.581 23.6216 180.364 23.4264C180.652 23.3537 181.073 23.4297 181.315 23.6018C182.369 24.3495 182.899 25.4082 183.019 26.6951C183.095 27.5189 183.211 28.3394 183.145 29.1301L183.151 29.1334Z" fill="white"/>
<path id="Vector_24" d="M68.3888 30.235C68.0607 30.5361 68.1004 31.0654 68.4584 31.3334C68.8959 31.6609 69.3202 31.9819 69.7345 32.316C70.003 32.531 71.1564 33.5732 70.8979 34.8734C70.8415 35.1645 70.6062 35.4788 70.2549 35.4987C69.8737 35.5185 69.5489 35.416 69.2307 35.1546C68.4252 34.483 67.7126 32.9446 67.3248 31.9984C67.1657 31.6047 66.6951 31.4294 66.3205 31.6345C66.2741 31.6609 66.2277 31.6841 66.1813 31.7073C65.5946 31.9885 65.0146 32.3094 64.3948 32.4814C63.9407 32.6071 63.4037 32.6104 62.9463 32.5013C62.6546 32.4318 62.2602 32.0712 62.2337 31.8098C62.2039 31.522 62.4757 31.1051 62.7408 30.9066C63.8214 30.0895 65.0643 30.1953 66.3039 30.4302H66.3106C66.7282 30.5096 67.126 30.235 67.1823 29.8149C67.232 29.4311 67.285 29.0506 67.3812 28.6834C67.5502 28.0184 67.7955 27.3634 68.0706 26.7315C68.2794 26.2484 69.108 25.997 69.5754 26.2484C69.7477 26.3411 69.9168 26.5627 69.9566 26.7546C70.1355 27.5817 69.9234 28.3294 69.413 29.0043C69.0848 29.4377 68.7766 29.8843 68.3954 30.2383L68.3888 30.235Z" fill="white"/>
<path id="Vector_25" d="M38.2101 128.703C38.4421 129.186 39.0685 129.331 39.5027 129.014C40.0364 128.627 40.5601 128.253 41.0937 127.895C41.4384 127.664 43.0526 126.708 44.4613 127.465C44.7762 127.634 45.0579 128.018 44.9551 128.428C44.8458 128.875 44.6104 129.212 44.1928 129.483C43.1321 130.172 41.1003 130.446 39.8673 130.555C39.3569 130.602 38.989 131.078 39.0917 131.581C39.105 131.644 39.1149 131.703 39.1249 131.766C39.2409 132.54 39.4066 133.321 39.3834 134.095C39.3668 134.664 39.1812 135.28 38.8895 135.769C38.7039 136.08 38.1504 136.408 37.8388 136.345C37.4974 136.276 37.1096 135.816 36.9737 135.442C36.4136 133.907 36.9804 132.517 37.6897 131.171C37.6897 131.171 37.6897 131.164 37.693 131.161C37.9316 130.708 37.756 130.152 37.2919 129.94C36.8644 129.748 36.4467 129.55 36.0556 129.311C35.3463 128.878 34.6768 128.365 34.047 127.823C33.5664 127.409 33.5664 126.367 34.0238 125.92C34.1928 125.755 34.5077 125.639 34.7431 125.659C35.7606 125.748 36.5495 126.254 37.1494 127.085C37.5339 127.614 37.9416 128.13 38.2134 128.696L38.2101 128.703Z" fill="white"/>
<path id="Vector_26" d="M234.861 152.612C235.312 152.708 235.736 152.361 235.753 151.901C235.769 151.335 235.789 150.786 235.829 150.237C235.852 149.883 236.051 148.288 237.307 147.732C237.589 147.606 237.993 147.62 238.219 147.904C238.464 148.212 238.57 148.549 238.534 148.973C238.444 150.051 237.562 151.57 236.989 152.46C236.75 152.83 236.883 153.33 237.277 153.522C237.327 153.545 237.374 153.571 237.42 153.598C238.007 153.925 238.623 154.223 239.137 154.647C239.515 154.958 239.836 155.408 240.015 155.861C240.128 156.149 240.062 156.698 239.853 156.873C239.624 157.068 239.11 157.088 238.785 156.982C237.45 156.556 236.803 155.444 236.263 154.256C236.263 154.256 236.263 154.253 236.26 154.25C236.081 153.849 235.607 153.677 235.219 153.882C234.864 154.071 234.51 154.25 234.142 154.389C233.476 154.64 232.776 154.825 232.077 154.968C231.543 155.077 230.837 154.528 230.774 153.985C230.751 153.783 230.837 153.509 230.976 153.36C231.57 152.718 232.329 152.453 233.207 152.483C233.767 152.503 234.331 152.496 234.858 152.609L234.861 152.612Z" fill="white"/>
<path id="Vector_27" d="M47.7094 169.806C47.6398 169.373 47.0797 169.224 46.7979 169.561C46.4267 170.001 46.0787 170.745 46.4134 171.837C46.9073 173.445 47.9381 171.232 47.7127 169.806H47.7094Z" fill="white"/>
<path id="Vector_28" d="M50.9909 231.758C50.8417 231.874 50.6329 231.864 50.4837 231.749C50.0959 231.451 49.0187 230.67 49.3038 229.641C49.5888 228.612 50.6992 229.314 50.2948 230.256C49.8573 231.279 51.4052 231.434 50.9942 231.755L50.9909 231.758Z" fill="white"/>
<path id="Vector_29" d="M28.9524 191.469C28.6077 191.244 28.1502 191.578 28.2563 191.975C28.3723 192.402 28.6971 192.865 29.4131 193.285C31.5046 194.513 32.7939 192.18 31.0107 191.873C29.96 191.691 29.3137 191.704 28.9524 191.466V191.469Z" fill="white"/>
<path id="Vector_30" d="M36.3967 86.5306C36.052 86.3056 35.5946 86.6398 35.7007 87.0368C35.8167 87.4636 36.1415 87.9267 36.8574 88.3469C38.9489 89.5743 40.2382 87.2419 38.455 86.9342C37.4043 86.7523 36.758 86.7655 36.3967 86.5273V86.5306Z" fill="white"/>
<path id="Vector_31" d="M67.4011 84.1058C67.0564 83.8808 66.599 84.215 66.705 84.612C66.8211 85.0388 67.1459 85.5019 67.8618 85.9221C69.9533 87.1495 71.2426 84.8171 69.4594 84.5094C68.4087 84.3275 67.7624 84.3407 67.4011 84.1025V84.1058Z" fill="white"/>
<path id="Vector_32" d="M43.8413 264.23C43.5032 263.982 43.0425 264.273 43.1054 264.687C43.4236 266.751 45.5648 268.263 46.7813 267.234C47.7259 266.437 46.652 266.285 44.8754 264.985L43.8413 264.23Z" fill="white"/>
<path id="Vector_33" d="M97.033 144.993C97.1788 144.474 96.6219 144.053 96.1513 144.315C93.8079 145.625 92.9528 148.877 94.7393 149.873C96.1281 150.647 95.8265 149.287 96.5888 146.574L97.033 144.993Z" fill="white"/>
<path id="Vector_34" d="M215.677 122.632C215.823 122.112 215.266 121.692 214.795 121.953C212.452 123.264 211.597 126.516 213.383 127.511C214.772 128.286 214.47 126.926 215.233 124.213L215.677 122.632Z" fill="white"/>
<path id="Vector_35" d="M243.32 64.0535C243.466 63.5341 242.909 63.1139 242.438 63.3753C240.095 64.6854 239.24 67.9375 241.026 68.9334C242.415 69.7075 242.114 68.3478 242.876 65.6349L243.32 64.0535Z" fill="white"/>
<path id="Vector_36" d="M232.548 195.012C232.693 194.493 232.137 194.073 231.666 194.334C229.323 195.644 228.467 198.897 230.254 199.892C231.643 200.667 231.341 199.307 232.103 196.594L232.548 195.012Z" fill="white"/>
<path id="Vector_37" d="M259.565 171.182C259.711 170.663 259.154 170.242 258.683 170.504C256.34 171.814 255.484 175.066 257.271 176.062C258.66 176.836 258.358 175.476 259.121 172.763L259.565 171.182Z" fill="white"/>
<path id="Vector_38" d="M47.5569 194.499C47.2752 194.609 46.5758 195.634 47.5569 196.12C48.538 196.607 48.5513 194.116 47.5569 194.499Z" fill="white"/>
<path id="Vector_39" d="M8.79324 193.209C8.51151 193.318 7.81214 194.344 8.79324 194.83C9.77435 195.317 9.7876 192.826 8.79324 193.209Z" fill="white"/>
<path id="Vector_40" d="M73.4036 180.541C73.1219 180.651 72.4225 181.676 73.4036 182.162C74.3847 182.649 74.398 180.158 73.4036 180.541Z" fill="white"/>
<path id="Vector_41" d="M54.9485 219.719C54.6668 219.828 53.9674 220.854 54.9485 221.34C55.9296 221.827 55.9429 219.335 54.9485 219.719Z" fill="white"/>
<path id="Vector_42" d="M129.028 124.842C128.746 124.951 128.047 125.976 129.028 126.463C130.009 126.949 130.022 124.458 129.028 124.842Z" fill="white"/>
<path id="Vector_43" d="M70.5896 251.142C70.3079 251.252 69.6085 252.277 70.5896 252.764C71.5707 253.25 71.584 250.759 70.5896 251.142Z" fill="white"/>
<path id="Vector_44" d="M38.9062 203.899C38.6012 204.014 37.8555 205.116 38.9062 205.636C39.9569 206.158 39.9701 203.485 38.9062 203.899Z" fill="white"/>
<path id="Vector_45" d="M25.7239 156.228C25.4422 156.338 24.7428 157.363 25.7239 157.849C26.705 158.336 26.7183 155.845 25.7239 156.228Z" fill="white"/>
<path id="Vector_46" d="M44.3816 133.612C44.0999 133.721 43.4005 134.747 44.3816 135.233C45.3627 135.72 45.376 133.228 44.3816 133.612Z" fill="white"/>
<path id="Vector_47" d="M133.884 114.698C133.602 114.807 132.903 115.833 133.884 116.319C134.865 116.806 134.878 114.314 133.884 114.698Z" fill="white"/>
<path id="Vector_48" d="M153.48 148.152C153.052 148.318 152.001 149.866 153.48 150.597C154.958 151.332 154.978 147.573 153.48 148.152Z" fill="white"/>
<path id="Vector_49" d="M154.477 132.557C154.196 132.666 153.496 133.692 154.477 134.178C155.458 134.664 155.472 132.173 154.477 132.557Z" fill="white"/>
<path id="Vector_50" d="M60.3113 164.267C60.0296 164.377 59.3302 165.402 60.3113 165.889C61.2924 166.375 61.3057 163.884 60.3113 164.267Z" fill="white"/>
<path id="Vector_51" d="M71.8094 172.529C71.5276 172.638 70.8283 173.663 71.8094 174.15C72.7905 174.636 72.8037 172.145 71.8094 172.529Z" fill="white"/>
<path id="Vector_52" d="M38.2628 170.97C37.8683 170.633 37.2386 171.341 37.6032 172.939C37.9678 174.536 39.4792 173.719 38.7566 172.939C38.0341 172.158 38.6506 171.301 38.2661 170.97H38.2628Z" fill="white"/>
<path id="Vector_53" d="M38.2628 158.293C37.8683 157.955 37.2386 158.663 37.6032 160.261C37.9678 161.859 39.4792 161.042 38.7566 160.261C38.0341 159.481 38.6506 158.624 38.2661 158.293H38.2628Z" fill="white"/>
<path id="Vector_54" d="M12.4195 211.362C12.0251 211.025 11.3953 211.733 11.7599 213.331C12.1245 214.929 13.636 214.111 12.9134 213.331C12.1908 212.55 12.8073 211.693 12.4228 211.362H12.4195Z" fill="white"/>
<path id="Vector_55" d="M18.0079 264.412C17.5008 264.518 17.6765 265.448 19.1647 266.136C20.6529 266.824 20.928 265.127 19.8674 265.223C18.8067 265.319 18.5018 264.306 18.0046 264.412H18.0079Z" fill="white"/>
<path id="Vector_56" d="M95.9292 230.501C94.8122 230.299 94.4078 232.331 96.8606 234.941C99.3133 237.551 101.262 234.342 99.0349 233.671C96.8076 232.999 97.023 230.7 95.9292 230.501Z" fill="white"/>
<path id="Vector_57" d="M115.163 117.5C114.646 118.509 116.476 119.485 119.691 117.897C122.906 116.309 120.394 113.517 119.101 115.449C117.812 117.381 115.667 116.511 115.163 117.497V117.5Z" fill="white"/>
<path id="Vector_58" d="M23.4932 207.733C23.291 207.637 23.0689 207.822 23.1385 208.034C23.3109 208.557 23.755 209.139 24.8986 209.003C26.9005 208.772 25.2433 208.147 24.1528 207.935C23.8644 207.879 23.649 207.806 23.4899 207.73L23.4932 207.733Z" fill="white"/>
<path id="Vector_59" d="M25.396 232.099C25.1938 232.003 24.9718 232.189 25.0414 232.4C25.2137 232.923 25.6579 233.505 26.8014 233.37C28.8034 233.138 27.1461 232.513 26.0556 232.301C25.7672 232.245 25.5518 232.172 25.3927 232.096L25.396 232.099Z" fill="white"/>
<path id="Vector_60" d="M55.8828 287.564C55.6807 287.468 55.4586 287.653 55.5282 287.865C55.7005 288.388 56.1447 288.97 57.2882 288.834C59.2902 288.603 57.6329 287.978 56.5424 287.766C56.2541 287.71 56.0386 287.637 55.8795 287.561L55.8828 287.564Z" fill="white"/>
<path id="Vector_61" d="M101.833 172.72C101.63 172.624 101.408 172.81 101.478 173.021C101.65 173.544 102.094 174.126 103.238 173.991C105.24 173.759 103.583 173.134 102.492 172.922C102.204 172.866 101.988 172.793 101.829 172.717L101.833 172.72Z" fill="white"/>
<path id="Vector_62" d="M221.175 138.174C220.973 138.078 220.751 138.264 220.821 138.475C220.993 138.998 221.437 139.58 222.581 139.445C224.583 139.213 222.925 138.588 221.835 138.376C221.547 138.32 221.331 138.247 221.172 138.171L221.175 138.174Z" fill="white"/>
<path id="Vector_63" d="M99.3662 77.9059C99.1641 77.8099 98.942 77.9952 99.0116 78.2069C99.1839 78.7297 99.6281 79.3119 100.772 79.1763C102.774 78.9447 101.116 78.3194 100.026 78.1077C99.7375 78.0514 99.522 77.9787 99.3629 77.9026L99.3662 77.9059Z" fill="white"/>
<path id="Vector_64" d="M12.1148 225.995C11.9126 225.899 11.6905 226.085 11.7601 226.296C11.9325 226.819 12.3766 227.401 13.5201 227.266C15.5221 227.034 13.8648 226.409 12.7744 226.197C12.486 226.141 12.2706 226.068 12.1115 225.992L12.1148 225.995Z" fill="white"/>
<path id="Vector_65" d="M21.876 165.266C21.9157 164.76 21.3423 164.446 20.9479 164.764C19.9767 165.548 19.1017 166.957 20.3082 169.27C22.4162 173.316 22.4063 169.306 21.9754 166.831C21.8627 166.176 21.8428 165.663 21.8727 165.266H21.876Z" fill="white"/>
<path id="Vector_66" d="M131.252 240.562C131.09 240.486 130.911 240.635 130.967 240.807C131.106 241.227 131.464 241.697 132.389 241.591C134.007 241.402 132.667 240.899 131.789 240.727C131.557 240.681 131.385 240.625 131.256 240.562H131.252Z" fill="white"/>
<path id="Vector_67" d="M130.158 255.132C129.996 255.056 129.817 255.205 129.873 255.377C130.013 255.797 130.371 256.267 131.295 256.161C132.913 255.973 131.574 255.47 130.695 255.298C130.463 255.251 130.291 255.195 130.162 255.132H130.158Z" fill="white"/>
<path id="Vector_68" d="M36.5061 220.976C36.3437 220.9 36.1647 221.049 36.221 221.221C36.3603 221.641 36.7182 222.111 37.643 222.005C39.2605 221.817 37.9214 221.314 37.0431 221.142C36.811 221.096 36.6387 221.039 36.5094 220.976H36.5061Z" fill="white"/>
<path id="Vector_69" d="M103.589 143.723C103.427 143.646 103.248 143.795 103.304 143.967C103.443 144.388 103.801 144.857 104.726 144.751C106.343 144.563 105.004 144.06 104.126 143.888C103.894 143.842 103.722 143.785 103.592 143.723H103.589Z" fill="white"/>
<path id="Vector_70" d="M88.2991 245.263C88.1366 245.187 87.9577 245.336 88.014 245.508C88.1532 245.928 88.5112 246.398 89.4359 246.292C91.0534 246.103 89.7144 245.601 88.836 245.429C88.604 245.382 88.4316 245.326 88.3024 245.263H88.2991Z" fill="white"/>
<path id="Vector_71" d="M79.158 313.787C78.9955 313.71 78.8166 313.859 78.8729 314.031C79.0121 314.452 79.3701 314.921 80.2948 314.815C81.9123 314.627 80.5733 314.124 79.6949 313.952C79.4629 313.906 79.2905 313.849 79.1613 313.787H79.158Z" fill="white"/>
<path id="Vector_72" d="M121.335 232.877C122.021 233.181 122.893 233.353 124 233.264C124.139 233.254 124.275 233.201 124.388 233.128C125.697 232.275 123.811 231.884 121.875 231.358C120.911 231.094 120.42 232.473 121.335 232.877Z" fill="white"/>
<path id="Vector_73" d="M83.3076 225.512C84.0567 225.459 84.9085 225.201 85.8432 224.606C85.9592 224.533 86.0553 224.424 86.1216 224.301C86.8773 222.935 85.0278 223.474 83.0689 223.918C82.0944 224.136 82.3099 225.585 83.3076 225.512Z" fill="white"/>
<path id="Vector_74" d="M56.7086 118.288C57.3947 118.592 58.2664 118.764 59.3735 118.675C59.5127 118.665 59.6486 118.612 59.7613 118.539C61.0705 117.686 59.1845 117.295 57.2489 116.769C56.2843 116.505 55.7938 117.884 56.7086 118.288Z" fill="white"/>
<path id="Vector_75" d="M93.7848 111.201C94.4709 111.505 95.3426 111.677 96.4496 111.588C96.5888 111.578 96.7247 111.525 96.8374 111.452C98.1467 110.599 96.2607 110.208 94.325 109.682C93.3605 109.418 92.8699 110.797 93.7848 111.201Z" fill="white"/>
<path id="Vector_76" d="M41.7598 111.634C43.5496 104.644 52.0117 105.127 52.5652 106.758C53.1187 108.389 49.5423 106.808 46.7813 111.062C43.0226 116.858 40.3975 116.954 41.7598 111.634Z" fill="white"/>
<path id="Vector_77" d="M13.9974 39.0291C13.7786 38.6685 13.2085 38.7777 13.1323 39.1912C13.0528 39.6378 13.1456 40.2069 13.6228 40.9083C15.0116 42.9561 17.2291 41.3681 15.7176 40.3061C14.8293 39.6808 14.2261 39.4062 13.9941 39.0291H13.9974Z" fill="white"/>
<path id="Vector_78" d="M37.8156 145.8C37.5604 145.33 36.871 145.413 36.7185 145.923C35.9528 148.47 37.5869 151.375 39.5524 150.859C41.0771 150.455 39.9237 149.694 38.5912 147.233L37.8156 145.8Z" fill="white"/>
<path id="Vector_79" d="M191.524 219.296C191.268 218.826 190.579 218.909 190.427 219.418C189.661 221.966 191.295 224.871 193.26 224.354C194.785 223.951 193.632 223.19 192.299 220.728L191.524 219.296Z" fill="white"/>
<path id="Vector_80" d="M95.5083 167.814C95.2233 167.794 94.2156 168.383 94.852 169.19C95.4884 169.997 96.506 167.887 95.5083 167.814Z" fill="white"/>
<path id="Vector_81" d="M110.44 133.652C110.155 133.632 109.148 134.221 109.784 135.028C110.421 135.835 111.438 133.725 110.44 133.652Z" fill="white"/>
<path id="Vector_82" d="M24.2922 110.754C23.4834 110.175 22.3962 111.631 23.3541 114.622C24.312 117.613 27.0697 115.803 25.5583 114.433C24.0469 113.064 25.0843 111.323 24.2922 110.758V110.754Z" fill="white"/>
<path id="Vector_83" d="M59.8107 183.84C59.002 183.261 57.9148 184.717 58.8727 187.707C59.8306 190.698 62.5883 188.888 61.0769 187.519C59.5654 186.149 60.6029 184.409 59.8107 183.843V183.84Z" fill="white"/>
<path id="Vector_84" d="M113.5 94.229C112.691 93.6501 111.604 95.1058 112.562 98.0965C113.52 101.087 116.277 99.2776 114.766 97.908C113.254 96.5383 114.292 94.7981 113.5 94.2323V94.229Z" fill="white"/>
<path id="Vector_85" d="M22.9696 134.519C22.8469 134.366 22.6016 134.433 22.5751 134.624C22.5122 135.101 22.648 135.729 23.6026 136.054C25.2765 136.623 24.1993 135.504 23.417 134.925C23.2082 134.773 23.0657 134.634 22.9696 134.515V134.519Z" fill="white"/>
<path id="Vector_86" d="M147.487 112.379C147.364 112.227 147.119 112.293 147.092 112.485C147.029 112.961 147.165 113.59 148.12 113.914C149.794 114.483 148.716 113.365 147.934 112.786C147.725 112.634 147.583 112.495 147.487 112.376V112.379Z" fill="white"/>
<path id="Vector_87" d="M11.7502 142.35C12.1777 142.849 12.8042 143.312 13.7157 143.656C13.8284 143.699 13.9543 143.709 14.077 143.696C15.4359 143.514 14.0902 142.495 12.7545 141.35C12.0882 140.778 11.1801 141.688 11.7535 142.35H11.7502Z" fill="white"/>
<path id="Vector_88" d="M72.1076 153.029C72.5352 153.528 73.1616 153.991 74.0731 154.336C74.1858 154.379 74.3117 154.388 74.4344 154.375C75.7933 154.193 74.4476 153.174 73.1119 152.03C72.4457 151.457 71.5375 152.367 72.1109 153.029H72.1076Z" fill="white"/>
<path id="Vector_89" d="M53.5895 149.387C54.0171 149.886 54.6435 150.349 55.555 150.693C55.6677 150.736 55.7937 150.746 55.9163 150.733C57.2753 150.551 55.9296 149.532 54.5938 148.388C53.9276 147.815 53.0194 148.725 53.5928 149.387H53.5895Z" fill="white"/>
<path id="Vector_90" d="M101.872 277.156C101.78 276.574 101.024 276.375 100.646 276.825C100.149 277.417 99.6781 278.417 100.129 279.885C100.792 282.046 102.177 279.075 101.872 277.156Z" fill="white"/>
<path id="Vector_91" d="M152.021 180.257C151.64 180.403 150.705 181.782 152.021 182.434C153.337 183.086 153.357 179.741 152.021 180.257Z" fill="white"/>
<path id="Vector_92" d="M56.453 53.1788C56.1215 53.3045 55.3128 54.5021 56.453 55.0679C57.5932 55.6336 57.6098 52.7322 56.453 53.1788Z" fill="white"/>
<path id="Vector_93" d="M230.639 48.5635C230.307 48.6893 229.498 49.8869 230.639 50.4526C231.779 51.0184 231.795 48.1169 230.639 48.5635Z" fill="white"/>
<path id="Vector_94" d="M62.0946 102.418C61.7631 102.543 60.9544 103.741 62.0946 104.307C63.2348 104.872 63.2514 101.971 62.0946 102.418Z" fill="white"/>
<path id="Vector_95" d="M76.0257 32.2664C75.7439 32.3756 75.0446 33.4012 76.0257 33.8875C77.0068 34.3739 77.02 31.8827 76.0257 32.2664Z" fill="white"/>
<path id="Vector_96" d="M242.213 84.3338C241.931 84.443 241.232 85.4686 242.213 85.9549C243.194 86.4413 243.208 83.9501 242.213 84.3338Z" fill="white"/>
<path id="Vector_97" d="M104.272 33.1268C103.99 33.236 103.291 34.2616 104.272 34.7479C105.253 35.2342 105.266 32.743 104.272 33.1268Z" fill="white"/>
<path id="Vector_98" d="M64.2059 14.2325C63.8745 14.3582 63.0657 15.5558 64.2059 16.1216C65.3461 16.6873 65.3627 13.7859 64.2059 14.2325Z" fill="white"/>
<path id="Vector_99" d="M203.691 54.1846C203.36 54.3104 202.551 55.508 203.691 56.0737C204.831 56.6395 204.848 53.738 203.691 54.1846Z" fill="white"/>
<path id="Vector_100" d="M143.927 220.838C143.546 220.983 142.611 222.363 143.927 223.014C145.243 223.669 145.263 220.321 143.927 220.838Z" fill="white"/>
<path id="Vector_101" d="M126.479 219.438C126.098 219.584 125.164 220.963 126.479 221.615C127.795 222.267 127.815 218.922 126.479 219.438Z" fill="white"/>
<path id="Vector_102" d="M149.989 189.583C149.608 189.729 148.673 191.108 149.989 191.76C151.305 192.412 151.325 189.067 149.989 189.583Z" fill="white"/>
<path id="Vector_103" d="M51.0009 37.1795C50.5402 36.7858 49.8077 37.6129 50.232 39.4722C50.6562 41.3315 52.4196 40.3787 51.5744 39.4722C50.7325 38.5657 51.4517 37.5633 51.0009 37.1795Z" fill="white"/>
<path id="Vector_104" d="M75.25 50.2442C74.1893 50.0556 73.8048 51.9778 76.1316 54.4558C78.4585 56.9338 80.308 53.8867 78.1933 53.2515C76.0786 52.6163 76.2841 50.4328 75.2467 50.2475L75.25 50.2442Z" fill="white"/>
<path id="Vector_105" d="M20.58 70.3196C20.6264 69.7307 19.9602 69.3635 19.4994 69.734C18.3692 70.6471 17.3483 72.2881 18.7537 74.9844C21.2097 79.6989 21.1998 75.0274 20.696 72.1425C20.5634 71.3783 20.5402 70.7828 20.5767 70.3196H20.58Z" fill="white"/>
<path id="Vector_106" d="M142.565 31.1815C142.402 31.1055 142.223 31.2543 142.28 31.4264C142.419 31.8465 142.777 32.3163 143.702 32.2104C145.319 32.0219 143.98 31.519 143.102 31.347C142.87 31.3006 142.697 31.2444 142.568 31.1815H142.565Z" fill="white"/>
<path id="Vector_107" d="M233.337 29.9042C233.174 29.8281 232.995 29.977 233.052 30.149C233.191 30.5692 233.549 31.039 234.474 30.9331C236.091 30.7445 234.752 30.2417 233.874 30.0696C233.642 30.0233 233.469 29.9671 233.34 29.9042H233.337Z" fill="white"/>
<path id="Vector_108" d="M153.798 165.439C153.635 165.363 153.456 165.512 153.513 165.684C153.652 166.104 154.01 166.574 154.934 166.468C156.552 166.279 155.213 165.776 154.335 165.604C154.103 165.558 153.93 165.502 153.801 165.439H153.798Z" fill="white"/>
<path id="Vector_109" d="M57.4308 71.7258C58.2296 72.0798 59.2472 72.2783 60.5332 72.1757C60.6923 72.1625 60.8514 72.1029 60.9873 72.0169C62.5153 71.0244 60.3178 70.5712 58.0606 69.9558C56.937 69.6481 56.3669 71.256 57.4308 71.7258Z" fill="white"/>
<path id="Vector_110" d="M102.688 259.235C99.3135 256.538 101.66 252.055 102.688 252.158C103.715 252.261 101.968 253.815 103.612 256.363C105.85 259.833 105.256 261.286 102.688 259.235Z" fill="white"/>
<path id="Vector_111" d="M131.298 278.244C130.808 277.884 130.138 278.307 130.228 278.906C130.689 281.903 133.798 284.097 135.564 282.605C136.936 281.447 135.375 281.225 132.8 279.339L131.298 278.241V278.244Z" fill="white"/>
<path id="Vector_112" d="M136.274 269.031C137.195 269.438 138.368 269.669 139.853 269.55C140.039 269.537 140.221 269.467 140.377 269.368C142.137 268.223 139.605 267.697 137.003 266.989C135.707 266.635 135.047 268.488 136.277 269.031H136.274Z" fill="white"/>
<path id="Vector_113" d="M93.5392 21.8122C94.338 22.1662 95.3556 22.3647 96.6416 22.2622C96.8007 22.2489 96.9598 22.1894 97.0957 22.1034C98.6237 21.1108 96.4262 20.6576 94.169 20.0422C93.0454 19.7346 92.4753 21.3424 93.5392 21.8122Z" fill="white"/>
<path id="Vector_114" d="M180.599 23C180.304 22.4541 179.499 22.55 179.32 23.1422C178.428 26.1098 180.33 29.4943 182.618 28.8922C184.394 28.4224 183.052 27.5357 181.501 24.6707L180.596 23H180.599Z" fill="white"/>
<path id="Vector_115" d="M175.534 62.9088C175.203 62.8856 174.03 63.5705 174.772 64.5133C175.511 65.4529 176.698 62.9948 175.534 62.9088Z" fill="white"/>
<path id="Vector_116" d="M202.664 100.906C199.29 98.2092 201.636 93.7263 202.664 93.8289C203.691 93.9314 201.944 95.4864 203.588 98.0338C205.826 101.504 205.233 102.957 202.664 100.906Z" fill="white"/>
<path id="Vector_117" d="M165.899 156.268C163.089 154.025 165.044 150.289 165.899 150.375C166.754 150.462 165.303 151.755 166.668 153.876C168.531 156.767 168.037 157.975 165.899 156.268Z" fill="white"/>
<path id="Vector_118" d="M134.507 59.2035C134.225 59.3126 133.526 60.3382 134.507 60.8246C135.488 61.3109 135.501 58.8197 134.507 59.2035Z" fill="white"/>
<path id="Vector_119" d="M183.585 82.7889C183.397 82.6996 183.191 82.8716 183.257 83.0701C183.416 83.5564 183.831 84.099 184.901 83.9766C186.771 83.7582 185.223 83.176 184.205 82.9775C183.937 82.9245 183.735 82.8584 183.589 82.7889H183.585Z" fill="white"/>
<path id="Vector_120" d="M149.989 79.9767C149.608 80.1223 148.673 81.5018 149.989 82.1536C151.305 82.8087 151.325 79.4606 149.989 79.9767Z" fill="white"/>
<path id="Vector_121" d="M186.794 62.191C186.413 62.3366 185.478 63.7162 186.794 64.368C188.11 65.023 188.13 61.6749 186.794 62.191Z" fill="white"/>
<path id="Vector_122" d="M177.288 134.109C176.907 134.254 175.972 135.634 177.288 136.285C178.604 136.94 178.624 133.592 177.288 134.109Z" fill="white"/>
<path id="Vector_123" d="M189.24 91.2614C188.859 91.4069 187.924 92.7865 189.24 93.4383C190.556 94.0933 190.576 90.7452 189.24 91.2614Z" fill="white"/>
<path id="Vector_124" d="M254.967 92.4196C254.586 92.5651 253.651 93.9447 254.967 94.5965C256.283 95.2515 256.303 91.9034 254.967 92.4196Z" fill="white"/>
<path id="Vector_125" d="M122.339 79.388C121.945 79.0506 121.315 79.7586 121.68 81.3565C122.044 82.9545 123.556 82.1373 122.833 81.3565C122.111 80.5757 122.727 79.7189 122.343 79.388H122.339Z" fill="white"/>
<path id="Vector_126" d="M159.757 82.8749C160.679 83.2819 161.852 83.5135 163.337 83.3944C163.522 83.3811 163.705 83.3116 163.86 83.2124C165.621 82.0677 163.088 81.5417 160.486 80.8337C159.19 80.4797 158.531 82.3324 159.76 82.8749H159.757Z" fill="white"/>
<path id="Vector_127" d="M154.563 98.6064C155.485 99.0133 156.658 99.2449 158.143 99.1258C158.329 99.1126 158.511 99.0431 158.667 98.9438C160.427 97.7991 157.894 97.2731 155.292 96.5651C153.996 96.2111 153.337 98.0638 154.567 98.6064H154.563Z" fill="white"/>
<path id="Vector_128" d="M157.898 60.1726C156.953 59.4977 155.69 61.1949 156.804 64.6753C157.921 68.159 161.129 66.0516 159.369 64.4537C157.609 62.859 158.819 60.831 157.894 60.1693L157.898 60.1726Z" fill="white"/>
<path id="Vector_129" d="M211.262 31.8728C211.04 33.0109 213.111 33.4542 215.819 30.9961C218.531 28.5379 215.276 26.4967 214.553 28.7563C213.831 31.0159 211.477 30.7612 211.262 31.8728Z" fill="white"/>
<path id="Vector_130" d="M11.6506 282.019C8.27637 279.323 10.6231 274.84 11.6506 274.943C12.6781 275.045 10.9313 276.6 12.5753 279.148C14.8126 282.618 14.2193 284.07 11.6506 282.019Z" fill="white"/>
<path id="Vector_131" d="M104.825 336.985C103.138 335.638 104.312 333.395 104.825 333.445C105.339 333.494 104.467 334.272 105.289 335.549C106.41 337.286 106.111 338.01 104.825 336.985Z" fill="white"/>
<path id="Vector_132" d="M35.0481 267.443C34.7664 267.552 34.067 268.577 35.0481 269.064C36.0292 269.55 36.0425 267.059 35.0481 267.443Z" fill="white"/>
<path id="Vector_133" d="M26.2679 270.976C25.9861 271.085 25.2867 272.111 26.2679 272.597C27.249 273.083 27.2622 270.592 26.2679 270.976Z" fill="white"/>
<path id="Vector_134" d="M65.9593 266.338C65.6775 266.447 64.9782 267.473 65.9593 267.959C66.9404 268.445 66.9536 265.954 65.9593 266.338Z" fill="white"/>
<path id="Vector_135" d="M56.7581 245.806C56.4764 245.915 55.777 246.941 56.7581 247.427C57.7392 247.913 57.7524 245.422 56.7581 245.806Z" fill="white"/>
<path id="Vector_136" d="M91.3553 310.372C91.0735 310.481 90.3742 311.507 91.3553 311.993C92.3364 312.479 92.3496 309.988 91.3553 310.372Z" fill="white"/>
<path id="Vector_137" d="M127.981 352.63C127.699 352.739 127 353.765 127.981 354.251C128.962 354.737 128.975 352.246 127.981 352.63Z" fill="white"/>
<path id="Vector_138" d="M8.29639 97.8517C7.17939 97.6499 6.77502 99.6813 9.22777 102.292C11.6805 104.902 13.6295 101.693 11.4021 101.021C9.17474 100.35 9.39018 98.0502 8.29639 97.8517Z" fill="white"/>
<path id="Vector_139" d="M23.2247 246.507C22.9098 246.358 22.5651 246.646 22.6745 246.977C22.9397 247.791 23.6324 248.697 25.4156 248.489C28.5346 248.128 25.9526 247.152 24.2555 246.825C23.8048 246.739 23.4733 246.626 23.2247 246.507Z" fill="white"/>
<path id="Vector_140" d="M81.5377 277.702C82.2238 278.006 83.0955 278.178 84.2026 278.089C84.3418 278.079 84.4777 278.026 84.5904 277.953C85.8996 277.1 84.0136 276.709 82.078 276.183C81.1134 275.919 80.6229 277.298 81.5377 277.702Z" fill="white"/>
<path id="Vector_141" d="M94.6598 333.034C95.3459 333.339 96.2176 333.511 97.3246 333.422C97.4639 333.412 97.5997 333.359 97.7124 333.286C99.0217 332.432 97.1357 332.042 95.2 331.516C94.2355 331.251 93.7449 332.631 94.6598 333.034Z" fill="white"/>
<path id="Vector_142" d="M124.298 365.615C124.985 365.92 125.856 366.092 126.963 366.003C127.103 365.993 127.238 365.94 127.351 365.867C128.66 365.013 126.774 364.623 124.839 364.097C123.874 363.832 123.384 365.212 124.298 365.615Z" fill="white"/>
<path id="Vector_143" d="M68.1238 222.065C68.031 221.482 67.2753 221.284 66.8974 221.734C66.4002 222.326 65.9296 223.325 66.3803 224.794C67.0432 226.955 68.4287 223.984 68.1238 222.065Z" fill="white"/>
<path id="Vector_144" d="M10.8352 250.513C10.7424 249.931 9.98668 249.733 9.60883 250.183C9.11165 250.775 8.64098 251.774 9.09176 253.243C9.75467 255.403 11.1401 252.432 10.8352 250.513Z" fill="white"/>
<path id="Vector_145" d="M59.0253 204.6C58.6441 204.745 57.7094 206.125 59.0253 206.777C60.3411 207.428 60.361 204.084 59.0253 204.6Z" fill="white"/>
<path id="Vector_146" d="M184.998 241.932C185.23 242.415 185.856 242.56 186.29 242.243C186.824 241.856 187.348 241.482 187.881 241.124C188.226 240.893 189.84 239.937 191.249 240.694C191.564 240.863 191.845 241.247 191.743 241.657C191.633 242.104 191.398 242.441 190.98 242.712C189.92 243.401 187.888 243.675 186.655 243.784C186.144 243.831 185.777 244.307 185.879 244.81C185.893 244.873 185.903 244.932 185.912 244.995C186.028 245.769 186.194 246.55 186.171 247.324C186.154 247.893 185.969 248.509 185.677 248.998C185.492 249.309 184.938 249.637 184.626 249.574C184.285 249.505 183.897 249.045 183.761 248.671C183.201 247.136 183.768 245.746 184.477 244.4C184.477 244.4 184.477 244.393 184.481 244.39C184.719 243.937 184.544 243.381 184.08 243.169C183.652 242.977 183.234 242.779 182.843 242.54C182.134 242.107 181.464 241.594 180.835 241.052C180.354 240.638 180.354 239.596 180.811 239.149C180.98 238.984 181.295 238.868 181.531 238.888C182.548 238.977 183.337 239.483 183.937 240.314C184.321 240.843 184.729 241.359 185.001 241.925L184.998 241.932Z" fill="white"/>
<path id="Vector_147" d="M238.945 223.286C238.875 222.852 238.315 222.704 238.033 223.041C237.662 223.481 237.314 224.225 237.649 225.317C238.143 226.925 239.173 224.712 238.948 223.286H238.945Z" fill="white"/>
<path id="Vector_148" d="M220.188 244.946C219.843 244.721 219.386 245.055 219.492 245.452C219.608 245.879 219.932 246.342 220.648 246.762C222.74 247.989 224.029 245.657 222.246 245.349C221.195 245.167 220.549 245.181 220.188 244.942V244.946Z" fill="white"/>
<path id="Vector_149" d="M238.792 247.976C238.511 248.085 237.811 249.111 238.792 249.597C239.773 250.083 239.787 247.592 238.792 247.976Z" fill="white"/>
<path id="Vector_150" d="M200.029 246.686C199.747 246.795 199.048 247.821 200.029 248.307C201.01 248.793 201.023 246.302 200.029 246.686Z" fill="white"/>
<path id="Vector_151" d="M185.998 318.289C185.717 318.398 185.017 319.424 185.998 319.91C186.979 320.396 186.993 317.905 185.998 318.289Z" fill="white"/>
<path id="Vector_152" d="M151.226 326.087C150.944 326.196 150.245 327.222 151.226 327.708C152.207 328.194 152.22 325.703 151.226 326.087Z" fill="white"/>
<path id="Vector_153" d="M230.059 255.731C229.754 255.846 229.008 256.948 230.059 257.468C231.109 257.99 231.122 255.317 230.059 255.731Z" fill="white"/>
<path id="Vector_154" d="M216.96 209.708C216.678 209.818 215.979 210.843 216.96 211.329C217.941 211.816 217.954 209.325 216.96 209.708Z" fill="white"/>
<path id="Vector_155" d="M246.187 179.384C245.906 179.493 245.206 180.518 246.187 181.005C247.168 181.491 247.182 179 246.187 179.384Z" fill="white"/>
<path id="Vector_156" d="M251.547 217.744C251.265 217.853 250.566 218.879 251.547 219.365C252.528 219.851 252.541 217.36 251.547 217.744Z" fill="white"/>
<path id="Vector_157" d="M229.499 224.447C229.104 224.11 228.474 224.818 228.839 226.416C229.204 228.014 230.715 227.196 229.992 226.416C229.27 225.635 229.886 224.778 229.502 224.447H229.499Z" fill="white"/>
<path id="Vector_158" d="M229.499 211.769C229.104 211.432 228.474 212.14 228.839 213.738C229.204 215.336 230.715 214.519 229.992 213.738C229.27 212.957 229.886 212.1 229.502 211.769H229.499Z" fill="white"/>
<path id="Vector_159" d="M203.655 264.839C203.26 264.501 202.631 265.209 202.995 266.807C203.36 268.405 204.871 267.588 204.149 266.807C203.426 266.026 204.043 265.17 203.658 264.839H203.655Z" fill="white"/>
<path id="Vector_160" d="M214.729 261.213C214.527 261.117 214.305 261.302 214.374 261.514C214.547 262.037 214.991 262.619 216.134 262.483C218.136 262.252 216.479 261.627 215.389 261.415C215.1 261.359 214.885 261.286 214.726 261.21L214.729 261.213Z" fill="white"/>
<path id="Vector_161" d="M208.723 230.183C208.762 229.677 208.189 229.363 207.795 229.681C206.823 230.465 205.948 231.874 207.155 234.187C209.263 238.233 209.253 234.223 208.822 231.748C208.709 231.093 208.69 230.58 208.719 230.183H208.723Z" fill="white"/>
<path id="Vector_162" d="M227.741 274.453C227.579 274.377 227.4 274.526 227.456 274.698C227.596 275.118 227.954 275.588 228.878 275.482C230.496 275.293 229.157 274.79 228.278 274.618C228.046 274.572 227.874 274.516 227.745 274.453H227.741Z" fill="white"/>
<path id="Vector_163" d="M227.175 173.31C226.92 172.84 226.23 172.922 226.078 173.432C225.312 175.979 226.946 178.884 228.912 178.368C230.436 177.964 229.283 177.204 227.951 174.742L227.175 173.31Z" fill="white"/>
<path id="Vector_164" d="M257.752 240.122C256.943 239.543 255.856 240.999 256.814 243.99C257.772 246.98 260.529 245.171 259.018 243.801C257.506 242.431 258.544 240.691 257.752 240.125V240.122Z" fill="white"/>
<path id="Vector_165" d="M214.205 187.995C214.082 187.843 213.837 187.909 213.81 188.101C213.748 188.577 213.883 189.206 214.838 189.53C216.512 190.099 215.435 188.981 214.652 188.402C214.444 188.25 214.301 188.111 214.205 187.992V187.995Z" fill="white"/>
<path id="Vector_166" d="M202.986 195.83C203.413 196.329 204.04 196.792 204.951 197.136C205.064 197.179 205.19 197.189 205.312 197.176C206.671 196.994 205.326 195.975 203.99 194.83C203.324 194.258 202.415 195.168 202.989 195.83H202.986Z" fill="white"/>
<path id="Vector_167" d="M251.398 202.863C251.825 203.363 252.452 203.826 253.363 204.17C253.476 204.213 253.602 204.223 253.724 204.21C255.083 204.028 253.738 203.009 252.402 201.864C251.736 201.292 250.828 202.202 251.401 202.863H251.398Z" fill="white"/>
<path id="Vector_168" d="M250.261 258.08C249.879 258.225 248.945 259.605 250.261 260.257C251.576 260.908 251.596 257.564 250.261 258.08Z" fill="white"/>
<path id="Vector_169" d="M208.511 322.798C208.441 322.365 207.881 322.216 207.599 322.553C207.228 322.993 206.88 323.738 207.215 324.829C207.709 326.437 208.739 324.224 208.514 322.798H208.511Z" fill="white"/>
<path id="Vector_170" d="M213.529 268.114C213.184 267.889 212.727 268.223 212.833 268.62C212.949 269.047 213.274 269.51 213.99 269.93C216.081 271.158 217.371 268.825 215.587 268.518C214.537 268.336 213.89 268.349 213.529 268.111V268.114Z" fill="white"/>
<path id="Vector_171" d="M237.393 264.528C237.112 264.637 236.412 265.662 237.393 266.149C238.374 266.635 238.388 264.144 237.393 264.528Z" fill="white"/>
<path id="Vector_172" d="M225.76 286.657C225.455 286.773 224.709 287.875 225.76 288.394C226.81 288.917 226.824 286.244 225.76 286.657Z" fill="white"/>
<path id="Vector_173" d="M244.891 240.913C244.609 241.022 243.91 242.048 244.891 242.534C245.872 243.02 245.885 240.529 244.891 240.913Z" fill="white"/>
<path id="Vector_174" d="M174.566 318.332C174.172 317.994 173.542 318.702 173.907 320.3C174.271 321.898 175.783 321.081 175.06 320.3C174.338 319.52 174.954 318.663 174.57 318.332H174.566Z" fill="white"/>
<path id="Vector_175" d="M222.843 234.938C222.448 234.6 221.819 235.308 222.183 236.906C222.548 238.504 224.059 237.687 223.337 236.906C222.614 236.126 223.231 235.269 222.846 234.938H222.843Z" fill="white"/>
<path id="Vector_176" d="M154.328 312.148C153.519 311.57 152.432 313.025 153.39 316.016C154.348 319.007 157.105 317.197 155.594 315.827C154.083 314.458 155.12 312.718 154.328 312.152V312.148Z" fill="white"/>
<path id="Vector_177" d="M243.602 281.248C243.221 281.394 242.286 282.773 243.602 283.425C244.918 284.077 244.938 280.732 243.602 281.248Z" fill="white"/>
<path id="Vector_178" d="M23.8413 16.7869C23.6988 16.6083 23.4104 16.6844 23.3839 16.9126C23.311 17.4684 23.4668 18.1996 24.5837 18.5801C26.5327 19.2417 25.2798 17.9382 24.365 17.2666C24.123 17.088 23.9573 16.9292 23.8446 16.7902L23.8413 16.7869Z" fill="white"/>
<path id="Vector_179" d="M38.7007 69.4825C39.2012 70.0615 39.9304 70.604 40.991 71.0077C41.1236 71.0573 41.2694 71.0705 41.412 71.0507C42.9963 70.8389 41.4252 69.6512 39.8707 68.318C39.0951 67.653 38.0378 68.7116 38.704 69.4825H38.7007Z" fill="white"/>
<path id="Vector_180" d="M161.547 45.7646C161.975 46.2641 162.601 46.7273 163.513 47.0714C163.625 47.1144 163.751 47.1243 163.874 47.1111C165.233 46.9291 163.887 45.9101 162.551 44.7654C161.885 44.1931 160.977 45.1029 161.55 45.7646H161.547Z" fill="white"/>
<path id="Vector_181" d="M247.304 27.0561C247.731 27.5556 248.358 28.0188 249.269 28.3629C249.382 28.4059 249.508 28.4158 249.631 28.4026C250.99 28.2206 249.644 27.2017 248.308 26.057C247.642 25.4846 246.734 26.3944 247.307 27.0561H247.304Z" fill="white"/>
<path id="Vector_182" d="M149.631 10.3186C149.777 9.79923 149.22 9.37907 148.749 9.64043C146.406 10.9505 145.551 14.2027 147.337 15.1985C148.726 15.9727 148.425 14.6129 149.187 11.9001L149.631 10.3186Z" fill="white"/>
<path id="Vector_183" d="M172.134 7.56315C171.017 7.36134 170.612 9.39268 173.065 12.003C175.518 14.6133 177.467 11.4042 175.24 10.7326C173.012 10.061 173.228 7.76165 172.134 7.56315Z" fill="white"/>
<path id="Vector_184" d="M155.081 26.7317C155.767 27.0361 156.638 27.2081 157.746 27.1188C157.885 27.1089 158.021 27.0559 158.133 26.9831C159.443 26.1296 157.557 25.7392 155.621 25.2132C154.656 24.9485 154.166 26.3281 155.081 26.7317Z" fill="white"/>
<path id="Vector_185" d="M222.65 14.7551C223.337 15.0595 224.208 15.2315 225.315 15.1422C225.455 15.1323 225.59 15.0794 225.703 15.0066C227.012 14.153 225.126 13.7626 223.191 13.2366C222.226 12.9719 221.736 14.3515 222.65 14.7551Z" fill="white"/>
<path id="Vector_186" d="M247.158 52.4114C247.844 52.7158 248.716 52.8878 249.823 52.7985C249.962 52.7885 250.098 52.7356 250.211 52.6628C251.52 51.8093 249.634 51.4189 247.699 50.8928C246.734 50.6282 246.243 52.0078 247.158 52.4114Z" fill="white"/>
<path id="Vector_187" d="M256.449 129.282C257.135 129.586 258.007 129.758 259.114 129.669C259.253 129.659 259.389 129.606 259.501 129.533C260.811 128.679 258.925 128.289 256.989 127.763C256.025 127.498 255.534 128.878 256.449 129.282Z" fill="white"/>
<path id="Vector_188" d="M118.869 12.4033C119.297 12.9028 119.923 13.366 120.835 13.7101C120.948 13.7531 121.073 13.763 121.196 13.7498C122.555 13.5678 121.209 12.5488 119.874 11.4041C119.207 10.8318 118.299 11.7416 118.873 12.4033H118.869Z" fill="white"/>
<path id="Vector_189" d="M149.518 37.8511C149.187 37.9769 148.378 39.1745 149.518 39.7402C150.659 40.306 150.675 37.4045 149.518 37.8511Z" fill="white"/>
<path id="Vector_190" d="M185.959 39.2507C185.578 39.3962 184.643 40.7758 185.959 41.4276C187.275 42.0793 187.295 38.7345 185.959 39.2507Z" fill="white"/>
<path id="Vector_191" d="M204.596 17.3592C204.202 17.0218 203.572 17.7298 203.937 19.3277C204.301 20.9256 205.813 20.1085 205.09 19.3277C204.368 18.5469 204.984 17.6901 204.6 17.3592H204.596Z" fill="white"/>
<path id="Vector_192" d="M26.427 51.2202C25.1244 50.9853 24.6537 53.3508 27.5108 56.3912C30.368 59.4316 32.6384 55.6931 30.0464 54.909C27.4512 54.125 27.7031 51.4452 26.4303 51.2169L26.427 51.2202Z" fill="white"/>
<path id="Vector_193" d="M39.1779 25.8449C39.9767 26.1989 40.9943 26.3974 42.2803 26.2949C42.4394 26.2816 42.5985 26.2221 42.7344 26.1361C44.2624 25.1436 42.0649 24.6903 39.8077 24.075C38.684 23.7673 38.1139 25.3751 39.1779 25.8449Z" fill="white"/>
<path id="Vector_194" d="M108.806 64.7911C108.475 64.7679 107.302 65.4528 108.044 66.3957C108.787 67.3385 109.97 64.8771 108.806 64.7911Z" fill="white"/>
<path id="Vector_195" d="M227.563 79.0138C227.231 78.9906 226.058 79.6754 226.8 80.6183C227.543 81.5612 228.726 79.0998 227.563 79.0138Z" fill="white"/>
<path id="Vector_196" d="M253.012 143.858C252.68 143.835 251.507 144.52 252.249 145.463C252.992 146.405 254.175 143.944 253.012 143.858Z" fill="white"/>
<path id="Vector_197" d="M94.136 46.2972C93.8543 46.4064 93.1549 47.432 94.136 47.9183C95.1171 48.4046 95.1304 45.9134 94.136 46.2972Z" fill="white"/>
<path id="Vector_198" d="M241.59 14.5931C241.308 14.7023 240.609 15.7279 241.59 16.2142C242.571 16.7005 242.584 14.2093 241.59 14.5931Z" fill="white"/>
<path id="Vector_199" d="M120.069 49.5758C119.688 49.7214 118.753 51.101 120.069 51.7527C121.385 52.4078 121.405 49.0597 120.069 49.5758Z" fill="white"/>
<path id="Vector_200" d="M81.3916 7.72506C80.9442 7.40415 80.3409 8.21139 80.8712 9.86558C81.4016 11.5198 82.9262 10.5173 82.091 9.75971C81.2557 9.00209 81.8291 8.03935 81.3916 7.72506Z" fill="white"/>
<path id="Vector_201" d="M113.493 244.383C112.737 243.903 111.812 244.717 112.223 245.514C112.876 246.778 113.94 247.946 115.67 248.591C120.778 250.5 117.344 245.415 114.527 244.806C114.139 244.724 113.794 244.575 113.489 244.38L113.493 244.383Z" fill="white"/>
<path id="Vector_202" d="M66.211 212.841C65.674 213.073 65.7768 213.87 66.3568 213.94C67.2816 214.052 68.3058 213.907 69.2902 213.212C72.2003 211.157 68.1864 211.141 66.8209 212.438C66.6319 212.616 66.4264 212.749 66.211 212.841Z" fill="white"/>
<path id="Vector_203" d="M89.0881 74.915C89.0881 74.915 87.2452 79.4608 89.0881 86.7855C90.931 94.1102 90.3509 98.1332 88.9887 104.323" stroke="white" stroke-width="1.2" stroke-miterlimit="10" stroke-linecap="round"/>
<path id="Vector_204" d="M22.7806 304.983C22.7806 304.983 17.6 300.526 24.471 291.915C27.484 288.14 23.4402 288.507 23.1718 284.848C22.9033 281.189 27.8353 276.577 26.9669 274.327C24.4578 267.813 29.8207 271.34 30.7886 260.786C31.1001 257.382 28.2662 246.249 27.9579 245.422C27.6298 244.549 28.5612 244.919 28.8462 245.416C29.1313 245.912 34.0799 251.907 34.1462 263.327C34.1859 270.02 29.4163 270.692 30.5897 273.643C31.763 276.594 30.056 278.36 28.6971 281.169C27.3381 283.978 26.7879 285.371 29.4926 289.334C32.4127 293.615 26.5592 295.329 27.706 299.375C28.6076 302.551 33.5032 303.987 33.5032 303.987L22.784 304.989L22.7806 304.983Z" fill="white"/>
<path id="Vector_205" d="M250.254 294.806C250.254 294.806 244.377 291.313 249.648 281.645C251.958 277.407 248.04 278.469 247.138 274.91C246.237 271.353 250.294 265.957 249.048 263.893C245.445 257.911 251.338 260.455 250.456 249.895C250.171 246.487 245.448 236.016 244.997 235.255C244.523 234.451 245.501 234.657 245.869 235.093C246.237 235.53 252.15 240.582 254.198 251.814C255.398 258.401 250.821 259.883 252.488 262.589C254.155 265.292 252.783 267.33 251.931 270.328C251.079 273.328 250.781 274.794 254.132 278.231C257.752 281.94 252.286 284.643 254.119 288.428C255.557 291.399 260.632 291.964 260.632 291.964L250.251 294.806H250.254Z" fill="white"/>
<path id="Vector_206" d="M42.7607 311.196L51.173 311.173C51.173 311.173 56.8939 304.477 51.5244 298.339C46.1548 292.202 48.1402 284.626 53.0225 282.697C56.5028 281.321 54.8621 276.541 53.0424 271.38C52.648 270.261 53.0656 269.527 52.9198 269.229C52.7441 268.868 52.0182 269.49 52.0182 271.105C52.0182 273.017 53.8081 279.313 51.4846 280.127C49.1611 280.941 44.2258 282.995 45.3328 288.179C46.3703 293.036 42.5685 294.899 47.2486 300.556C53.3474 307.924 42.7607 311.199 42.7607 311.199V311.196Z" fill="white"/>
<path id="Vector_207" d="M74.3183 334.798L65.906 334.775C65.906 334.775 60.1852 328.079 65.5547 321.942C70.9243 315.804 68.9388 308.228 64.0565 306.3C60.5763 304.923 62.217 300.143 64.0367 294.982C64.4311 293.863 64.0135 293.129 64.1593 292.831C64.335 292.471 65.0608 293.092 65.0608 294.707C65.0608 296.619 63.271 302.915 65.5945 303.729C67.918 304.543 72.8533 306.597 71.7463 311.782C70.7088 316.638 74.5106 318.501 69.8305 324.158C63.7317 331.526 74.3183 334.801 74.3183 334.801V334.798Z" fill="white"/>
<path id="Vector_208" d="M240.891 303.385L232.478 303.362C232.478 303.362 226.757 296.665 232.127 290.528C237.497 284.391 235.511 276.815 230.629 274.886C227.149 273.51 228.789 268.73 230.609 263.568C231.003 262.45 230.586 261.716 230.732 261.418C230.907 261.057 231.633 261.679 231.633 263.294C231.633 265.206 229.843 271.502 232.167 272.316C234.49 273.13 239.426 275.184 238.319 280.368C237.281 285.225 241.083 287.088 236.403 292.745C230.304 300.113 240.891 303.388 240.891 303.388V303.385Z" fill="white"/>
<path id="Vector_209" d="M91.9983 93.1074C91.7795 94.3944 91.1365 95.205 90.351 95.6814C88.2595 95.238 88.296 92.7005 89.1776 90.871C89.4362 90.3317 89.8538 90.0902 90.3311 90.0273C91.4481 90.4773 92.2635 91.526 91.9983 93.1074Z" fill="white"/>
<g id="flowerVector">
<path id="Vector_210" d="M87.4706 70.0814C87.4706 70.0814 86.5492 70.6637 85.704 68.596C84.8587 66.5282 82.8932 64.5201 81.0371 65.4762C79.2042 66.4191 79.234 68.0666 80.2747 69.6811C81.6039 71.7456 83.8975 71.8448 85.6874 71.7224C86.7911 72.2947 85.9227 73.2906 85.0311 73.1847C84.1395 73.0788 80.6592 72.9697 80.8216 75.6627C80.9841 78.3557 83.7086 80.88 85.8664 78.8354C88.0208 76.7908 87.2784 75.623 88.4882 75.5006C89.7013 75.3782 89.8935 78.2465 90.9144 79.3548C91.9353 80.4631 94.6764 81.8526 96.8076 79.4971C98.9422 77.1415 96.3701 74.2765 93.9439 74.5213C91.5176 74.7661 90.7387 73.6313 91.1431 72.9928C91.5475 72.3543 92.8998 71.3783 95.0642 72.4337C97.2286 73.4891 100.49 69.7671 99.1709 67.4711C97.8517 65.1784 95.2399 64.0701 92.7672 66.2768C90.2946 68.4802 91.6569 69.744 90.6459 70.012C89.635 70.2799 89.3234 68.6489 90.2217 67.7557C91.1199 66.8624 93.155 63.6069 89.5356 61.837C85.9161 60.067 84.1527 63.4746 85.22 65.2049C86.2873 66.9352 88.8859 69.1121 87.4673 70.0847L87.4706 70.0814Z" fill="#FFC530"/>
<path id="Vector_211" d="M90.3507 95.6815C89.2271 96.3697 87.8151 96.3796 86.9533 96.1547C85.7203 95.8271 84.315 94.1398 83.3306 94.0638C83.1483 94.0472 82.9792 94.0902 82.8268 94.2093C82.6246 94.3681 82.5218 94.5203 82.4787 94.689C82.3163 95.311 82.9792 96.1546 82.4157 98.4308C81.7031 101.312 78.0439 100.647 76.4529 98.4672C74.8652 96.2837 77.8583 94.5071 78.667 94.1167C79.4758 93.7263 79.6713 92.4195 78.4317 92.5287C76.9899 93.594 75.0045 94.742 72.7705 93.7164C71.0237 92.9157 70.1089 91.5428 71.1463 89.7629C72.1937 87.9631 74.9348 88.6016 76.7612 89.8886C78.5875 91.1755 79.0515 90.1896 79.0515 90.1896C79.7243 88.6049 76.3601 88.1715 74.5272 87.2849C72.6942 86.3982 72.3429 82.5804 76.3468 82.1271C80.3508 81.6739 80.3939 85.5116 80.1155 86.7456C79.837 87.983 80.9806 89.1905 81.6899 88.4197C82.3992 87.6521 80.5696 87.318 81.4645 84.132C82.3594 80.946 85.1569 80.4763 87.5069 81.7003C89.8536 82.9244 89.1144 87.8142 86.7213 88.0888C84.3282 88.3634 83.715 89.9117 83.715 90.6694C83.7184 91.4237 84.9878 91.9596 86.9003 90.451C87.8483 89.7033 89.2337 89.5809 90.3309 90.0275C89.8536 90.0904 89.4359 90.3319 89.1774 90.8712C88.2957 92.7007 88.2593 95.2382 90.3507 95.6815Z" fill="#FFC530"/>
<path id="Vector_212" d="M105.226 91.7877C104.67 94.5634 101.438 95.3872 99.9132 93.5081C99.0713 92.4659 97.7853 92.0292 97.4804 92.6413C97.0163 93.5775 98.4847 94.2723 99.2768 94.2789C100.775 94.2922 102.86 95.7677 101.12 98.3449C99.3763 100.919 96.4694 99.9363 95.6309 98.517C94.6 96.7801 95.6309 94.087 94.7492 93.7363C93.8642 93.3857 93.2676 95.9331 90.7651 95.7445C90.6193 95.7346 90.4801 95.7148 90.3508 95.6817C91.1363 95.2053 91.7794 94.3947 91.9981 93.1078C92.2633 91.5264 91.4479 90.4776 90.3309 90.0277C91.5739 89.8589 93.2212 90.8779 93.546 90.9044C93.9736 90.9375 94.6266 90.3717 93.0057 89.8689C92.84 89.8192 92.671 89.7828 92.5019 89.7498C89.0813 89.1013 89.4128 86.7656 89.7674 85.7632C90.1254 84.7409 91.3684 83.7451 93.6256 84.7078C95.8828 85.6705 95.1967 87.7813 95.1502 88.2643C95.1403 88.3437 95.1536 88.4231 95.1768 88.4959C95.3524 89.0153 96.0949 88.9921 96.307 88.486C96.8208 87.2519 94.9978 85.5183 95.5546 83.7914C96.2142 81.7468 98.9487 82.6268 99.8105 84.0693C100.669 85.515 99.6017 86.7424 98.5443 87.8276C97.487 88.916 97.6494 89.7498 98.4383 89.9615C99.2238 90.1765 101.491 87.3016 103.016 87.6489C104.544 87.9963 105.787 89.0153 105.226 91.7877Z" fill="#FFC530"/>
</g>
<path id="Vector_213" d="M138.332 94.8612C138.051 94.9703 137.351 95.9959 138.332 96.4823C139.313 96.9686 139.327 94.4774 138.332 94.8612Z" fill="white"/>
<path id="Vector_214" d="M250.135 111.495C249.7 111.664 248.63 113.239 250.135 113.987C251.639 114.734 251.659 110.907 250.135 111.495Z" fill="white"/>
<path id="Vector_215" d="M222.047 106.553C221.765 106.662 221.066 107.688 222.047 108.174C223.028 108.66 223.042 106.169 222.047 106.553Z" fill="white"/>
<path id="Vector_216" d="M238.792 123.723C238.511 123.833 237.811 124.858 238.792 125.345C239.773 125.831 239.787 123.34 238.792 123.723Z" fill="white"/>
</g>
<defs>
<clipPath id="clip0_1096_3127">
<rect width="268" height="403" fill="white"/>
</clipPath>
</defs>
</svg>
