<svg width="267" height="403" viewBox="0 0 267 403" fill="none" xmlns="http://www.w3.org/2000/svg">
<g id="Layer_1" clip-path="url(#clip0_1096_2880)">
<g id="Group">
<path id="Vector" d="M265.769 350.6C265.537 353.419 265.518 356.25 265.712 359.072L265.904 361.831V361.897L266.766 374.314L266.356 376.825L266.333 376.97L266.241 377.539C266.241 380.324 265.782 383 264.93 385.498C264.309 387.322 263.484 389.053 262.477 390.663C260.374 394.023 257.492 396.851 254.075 398.896C251.714 400.311 249.099 401.351 246.313 401.933C245.263 402.157 244.187 402.313 243.087 402.399C242.424 402.452 241.75 402.478 241.074 402.478H31.978C29.9245 402.478 27.9304 402.233 26.0189 401.774C25.385 401.622 24.7808 401.424 24.1965 401.189C19.8385 399.438 16.6955 395.632 12.5687 393.418C5.4441 389.592 4.23246 378.328 4.23246 378.087L2.94489 369.761C2.68077 368.069 2.5322 366.364 2.49919 364.653L2.44306 361.752L2.27139 352.986L2.20866 349.814C2.17895 348.331 2.05019 346.85 1.82239 345.383L1.35688 342.38C1.35688 342.38 1.30736 341.24 1.24793 339.598C1.13898 336.575 0.990417 331.856 1.03664 329.461L1.12248 324.28C1.13568 323.391 1.14889 322.479 1.16209 321.551C1.30736 311.645 1.43281 299.529 1.54176 286.729C1.54837 285.748 1.55827 284.76 1.56487 283.772C1.66392 271.375 1.74645 258.449 1.81578 246.363C1.96105 220.178 2.03038 197.908 2.03038 193.352C2.03038 193.352 0.2806 39.4938 0.178254 38.0103C-2.13938 4.78102 18.5113 0 31.978 0H241.07C254.969 0 266.241 11.1678 266.241 24.9393C266.241 24.9393 265.494 66.2966 266.112 81.0956V269.852C266.056 273.004 266.095 276.387 266.204 279.956C266.561 291.536 264.943 301.561 265.858 315.461C265.897 316.063 265.943 316.767 265.996 317.546C266.095 319.069 266.218 320.88 266.343 322.783C266.505 325.238 266.673 327.842 266.815 330.165C266.944 332.216 266.974 334.275 266.904 336.327C266.865 337.553 266.792 338.778 266.683 340.001C266.637 340.53 266.587 341.085 266.538 341.66C266.28 344.57 265.99 347.947 265.769 350.6Z" fill="black"/>
<g id="Group_2">
<path id="Vector_2" d="M53.1372 292.852C43.771 292.244 39.9776 290.549 38.0759 288.484C38.0759 288.484 38.4886 294.656 39.5418 295.713C44.0582 300.236 60.9353 302.391 69.0338 295.713C70.1861 294.765 70.5327 287.02 70.5327 287.02C67.6934 290.909 61.8597 292.832 53.1372 292.855V292.852Z" fill="white"/>
<path id="Vector_3" d="M57.5547 283.019C46.8315 282.533 41.6449 284.407 39.2844 285.844C37.7162 286.799 37.66 289.045 39.1919 290.053C45.1346 293.952 60.3544 294.56 67.7497 290.162C71.0842 288.18 74.4616 283.785 57.5547 283.019ZM63.7219 289.482C58.8918 291.877 47.8847 292.135 43.7215 289.406C42.6453 288.702 42.6882 287.126 43.7843 286.458C45.4383 285.454 49.0699 284.139 56.5775 284.479C68.4199 285.014 66.1518 288.276 63.7186 289.482H63.7219Z" fill="white"/>
<path id="Vector_4" d="M73.3324 308.315C73.164 311.159 72.8108 314.807 72.3023 318.881C71.8434 322.582 71.2525 326.629 70.5592 330.753C69.9781 334.215 69.3244 337.724 68.608 341.118C67.9576 344.227 67.2544 347.234 66.5116 350.012C65.848 352.51 65.1513 354.823 64.4283 356.858C63.8175 358.59 63.1903 360.119 62.5498 361.395C61.5098 363.473 60.4368 364.871 59.354 365.347C58.7135 365.578 57.8947 365.763 56.9769 365.888H56.967C54.7682 366.202 51.9917 366.186 49.7004 365.667C49.2911 365.578 48.8982 365.469 48.5251 365.343C47.5842 365 46.6598 364.035 45.7717 362.584C44.9067 361.18 44.0714 359.327 43.2725 357.133C42.3019 354.466 41.384 351.301 40.5323 347.861L38.6042 339.053L38.5877 338.977C38.0396 336.152 37.5312 333.274 37.0756 330.429C36.4417 326.447 35.9069 322.539 35.4843 318.957C35.065 315.379 34.7613 312.124 34.5929 309.451C34.4212 306.762 34.3849 304.657 34.5005 303.401C34.6226 302.086 34.8207 300.989 35.0683 300.078C36.0191 296.615 37.7128 295.828 38.7198 295.683C38.7065 296.463 39.1324 296.985 39.3933 297.249C39.7696 297.626 40.2318 297.986 40.7667 298.326C42.6914 299.552 45.5637 300.52 48.8223 301.059C51.163 301.445 53.7051 301.611 56.2407 301.492C59.5553 301.333 62.8502 300.682 65.6697 299.407C66.9539 298.825 68.1392 298.108 69.1791 297.253C69.4234 297.048 69.8989 296.588 69.813 295.855C71.1171 296.36 72.8834 298.049 73.3753 303.401C73.4744 304.475 73.4545 306.164 73.3291 308.305L73.3324 308.315Z" fill="white"/>
<path id="Vector_5" d="M48.4359 253.995C47.878 254.534 47.8912 255.429 48.4524 255.961C50.6413 258.03 55.194 263.415 52.9556 270.78C50.1164 280.127 50.955 282.638 52.2656 287.836C52.4175 288.44 52.959 288.863 53.5829 288.863H54.3291C55.2007 288.863 55.8477 288.054 55.6497 287.201C54.9233 284.086 53.7777 277.074 56.092 270.489C58.5087 263.617 53.0481 256.391 50.7371 253.747C50.2253 253.163 49.3306 253.126 48.7727 253.665L48.4326 253.995H48.4359Z" fill="white"/>
<path id="Vector_6" d="M42.939 328.968L37.0723 330.439C36.4384 326.461 35.9035 322.552 35.481 318.97H40.2714L42.939 328.968Z" fill="black"/>
<path id="Vector_7" d="M40.2747 318.97V309.464L47.3167 310.446L48.0232 317.658L40.2747 318.97Z" fill="black"/>
<path id="Vector_8" d="M51.4105 328.969H42.939V337.001H51.4105V328.969Z" fill="black"/>
<path id="Vector_9" d="M58.1292 307.003L47.3169 310.449L48.8224 301.075C51.1631 301.462 53.7052 301.627 56.2408 301.508L58.1292 307.006V307.003Z" fill="black"/>
<path id="Vector_10" d="M40.7701 298.34L40.2749 309.461H34.5963C34.4247 306.772 34.3883 304.667 34.5039 303.412C34.626 302.096 34.8241 301 35.0717 300.088L35.2368 299.942L40.7701 298.336V298.34Z" fill="black"/>
<path id="Vector_11" d="M51.4105 328.969L48.0232 317.659L58.1257 318.316L56.6962 328.969H51.4105Z" fill="black"/>
<path id="Vector_12" d="M58.1257 307.003V318.316H64.8409L66.9704 308.315L58.1257 307.003Z" fill="black"/>
<path id="Vector_13" d="M73.3324 308.315H66.9738L65.6697 299.417C66.954 298.835 68.1392 298.118 69.1791 297.262C69.4234 297.058 69.8989 296.598 69.813 295.865C71.1171 296.37 72.8834 298.059 73.3753 303.411C73.4744 304.485 73.4545 306.174 73.3291 308.315H73.3324Z" fill="black"/>
<path id="Vector_14" d="M72.3023 318.885C71.8434 322.585 71.2524 326.633 70.5591 330.756L64.8442 330.119V318.316L72.3023 318.885Z" fill="black"/>
<path id="Vector_15" d="M56.6963 328.969L64.841 330.119L64.0223 340.771L57.3401 338.511L56.6963 328.969Z" fill="black"/>
<path id="Vector_16" d="M51.4105 337.001L57.34 338.511L58.1257 349.296H50.7568L51.4105 337.001Z" fill="black"/>
<path id="Vector_17" d="M38.6042 339.066L38.5876 338.99L42.939 337.001L47.1748 349.296L40.5322 347.875L38.6042 339.066Z" fill="black"/>
<path id="Vector_18" d="M68.6079 341.121C67.9575 344.23 67.2543 347.237 66.5114 350.016L62.553 348.638L64.0254 340.771L68.6112 341.118L68.6079 341.121Z" fill="black"/>
<path id="Vector_19" d="M47.1749 349.295H50.757L52.1634 357.143H45.7717L47.1749 349.295Z" fill="black"/>
<path id="Vector_20" d="M58.1258 349.295L62.5498 348.638V356.591L56.6963 356.924L58.1258 349.295Z" fill="black"/>
<path id="Vector_21" d="M56.9769 365.898H56.967C54.7682 366.212 51.9917 366.196 49.7004 365.677L52.1633 357.146L56.6996 356.924L56.9769 365.898Z" fill="black"/>
<path id="Vector_22" d="M45.7717 357.146V362.598C44.9067 361.194 44.0714 359.34 43.2725 357.146H45.7717Z" fill="black"/>
<path id="Vector_23" d="M64.4283 356.865C63.8176 358.596 63.1903 360.126 62.5498 361.402V356.591L64.4283 356.862V356.865Z" fill="black"/>
<g id="flowerVector">
<path id="Vector_24" d="M46.1729 260.507C45.2474 263.154 42.9304 265.129 40.1443 265.444C38.3125 265.65 35.7995 265.499 33.9421 263.109C29.6198 257.552 34.2763 251.792 38.6403 252.592C42.1206 253.232 43.7531 252.371 43.6053 251.277C43.4382 250.032 40.5845 249.978 38.891 250.698C37.1974 251.419 31.5029 250.515 32.1232 245.514C32.7434 240.516 38.891 241.751 40.3339 243.664C41.7768 245.578 44.0134 248.63 44.8747 246.318C45.7359 244.005 43.9556 242.832 40.5974 241.551C37.3324 240.31 33.8521 234.306 40.3146 230.199C46.7803 226.092 52.809 234.376 49.9618 240.32C47.1145 246.263 50.6463 247.029 51.2633 245.504C51.8803 243.98 57.8929 232.958 65.6601 239.139C73.4273 245.321 65.6665 252.081 59.9174 250.045C54.1651 248.009 52.7704 250.171 52.9954 251.454C53.2268 252.782 56.299 255.159 63.7995 252.506C71.3 249.852 79.0415 256.613 75.9918 263.437C72.9421 270.262 61.1 271.462 54.7982 261.057C48.9141 251.345 47.5966 256.217 47.4809 256.687C47.4166 256.95 46.7482 258.877 46.1794 260.504L46.1729 260.507Z" fill="#FFC530"/>
<path id="Vector_25" d="M36.8085 266.165C36.8085 266.165 29.6711 266.165 31.1365 256.931C31.1365 256.931 27.0328 266.493 36.8085 266.165Z" fill="white"/>
<path id="Vector_26" d="M31.4416 249.02C31.4416 249.02 29.1279 245.588 32.3607 242.115C32.3607 242.115 27.7653 244.996 31.4416 249.02Z" fill="white"/>
<path id="Vector_27" d="M40.7996 228.102C40.7996 228.102 46.7961 226.076 49.984 230.99C49.984 230.99 47.336 223.577 40.7996 228.102Z" fill="white"/>
<path id="Vector_28" d="M71.1906 244.925C71.1906 244.925 71.6341 239.506 66.261 237.133C66.261 237.133 73.6362 238.02 71.1906 244.925Z" fill="white"/>
<path id="Vector_29" d="M73.228 268.719C73.228 268.719 79.7966 266.715 78.5529 258.26C78.5529 258.26 82.8045 267.242 73.228 268.719Z" fill="white"/>
<path id="Vector_30" d="M73.2666 241.645C73.2666 241.645 73.845 238.223 69.738 237.133C69.738 237.133 75.0469 237.384 73.2666 241.645Z" fill="white"/>
<path id="Vector_31" d="M43.6726 225.075C43.6726 225.075 46.1888 224.143 48.6697 226.639C48.6697 226.639 46.2531 222.702 43.6726 225.075Z" fill="white"/>
<path id="Vector_32" d="M29.0155 248.444C29.0155 248.444 27.4987 245.742 29.6904 242.928C29.6904 242.928 26.3707 245.311 29.0155 248.444Z" fill="white"/>
<path id="Vector_33" d="M31.8981 267.3C31.8981 267.3 27.9551 266.252 28.7199 261.07C28.7199 261.07 26.1169 266.576 31.8981 267.3Z" fill="white"/>
<path id="Vector_34" d="M77.9905 268.085C77.9905 268.085 81.053 266.876 80.526 262.63C80.526 262.63 82.6245 267.249 77.9905 268.085Z" fill="white"/>
</g>
</g>
<path id="Vector_35" d="M240.932 357.946C241.499 363.625 247.686 370.045 254.662 365.059C258.238 362.502 262.87 361.914 265.907 361.897L266.766 374.314L266.356 376.825C264.266 374.079 262.051 369.834 255.854 370.974C241.952 375.546 227.353 358.914 228.274 373.382C228.924 383.575 250.047 388.588 262.477 390.663C260.374 394.023 257.492 396.851 254.075 398.896C251.714 400.311 249.099 401.351 246.313 401.933C246.032 400.294 244.794 396.2 239.33 390.458C231.404 378.249 201.938 374.843 200.373 387.735C199.416 395.652 206.421 400.169 211.978 402.478H199.756C197.131 399.253 196.335 394.733 193.602 392.721C189.802 389.929 184.453 396.339 182.545 390.174C180.637 384.005 167.332 386.516 163.878 379.435C161.66 374.889 164.427 371.648 171.673 365.713C181.386 357.757 197.038 362.578 203.628 357.172C210.218 351.764 211.935 354.906 223.034 352.249C234.131 349.59 237.99 338.719 243.546 327.307C248.462 317.213 262.761 317.375 266 317.546C266.422 317.57 266.657 317.593 266.657 317.593L267.003 323.028C267.003 323.028 266.762 322.925 266.346 322.783C264.134 322.043 256.94 320.266 253.913 327.237C250.823 334.348 263.309 336.003 266.908 336.327L266.541 341.66C265.478 341.062 263.781 340.579 261.087 340.55C253.721 340.467 253.599 355.831 247.535 350.297C241.473 344.759 240.367 352.266 240.935 357.946H240.932Z" fill="white"/>
<path id="Vector_36" d="M66.0725 402.478C64.5472 400.116 62.6587 395.824 64.6264 390.924C68.991 380.053 74.7256 379.957 80.8366 387.21C88.4928 396.293 83.3821 401.004 81.1305 402.478C80.5923 402.832 80.2193 403 80.2193 403H90.9028C90.9028 403 90.8071 402.802 90.7378 402.478C90.4373 401.097 90.6057 397.41 100.761 397.076C113.293 396.666 114.32 386.592 100.761 385.36C87.0005 386.592 76.2113 373.158 67.2379 371.086C58.2645 369.011 48.4261 380.066 43.2296 371.086C38.0331 362.102 31.6843 370.914 26.161 360.833C20.6376 350.756 40.4167 350.531 21.6743 342.902C14.2096 339.862 7.10156 339.244 1.24805 339.598C1.30747 341.24 1.357 342.38 1.357 342.38L1.8225 345.383C2.0503 346.85 2.17906 348.331 2.20878 349.814L2.2715 352.986C7.51094 351.975 10.4129 352.537 6.7582 356.733C5.24943 358.464 3.81329 360.136 2.44318 361.752L2.49931 364.653C2.53232 366.364 2.68089 368.069 2.945 369.761L4.23258 378.087C4.23258 378.329 5.44422 389.592 12.5688 393.418C16.6956 395.632 19.8386 399.438 24.1966 401.189C15.0515 386.225 29.436 371.248 36.0951 371.945C43.0183 372.669 33.1436 381.785 45.7519 385.442C61.1302 389.899 45.5175 400.063 41.4765 402.478H66.0725Z" fill="white"/>
<path id="Vector_37" d="M107.493 402.352C107.493 402.352 105.515 398.087 115.558 398.391C125.601 398.695 121.95 388.033 125.301 386.813C128.652 385.594 128.648 381.636 134.888 382.396C141.128 383.156 146.76 376.911 154.826 383.615C162.891 390.319 174.711 384.768 177.035 392.169C178.993 398.417 182.68 396.256 186.487 396.408C190.294 396.56 191.66 402.349 191.66 402.349H107.493V402.352Z" fill="white"/>
<path id="Vector_38" d="M86.8848 362.033C86.6768 367.329 89.3642 372.318 93.7783 375.246C96.9576 377.354 101.068 379.214 105.621 379.135C115.971 378.959 115.621 385.28 120.883 384.401C126.146 383.522 127.374 378.081 135.443 378.609C143.512 379.138 145.38 376.818 149.458 377.73C157.916 379.627 156.321 365.723 163.687 363.533C172.508 360.909 180.993 355.563 166.43 354.509C152.036 353.468 159.134 347.59 136.42 357.407C135.634 357.747 134.822 358.021 133.987 358.193C122.224 360.615 126.971 342.37 105.621 348.763C89.8396 353.488 87.0862 356.895 86.8848 362.033Z" fill="white"/>
<path id="Vector_39" d="M34.507 361.907C28.6172 363.271 26.326 354.469 32.1432 352.827C33.0676 352.566 34.1406 352.441 35.3753 352.523C42.216 352.976 37.2142 356.706 40.1922 357.787C41.8 358.371 38.3466 361.018 34.507 361.91V361.907Z" fill="white"/>
<g id="personWaterVector">
<g id="Group_3">
<path id="Vector_40" d="M217.564 203.114C224.538 187.496 219.956 172.836 212.844 153.353C193.832 101.275 162.271 106.549 155.976 100.148C149.681 93.7464 131.774 78.848 117.479 96.8276C110.282 105.877 117.308 114.535 117.308 114.535L121.175 129.92C121.301 130.421 121.799 130.736 122.304 130.633L127.237 129.635C128.125 129.455 129.047 129.551 129.884 129.901C132.192 130.862 137.352 132.609 141.727 131.197C141.727 131.197 132.533 164.933 103.487 159.061C103.514 158.908 103.541 158.752 103.568 158.579C103.575 158.512 103.579 158.446 103.589 158.38L103.589 158.37C104.239 153.063 102.094 148.178 101.379 146.731C101.229 146.43 100.839 146.356 100.58 146.571C100.266 146.831 99.1496 147.838 99.5313 150.313C100.03 153.58 99.7813 155.398 99.5975 156.183C96.8151 154.328 92.1373 156.526 89.1312 153.692C85.8163 150.565 83.5836 146.061 83.011 147.376C82.6748 148.15 83.6519 151.061 84.5181 153.338C84.588 153.52 84.3285 153.643 84.2357 153.468C82.8932 151.008 81.1163 148.092 80.1863 148.304C79.2366 148.52 80.5099 152.573 81.3616 154.987C81.4249 155.166 81.1782 155.278 81.0793 155.117C79.0754 151.889 76.4552 149.205 76.0122 150.205C75.6053 151.113 78.082 155.523 79.1875 157.417C79.2762 157.572 79.0809 157.729 78.9474 157.612C75.0312 154.152 72.0183 151.814 72.1305 153.32C72.1983 154.201 75.7755 159.287 78.9923 163.697C81.3499 166.928 87.7913 170.579 96.2266 170.918C102.039 176.634 125.004 196.792 151.678 174.671C151.678 174.671 131.125 241.521 163.763 319.836C163.763 319.836 150.879 327.523 145.528 332.158C143.905 333.564 142.98 335.677 143.272 337.809C143.277 337.845 143.282 337.881 143.287 337.917C143.635 340.225 145.908 341.719 148.192 341.252C158.323 339.176 189.039 329.395 192.12 319.72C193.417 315.648 203.303 287.238 196.644 260.971C202.951 279.147 211.339 306.474 215.281 310.584C215.281 310.584 206.04 322.406 202.722 328.664C201.716 330.562 201.619 332.867 202.657 334.747C202.675 334.78 202.693 334.812 202.711 334.844C203.871 336.868 206.363 337.134 208.489 336.181C218.083 331.874 242.52 310.344 241.682 300.225C238.857 266.096 233.283 226.209 217.564 203.114Z" fill="white"/>
<path id="Vector_41" d="M142.744 202.008L136.254 186.399C136.043 186.066 135.645 185.798 135.27 185.908C114.74 191.82 98.8639 176.633 96.3919 173.516C96.0303 173.061 95.4635 172.849 94.8878 172.911C89.7587 173.467 85.9288 172.196 83.1418 170.391C81.8188 173.542 83.8751 180.699 83.8751 180.699L80.2512 183.061C76.9597 176.253 78.7195 169.18 79.3792 167.058C78.187 165.647 77.4513 164.333 77.078 163.581C76.9489 163.321 76.5684 163.31 76.4366 163.57C70.5132 175.241 76.3702 192.565 79.1023 199.348C79.5968 200.575 78.5501 201.85 77.2466 201.64C59.7374 198.845 48.8595 205.358 45.0858 208.195C44.2546 208.82 44.1701 210.027 44.8996 210.765L50.2166 216.15C50.7742 216.717 51.6647 216.844 52.328 216.404C60.2795 211.174 70.495 211.998 76.0426 213.006C78.4985 213.452 80.7547 214.613 82.5416 216.358L97.7929 231.278C98.2672 231.742 98.9603 231.89 99.5823 231.661C106.5 229.113 135.646 208.951 142.277 204.335C143.03 203.809 143.234 202.786 142.741 202.012L142.744 202.008Z" fill="white"/>
<path id="Vector_42" d="M88.2194 150.847L89.3659 152.188C89.5392 152.392 89.856 152.383 90.0262 152.175C90.5272 151.556 91.6775 150.479 93.6238 150.403C95.3591 150.334 96.7673 150.689 97.5676 150.958C97.8724 151.062 98.173 150.809 98.1274 150.49C98.0072 149.704 97.9712 148.456 98.6605 147.503C98.8517 147.241 98.6789 146.88 98.3566 146.834C96.5685 146.567 92.0519 146.483 88.1705 150.36C88.0433 150.487 88.105 150.71 88.2194 150.847Z" fill="white"/>
</g>
<path id="Vector_43" d="M105.926 145.775C106.646 146.713 108.989 150.564 107.927 156.617C107.909 156.709 107.957 156.805 108.046 156.843C113.479 159.215 121.405 156.866 123.023 156.343C123.205 156.282 123.314 156.089 123.253 155.906C122.578 153.812 116.541 146.528 106.037 145.581C105.932 145.573 105.864 145.691 105.926 145.775Z" fill="white"/>
</g>
<g id="Group_4">
<path id="Vector_44" d="M254.458 149.589C251.097 146.896 253.434 142.419 254.458 142.522C255.481 142.624 253.741 144.177 255.379 146.721C257.607 150.187 257.016 151.638 254.458 149.589Z" fill="white"/>
<path id="Vector_45" d="M43.8437 173.422C43.7743 172.989 43.2164 172.84 42.9358 173.177C42.566 173.617 42.2193 174.36 42.5528 175.45C43.0447 177.056 44.0715 174.846 43.847 173.422H43.8437Z" fill="white"/>
<path id="Vector_46" d="M41.5988 219.56C41.4502 219.675 41.2422 219.665 41.0936 219.55C40.7074 219.252 39.6344 218.473 39.9183 217.445C40.2022 216.418 41.3082 217.118 40.9055 218.06C40.4697 219.081 42.0115 219.236 41.6021 219.556L41.5988 219.56Z" fill="white"/>
<path id="Vector_47" d="M25.1607 195.057C24.8174 194.832 24.3618 195.166 24.4674 195.562C24.583 195.989 24.9065 196.451 25.6196 196.871C27.7029 198.097 28.9871 195.767 27.211 195.46C26.1644 195.278 25.5206 195.291 25.1607 195.054V195.057Z" fill="white"/>
<path id="Vector_48" d="M32.5758 90.2541C32.2324 90.0295 31.7768 90.3632 31.8825 90.7597C31.998 91.1859 32.3216 91.6485 33.0347 92.0681C35.1179 93.2939 36.4022 90.9645 34.626 90.6572C33.5794 90.4755 32.9356 90.4887 32.5758 90.2508V90.2541Z" fill="white"/>
<path id="Vector_49" d="M63.4579 87.8323C63.1145 87.6076 62.6589 87.9413 62.7646 88.3378C62.8801 88.764 63.2037 89.2266 63.9168 89.6462C66 90.872 67.2843 88.5426 65.5081 88.2354C64.4615 88.0536 63.8177 88.0669 63.4579 87.829V87.8323Z" fill="white"/>
<path id="Vector_50" d="M23.0576 284.079C22.569 283.719 21.9021 284.142 21.9912 284.74C22.4501 287.733 25.5469 289.924 27.3066 288.434C28.6734 287.277 27.1184 287.056 24.5532 285.173L23.0576 284.076V284.079Z" fill="white"/>
<path id="Vector_51" d="M89.8927 126.038C90.038 125.519 89.4833 125.1 89.0145 125.361C86.6804 126.669 85.8286 129.917 87.6081 130.911C88.9914 131.685 88.691 130.327 89.4503 127.617L89.8927 126.038Z" fill="white"/>
<path id="Vector_52" d="M227.046 214.442C226.854 214.475 226.729 214.657 226.735 214.852C226.768 215.856 227.108 218.946 230.149 218.057C231.793 217.578 229.938 216.084 228.7 215.826C227.584 215.592 227.855 214.303 227.046 214.442Z" fill="white"/>
<path id="Vector_53" d="M43.6919 198.083C43.4113 198.192 42.7146 199.217 43.6919 199.702C44.6691 200.188 44.6823 197.7 43.6919 198.083Z" fill="white"/>
<path id="Vector_54" d="M5.08104 196.791C4.80042 196.9 4.10381 197.925 5.08104 198.41C6.05828 198.896 6.07149 196.408 5.08104 196.791Z" fill="white"/>
<path id="Vector_55" d="M249.971 310.783C249.691 310.892 248.994 311.916 249.971 312.402C250.948 312.887 250.962 310.399 249.971 310.783Z" fill="white"/>
<path id="Vector_56" d="M208.013 316.476C207.732 316.585 207.035 317.609 208.013 318.095C208.99 318.581 209.003 316.093 208.013 316.476Z" fill="white"/>
<path id="Vector_57" d="M241.163 209.427C240.882 209.536 240.186 210.56 241.163 211.046C242.14 211.531 242.153 209.043 241.163 209.427Z" fill="white"/>
<path id="Vector_58" d="M138.886 295.924C138.606 296.033 137.909 297.057 138.886 297.543C139.864 298.029 139.877 295.541 138.886 295.924Z" fill="white"/>
<path id="Vector_59" d="M200.997 297.52C200.716 297.629 200.02 298.653 200.997 299.139C201.974 299.625 201.988 297.137 200.997 297.52Z" fill="white"/>
<path id="Vector_60" d="M69.4368 184.143C69.1561 184.252 68.4595 185.277 69.4368 185.762C70.414 186.248 70.4272 183.76 69.4368 184.143Z" fill="white"/>
<path id="Vector_61" d="M44.9861 211.508C44.7054 211.617 44.0088 212.641 44.9861 213.127C45.9633 213.613 45.9765 211.125 44.9861 211.508Z" fill="white"/>
<path id="Vector_62" d="M37.9341 211.97C37.6534 212.08 36.9568 213.104 37.9341 213.59C38.9113 214.075 38.9245 211.587 37.9341 211.97Z" fill="white"/>
<path id="Vector_63" d="M35.0749 207.47C34.7712 207.586 34.0284 208.686 35.0749 209.205C36.1215 209.727 36.1347 207.057 35.0749 207.47Z" fill="white"/>
<path id="Vector_64" d="M252.84 123.477C253.144 123.593 253.887 124.693 252.84 125.212C251.794 125.734 251.78 123.064 252.84 123.477Z" fill="white"/>
<path id="Vector_65" d="M22.1299 165.621C21.8492 165.73 21.1526 166.754 22.1299 167.24C23.1071 167.726 23.1203 165.238 22.1299 165.621Z" fill="white"/>
<path id="Vector_66" d="M40.529 137.272C40.2484 137.381 39.5518 138.405 40.529 138.891C41.5063 139.376 41.5195 136.888 40.529 137.272Z" fill="white"/>
<path id="Vector_67" d="M72.6689 101.587C72.3883 101.696 71.6917 102.72 72.6689 103.206C73.6462 103.692 73.6594 101.204 72.6689 101.587Z" fill="white"/>
<path id="Vector_68" d="M120.481 136.495C120.2 136.604 119.503 137.628 120.481 138.114C121.458 138.6 121.471 136.112 120.481 136.495Z" fill="white"/>
<path id="Vector_69" d="M56.396 167.887C56.1154 167.997 55.4188 169.021 56.396 169.506C57.3732 169.992 57.3864 167.504 56.396 167.887Z" fill="white"/>
<path id="Vector_70" d="M67.8486 176.141C67.568 176.25 66.8714 177.274 67.8486 177.76C68.8259 178.246 68.8391 175.758 67.8486 176.141Z" fill="white"/>
<path id="Vector_71" d="M243.418 240.514C243.137 240.623 242.44 241.648 243.418 242.133C244.395 242.619 244.408 240.131 243.418 240.514Z" fill="white"/>
<path id="Vector_72" d="M34.4346 174.585C34.0417 174.248 33.4144 174.955 33.7776 176.551C34.1407 178.147 35.6462 177.33 34.9265 176.551C34.2068 175.771 34.8208 174.915 34.4379 174.585H34.4346Z" fill="white"/>
<path id="Vector_73" d="M34.4346 161.924C34.0417 161.587 33.4144 162.294 33.7776 163.889C34.1407 165.485 35.6462 164.669 34.9265 163.889C34.2068 163.11 34.8208 162.254 34.4379 161.924H34.4346Z" fill="white"/>
<path id="Vector_74" d="M8.69285 214.925C8.29998 214.588 7.6727 215.295 8.03586 216.89C8.39902 218.486 9.90449 217.67 9.18477 216.89C8.46505 216.111 9.07912 215.255 8.69615 214.925H8.69285Z" fill="white"/>
<path id="Vector_75" d="M14.2591 271.761C13.754 271.867 13.929 272.795 15.4113 273.483C16.8937 274.17 17.1677 272.475 16.1113 272.571C15.0548 272.667 14.751 271.655 14.2558 271.761H14.2591Z" fill="white"/>
<path id="Vector_76" d="M91.8735 234.039C90.7609 233.837 90.3581 235.866 92.8012 238.473C95.2443 241.08 97.1856 237.875 94.967 237.204C92.7484 236.533 92.963 234.237 91.8735 234.039Z" fill="white"/>
<path id="Vector_77" d="M223.952 159.502C222.84 159.3 222.437 161.329 224.88 163.936C227.323 166.543 229.264 163.338 227.046 162.667C224.827 161.996 225.042 159.7 223.952 159.502Z" fill="white"/>
<path id="Vector_78" d="M112.56 112.587C111.448 112.385 111.045 114.414 113.488 117.021C115.931 119.628 117.873 116.423 115.654 115.752C113.435 115.081 113.65 112.785 112.56 112.587Z" fill="white"/>
<path id="Vector_79" d="M231.542 327.561C231.354 327.472 231.15 327.643 231.216 327.842C231.374 328.327 231.787 328.869 232.853 328.747C234.715 328.529 233.173 327.947 232.16 327.749C231.892 327.696 231.691 327.63 231.546 327.561H231.542Z" fill="white"/>
<path id="Vector_80" d="M251.13 190.586C250.942 190.497 250.737 190.669 250.803 190.867C250.962 191.353 251.374 191.895 252.441 191.772C254.303 191.554 252.761 190.973 251.747 190.775C251.48 190.722 251.279 190.656 251.133 190.586H251.13Z" fill="white"/>
<path id="Vector_81" d="M19.7232 211.3C19.5218 211.204 19.3006 211.389 19.3699 211.601C19.5416 212.123 19.984 212.704 21.123 212.569C23.1171 212.337 21.4664 211.713 20.3802 211.501C20.093 211.445 19.8784 211.373 19.7199 211.297L19.7232 211.3Z" fill="white"/>
<path id="Vector_82" d="M21.6182 235.634C21.4168 235.539 21.1956 235.724 21.2649 235.935C21.4366 236.457 21.879 237.039 23.018 236.903C25.0121 236.672 23.3614 236.047 22.2752 235.836C21.988 235.78 21.7734 235.707 21.6149 235.631L21.6182 235.634Z" fill="white"/>
<path id="Vector_83" d="M244.672 67.8463C244.471 67.7504 244.25 67.9355 244.319 68.1469C244.491 68.669 244.933 69.2505 246.072 69.115C248.066 68.8838 246.416 68.2593 245.329 68.0478C245.042 67.9916 244.828 67.919 244.669 67.843L244.672 67.8463Z" fill="white"/>
<path id="Vector_84" d="M71.3912 134.414C71.1898 134.318 70.9686 134.503 71.0379 134.714C71.2096 135.236 71.652 135.818 72.791 135.682C74.7851 135.451 73.1343 134.827 72.0481 134.615C71.7609 134.559 71.5463 134.486 71.3879 134.41L71.3912 134.414Z" fill="white"/>
<path id="Vector_85" d="M95.3003 81.6407C95.0989 81.5449 94.8777 81.7299 94.9471 81.9414C95.1188 82.4634 95.5611 83.0449 96.7002 82.9095C98.6942 82.6782 97.0435 82.0537 95.9573 81.8423C95.6701 81.7861 95.4555 81.7134 95.297 81.6374L95.3003 81.6407Z" fill="white"/>
<path id="Vector_86" d="M8.3892 229.538C8.18781 229.442 7.96661 229.627 8.03594 229.839C8.20762 230.361 8.65002 230.942 9.78902 230.807C11.7831 230.576 10.1324 229.951 9.04619 229.74C8.75897 229.684 8.54437 229.611 8.3859 229.535L8.3892 229.538Z" fill="white"/>
<path id="Vector_87" d="M20.6641 178.51C20.7037 178.004 20.1326 177.69 19.7397 178.008C18.7724 178.791 17.9008 180.198 19.1025 182.508C21.2023 186.549 21.1923 182.544 20.7632 180.073C20.6509 179.418 20.6311 178.906 20.6608 178.51H20.6641Z" fill="white"/>
<path id="Vector_88" d="M127.057 244.083C126.895 244.007 126.717 244.156 126.773 244.327C126.912 244.747 127.268 245.216 128.19 245.11C129.801 244.922 128.467 244.42 127.592 244.248C127.361 244.202 127.189 244.146 127.06 244.083H127.057Z" fill="white"/>
<path id="Vector_89" d="M125.968 258.638C125.806 258.562 125.628 258.71 125.684 258.882C125.823 259.302 126.179 259.771 127.1 259.665C128.711 259.477 127.378 258.975 126.503 258.803C126.272 258.757 126.1 258.7 125.971 258.638H125.968Z" fill="white"/>
<path id="Vector_90" d="M237.686 190.134C237.525 190.058 237.346 190.206 237.402 190.378C237.541 190.798 237.898 191.267 238.819 191.161C240.43 190.973 239.096 190.471 238.221 190.299C237.99 190.253 237.818 190.196 237.69 190.134H237.686Z" fill="white"/>
<path id="Vector_91" d="M32.6846 224.526C32.5228 224.45 32.3446 224.599 32.4007 224.771C32.5394 225.19 32.8959 225.66 33.817 225.554C35.4281 225.365 34.0944 224.863 33.2195 224.691C32.9884 224.645 32.8167 224.589 32.6879 224.526H32.6846Z" fill="white"/>
<path id="Vector_92" d="M93.9302 133.878C93.7685 133.802 93.5902 133.951 93.6463 134.123C93.785 134.542 94.1415 135.012 95.0626 134.906C96.6738 134.718 95.34 134.215 94.4651 134.043C94.234 133.997 94.0623 133.941 93.9335 133.878H93.9302Z" fill="white"/>
<path id="Vector_93" d="M84.2735 248.782C84.1117 248.706 83.9334 248.854 83.9896 249.026C84.1282 249.446 84.4848 249.915 85.4059 249.809C87.017 249.621 85.6832 249.119 84.8083 248.947C84.5772 248.901 84.4055 248.844 84.2768 248.782H84.2735Z" fill="white"/>
<path id="Vector_94" d="M238.944 81.2308C238.782 81.1548 238.604 81.3035 238.66 81.4753C238.799 81.895 239.155 82.3641 240.077 82.2584C241.688 82.0701 240.354 81.5679 239.479 81.396C239.248 81.3498 239.076 81.2936 238.947 81.2308H238.944Z" fill="white"/>
<path id="Vector_95" d="M117.179 236.411C117.863 236.715 118.731 236.887 119.834 236.797C119.972 236.788 120.108 236.735 120.22 236.662C121.524 235.81 119.646 235.42 117.717 234.894C116.757 234.63 116.268 236.008 117.179 236.411Z" fill="white"/>
<path id="Vector_96" d="M256.151 282.652C256.835 282.956 257.703 283.127 258.806 283.038C258.945 283.028 259.08 282.975 259.192 282.903C260.496 282.05 258.618 281.66 256.69 281.135C255.729 280.871 255.24 282.248 256.151 282.652Z" fill="white"/>
<path id="Vector_97" d="M129.091 306.097C129.774 306.401 130.643 306.573 131.745 306.484C131.884 306.474 132.019 306.421 132.132 306.348C133.436 305.496 131.557 305.106 129.629 304.581C128.668 304.316 128.18 305.694 129.091 306.097Z" fill="white"/>
<path id="Vector_98" d="M79.3015 229.056C80.0476 229.003 80.8961 228.745 81.8271 228.151C81.9426 228.078 82.0384 227.969 82.1044 227.847C82.8571 226.482 81.0149 227.021 79.0638 227.463C78.0931 227.681 78.3077 229.129 79.3015 229.056Z" fill="white"/>
<path id="Vector_99" d="M52.8073 121.97C53.4907 122.274 54.359 122.446 55.4616 122.357C55.6003 122.347 55.7357 122.294 55.8479 122.222C57.152 121.369 55.2735 120.979 53.3454 120.454C52.3847 120.19 51.8961 121.567 52.8073 121.97Z" fill="white"/>
<path id="Vector_100" d="M89.7374 114.893C90.4208 115.197 91.2891 115.369 92.3918 115.279C92.5305 115.269 92.6658 115.217 92.7781 115.144C94.0822 114.291 92.2036 113.902 90.2756 113.376C89.3148 113.112 88.8262 114.49 89.7374 114.893Z" fill="white"/>
<path id="Vector_101" d="M246.614 177.535C247.297 177.839 248.165 178.011 249.268 177.922C249.407 177.912 249.542 177.859 249.654 177.786C250.958 176.934 249.08 176.544 247.152 176.019C246.191 175.754 245.702 177.132 246.614 177.535Z" fill="white"/>
<path id="Vector_102" d="M251.569 89.4514C250.886 89.7553 250.017 89.9272 248.915 89.8379C248.776 89.828 248.641 89.7752 248.528 89.7025C247.224 88.85 249.103 88.4601 251.031 87.9348C251.992 87.6705 252.48 89.0483 251.569 89.4514Z" fill="white"/>
<path id="Vector_103" d="M243.216 108.599C242.533 108.903 241.665 109.075 240.562 108.985C240.423 108.976 240.288 108.923 240.176 108.85C238.872 107.997 240.75 107.608 242.678 107.082C243.639 106.818 244.128 108.196 243.216 108.599Z" fill="white"/>
<path id="Vector_104" d="M37.9175 115.326C39.7003 108.344 48.129 108.827 48.6803 110.456C49.2317 112.085 45.6694 110.505 42.9193 114.754C39.1754 120.543 36.5606 120.639 37.9175 115.326Z" fill="white"/>
<path id="Vector_105" d="M10.2644 42.811C10.0465 42.4509 9.47864 42.5599 9.40271 42.9729C9.32347 43.419 9.41591 43.9873 9.89132 44.6878C11.2746 46.733 13.4833 45.147 11.9779 44.0864C11.0931 43.4619 10.4922 43.1877 10.2611 42.811H10.2644Z" fill="white"/>
<path id="Vector_106" d="M30.1987 142.865C29.9445 142.396 29.2578 142.479 29.1059 142.988C28.3433 145.532 29.9709 148.433 31.9287 147.917C33.4474 147.514 32.2984 146.754 30.9713 144.296L30.1987 142.865Z" fill="white"/>
<path id="Vector_107" d="M32.2259 133.488C31.9419 133.468 30.9383 134.057 31.5722 134.863C32.2061 135.669 33.2196 133.561 32.2259 133.488Z" fill="white"/>
<path id="Vector_108" d="M106.327 137.314C106.044 137.295 105.04 137.883 105.674 138.689C106.308 139.495 107.321 137.387 106.327 137.314Z" fill="white"/>
<path id="Vector_109" d="M20.5187 114.447C19.7131 113.869 18.6302 115.323 19.5844 118.31C20.5385 121.297 23.2853 119.489 21.7798 118.121C20.2744 116.753 21.3077 115.015 20.5187 114.45V114.447Z" fill="white"/>
<path id="Vector_110" d="M55.8973 187.434C55.0918 186.856 54.0089 188.31 54.963 191.297C55.9171 194.284 58.664 192.476 57.1585 191.109C55.653 189.741 56.6864 188.003 55.8973 187.438V187.434Z" fill="white"/>
<path id="Vector_111" d="M109.378 97.9432C108.572 97.365 107.489 98.8188 108.443 101.806C109.398 104.793 112.144 102.985 110.639 101.617C109.133 100.249 110.167 98.5115 109.378 97.9465V97.9432Z" fill="white"/>
<path id="Vector_112" d="M19.2016 138.18C19.0794 138.028 18.8351 138.094 18.8087 138.286C18.746 138.762 18.8814 139.389 19.8322 139.713C21.4994 140.281 20.4264 139.165 19.6473 138.586C19.4393 138.434 19.2973 138.296 19.2016 138.177V138.18Z" fill="white"/>
<path id="Vector_113" d="M19.3666 151.764C19.7925 152.262 20.4165 152.725 21.3244 153.069C21.4367 153.112 21.5621 153.122 21.6843 153.108C23.0379 152.927 21.6975 151.909 20.367 150.766C19.7034 150.194 18.7988 151.103 19.3699 151.764H19.3666Z" fill="white"/>
<path id="Vector_114" d="M68.1459 156.667C68.5718 157.166 69.1958 157.628 70.1037 157.972C70.216 158.015 70.3414 158.025 70.4636 158.012C71.8172 157.83 70.4768 156.812 69.1463 155.669C68.4827 155.097 67.5781 156.006 68.1492 156.667H68.1459Z" fill="white"/>
<path id="Vector_115" d="M49.7006 153.029C50.1265 153.528 50.7505 153.99 51.6584 154.334C51.7706 154.377 51.8961 154.387 52.0183 154.373C53.3719 154.192 52.0315 153.174 50.701 152.031C50.0374 151.459 49.1328 152.368 49.7039 153.029H49.7006Z" fill="white"/>
<path id="Vector_116" d="M97.7929 280.633C97.7005 280.051 96.9478 279.853 96.5714 280.302C96.0762 280.894 95.6074 281.892 96.0564 283.359C96.7167 285.516 98.0967 282.549 97.7929 280.633Z" fill="white"/>
<path id="Vector_117" d="M227.465 335.877C227.373 335.296 226.62 335.098 226.244 335.547C225.748 336.138 225.279 337.136 225.728 338.603C226.389 340.761 227.769 337.794 227.465 335.877Z" fill="white"/>
<path id="Vector_118" d="M224.183 55.3796C223.78 55.1153 223.252 55.5052 223.378 55.9678C223.513 56.4667 223.889 57.0052 224.718 57.4942C227.145 58.9216 228.64 56.209 226.574 55.8521C225.355 55.6407 224.603 55.6539 224.183 55.3796Z" fill="white"/>
<path id="Vector_119" d="M251.879 33.4965C252.048 32.8951 251.401 32.4028 250.856 32.7068C248.139 34.23 247.145 38.0132 249.218 39.1729C250.83 40.0749 250.48 38.4922 251.364 35.3335L251.879 33.4932V33.4965Z" fill="white"/>
<path id="Vector_120" d="M204.282 80.0579C204.001 80.1669 203.305 81.1912 204.282 81.6769C205.259 82.1626 205.272 79.6746 204.282 80.0579Z" fill="white"/>
<path id="Vector_121" d="M147.744 183.859C147.365 184.005 146.434 185.383 147.744 186.034C149.055 186.684 149.075 183.344 147.744 183.859Z" fill="white"/>
<path id="Vector_122" d="M204.276 116.244C203.972 116.36 203.229 117.46 204.276 117.979C205.322 118.501 205.335 115.831 204.276 116.244Z" fill="white"/>
<path id="Vector_123" d="M229.04 35.5387C228.687 35.6742 227.822 36.9528 229.04 37.5608C230.258 38.1687 230.275 35.0596 229.04 35.5387Z" fill="white"/>
<path id="Vector_124" d="M72.0515 36.0608C71.7709 36.1699 71.0743 37.1941 72.0515 37.6798C73.0287 38.1655 73.0419 35.6775 72.0515 36.0608Z" fill="white"/>
<path id="Vector_125" d="M247.505 299.086C247.125 299.231 246.194 300.609 247.505 301.26C248.816 301.914 248.836 298.571 247.505 299.086Z" fill="white"/>
<path id="Vector_126" d="M250.631 200.135C250.252 200.281 249.321 201.658 250.631 202.309C251.942 202.964 251.962 199.62 250.631 200.135Z" fill="white"/>
<path id="Vector_127" d="M124.862 317.84C124.482 317.986 123.551 319.364 124.862 320.014C126.173 320.669 126.192 317.325 124.862 317.84Z" fill="white"/>
<path id="Vector_128" d="M139.467 349.232C139.088 349.378 138.157 350.756 139.467 351.407C140.778 352.061 140.798 348.717 139.467 349.232Z" fill="white"/>
<path id="Vector_129" d="M242.757 121.276C242.378 121.422 241.447 122.8 242.757 123.451C244.068 124.101 244.088 120.761 242.757 121.276Z" fill="white"/>
<path id="Vector_130" d="M236.3 171.192C235.92 171.337 234.989 172.715 236.3 173.366C237.61 174.017 237.63 170.676 236.3 171.192Z" fill="white"/>
<path id="Vector_131" d="M255.392 304.135C252.031 301.442 254.369 296.965 255.392 297.067C256.416 297.17 254.676 298.722 256.313 301.267C258.542 304.733 257.951 306.183 255.392 304.135Z" fill="white"/>
<path id="Vector_132" d="M139.682 224.387C139.303 224.533 138.372 225.91 139.682 226.561C140.993 227.216 141.013 223.872 139.682 224.387Z" fill="white"/>
<path id="Vector_133" d="M122.303 222.99C121.923 223.135 120.992 224.513 122.303 225.164C123.614 225.815 123.634 222.474 122.303 222.99Z" fill="white"/>
<path id="Vector_134" d="M227.204 177.228C226.825 177.373 225.894 178.751 227.204 179.402C228.515 180.056 228.535 176.713 227.204 177.228Z" fill="white"/>
<path id="Vector_135" d="M145.721 193.17C145.341 193.316 144.41 194.694 145.721 195.345C147.031 195.999 147.051 192.655 145.721 193.17Z" fill="white"/>
<path id="Vector_136" d="M257.37 163.404C256.977 163.067 256.35 163.774 256.713 165.369C257.076 166.965 258.581 166.149 257.862 165.369C257.142 164.59 257.756 163.734 257.373 163.404H257.37Z" fill="white"/>
<path id="Vector_137" d="M223.295 83.4416C222.183 83.24 221.78 85.2687 224.223 87.8756C226.666 90.4826 228.607 87.2776 226.389 86.6069C224.17 85.9361 224.385 83.6398 223.295 83.4416Z" fill="white"/>
<path id="Vector_138" d="M89.1102 67.5849C87.8127 67.3503 87.3439 69.7128 90.1898 72.7492C93.0356 75.7857 95.2971 72.0521 92.7154 71.269C90.1336 70.4859 90.3813 67.8096 89.1135 67.5816L89.1102 67.5849Z" fill="white"/>
<path id="Vector_139" d="M214.289 104.31C213.998 104.171 213.681 104.439 213.784 104.746C214.028 105.496 214.665 106.332 216.306 106.141C219.175 105.807 216.801 104.908 215.24 104.604C214.827 104.525 214.52 104.419 214.292 104.31H214.289Z" fill="white"/>
<path id="Vector_140" d="M16.8211 74.0643C16.8673 73.4761 16.2037 73.1094 15.7448 73.4794C14.619 74.3914 13.6021 76.0302 15.002 78.723C17.4483 83.4314 17.4384 78.766 16.9366 75.8848C16.8046 75.1216 16.7815 74.5268 16.8178 74.0643H16.8211Z" fill="white"/>
<path id="Vector_141" d="M138.325 34.9769C138.163 34.9009 137.985 35.0496 138.041 35.2214C138.18 35.641 138.537 36.1102 139.458 36.0045C141.069 35.8162 139.735 35.3139 138.86 35.1421C138.629 35.0959 138.457 35.0397 138.329 34.9769H138.325Z" fill="white"/>
<path id="Vector_142" d="M53.527 75.4686C54.3227 75.8221 55.3362 76.0204 56.6172 75.9179C56.7757 75.9047 56.9341 75.8452 57.0695 75.7593C58.5915 74.7681 56.4026 74.3154 54.1543 73.7009C53.0351 73.3936 52.4672 74.9994 53.527 75.4686Z" fill="white"/>
<path id="Vector_143" d="M236.471 322.948C237.389 323.355 238.558 323.586 240.037 323.467C240.222 323.454 240.403 323.385 240.559 323.285C242.312 322.142 239.789 321.617 237.198 320.91C235.907 320.556 235.25 322.407 236.475 322.948H236.471Z" fill="white"/>
<path id="Vector_144" d="M240.374 162.924C241.291 163.331 242.46 163.562 243.939 163.443C244.124 163.43 244.306 163.361 244.461 163.261C246.214 162.118 243.692 161.593 241.1 160.886C239.809 160.532 239.152 162.383 240.377 162.924H240.374Z" fill="white"/>
<path id="Vector_145" d="M250.737 258.74C251.655 259.146 252.824 259.378 254.303 259.259C254.488 259.245 254.669 259.176 254.824 259.077C256.578 257.934 254.055 257.408 251.464 256.701C250.173 256.348 249.516 258.198 250.741 258.74H250.737Z" fill="white"/>
<path id="Vector_146" d="M98.6053 262.735C95.2444 260.042 97.5819 255.565 98.6053 255.667C99.6288 255.77 97.8889 257.323 99.5264 259.867C101.755 263.333 101.164 264.783 98.6053 262.735Z" fill="white"/>
<path id="Vector_147" d="M127.104 281.72C126.615 281.36 125.948 281.783 126.037 282.381C126.496 285.374 129.593 287.565 131.353 286.075C132.719 284.918 131.164 284.697 128.599 282.813L127.104 281.716V281.72Z" fill="white"/>
<path id="Vector_148" d="M252.89 231.095C252.401 230.735 251.734 231.158 251.823 231.756C252.282 234.749 255.379 236.94 257.139 235.45C258.505 234.293 256.95 234.072 254.385 232.188L252.89 231.091V231.095Z" fill="white"/>
<path id="Vector_149" d="M258.192 210.246C258.938 210.193 259.786 209.935 260.717 209.341C260.833 209.268 260.929 209.159 260.995 209.037C261.748 207.672 259.905 208.211 257.954 208.653C256.984 208.871 257.198 210.319 258.192 210.246Z" fill="white"/>
<path id="Vector_150" d="M132.059 272.518C132.977 272.924 134.146 273.155 135.625 273.036C135.809 273.023 135.991 272.954 136.146 272.855C137.899 271.712 135.377 271.186 132.785 270.479C131.494 270.126 130.837 271.976 132.062 272.518H132.059Z" fill="white"/>
<path id="Vector_151" d="M89.4931 25.6199C90.2887 25.9735 91.3023 26.1717 92.5832 26.0693C92.7417 26.0561 92.9002 25.9966 93.0355 25.9107C94.5575 24.9195 92.3686 24.4668 90.1203 23.8522C89.0011 23.545 88.4333 25.1508 89.4931 25.6199Z" fill="white"/>
<path id="Vector_152" d="M171.165 66.6632C170.835 66.64 169.666 67.324 170.406 68.2657C171.142 69.204 172.324 66.7491 171.165 66.6632Z" fill="white"/>
<path id="Vector_153" d="M244.567 3.74666C244.236 3.72353 243.068 4.40748 243.807 5.34915C244.544 6.28751 245.725 3.83257 244.567 3.74666Z" fill="white"/>
<path id="Vector_154" d="M213.533 128.007C212.592 127.333 211.334 129.028 212.443 132.504C213.556 135.983 216.752 133.878 214.999 132.282C213.246 130.69 214.451 128.664 213.529 128.004L213.533 128.007Z" fill="white"/>
<path id="Vector_155" d="M198.188 104.611C194.827 101.918 197.164 97.4408 198.188 97.5432C199.211 97.6457 197.471 99.1986 199.109 101.743C201.337 105.209 200.746 106.659 198.188 104.611Z" fill="white"/>
<path id="Vector_156" d="M234.613 117.573C234.124 117.213 233.457 117.636 233.546 118.234C234.005 121.227 237.102 123.418 238.862 121.928C240.229 120.771 238.674 120.55 236.108 118.666L234.613 117.569V117.573Z" fill="white"/>
<path id="Vector_157" d="M124.221 69.4915C123.941 69.6005 123.244 70.6248 124.221 71.1105C125.199 71.5962 125.212 69.1082 124.221 69.4915Z" fill="white"/>
<path id="Vector_158" d="M179.184 86.5174C178.996 86.4282 178.791 86.6 178.857 86.7982C179.016 87.2839 179.429 87.8258 180.495 87.7035C182.357 87.4855 180.815 86.9039 179.802 86.7057C179.534 86.6528 179.333 86.5867 179.188 86.5174H179.184Z" fill="white"/>
<path id="Vector_159" d="M132.003 74.8443C131.623 74.9897 130.692 76.3675 132.003 77.0184C133.314 77.6726 133.333 74.3289 132.003 74.8443Z" fill="white"/>
<path id="Vector_160" d="M182.38 65.9429C182 66.0883 181.069 67.4661 182.38 68.117C183.691 68.7712 183.711 65.4275 182.38 65.9429Z" fill="white"/>
<path id="Vector_161" d="M184.817 94.9791C184.437 95.1244 183.506 96.5022 184.817 97.1532C186.127 97.8074 186.147 94.4636 184.817 94.9791Z" fill="white"/>
<path id="Vector_162" d="M118.18 83.1208C117.787 82.7838 117.16 83.4909 117.523 85.0868C117.886 86.6826 119.391 85.8665 118.672 85.0868C117.952 84.307 118.566 83.4512 118.183 83.1208H118.18Z" fill="white"/>
<path id="Vector_163" d="M155.45 86.6032C156.368 87.0096 157.537 87.2409 159.016 87.1219C159.201 87.1087 159.382 87.0393 159.537 86.9402C161.29 85.797 158.768 85.2716 156.176 84.5646C154.886 84.211 154.229 86.0613 155.453 86.6032H155.45Z" fill="white"/>
<path id="Vector_164" d="M226.755 203.32C227.673 203.727 228.842 203.958 230.321 203.839C230.506 203.826 230.687 203.757 230.842 203.657C232.596 202.514 230.073 201.989 227.482 201.282C226.191 200.928 225.534 202.779 226.759 203.32H226.755Z" fill="white"/>
<path id="Vector_165" d="M153.598 63.9307C152.657 63.2567 151.399 64.9517 152.508 68.4276C153.621 71.9068 156.817 69.8021 155.064 68.2062C153.311 66.6136 154.516 64.5882 153.595 63.9274L153.598 63.9307Z" fill="white"/>
<path id="Vector_166" d="M7.92709 285.49C4.56619 282.797 6.90364 278.32 7.92709 278.422C8.95055 278.525 7.21067 280.077 8.8482 282.622C11.0767 286.088 10.4857 287.538 7.92709 285.49Z" fill="white"/>
<path id="Vector_167" d="M151.868 345.839C151.551 345.608 151.118 345.879 151.178 346.269C151.475 348.208 153.482 349.629 154.625 348.661C155.509 347.911 154.502 347.766 152.839 346.55L151.868 345.839Z" fill="white"/>
<path id="Vector_168" d="M239.694 223.69C239.839 223.171 239.284 222.752 238.816 223.013C236.481 224.321 235.63 227.569 237.409 228.564C238.792 229.337 238.492 227.979 239.251 225.27L239.694 223.69Z" fill="white"/>
<path id="Vector_169" d="M31.2322 270.932C30.9515 271.041 30.2549 272.065 31.2322 272.551C32.2094 273.037 32.2226 270.549 31.2322 270.932Z" fill="white"/>
<path id="Vector_170" d="M22.4866 274.461C22.2059 274.57 21.5093 275.594 22.4866 276.08C23.4638 276.565 23.477 274.077 22.4866 274.461Z" fill="white"/>
<path id="Vector_171" d="M62.0217 269.828C61.7411 269.937 61.0445 270.962 62.0217 271.447C62.999 271.933 63.0122 269.445 62.0217 269.828Z" fill="white"/>
<path id="Vector_172" d="M247.545 281.604C247.264 281.713 246.567 282.738 247.545 283.223C248.522 283.709 248.535 281.221 247.545 281.604Z" fill="white"/>
<path id="Vector_173" d="M44.9265 272.74C44.6459 272.849 43.9493 273.873 44.9265 274.359C45.9037 274.844 45.9169 272.356 44.9265 272.74Z" fill="white"/>
<path id="Vector_174" d="M4.58589 101.561C3.47329 101.36 3.07051 103.388 5.5136 105.995C7.95669 108.602 9.89796 105.397 7.67937 104.726C5.46078 104.056 5.67537 101.759 4.58589 101.561Z" fill="white"/>
<path id="Vector_175" d="M124.931 290.74C124.743 290.651 124.538 290.823 124.604 291.021C124.763 291.507 125.176 292.048 126.242 291.926C128.104 291.708 126.562 291.127 125.549 290.928C125.281 290.875 125.08 290.809 124.935 290.74H124.931Z" fill="white"/>
<path id="Vector_176" d="M18.7591 256.516C18.4455 256.368 18.1021 256.655 18.211 256.985C18.4752 257.798 19.1652 258.704 20.9414 258.495C24.0481 258.135 21.4762 257.161 19.7859 256.834C19.3368 256.748 19.0067 256.635 18.7591 256.516Z" fill="white"/>
<path id="Vector_177" d="M139.402 320.008C140.148 319.955 140.996 319.697 141.927 319.102C142.043 319.03 142.138 318.921 142.205 318.798C142.957 317.434 141.115 317.972 139.164 318.415C138.193 318.633 138.408 320.08 139.402 320.008Z" fill="white"/>
<path id="Vector_178" d="M254.613 268.712C255.359 268.659 256.208 268.401 257.139 267.806C257.254 267.734 257.35 267.625 257.416 267.502C258.169 266.138 256.326 266.676 254.375 267.119C253.405 267.337 253.619 268.784 254.613 268.712Z" fill="white"/>
<path id="Vector_179" d="M77.5385 281.175C78.2219 281.478 79.0901 281.65 80.1928 281.561C80.3315 281.551 80.4669 281.498 80.5791 281.426C81.8832 280.573 80.0047 280.183 78.0766 279.658C77.1159 279.394 76.6273 280.771 77.5385 281.175Z" fill="white"/>
<path id="Vector_180" d="M91.7447 299.403C91.1868 299.003 90.4406 300.008 91.0976 302.073C91.7579 304.138 93.653 302.889 92.613 301.941C91.573 300.996 92.2862 299.793 91.7414 299.403H91.7447Z" fill="white"/>
<path id="Vector_181" d="M78.4794 305.704C78.3573 305.552 78.113 305.619 78.0866 305.81C78.0238 306.286 78.1592 306.914 79.11 307.238C80.7772 307.806 79.7043 306.689 78.9251 306.111C78.7171 305.959 78.5752 305.82 78.4794 305.701V305.704Z" fill="white"/>
<path id="Vector_182" d="M244.781 270.347C245.207 270.846 245.831 271.309 246.739 271.652C246.851 271.695 246.977 271.705 247.099 271.692C248.452 271.51 247.112 270.492 245.782 269.349C245.118 268.778 244.213 269.686 244.784 270.347H244.781Z" fill="white"/>
<path id="Vector_183" d="M64.1775 225.613C64.085 225.032 63.3323 224.834 62.9559 225.283C62.4607 225.874 61.9919 226.872 62.4409 228.339C63.1012 230.497 64.4812 227.53 64.1775 225.613Z" fill="white"/>
<path id="Vector_184" d="M7.11473 254.025C7.02229 253.443 6.26955 253.245 5.89318 253.695C5.39796 254.286 4.92915 255.284 5.37815 256.751C6.03845 258.908 7.41846 255.941 7.11473 254.025Z" fill="white"/>
<path id="Vector_185" d="M96.1952 338.253C95.8155 338.398 94.8845 339.776 96.1952 340.427C97.5059 341.081 97.5257 337.738 96.1952 338.253Z" fill="white"/>
<path id="Vector_186" d="M183.562 336.228C183.182 336.373 182.251 337.751 183.562 338.402C184.873 339.056 184.893 335.712 183.562 336.228Z" fill="white"/>
<path id="Vector_187" d="M93.7487 317.787C93.369 317.933 92.438 319.31 93.7487 319.961C95.0594 320.615 95.0792 317.272 93.7487 317.787Z" fill="white"/>
<path id="Vector_188" d="M101.676 305.582C101.296 305.727 100.365 307.105 101.676 307.756C102.986 308.41 103.006 305.067 101.676 305.582Z" fill="white"/>
<path id="Vector_189" d="M146.553 309.345C146.173 309.491 145.242 310.869 146.553 311.519C147.863 312.17 147.883 308.83 146.553 309.345Z" fill="white"/>
<path id="Vector_190" d="M50.0802 216.699C49.7005 216.844 48.7695 218.222 50.0802 218.873C51.3909 219.524 51.4107 216.183 50.0802 216.699Z" fill="white"/>
<path id="Vector_191" d="M106.819 294.88C106.426 294.543 105.799 295.25 106.162 296.846C106.525 298.442 108.031 297.626 107.311 296.846C106.592 296.066 107.206 295.211 106.823 294.88H106.819Z" fill="white"/>
<path id="Vector_192" d="M221.034 344.898C221.952 345.304 223.12 345.535 224.599 345.416C224.784 345.403 224.966 345.334 225.121 345.235C226.874 344.091 224.352 343.566 221.76 342.859C220.469 342.505 219.812 344.356 221.037 344.898H221.034Z" fill="white"/>
<path id="Vector_193" d="M110.359 318.339C111.276 318.745 112.445 318.977 113.924 318.858C114.109 318.845 114.291 318.775 114.446 318.676C116.199 317.533 113.677 317.007 111.085 316.3C109.794 315.947 109.137 317.797 110.362 318.339H110.359Z" fill="white"/>
<path id="Vector_194" d="M183.602 355.398C183.321 355.507 182.624 356.531 183.602 357.017C184.579 357.502 184.592 355.014 183.602 355.398Z" fill="white"/>
<path id="Vector_195" d="M192.892 335.441C193.575 335.745 194.444 335.917 195.546 335.828C195.685 335.818 195.82 335.765 195.933 335.692C197.237 334.84 195.358 334.45 193.43 333.925C192.469 333.66 191.981 335.038 192.892 335.441Z" fill="white"/>
<path id="Vector_196" d="M196.21 348.076C195.83 348.221 194.899 349.599 196.21 350.25C197.521 350.904 197.541 347.56 196.21 348.076Z" fill="white"/>
<path id="Vector_197" d="M196.283 320.976C196.094 320.887 195.89 321.058 195.956 321.257C196.114 321.742 196.527 322.284 197.593 322.162C199.455 321.944 197.914 321.362 196.9 321.164C196.633 321.111 196.431 321.045 196.286 320.976H196.283Z" fill="white"/>
<path id="Vector_198" d="M205.154 347.531C205.9 347.478 206.748 347.22 207.679 346.625C207.795 346.553 207.891 346.444 207.957 346.321C208.709 344.957 206.867 345.495 204.916 345.938C203.945 346.156 204.16 347.603 205.154 347.531Z" fill="white"/>
<path id="Vector_199" d="M173.024 343.027C172.644 343.173 171.713 344.551 173.024 345.202C174.335 345.856 174.354 342.512 173.024 343.027Z" fill="white"/>
<path id="Vector_200" d="M162.974 345.135C162.594 345.281 161.663 346.659 162.974 347.309C164.285 347.964 164.305 344.62 162.974 345.135Z" fill="white"/>
<path id="Vector_201" d="M202.136 309.048C201.743 308.711 201.116 309.418 201.479 311.014C201.842 312.61 203.348 311.794 202.628 311.014C201.908 310.234 202.522 309.378 202.14 309.048H202.136Z" fill="white"/>
<path id="Vector_202" d="M181.707 348.575C182.624 348.981 183.793 349.213 185.272 349.094C185.457 349.08 185.639 349.011 185.794 348.912C187.547 347.769 185.025 347.243 182.433 346.536C181.142 346.183 180.485 348.033 181.71 348.575H181.707Z" fill="white"/>
<path id="Vector_203" d="M83.0884 290.363C82.1475 289.689 80.8896 291.384 81.9989 294.86C83.1115 298.339 86.3074 296.235 84.5543 294.639C82.8012 293.046 84.0062 291.021 83.0851 290.36L83.0884 290.363Z" fill="white"/>
<path id="Vector_204" d="M20.0699 20.6008C19.9279 20.4223 19.6407 20.4983 19.6143 20.7263C19.5417 21.2814 19.6968 22.0116 20.8094 22.3916C22.7507 23.0524 21.5027 21.7506 20.5915 21.0799C20.3505 20.9014 20.1855 20.7428 20.0732 20.6041L20.0699 20.6008Z" fill="white"/>
<path id="Vector_205" d="M145.364 14.1414C145.509 13.6227 144.955 13.203 144.486 13.4641C142.152 14.7725 141.3 18.0204 143.079 19.0149C144.463 19.7881 144.162 18.4301 144.921 15.7208L145.364 14.1414Z" fill="white"/>
<path id="Vector_206" d="M208.062 6.36356C207.782 6.47259 207.085 7.49686 208.062 7.98256C209.039 8.46826 209.053 5.98028 208.062 6.36356Z" fill="white"/>
<path id="Vector_207" d="M167.778 11.3888C166.665 11.1873 166.262 13.216 168.705 15.8229C171.149 18.4298 173.09 15.2249 170.871 14.5541C168.653 13.8834 168.867 11.5871 167.778 11.3888Z" fill="white"/>
<path id="Vector_208" d="M247.208 26.2508C247.02 26.1615 246.815 26.3334 246.881 26.5316C247.04 27.0173 247.452 27.5592 248.519 27.4369C250.381 27.2189 248.839 26.6373 247.825 26.4391C247.558 26.3862 247.356 26.3201 247.211 26.2508H247.208Z" fill="white"/>
<path id="Vector_209" d="M150.792 30.5329C151.475 30.8369 152.343 31.0087 153.446 30.9195C153.585 30.9096 153.72 30.8567 153.832 30.784C155.136 29.9316 153.258 29.5417 151.33 29.0163C150.369 28.752 149.88 30.1298 150.792 30.5329Z" fill="white"/>
<path id="Vector_210" d="M119.14 5.83141C119.566 6.33033 120.19 6.7929 121.098 7.13653C121.21 7.17948 121.336 7.18939 121.458 7.17617C122.812 6.99445 121.471 5.97679 120.141 4.83357C119.477 4.26197 118.572 5.17059 119.144 5.83141H119.14Z" fill="white"/>
<path id="Vector_211" d="M132.749 45.3516C132.419 45.4771 131.613 46.6732 132.749 47.2382C133.885 47.8032 133.901 44.9055 132.749 45.3516Z" fill="white"/>
<path id="Vector_212" d="M224.517 20.776C225.435 21.1824 226.603 21.4137 228.082 21.2948C228.267 21.2816 228.449 21.2122 228.604 21.1131C230.357 19.9698 227.835 19.4445 225.243 18.7374C223.952 18.3839 223.295 20.2342 224.52 20.776H224.517Z" fill="white"/>
<path id="Vector_213" d="M104.7 68.543C104.37 68.5199 103.201 69.2039 103.94 70.1455C104.677 71.0839 105.859 68.629 104.7 68.543Z" fill="white"/>
<path id="Vector_214" d="M90.0874 50.0735C89.8068 50.1826 89.1102 51.2068 90.0874 51.6925C91.0646 52.1782 91.0778 49.6902 90.0874 50.0735Z" fill="white"/>
<path id="Vector_215" d="M115.918 53.3477C115.538 53.4931 114.607 54.8709 115.918 55.5218C117.229 56.176 117.249 52.8323 115.918 53.3477Z" fill="white"/>
<path id="Vector_216" d="M75.4817 6.06598C74.5408 5.39195 73.2829 7.08695 74.3922 10.5628C75.5048 14.0421 78.7007 11.9374 76.9476 10.3415C75.1945 8.7489 76.3995 6.7235 75.4784 6.06268L75.4817 6.06598Z" fill="white"/>
<path id="Vector_217" d="M248.04 54.7587C248.466 55.2576 249.09 55.7201 249.998 56.0638C250.11 56.1067 250.235 56.1166 250.357 56.1034C251.711 55.9217 250.371 54.904 249.04 53.7608C248.376 53.1892 247.472 54.0978 248.043 54.7587H248.04Z" fill="white"/>
<path id="Vector_218" d="M109.368 247.902C108.615 247.423 107.694 248.236 108.103 249.032C108.754 250.295 109.814 251.461 111.537 252.105C116.625 254.012 113.204 248.933 110.398 248.325C110.012 248.243 109.668 248.094 109.365 247.899L109.368 247.902Z" fill="white"/>
<path id="Vector_219" d="M246.571 289.088C245.818 288.609 244.897 289.422 245.306 290.218C245.957 291.48 247.016 292.646 248.74 293.291C253.827 295.197 250.407 290.119 247.601 289.511C247.214 289.428 246.871 289.28 246.567 289.085L246.571 289.088Z" fill="white"/>
<path id="Vector_220" d="M62.2726 216.401C61.7377 216.632 61.8401 217.429 62.4178 217.498C63.339 217.61 64.3591 217.465 65.3397 216.771C68.2383 214.719 64.2403 214.703 62.8801 215.998C62.6919 216.176 62.4872 216.309 62.2726 216.401Z" fill="white"/>
</g>
<path id="Vector_221" d="M37.5509 338.243C31.2121 338.045 24.3252 337.083 20.7365 329.53C14.2921 315.967 5.3946 314.526 1.16211 321.551C1.30737 311.645 1.43283 299.529 1.54178 286.729C4.66497 287.251 8.82153 289.098 13.2851 294.249C20.5847 302.671 27.8842 298.026 35.0781 298.059C34.7546 298.634 34.4542 299.357 34.2066 300.263C33.9556 301.171 33.7575 302.268 33.6387 303.583C33.5958 304.036 33.5727 304.601 33.5694 305.262C29.8651 308.044 30.1887 314.543 34.4971 318.062C35.1012 325.205 36.0521 331.998 37.5509 338.243Z" fill="white"/>
<path id="Vector_222" d="M88.0999 339.433C84.0258 339.872 77.3239 332.296 71.9028 328.952C72.4707 325.456 72.956 322.043 73.3489 318.884C73.5635 317.176 73.7517 315.544 73.9068 314.014C79.4599 318.68 81.6125 328.123 86.7033 328.767C95.2839 329.857 94.1845 338.782 88.0999 339.433Z" fill="white"/>
<path id="Vector_223" d="M86.7033 352.276C80.9291 352.712 76.9508 369.16 66.8549 367.128C64.3755 366.629 62.4111 365.958 60.833 365.119C61.7706 364.497 62.6983 363.206 63.5996 361.402C64.2368 360.126 64.8674 358.596 65.4749 356.865C66.1979 354.83 66.8945 352.517 67.5581 350.016C67.8024 349.1 68.0434 348.159 68.2778 347.197C71.3548 350.472 75.9505 351.816 82.0186 348.357C97.6774 339.433 92.4743 351.843 86.7033 352.276Z" fill="white"/>
<path id="Vector_224" d="M60.2255 364.775C59.935 365.033 59.6444 365.228 59.3539 365.356C58.7101 365.584 57.8947 365.77 56.9735 365.898H56.9636C54.7649 366.212 51.9883 366.196 49.6971 365.677C49.2877 365.588 48.8948 365.479 48.5218 365.356C47.5808 365.01 46.6564 364.048 45.7716 362.598C44.9034 361.193 44.0714 359.34 43.2691 357.146C42.2985 354.479 41.384 351.314 40.5322 347.878L38.6008 339.066L38.5876 338.99C38.5414 338.749 38.4952 338.511 38.449 338.27C44.3817 338.398 49.6608 338.098 51.0507 342.274C54.5701 352.841 53.2627 360.628 60.2255 364.775Z" fill="white"/>
<path id="Vector_225" d="M70.9421 328.397C70.8166 329.177 70.6879 329.966 70.5558 330.756C69.9747 334.219 69.321 337.728 68.6046 341.121C68.2382 342.866 67.8585 344.58 67.4623 346.239C63.2959 340.87 62.5167 331.813 65.2866 328.549C66.6799 326.91 68.6673 327.188 70.9421 328.397Z" fill="white"/>
<path id="Vector_226" d="M73.3323 308.318C73.2432 309.772 73.1111 311.44 72.9295 313.268C69.1758 310.697 63.933 310.327 55.6133 315.554C46.2008 321.468 39.479 321.287 35.4611 318.756C35.0517 315.26 34.7579 312.085 34.5928 309.465C34.4707 307.555 34.4178 305.939 34.4377 304.713C34.4476 304.214 34.4674 303.778 34.5004 303.415C34.6192 302.1 34.8173 301.003 35.0682 300.091C35.2894 299.285 35.5503 298.624 35.8375 298.082C36.7718 296.298 37.9471 295.809 38.7197 295.7C38.7065 296.479 39.1323 296.998 39.3932 297.266C39.7695 297.643 40.235 298.003 40.7666 298.34C42.6913 299.569 45.5636 300.537 48.8222 301.072C51.1629 301.459 53.7051 301.627 56.2406 301.505C59.5553 301.346 62.8501 300.695 65.6696 299.417C66.9506 298.835 68.1358 298.122 69.1758 297.266C69.4234 297.061 69.8955 296.598 69.8129 295.868C71.1137 296.374 72.8833 298.062 73.3752 303.415C73.4743 304.489 73.4545 306.177 73.3323 308.318Z" fill="white"/>
<path id="Vector_227" d="M69.5324 69.7327C70.338 69.8087 71.0082 69.1116 70.9388 68.3021C70.8497 67.3108 70.7705 66.3427 70.7209 65.3746C70.6879 64.7468 70.7011 61.9185 72.7778 60.6828C73.2433 60.4053 73.9531 60.3425 74.4087 60.7952C74.9006 61.2842 75.1581 61.8525 75.1845 62.6025C75.2539 64.509 74.0323 67.3505 73.2202 69.029C72.8834 69.7261 73.2169 70.5753 73.9465 70.8297C74.0356 70.8627 74.1248 70.8958 74.2106 70.9321C75.3034 71.3848 76.4424 71.778 77.4295 72.409C78.1526 72.8716 78.8063 73.5952 79.2156 74.3485C79.4764 74.8276 79.4698 75.8023 79.1463 76.1559C78.7897 76.5458 77.895 76.6878 77.3074 76.5722C74.8841 76.103 73.5239 74.2924 72.3321 72.3264C72.3321 72.3231 72.3255 72.3198 72.3255 72.3132C71.926 71.6524 71.0676 71.4442 70.4337 71.8837C69.8527 72.2868 69.2749 72.6734 68.6608 72.9939C67.5515 73.5754 66.3663 74.0413 65.1778 74.4377C64.2699 74.7384 62.9229 73.9289 62.6951 72.9906C62.6125 72.6436 62.7083 72.1447 62.9163 71.8573C63.8209 70.6083 65.0886 69.9838 66.6304 69.855C67.6143 69.7724 68.5948 69.6402 69.5423 69.7294L69.5324 69.7327Z" fill="white"/>
<path id="Vector_228" d="M65.8215 121.977C66.5247 121.577 66.6765 120.619 66.1549 119.998C65.5144 119.235 64.8937 118.491 64.2995 117.725C63.9165 117.229 62.3021 114.903 63.2958 112.702C63.517 112.21 64.0618 111.747 64.6957 111.86C65.3791 111.979 65.9139 112.296 66.3662 112.894C67.5151 114.417 68.1424 117.444 68.4362 119.287C68.5584 120.051 69.3177 120.556 70.0639 120.348C70.1563 120.322 70.2454 120.298 70.3379 120.279C71.4901 120.021 72.6522 119.69 73.8209 119.641C74.6793 119.605 75.6268 119.823 76.3961 120.206C76.8847 120.45 77.436 121.25 77.3733 121.726C77.304 122.248 76.6536 122.879 76.1055 123.123C73.8506 124.128 71.6981 123.427 69.5983 122.499C69.595 122.499 69.5884 122.496 69.5851 122.492C68.8786 122.178 68.0566 122.502 67.7891 123.226C67.5448 123.887 67.2906 124.538 66.9737 125.155C66.3959 126.269 65.696 127.33 64.9466 128.337C64.3754 129.104 62.8072 129.216 62.0842 128.575C61.8168 128.337 61.6088 127.875 61.6154 127.518C61.6418 125.975 62.3219 124.736 63.5104 123.748C64.2698 123.117 64.9994 122.446 65.8248 121.977H65.8215Z" fill="white"/>
<path id="Vector_229" d="M213.975 69.7626C214.678 69.3628 214.83 68.4046 214.308 67.7834C213.668 67.0202 213.047 66.2767 212.453 65.5102C212.07 65.0146 210.456 62.6885 211.449 60.488C211.671 59.9957 212.215 59.5331 212.849 59.6454C213.533 59.7644 214.067 60.0816 214.52 60.6796C215.669 62.2028 216.296 65.2293 216.59 67.073C216.712 67.8363 217.471 68.3418 218.217 68.1336C218.31 68.1072 218.399 68.0841 218.491 68.0643C219.644 67.8065 220.806 67.4761 221.974 67.4266C222.833 67.3902 223.78 67.6083 224.55 67.9916C225.038 68.2361 225.59 69.0357 225.527 69.5114C225.458 70.0335 224.807 70.6646 224.259 70.9091C222.004 71.9135 219.852 71.2131 217.752 70.2846C217.749 70.2846 217.742 70.2813 217.739 70.278C217.032 69.9641 216.21 70.2879 215.943 71.0115C215.698 71.6723 215.444 72.3232 215.127 72.9411C214.549 74.0546 213.85 75.1152 213.1 76.1229C212.529 76.8895 210.961 77.0018 210.238 76.3608C209.97 76.1229 209.762 75.6604 209.769 75.3035C209.795 73.7605 210.475 72.5215 211.664 71.5335C212.423 70.9025 213.153 70.2317 213.978 69.7626H213.975Z" fill="white"/>
<path id="Vector_230" d="M155.807 48.3422C156.615 48.2927 157.17 47.4997 156.972 46.71C156.731 45.7452 156.5 44.8036 156.302 43.852C156.173 43.2374 155.744 40.4389 157.603 38.8991C158.019 38.5555 158.712 38.3771 159.23 38.7571C159.791 39.1635 160.135 39.6855 160.277 40.4223C160.64 42.2958 159.881 45.2893 159.336 47.0768C159.111 47.8169 159.574 48.6033 160.333 48.742C160.425 48.7586 160.518 48.7784 160.61 48.8015C161.759 49.0757 162.948 49.2872 164.021 49.7564C164.81 50.1 165.566 50.7113 166.087 51.3952C166.418 51.8281 166.563 52.7929 166.302 53.1893C166.011 53.6288 165.15 53.9096 164.549 53.8865C162.083 53.8006 160.455 52.2246 158.973 50.4668C158.973 50.4635 158.966 50.4602 158.963 50.4569C158.468 49.8654 157.586 49.796 157.028 50.328C156.516 50.817 156.005 51.2895 155.45 51.7025C154.443 52.4492 153.347 53.0935 152.234 53.6717C151.386 54.1112 149.927 53.5198 149.557 52.6309C149.422 52.3005 149.438 51.7917 149.6 51.4745C150.3 50.1 151.455 49.2872 152.954 48.9172C153.912 48.6826 154.862 48.3984 155.81 48.3389L155.807 48.3422Z" fill="white"/>
<path id="Vector_231" d="M231.945 146.827C232.648 146.427 232.8 145.469 232.278 144.848C231.638 144.085 231.017 143.341 230.423 142.575C230.04 142.079 228.426 139.753 229.419 137.552C229.641 137.06 230.185 136.598 230.819 136.71C231.503 136.829 232.037 137.146 232.49 137.744C233.639 139.267 234.266 142.294 234.56 144.137C234.682 144.901 235.441 145.406 236.187 145.198C236.28 145.172 236.369 145.149 236.461 145.129C237.614 144.871 238.776 144.541 239.944 144.491C240.803 144.455 241.75 144.673 242.52 145.056C243.008 145.301 243.56 146.1 243.497 146.576C243.428 147.098 242.777 147.729 242.229 147.974C239.974 148.978 237.822 148.277 235.722 147.349C235.719 147.349 235.712 147.346 235.709 147.342C235.002 147.029 234.18 147.352 233.913 148.076C233.668 148.737 233.414 149.388 233.097 150.006C232.519 151.119 231.82 152.18 231.07 153.187C230.499 153.954 228.931 154.066 228.208 153.425C227.94 153.187 227.732 152.725 227.739 152.368C227.765 150.825 228.445 149.586 229.634 148.598C230.393 147.967 231.123 147.296 231.948 146.827H231.945Z" fill="white"/>
<path id="Vector_232" d="M111.97 354.817C111.97 354.817 106.809 350.366 113.653 341.766C116.654 337.996 112.627 338.362 112.359 334.708C112.092 331.054 117.004 326.448 116.139 324.201C113.64 317.695 118.982 321.217 119.946 310.677C120.256 307.277 117.433 296.159 117.126 295.333C116.8 294.461 117.727 294.831 118.011 295.327C118.295 295.822 123.224 301.809 123.29 313.215C123.33 319.899 118.579 320.57 119.748 323.517C120.917 326.464 119.216 328.229 117.863 331.034C116.509 333.839 115.961 335.23 118.655 339.188C121.564 343.464 115.733 345.175 116.876 349.216C117.774 352.388 122.65 353.822 122.65 353.822L111.973 354.823L111.97 354.817Z" fill="white"/>
<path id="Vector_233" d="M12.0274 301.515C12.0274 301.515 6.86721 297.064 13.7112 288.464C16.7122 284.694 12.6844 285.061 12.417 281.406C12.1496 277.752 17.0622 273.146 16.1972 270.899C13.698 264.393 19.0397 267.916 20.0038 257.376C20.3141 253.976 17.4913 242.857 17.1843 242.031C16.8575 241.159 17.7852 241.529 18.0691 242.025C18.353 242.52 23.2821 248.507 23.3482 259.913C23.3878 266.597 18.637 267.268 19.8057 270.215C20.9744 273.163 19.2741 274.927 17.9205 277.732C16.5669 280.537 16.0189 281.928 18.7129 285.887C21.6215 290.162 15.7911 291.874 16.9334 295.914C17.8314 299.086 22.7077 300.52 22.7077 300.52L12.0307 301.522L12.0274 301.515Z" fill="white"/>
<path id="Vector_234" d="M254.9 321.445C254.045 318.376 257.228 316.648 257.488 314.107C257.571 313.317 257.37 312.451 256.683 311.44C253.989 307.479 254.537 306.088 255.894 303.286C257.247 300.484 258.948 298.716 257.779 295.769C256.61 292.822 261.361 292.154 261.321 285.47C261.259 274.065 256.33 268.077 256.046 267.582C255.762 267.086 254.834 266.716 255.161 267.588C255.468 268.415 258.291 279.533 257.98 282.933C257.016 293.469 251.675 289.951 254.174 296.456C255.039 298.703 250.126 303.309 250.394 306.963C250.661 310.618 254.689 310.251 251.688 314.021C250.909 315.002 250.285 315.927 249.793 316.8C245.956 323.58 250.007 327.072 250.007 327.072L253.669 326.728L254.9 321.445Z" fill="white"/>
<path id="Vector_235" d="M122.746 358.335L131.125 358.312C131.125 358.312 136.823 351.625 131.475 345.496C126.126 339.366 128.104 331.8 132.967 329.874C136.434 328.499 134.799 323.725 132.987 318.57C132.594 317.454 133.01 316.72 132.865 316.423C132.69 316.063 131.967 316.684 131.967 318.296C131.967 320.206 133.749 326.494 131.435 327.306C129.121 328.119 124.205 330.171 125.308 335.349C126.341 340.199 122.554 342.059 127.216 347.709C133.291 355.067 122.746 358.339 122.746 358.339V358.335Z" fill="white"/>
<path id="Vector_236" d="M104.574 355.011L97.7336 353.967C97.7336 353.967 93.8973 347.808 99.0113 343.457C104.125 339.105 103.435 332.686 99.7013 330.518C97.037 328.972 98.9551 325.274 101.065 321.283C101.524 320.417 101.273 319.77 101.428 319.545C101.616 319.274 102.128 319.869 101.933 321.184C101.699 322.743 99.4768 327.66 101.266 328.608C103.056 329.557 106.819 331.833 105.287 335.924C103.851 339.756 106.717 341.742 102.22 345.783C96.3635 351.05 104.574 355.011 104.574 355.011Z" fill="white"/>
<path id="Vector_237" d="M32.7275 301.237L27.2503 300.401C27.2503 300.401 24.1766 295.472 28.2738 291.989C32.3676 288.507 31.8163 283.365 28.8251 281.631C26.6924 280.395 28.2276 277.431 29.9179 274.24C30.2844 273.549 30.083 273.027 30.2084 272.849C30.357 272.63 30.7697 273.11 30.6112 274.16C30.4263 275.409 28.6468 279.344 30.0797 280.101C31.5125 280.858 34.5268 282.682 33.2986 285.956C32.1497 289.025 34.4442 290.611 30.8456 293.849C26.1575 298.065 32.7308 301.234 32.7308 301.234L32.7275 301.237Z" fill="white"/>
<path id="Vector_238" d="M248.175 339.33L241.334 338.286C241.334 338.286 237.498 332.127 242.612 327.776C247.726 323.424 247.036 317.004 243.302 314.837C240.638 313.291 242.556 309.593 244.666 305.602C245.125 304.736 244.874 304.089 245.029 303.864C245.217 303.593 245.729 304.188 245.534 305.503C245.3 307.062 243.078 311.979 244.867 312.927C246.656 313.875 250.42 316.152 248.888 320.242C247.452 324.075 250.318 326.061 245.821 330.102C239.964 335.368 248.175 339.33 248.175 339.33Z" fill="white"/>
</g>
<path id="Vector_239" d="M41.5953 48.0017L63.9463 23.1715C63.9463 23.1715 44.8242 15.3738 39.4593 30.2422C35.8177 44.278 36.7686 46.4951 36.7686 46.4951L32.272 43.6304C32.272 43.6304 33.0214 41.2316 31.1396 40.6435C29.2577 40.0554 28.5611 40.7294 28.5611 40.7294L32.6846 44.7703L34.5236 48.2198C34.5236 48.2198 15.6556 57.3391 33.368 77.993C41.3642 86.2069 41.46 85.4404 41.46 85.4404L39.7432 54.296C39.7432 54.296 45.7321 62.4604 57.9211 57.2201C70.1101 51.9799 70.0474 51.0184 70.0474 51.0184C70.0474 51.0184 49.9844 53.4436 41.5953 48.0017Z" fill="white"/>
<path id="Vector_240" d="M194.642 39.2624L199.643 17.4653C199.643 17.4653 185.926 19.1306 187.62 29.5715C190.049 38.9651 191.327 39.953 191.327 39.953L187.768 39.7415C187.768 39.7415 187.425 38.0928 186.134 38.3637C184.843 38.6313 184.655 39.2525 184.655 39.2525L188.382 40.2735L190.581 41.6942C190.581 41.6942 182.509 53.1693 199.581 59.4835C206.927 61.684 206.732 61.2049 206.732 61.2049L195.606 43.5478C195.606 43.5478 201.76 46.3728 207.187 39.3417C212.615 32.3073 212.265 31.7687 212.265 31.7687C212.265 31.7687 201.317 39.7184 194.642 39.2657V39.2624Z" fill="white"/>
</g>
<defs>
<clipPath id="clip0_1096_2880">
<rect width="267" height="403" fill="white"/>
</clipPath>
</defs>
</svg>
