<svg width="95" height="120" viewBox="0 0 95 120" fill="none" xmlns="http://www.w3.org/2000/svg">
<g id="unlockVector" clip-path="url(#clip0_908_6694)">
<path id="Vector" d="M89.6559 57.7555L88.1347 56.7306C85.0434 54.6418 83.0834 51.245 82.8201 47.5164L82.6933 45.6911C82.2155 38.839 76.15 33.7438 69.3239 34.4563L67.5003 34.6516C63.785 35.042 60.0989 33.695 57.5049 31.0108L56.2275 29.693C51.4589 24.754 43.5406 24.754 38.7721 29.693L37.4947 31.0108C35.8759 32.6799 33.8476 33.8316 31.6437 34.3685C28.9815 25.9839 32.7651 16.7013 40.898 12.7384C49.8304 8.38508 60.6059 12.104 64.9551 21.0449C64.9551 21.0449 64.9551 21.0644 64.9649 21.0742C65.706 22.6067 67.5003 23.2997 69.0216 22.5578L73.4098 20.4202C74.8823 19.6979 75.5356 17.9312 74.8238 16.4476C74.7945 16.389 74.7652 16.3304 74.7457 16.2719C67.7636 1.90387 50.474 -4.06977 36.1294 2.92876C23.9204 8.88289 17.7867 22.3138 20.5464 35.0322C16.0607 36.5549 12.6769 40.635 12.3161 45.6813L12.1893 47.5066C11.926 51.2352 9.96592 54.632 6.87466 56.7209L5.35341 57.7457C-0.341515 61.5915 -1.70674 69.3905 2.32067 74.9541L3.39335 76.4378C5.58745 79.4637 6.27006 83.329 5.2364 86.921L4.72931 88.6877C2.8375 95.2958 6.79665 102.158 13.457 103.817L15.2318 104.266C18.8496 105.174 21.8531 107.692 23.3744 111.108L24.1155 112.787C26.9142 119.063 34.3449 121.777 40.5177 118.761L42.1657 117.96C45.5202 116.321 49.4404 116.321 52.7949 117.96L54.4429 118.761C60.6157 121.767 68.0561 119.063 70.8451 112.787L71.5862 111.108C73.1075 107.692 76.111 105.174 79.7288 104.266L81.5036 103.817C88.1639 102.148 92.1231 95.2958 90.2313 88.6877L89.7242 86.921C88.7003 83.329 89.3829 79.4637 91.5672 76.4378L92.6399 74.9541C96.6771 69.3905 95.3021 61.5915 89.6072 57.7457L89.6559 57.7555Z" fill="black"/>
<path id="Vector_2" d="M53.1852 87.4179H41.3565C40.5471 87.4179 39.9815 86.6273 40.2351 85.866C41.3858 82.4106 43.7554 75.3047 44.5843 72.8743C44.8086 72.2105 44.8573 71.7713 44.0772 71.3516C41.337 69.8777 39.962 67.2618 40.3716 64.5482C40.8104 61.6298 42.8973 59.4433 45.8812 58.7503C48.875 58.0573 51.976 59.1895 53.6338 61.5712C55.2135 63.8552 55.2915 66.8713 53.6338 69.1066C52.9804 69.9948 52.0638 70.7854 51.0984 71.3321C50.2402 71.8201 50.1719 72.2398 50.4352 73.0792C51.4982 76.4663 53.4485 82.9377 54.3261 85.8952C54.5504 86.6566 53.9848 87.4082 53.1949 87.4082L53.1852 87.4179Z" fill="white"/>
</g>
<defs>
<clipPath id="clip0_908_6694">
<rect width="95" height="120" fill="white"/>
</clipPath>
</defs>
</svg>
